<?xml version="1.0" encoding="UTF-8"?>
<!DOCTYPE svg PUBLIC "-//W3C//DTD SVG 1.1//EN" "http://www.w3.org/Graphics/SVG/1.1/DTD/svg11.dtd">
<svg xmlns="http://www.w3.org/2000/svg" version="1.1" width="2022px" height="1970px" style="shape-rendering:geometricPrecision; text-rendering:geometricPrecision; image-rendering:optimizeQuality; fill-rule:evenodd; clip-rule:evenodd" xmlns:xlink="http://www.w3.org/1999/xlink">
<g><path style="opacity:0.888" fill="#84aeff" d="M 1453.5,573.5 C 1479.71,570.96 1503.37,577.46 1524.5,593C 1549.07,614.581 1567.9,640.415 1581,670.5C 1602.23,720.205 1616.57,771.872 1624,825.5C 1649.77,1022.3 1638.44,1216.96 1590,1409.5C 1570.49,1487.5 1541.82,1561.83 1504,1632.5C 1478.92,1677.93 1446.75,1717.76 1407.5,1752C 1335.75,1807.76 1257.42,1818.76 1172.5,1785C 1130.15,1767 1091.15,1743.67 1055.5,1715C 990.663,1661.17 933.163,1600.67 883,1533.5C 846.962,1494.75 807.795,1459.58 765.5,1428C 656.191,1348.34 536.857,1287.01 407.5,1244C 327.456,1213.32 252.789,1173.32 183.5,1124C 159.486,1105.99 137.319,1085.83 117,1063.5C 101.51,1045.86 88.5104,1026.53 78,1005.5C 56.3968,957.115 59.0635,910.115 86,864.5C 109.125,831.042 137.291,802.542 170.5,779C 235.083,734.877 304.75,700.543 379.5,676C 424.421,661.725 470.421,655.392 517.5,657C 557.942,659.038 596.276,669.038 632.5,687C 648.63,695.565 664.297,704.898 679.5,715C 775.5,786.333 871.5,857.667 967.5,929C 986.614,929.592 1005.28,926.926 1023.5,921C 1058.67,907.917 1091.01,889.917 1120.5,867C 1172.53,824.304 1220.7,777.471 1265,726.5C 1290.97,693.515 1318.81,662.015 1348.5,632C 1369.02,612.493 1392.02,596.493 1417.5,584C 1429.24,579.136 1441.24,575.636 1453.5,573.5 Z M 652.5,703.5 C 594.272,678.34 533.938,671.84 471.5,684C 435.797,690.925 401.13,701.258 367.5,715C 321.451,734.355 277.451,757.355 235.5,784C 201.917,805.914 172.417,832.414 147,863.5C 109.158,915.617 105.825,969.95 137,1026.5C 152.813,1051.66 171.646,1074.5 193.5,1095C 233.923,1130.41 277.923,1160.74 325.5,1186C 364.545,1206.52 404.545,1224.86 445.5,1241C 565.383,1280.77 676.383,1337.11 778.5,1410C 818.658,1439.14 856.158,1471.64 891,1507.5C 929.528,1556.71 971.028,1603.54 1015.5,1648C 1045.15,1675.99 1076.81,1701.33 1110.5,1724C 1137.98,1741.74 1167.31,1755.74 1198.5,1766C 1278.44,1789.59 1349.44,1773.93 1411.5,1719C 1449.55,1683.28 1480.38,1642.11 1504,1595.5C 1541.59,1520.05 1569.26,1441.05 1587,1358.5C 1622.97,1194.77 1631.63,1029.77 1613,863.5C 1607.22,815.376 1596.55,768.376 1581,722.5C 1570.58,691.323 1555.25,662.99 1535,637.5C 1498.45,596.19 1455.28,587.69 1405.5,612C 1389.64,620.76 1374.64,630.76 1360.5,642C 1353.17,648.667 1345.83,655.333 1338.5,662C 1314.95,687.549 1292.12,713.716 1270,740.5C 1236.6,779.57 1200.76,816.404 1162.5,851C 1132.76,877.371 1100.42,900.037 1065.5,919C 1038.81,932.755 1010.48,939.422 980.5,939C 978.208,937.71 976.208,936.043 974.5,934C 1015.96,930.257 1053.96,916.924 1088.5,894C 1120.85,872.666 1151.18,848.666 1179.5,822C 1231.66,770.858 1280.49,717.025 1326,660.5C 1350.3,633.839 1377.8,611.339 1408.5,593C 1459.53,565.406 1504.36,573.24 1543,616.5C 1559.04,636.554 1572.04,658.554 1582,682.5C 1598.13,722.889 1609.79,764.556 1617,807.5C 1631.57,896.494 1636.9,985.828 1633,1075.5C 1629,1201.17 1610,1324.51 1576,1445.5C 1556.33,1514.15 1529,1579.48 1494,1641.5C 1473.14,1676 1448.31,1707.5 1419.5,1736C 1392.91,1760.97 1362.24,1779.3 1327.5,1791C 1283.74,1803.43 1240.07,1802.77 1196.5,1789C 1160.72,1777.44 1127.38,1761.11 1096.5,1740C 1047.75,1705.93 1003.25,1666.76 963,1622.5C 933.478,1589.76 905.145,1556.09 878,1521.5C 826.768,1469.23 770.602,1423.4 709.5,1384C 646.733,1343.28 580.733,1308.28 511.5,1279C 463.343,1260.73 415.343,1242.06 367.5,1223C 295.882,1192.72 229.549,1154.05 168.5,1107C 138.403,1082.24 112.569,1053.74 91,1021.5C 55.2629,958.726 60.2629,899.392 106,843.5C 134.365,811.255 166.865,784.089 203.5,762C 263.014,725.249 326.348,696.582 393.5,676C 445.73,660.722 498.73,657.055 552.5,665C 588.569,671.291 621.902,684.124 652.5,703.5 Z M 681.5,724.5 C 625.154,700.33 566.821,694.164 506.5,706C 471.568,713.311 437.568,723.644 404.5,737C 364.993,754.085 326.993,773.751 290.5,796C 254.626,818.21 223.459,845.71 197,878.5C 161.57,929.269 159.237,981.602 190,1035.5C 206.176,1061.69 226.009,1084.85 249.5,1105C 303.379,1149.13 362.379,1185.47 426.5,1214C 472.624,1233.71 519.291,1252.04 566.5,1269C 666.432,1310.27 758.432,1364.27 842.5,1431C 868.564,1452.39 893.064,1475.56 916,1500.5C 965.327,1566.5 1022.16,1625.33 1086.5,1677C 1121.13,1704.16 1159.47,1724.82 1201.5,1739C 1277.83,1761.87 1345.83,1747.2 1405.5,1695C 1439.8,1662.72 1467.97,1625.89 1490,1584.5C 1519.98,1527.18 1543.32,1467.18 1560,1404.5C 1605.93,1229.11 1618.6,1052.11 1598,873.5C 1591.52,818.914 1577.85,766.248 1557,715.5C 1547.5,693.803 1535,674.136 1519.5,656.5C 1488.68,624.214 1452.35,616.047 1410.5,632C 1384.78,643.727 1361.78,659.394 1341.5,679C 1332.66,687.503 1324.16,696.337 1316,705.5C 1269.41,764.432 1218.24,819.266 1162.5,870C 1136.37,892.785 1108.04,912.452 1077.5,929C 1054.21,940.823 1029.54,947.656 1003.5,949.5C 1000.5,949.333 997.5,949.167 994.5,949C 992.167,947.333 989.833,945.667 987.5,944C 1011.84,942.415 1035.17,936.748 1057.5,927C 1085.93,913.867 1112.27,897.534 1136.5,878C 1185.93,837.236 1231.43,792.403 1273,743.5C 1296.68,713.812 1321.85,685.312 1348.5,658C 1368.36,639.152 1390.69,623.819 1415.5,612C 1451.41,595.919 1484.74,599.919 1515.5,624C 1538.56,645.587 1556.06,671.087 1568,700.5C 1584.33,740.493 1596,781.826 1603,824.5C 1616.77,909.312 1621.77,994.645 1618,1080.5C 1614.07,1199.69 1596.07,1316.69 1564,1431.5C 1545.26,1498.63 1518.59,1562.3 1484,1622.5C 1381.29,1790.24 1249.46,1817.41 1088.5,1704C 1042.59,1669.2 1000.43,1630.04 962,1586.5C 938.285,1559.39 915.285,1531.72 893,1503.5C 858.158,1467.64 820.658,1435.14 780.5,1406C 704.886,1352.01 623.886,1307.01 537.5,1271C 493.264,1254.59 449.264,1237.59 405.5,1220C 347.239,1194.71 292.239,1164.05 240.5,1128C 204.707,1102.54 173.874,1072.04 148,1036.5C 109.678,979.799 110.011,923.465 149,867.5C 168.246,842.254 190.746,820.42 216.5,802C 285.95,753.447 361.616,717.447 443.5,694C 499.789,679.175 556.123,678.842 612.5,693C 637.144,700.329 660.144,710.829 681.5,724.5 Z M 1442.5,627.5 C 1472.29,626.814 1497.12,637.48 1517,659.5C 1537.81,684.427 1553.47,712.427 1564,743.5C 1583.64,803.645 1595.64,865.312 1600,928.5C 1611.87,1092.48 1596.2,1254.48 1553,1414.5C 1536.83,1471.68 1515.16,1526.68 1488,1579.5C 1463.64,1626.19 1431.47,1666.69 1391.5,1701C 1329.16,1748.61 1261.16,1758.27 1187.5,1730C 1160.74,1719.29 1135.41,1705.96 1111.5,1690C 1059.69,1652.87 1012.86,1610.04 971,1561.5C 949.623,1536.46 928.623,1511.12 908,1485.5C 861.13,1438.69 809.963,1397.53 754.5,1362C 669.717,1308.61 579.717,1265.94 484.5,1234C 427.539,1212.02 373.206,1185.02 321.5,1153C 283.79,1129.3 249.623,1101.14 219,1068.5C 200.102,1047.04 186.102,1022.71 177,995.5C 167.463,959.385 172.463,925.385 192,893.5C 205.95,872.542 222.45,853.709 241.5,837C 309.573,783.791 385.24,744.457 468.5,719C 521.2,702.983 574.533,700.316 628.5,711C 657.105,717.646 683.772,728.646 708.5,744C 694.758,738.975 680.758,734.308 666.5,730C 622.062,720.218 577.562,720.051 533,729.5C 498.41,737.475 464.91,748.641 432.5,763C 383.011,784.398 337.011,811.398 294.5,844C 273.461,860.7 255.628,880.2 241,902.5C 213.694,948.765 213.694,995.099 241,1041.5C 257.532,1067.04 277.365,1089.88 300.5,1110C 354.59,1153.74 413.923,1189.41 478.5,1217C 519.165,1233.83 560.165,1249.83 601.5,1265C 713.424,1310.71 814.091,1373.71 903.5,1454C 924.838,1475 944.338,1497.5 962,1521.5C 999.833,1567.33 1041.67,1609.17 1087.5,1647C 1115.2,1668.86 1145.2,1687.19 1177.5,1702C 1259.43,1738.06 1334.09,1727.06 1401.5,1669C 1434.29,1637.89 1461.12,1602.39 1482,1562.5C 1515.17,1497.99 1539.84,1430.33 1556,1359.5C 1593.53,1200.02 1602.2,1039.02 1582,876.5C 1575.87,832.998 1565.21,790.664 1550,749.5C 1540.22,724.594 1526.89,701.927 1510,681.5C 1482.59,651.355 1449.42,642.521 1410.5,655C 1386.21,664.652 1364.54,678.319 1345.5,696C 1318.15,723.01 1292.65,751.51 1269,781.5C 1228.33,829.178 1183.49,872.345 1134.5,911C 1110.32,928.923 1083.99,942.923 1055.5,953C 1039.88,958.119 1023.88,960.119 1007.5,959C 1005.17,957.333 1002.83,955.667 1000.5,954C 1022.38,953.279 1043.38,948.612 1063.5,940C 1088.95,928.785 1112.62,914.785 1134.5,898C 1152.09,884.418 1169.09,870.085 1185.5,855C 1232.66,809.527 1276.49,761.36 1317,710.5C 1328.83,697.333 1341.33,684.833 1354.5,673C 1374.85,654.985 1397.85,641.319 1423.5,632C 1429.95,630.415 1436.28,628.915 1442.5,627.5 Z M 728.5,761.5 C 691.151,747.164 652.485,741.664 612.5,745C 565.208,750.156 519.874,762.49 476.5,782C 427.675,803.066 382.342,829.733 340.5,862C 322.135,877.357 306.302,894.857 293,914.5C 265.567,959.978 265.9,1005.31 294,1050.5C 310.219,1075.06 329.719,1096.9 352.5,1116C 403.836,1156.56 459.836,1189.9 520.5,1216C 563.421,1232.86 606.421,1249.53 649.5,1266C 751.381,1309.4 843.048,1368.06 924.5,1442C 945.831,1463.99 965.665,1487.16 984,1511.5C 1015.52,1548.02 1049.35,1582.19 1085.5,1614C 1113.95,1637.74 1144.95,1657.74 1178.5,1674C 1258.5,1710.6 1331.5,1700.27 1397.5,1643C 1434.79,1606.36 1464.29,1564.2 1486,1516.5C 1528.25,1420.72 1555.25,1320.72 1567,1216.5C 1577.95,1130.75 1580.61,1044.75 1575,958.5C 1571.4,896.571 1559.73,836.238 1540,777.5C 1530.59,752.003 1517.59,728.67 1501,707.5C 1474.12,676.571 1441.28,667.738 1402.5,681C 1378.86,690.639 1357.86,704.305 1339.5,722C 1314.24,747.09 1290.74,773.59 1269,801.5C 1240.17,833.659 1210.01,864.493 1178.5,894C 1154.5,914.661 1128.84,932.995 1101.5,949C 1077.89,961.693 1052.73,968.86 1026,970.5C 1021.84,968.999 1018,966.832 1014.5,964C 1037.58,963.064 1059.58,957.73 1080.5,948C 1103.49,936.649 1125.16,923.316 1145.5,908C 1176.17,883.008 1205.33,856.174 1233,827.5C 1267.42,789.469 1301.26,750.969 1334.5,712C 1350.73,696.097 1368.39,682.097 1387.5,670C 1438.64,640.879 1481.81,649.712 1517,696.5C 1539.98,731.419 1555.98,769.419 1565,810.5C 1581.71,885.051 1589.87,960.551 1589.5,1037C 1589.12,1159.23 1573.28,1279.4 1542,1397.5C 1526.83,1453 1506.17,1506.33 1480,1557.5C 1457.27,1601.45 1427.43,1639.95 1390.5,1673C 1336.4,1717.29 1275.74,1729.29 1208.5,1709C 1172.8,1696.99 1139.8,1679.99 1109.5,1658C 1069.26,1627.77 1032.1,1593.94 998,1556.5C 973,1526.83 948,1497.17 923,1467.5C 869.5,1414.69 810.333,1369.53 745.5,1332C 698.292,1304.23 649.292,1279.9 598.5,1259C 559.168,1244.83 520.168,1229.83 481.5,1214C 434.72,1193.28 390.054,1168.95 347.5,1141C 320.944,1122.79 296.444,1101.96 274,1078.5C 254.445,1057.58 239.778,1033.58 230,1006.5C 219.676,970.763 224.342,937.097 244,905.5C 258.628,883.2 276.461,863.7 297.5,847C 361.894,798.635 432.894,762.635 510.5,739C 559.391,724.99 608.725,722.657 658.5,732C 681.975,737.714 704.308,746.381 725.5,758C 726.71,759.039 727.71,760.206 728.5,761.5 Z M 1428.5,678.5 C 1457.24,678.288 1480.74,689.288 1499,711.5C 1523.18,743.864 1539.84,779.864 1549,819.5C 1563.16,876.639 1571.16,934.639 1573,993.5C 1577.9,1121.76 1564.56,1248.1 1533,1372.5C 1515.91,1439.79 1490.25,1503.45 1456,1563.5C 1434.59,1599.92 1407.09,1631.08 1373.5,1657C 1330.32,1687.84 1282.65,1697.84 1230.5,1687C 1199.04,1679.52 1169.71,1667.19 1142.5,1650C 1114.45,1631.96 1088.12,1611.63 1063.5,1589C 1044.64,1570.47 1026.14,1551.64 1008,1532.5C 984.624,1505.46 961.624,1478.13 939,1450.5C 891.445,1404.27 839.278,1364.1 782.5,1330C 708.655,1285.75 630.655,1250.09 548.5,1223C 480.547,1196.37 417.88,1161.04 360.5,1117C 335.044,1096.55 313.544,1072.72 296,1045.5C 267.937,996.479 270.937,949.479 305,904.5C 331.732,872.42 363.232,846.254 399.5,826C 435.645,805.097 473.311,787.097 512.5,772C 552.192,757.095 593.192,748.928 635.5,747.5C 672.309,747.952 707.309,756.119 740.5,772C 742.5,774 744.5,776 746.5,778C 709.66,766.439 671.994,763.106 633.5,768C 585.505,775.502 539.839,790.168 496.5,812C 455.697,830.889 418.031,854.556 383.5,883C 366.359,898.459 351.859,915.959 340,935.5C 319.045,977.246 321.045,1017.91 346,1057.5C 368.806,1090.31 396.639,1118.14 429.5,1141C 471.053,1169.45 515.053,1193.78 561.5,1214C 593.521,1227.12 625.854,1239.45 658.5,1251C 764.503,1293.15 859.503,1352.15 943.5,1428C 961.134,1445.63 977.301,1464.46 992,1484.5C 1027.87,1528.7 1068.04,1568.54 1112.5,1604C 1145.6,1630.39 1182.6,1649.72 1223.5,1662C 1284.67,1676.71 1339,1663.71 1386.5,1623C 1417.33,1594.82 1442.49,1562.32 1462,1525.5C 1492.18,1466.29 1514.85,1404.29 1530,1339.5C 1563.54,1195.83 1571.21,1050.83 1553,904.5C 1547.73,866.134 1538.39,828.801 1525,792.5C 1516.73,770.616 1505.4,750.616 1491,732.5C 1466.54,703.347 1436.04,694.18 1399.5,705C 1379.11,712.755 1360.78,723.755 1344.5,738C 1335.36,746.136 1326.53,754.636 1318,763.5C 1292.41,794.424 1266.08,824.758 1239,854.5C 1210.26,884.923 1179.42,912.756 1146.5,938C 1123.56,954.639 1098.56,967.306 1071.5,976C 1059.67,979.014 1047.67,980.348 1035.5,980C 1032.83,978 1030.17,976 1027.5,974C 1056.41,972.356 1083.41,964.356 1108.5,950C 1134.85,934.32 1159.52,916.32 1182.5,896C 1231.18,850.988 1276.02,802.488 1317,750.5C 1337.58,727.229 1361.08,707.729 1387.5,692C 1400.6,685.356 1414.26,680.856 1428.5,678.5 Z M 763.5,795.5 C 715.49,784.293 667.824,785.793 620.5,800C 560.819,818.509 505.486,845.509 454.5,881C 436.386,894.78 419.886,910.28 405,927.5C 370.768,972.421 368.768,1018.75 399,1066.5C 421.96,1098.46 449.793,1125.29 482.5,1147C 523.274,1173.89 566.274,1196.89 611.5,1216C 656.396,1232.28 700.729,1249.95 744.5,1269C 819.751,1304.77 888.751,1349.77 951.5,1404C 976.567,1428.05 999.4,1453.88 1020,1481.5C 1048.53,1514.37 1079.37,1544.87 1112.5,1573C 1143.46,1598.82 1178.13,1618.49 1216.5,1632C 1282.21,1651.49 1339.88,1637.82 1389.5,1591C 1424.25,1555.38 1451.41,1514.54 1471,1468.5C 1505.68,1386.13 1528.01,1300.46 1538,1211.5C 1549.81,1117.57 1550.48,1023.57 1540,929.5C 1534.73,883.432 1523.07,839.098 1505,796.5C 1494.98,773.833 1480.48,754.666 1461.5,739C 1439.27,724.295 1415.6,721.628 1390.5,731C 1368.64,740.759 1348.97,753.759 1331.5,770C 1311.18,790.315 1292.34,811.815 1275,834.5C 1238.32,878.183 1197.49,917.349 1152.5,952C 1132.92,966.124 1111.59,977.124 1088.5,985C 1076.09,988.801 1063.43,990.467 1050.5,990C 1047.83,988.333 1045.17,986.667 1042.5,985C 1071.48,982.006 1098.48,973.006 1123.5,958C 1151.82,940.329 1178.15,919.995 1202.5,897C 1243.96,856.891 1282.46,814.391 1318,769.5C 1335.86,749.689 1356.02,732.856 1378.5,719C 1424.99,693.168 1463.83,701.668 1495,744.5C 1511.36,769.558 1523.69,796.558 1532,825.5C 1547.46,882.807 1556.12,941.14 1558,1000.5C 1563.07,1126.9 1549.4,1251.24 1517,1373.5C 1501.84,1430.67 1479.84,1485 1451,1536.5C 1363.8,1680.79 1252.3,1702.62 1116.5,1602C 1083.73,1576.15 1053.23,1547.65 1025,1516.5C 1004.91,1493.75 985.579,1470.42 967,1446.5C 913.431,1392.24 853.598,1346.4 787.5,1309C 726.605,1274.48 662.938,1246.14 596.5,1224C 541.124,1202.48 488.791,1175.48 439.5,1143C 415.906,1126.75 394.072,1108.25 374,1087.5C 360.32,1072.48 348.987,1055.81 340,1037.5C 322.596,997.227 326.596,959.227 352,923.5C 370.992,899.171 393.159,878.338 418.5,861C 468.293,828.44 521.626,802.774 578.5,784C 621.014,770.304 664.347,766.637 708.5,773C 724.292,775.781 739.626,780.114 754.5,786C 757.704,789.036 760.704,792.203 763.5,795.5 Z M 1411.5,729.5 C 1430.56,728.134 1447.56,733.301 1462.5,745C 1479.68,760.171 1492.85,778.338 1502,799.5C 1522.18,848.889 1534.51,900.223 1539,953.5C 1551.12,1089.72 1540.12,1224.06 1506,1356.5C 1492.58,1406.44 1474.24,1454.44 1451,1500.5C 1430.85,1538.99 1404.35,1572.49 1371.5,1601C 1331.03,1632.45 1285.7,1643.12 1235.5,1633C 1206.46,1625.98 1179.46,1614.31 1154.5,1598C 1111.1,1568.62 1071.94,1534.12 1037,1494.5C 1018.29,1472.79 999.957,1450.79 982,1428.5C 938.131,1384.19 889.631,1346.02 836.5,1314C 794.85,1288.84 751.516,1266.84 706.5,1248C 670.944,1234.89 635.611,1221.22 600.5,1207C 546.707,1183.8 497.041,1154.13 451.5,1118C 430.844,1100.78 413.344,1080.95 399,1058.5C 376.58,1021.54 375.913,984.206 397,946.5C 408.613,928.807 422.447,912.974 438.5,899C 477.599,868.614 519.933,843.614 565.5,824C 609.735,804.191 656.068,793.358 704.5,791.5C 727.431,791.877 749.765,795.711 771.5,803C 775.167,806.667 778.833,810.333 782.5,814C 748.103,807.564 713.769,808.231 679.5,816C 609.043,834.232 545.043,865.232 487.5,909C 466.836,925.653 450.669,945.82 439,969.5C 428.034,996.005 427.701,1022.67 438,1049.5C 445.922,1065.69 455.588,1080.69 467,1094.5C 497.84,1126.69 532.673,1153.53 571.5,1175C 592.942,1187.05 614.942,1198.05 637.5,1208C 669.276,1220.93 701.276,1233.26 733.5,1245C 823.06,1281.41 903.726,1331.41 975.5,1395C 982.667,1402.17 989.833,1409.33 997,1416.5C 1024.27,1451.78 1053.77,1485.28 1085.5,1517C 1116.97,1548.06 1152.31,1573.73 1191.5,1594C 1272.67,1630.7 1342.51,1615.53 1401,1548.5C 1433.15,1508.56 1457.81,1464.22 1475,1415.5C 1507.26,1323.56 1525.92,1228.89 1531,1131.5C 1535.5,1062.55 1532.83,993.885 1523,925.5C 1517.13,882.665 1504.46,841.998 1485,803.5C 1476.38,787.548 1464.88,774.048 1450.5,763C 1427.75,749.585 1404.08,747.918 1379.5,758C 1363.97,765.591 1349.64,774.924 1336.5,786C 1327,795.5 1317.5,805 1308,814.5C 1276.75,854.367 1242.58,891.867 1205.5,927C 1184.54,946.633 1161.87,963.967 1137.5,979C 1116.27,991.91 1093.27,999.076 1068.5,1000.5C 1066.17,1000.33 1063.83,1000.17 1061.5,1000C 1059.83,998.333 1058.17,996.667 1056.5,995C 1084.15,992.118 1109.81,983.452 1133.5,969C 1168.87,946.654 1201.04,920.154 1230,889.5C 1260.46,857.711 1289.46,824.711 1317,790.5C 1333.45,772.366 1351.95,756.866 1372.5,744C 1384.78,736.855 1397.78,732.021 1411.5,729.5 Z M 1411.5,754.5 C 1435.39,756.696 1454.56,767.363 1469,786.5C 1489.39,816.655 1503.39,849.655 1511,885.5C 1524.51,949.49 1530.68,1013.99 1529.5,1079C 1527.69,1172 1514.85,1263.5 1491,1353.5C 1476.03,1409.09 1453.7,1461.43 1424,1510.5C 1403.52,1542.65 1377.35,1569.15 1345.5,1590C 1312.25,1608.74 1276.92,1614.07 1239.5,1606C 1212.28,1599.6 1186.94,1588.93 1163.5,1574C 1138.04,1556.93 1114.04,1537.93 1091.5,1517C 1058.1,1483.62 1026.94,1448.45 998,1411.5C 956.575,1370.57 911.075,1335.07 861.5,1305C 804.414,1270.29 744.08,1242.29 680.5,1221C 616.97,1197.37 558.303,1165.37 504.5,1125C 484.354,1108.18 466.854,1089.01 452,1067.5C 429.849,1031.73 428.849,995.397 449,958.5C 464.082,936.083 482.582,916.917 504.5,901C 557.818,863.513 616.151,836.513 679.5,820C 706.889,813.654 734.556,811.988 762.5,815C 771.714,816.109 780.714,818.109 789.5,821C 792.798,825.3 796.465,829.3 800.5,833C 763.45,829.227 727.116,832.894 691.5,844C 631.368,863.222 577.034,892.556 528.5,932C 469.95,986.77 467.45,1043.94 521,1103.5C 550.172,1132.99 583.005,1157.49 619.5,1177C 666.668,1202.08 715.668,1223.08 766.5,1240C 852.146,1274.75 929.146,1322.75 997.5,1384C 1005.7,1391.86 1013.53,1400.03 1021,1408.5C 1054.28,1453.11 1092.44,1493.28 1135.5,1529C 1156.7,1545.78 1179.7,1559.78 1204.5,1571C 1238.32,1586.24 1273.32,1589.91 1309.5,1582C 1330.68,1575.91 1349.68,1565.91 1366.5,1552C 1395,1527.18 1417.83,1498.02 1435,1464.5C 1458.73,1417.64 1476.73,1368.64 1489,1317.5C 1518.16,1195.79 1525.16,1073.13 1510,949.5C 1505.26,914.796 1496.59,881.129 1484,848.5C 1449.69,767.881 1398.86,755.381 1331.5,811C 1312.52,829.307 1295.02,848.807 1279,869.5C 1247.43,907.071 1212.6,941.237 1174.5,972C 1155.13,986.189 1134.13,997.522 1111.5,1006C 1100.06,1009.39 1088.39,1010.72 1076.5,1010C 1074.17,1008.33 1071.83,1006.67 1069.5,1005C 1096.14,1002.45 1120.8,994.121 1143.5,980C 1166.59,965.248 1188.26,948.581 1208.5,930C 1245.02,895.01 1278.85,857.844 1310,818.5C 1329.99,795.169 1353.49,776.336 1380.5,762C 1390.63,758.05 1400.96,755.55 1411.5,754.5 Z M 820.5,853.5 C 789.816,852.003 759.816,855.836 730.5,865C 676.517,882.653 627.184,908.653 582.5,943C 572.266,952.564 562.766,962.731 554,973.5C 528.077,1011.14 528.077,1048.81 554,1086.5C 575.089,1114.93 600.589,1138.43 630.5,1157C 659.505,1175.34 689.838,1191.34 721.5,1205C 749.676,1216.39 778.009,1227.39 806.5,1238C 884.598,1270.52 954.932,1314.85 1017.5,1371C 1024.31,1378.14 1031.14,1385.31 1038,1392.5C 1069.03,1433.53 1104.2,1470.7 1143.5,1504C 1168.94,1524.89 1197.28,1540.89 1228.5,1552C 1279.93,1567.52 1325.93,1557.85 1366.5,1523C 1395.55,1495.28 1418.38,1463.11 1435,1426.5C 1466.07,1355.21 1486.07,1280.88 1495,1203.5C 1505.64,1124.86 1505.98,1046.19 1496,967.5C 1491.25,924.14 1478.91,883.14 1459,844.5C 1449.78,828.282 1436.95,815.782 1420.5,807C 1404.2,801.06 1387.87,801.06 1371.5,807C 1354.49,814.499 1339.16,824.499 1325.5,837C 1306.88,855.943 1289.38,875.776 1273,896.5C 1244.41,929.754 1212.91,959.92 1178.5,987C 1161.59,999.219 1143.25,1008.89 1123.5,1016C 1112.44,1019.73 1101.11,1021.07 1089.5,1020C 1087.17,1018.33 1084.83,1016.67 1082.5,1015C 1109.31,1012.28 1133.98,1003.62 1156.5,989C 1188.31,967.541 1217.48,942.708 1244,914.5C 1266.41,890.091 1288.08,865.091 1309,839.5C 1317.83,830.667 1326.67,821.833 1335.5,813C 1351.4,798.455 1369.73,788.122 1390.5,782C 1416.13,777.764 1437.29,785.598 1454,805.5C 1469.25,824.99 1480.58,846.657 1488,870.5C 1501.39,914.861 1509.39,960.195 1512,1006.5C 1518.7,1116.51 1508.36,1225.18 1481,1332.5C 1468.47,1380.77 1450.47,1426.77 1427,1470.5C 1409.33,1502.18 1386.49,1529.68 1358.5,1553C 1318.42,1582.74 1274.42,1590.08 1226.5,1575C 1200.07,1566.2 1175.73,1553.53 1153.5,1537C 1104.26,1499.09 1061.09,1455.26 1024,1405.5C 993.119,1372.27 958.952,1343.1 921.5,1318C 856.138,1274.09 785.804,1239.76 710.5,1215C 653.751,1193.47 601.418,1164.47 553.5,1128C 530.671,1109.51 511.837,1087.68 497,1062.5C 481.902,1031.13 483.235,1000.47 501,970.5C 516.473,948.361 535.306,929.527 557.5,914C 605.83,880.841 658.496,856.841 715.5,842C 745.648,834.754 775.981,833.754 806.5,839C 811.37,843.702 816.037,848.535 820.5,853.5 Z M 1396.5,805.5 C 1409.98,806.16 1421.98,810.66 1432.5,819C 1450.16,836.016 1463,856.183 1471,879.5C 1483.43,915.872 1491.43,953.206 1495,991.5C 1505.19,1105.87 1495.52,1218.54 1466,1329.5C 1452.25,1382.47 1430.58,1431.81 1401,1477.5C 1340.01,1563.23 1264.85,1578.06 1175.5,1522C 1137.98,1495.83 1104.15,1465.33 1074,1430.5C 1059.96,1414.12 1046.29,1397.46 1033,1380.5C 975.052,1324.42 909.219,1279.58 835.5,1246C 824.833,1241.33 814.167,1236.67 803.5,1232C 758.369,1217.18 714.702,1198.84 672.5,1177C 647.15,1163.3 623.15,1147.63 600.5,1130C 581.45,1114.29 565.283,1096.12 552,1075.5C 531.416,1036.76 535.416,1000.76 564,967.5C 583.235,946.581 605.068,929.081 629.5,915C 661.506,896.166 695.173,880.833 730.5,869C 762.144,858.736 794.477,855.402 827.5,859C 832.865,864.699 838.531,870.033 844.5,875C 803.996,875.459 765.329,884.126 728.5,901C 697.945,914.27 669.279,930.603 642.5,950C 624.151,963.012 609.318,979.179 598,998.5C 581.304,1033.19 584.637,1065.86 608,1096.5C 633.691,1127.53 664.191,1152.69 699.5,1172C 742.684,1195.76 787.684,1215.42 834.5,1231C 905.005,1259.89 969.005,1298.89 1026.5,1348C 1036,1357.5 1045.5,1367 1055,1376.5C 1083.61,1414.45 1116.11,1448.95 1152.5,1480C 1173.21,1496.7 1195.87,1510.36 1220.5,1521C 1274.07,1541.83 1322.07,1533.16 1364.5,1495C 1391.48,1467.9 1412.65,1436.74 1428,1401.5C 1457.63,1330.37 1475.96,1256.37 1483,1179.5C 1490.99,1110.31 1489.99,1040.97 1480,971.5C 1475.3,936.064 1464.96,902.397 1449,870.5C 1440.22,854.051 1427.72,841.218 1411.5,832C 1397.3,826.391 1382.97,826.058 1368.5,831C 1350.56,838.306 1334.56,848.639 1320.5,862C 1296.65,888.218 1273.15,914.718 1250,941.5C 1228.28,964.562 1204.78,985.396 1179.5,1004C 1157.86,1019.88 1133.69,1029.05 1107,1031.5C 1103.28,1029.72 1099.78,1027.56 1096.5,1025C 1119.86,1022.66 1141.53,1015.32 1161.5,1003C 1180.35,990.485 1198.35,976.818 1215.5,962C 1249.25,929.93 1280.42,895.763 1309,859.5C 1326.17,839.686 1346.34,823.853 1369.5,812C 1378.31,808.476 1387.31,806.31 1396.5,805.5 Z M 1381.5,831.5 C 1403.13,830.397 1420.63,838.397 1434,855.5C 1448.68,876.525 1459.34,899.525 1466,924.5C 1478.75,976.71 1484.92,1029.71 1484.5,1083.5C 1483.94,1159.65 1474.44,1234.65 1456,1308.5C 1443.58,1357.32 1424.58,1403.32 1399,1446.5C 1382.55,1473.29 1361.05,1495.12 1334.5,1512C 1297.7,1531.87 1260.04,1533.54 1221.5,1517C 1188.75,1502.3 1159.42,1482.64 1133.5,1458C 1105.21,1431.15 1079.37,1402.31 1056,1371.5C 1009.68,1324.5 957.178,1286 898.5,1256C 861.652,1237.24 823.652,1221.24 784.5,1208C 736.698,1189.61 692.365,1165.27 651.5,1135C 634.923,1121.76 620.423,1106.59 608,1089.5C 583.426,1050.16 586.426,1013.16 617,978.5C 640.406,955.048 666.906,935.881 696.5,921C 730.121,902.459 765.788,889.459 803.5,882C 819.103,879.06 834.77,878.393 850.5,880C 857.317,885.906 864.317,891.573 871.5,897C 832.857,898.547 796.19,907.881 761.5,925C 734.013,937.565 708.346,952.898 684.5,971C 666.441,985.05 652.941,1002.55 644,1023.5C 635.822,1050.95 640.155,1076.28 657,1099.5C 679.556,1128.18 706.723,1151.34 738.5,1169C 757.73,1179.78 777.397,1189.78 797.5,1199C 829.724,1211.11 861.724,1223.78 893.5,1237C 948.402,1262.26 998.736,1294.26 1044.5,1333C 1064.86,1352.35 1083.36,1373.18 1100,1395.5C 1111.22,1407.39 1122.39,1419.22 1133.5,1431C 1151.89,1448.35 1171.56,1464.02 1192.5,1478C 1211.87,1490.24 1232.87,1498.57 1255.5,1503C 1292.63,1508.89 1325.3,1499.55 1353.5,1475C 1379.4,1451.4 1399.56,1423.57 1414,1391.5C 1442.13,1327.32 1459.8,1260.32 1467,1190.5C 1475.95,1123.39 1475.62,1056.05 1466,988.5C 1462.28,961.268 1455.28,934.935 1445,909.5C 1437.72,890.561 1426.22,874.728 1410.5,862C 1395.45,852.381 1379.45,850.381 1362.5,856C 1348.74,861.04 1336.41,868.374 1325.5,878C 1305.91,896.921 1287.74,917.088 1271,938.5C 1245.37,967.465 1217.2,993.632 1186.5,1017C 1171.77,1027.03 1155.77,1034.37 1138.5,1039C 1132.63,1039.92 1126.8,1040.75 1121,1041.5C 1116.84,1040 1113,1037.83 1109.5,1035C 1129.95,1033.63 1148.95,1027.63 1166.5,1017C 1197.92,996.931 1226.42,973.098 1252,945.5C 1272.04,923.727 1291.38,901.394 1310,878.5C 1325.57,861.58 1343.4,847.747 1363.5,837C 1369.53,834.832 1375.53,832.999 1381.5,831.5 Z M 1376.5,856.5 C 1389.02,856.286 1400.35,859.786 1410.5,867C 1424.82,879.465 1435.32,894.632 1442,912.5C 1457.87,956.067 1466.54,1001.07 1468,1047.5C 1472.08,1131.01 1464.08,1213.34 1444,1294.5C 1435.03,1329.76 1422.69,1363.76 1407,1396.5C 1393.54,1423.59 1376.04,1447.75 1354.5,1469C 1312.84,1504.49 1267.18,1510.49 1217.5,1487C 1188.71,1472.21 1162.71,1453.54 1139.5,1431C 1115.5,1407.34 1093.34,1382.18 1073,1355.5C 1039.73,1321.15 1002.57,1291.98 961.5,1268C 933.313,1251.24 903.98,1236.57 873.5,1224C 820.695,1206.93 770.695,1183.93 723.5,1155C 697.837,1138.67 676.004,1118.17 658,1093.5C 636.575,1058.54 639.242,1025.54 666,994.5C 686.678,973.148 710.178,955.648 736.5,942C 768.28,924.406 801.946,911.739 837.5,904C 851.463,901.446 865.463,900.779 879.5,902C 887.5,907.333 895.5,912.667 903.5,918C 869.935,920.391 837.935,928.724 807.5,943C 779.508,955.65 753.508,971.316 729.5,990C 714.538,1002.45 703.371,1017.61 696,1035.5C 688.206,1063.32 693.54,1088.32 712,1110.5C 734.5,1136.81 761,1157.98 791.5,1174C 823.186,1191.34 856.186,1205.68 890.5,1217C 956.606,1242.03 1015.94,1277.69 1068.5,1324C 1075,1330.5 1081.5,1337 1088,1343.5C 1119.62,1386.79 1157.46,1423.62 1201.5,1454C 1275.62,1495.71 1336.12,1481.21 1383,1410.5C 1408.75,1367.92 1427.09,1322.26 1438,1273.5C 1460,1178.55 1463.66,1083.22 1449,987.5C 1444.08,956.381 1433.08,927.714 1416,901.5C 1394.31,875.574 1368.81,871.407 1339.5,889C 1324.52,898.971 1311.02,910.804 1299,924.5C 1269.54,962.962 1235.7,997.129 1197.5,1027C 1182.37,1037.9 1165.7,1045.56 1147.5,1050C 1142.2,1051.15 1136.87,1051.48 1131.5,1051C 1129.19,1048.51 1126.52,1046.51 1123.5,1045C 1143.32,1043.61 1161.66,1037.61 1178.5,1027C 1203.06,1010.62 1225.73,991.784 1246.5,970.5C 1268.64,947.872 1289.47,924.205 1309,899.5C 1321.43,885.727 1335.59,874.227 1351.5,865C 1359.58,861.03 1367.91,858.197 1376.5,856.5 Z M 1365.5,882.5 C 1379.36,880.88 1391.7,884.38 1402.5,893C 1417.8,908.753 1428.63,927.253 1435,948.5C 1448.61,996.521 1455.11,1045.52 1454.5,1095.5C 1454.16,1168.26 1443.99,1239.59 1424,1309.5C 1414.06,1343.02 1400.06,1374.68 1382,1404.5C 1369.64,1424.19 1354.14,1441.02 1335.5,1455C 1302.18,1476.24 1267.18,1479.24 1230.5,1464C 1203.8,1451.95 1179.8,1435.95 1158.5,1416C 1132.78,1391.62 1109.28,1365.46 1088,1337.5C 1037.4,1287.93 979.237,1249.43 913.5,1222C 884.516,1211.45 855.85,1200.12 827.5,1188C 797.401,1173.57 769.068,1156.24 742.5,1136C 727.815,1123.32 715.315,1108.82 705,1092.5C 690.854,1063 694.187,1035.67 715,1010.5C 732.985,991.423 753.485,975.589 776.5,963C 795.097,952.952 814.264,944.118 834,936.5C 855.931,928.247 878.598,923.58 902,922.5C 905.62,922.416 909.12,922.916 912.5,924C 920.5,929.333 928.5,934.667 936.5,940C 911.27,941.846 886.936,947.513 863.5,957C 835.165,968.328 808.832,982.995 784.5,1001C 731.857,1045.38 731.19,1090.71 782.5,1137C 814.168,1163.01 849.168,1183.68 887.5,1199C 963.018,1222.74 1030.35,1260.41 1089.5,1312C 1105.16,1328.51 1119.99,1345.68 1134,1363.5C 1155.05,1387.22 1178.55,1408.05 1204.5,1426C 1221.62,1437.38 1240.29,1445.04 1260.5,1449C 1291.42,1453.77 1318.75,1446.11 1342.5,1426C 1370.57,1399.56 1391.07,1368.06 1404,1331.5C 1430.55,1257.52 1443.72,1181.19 1443.5,1102.5C 1443.85,1060.54 1439.02,1019.21 1429,978.5C 1423.82,957.589 1414.82,938.589 1402,921.5C 1380.8,900.042 1357.64,897.875 1332.5,915C 1320.48,923.01 1309.65,932.51 1300,943.5C 1273.19,978.313 1242.69,1009.48 1208.5,1037C 1195.45,1046.69 1181.12,1054.03 1165.5,1059C 1158.95,1060.98 1152.28,1061.65 1145.5,1061C 1142.5,1059.83 1139.83,1058.17 1137.5,1056C 1163.56,1051.65 1186.89,1041.32 1207.5,1025C 1226.2,1010.3 1243.7,994.138 1260,976.5C 1278.17,955.667 1296.33,934.833 1314.5,914C 1326.17,902.331 1339.51,892.998 1354.5,886C 1358.33,884.966 1362,883.8 1365.5,882.5 Z M 1362.5,907.5 C 1377.91,907.456 1390.41,913.456 1400,925.5C 1412.15,942.807 1420.82,961.807 1426,982.5C 1435.27,1021.95 1439.77,1061.95 1439.5,1102.5C 1439.46,1174.97 1428.29,1245.64 1406,1314.5C 1395.03,1347.39 1379.03,1377.39 1358,1404.5C 1315.8,1452.56 1267.3,1459.72 1212.5,1426C 1184.66,1408.18 1159.83,1386.68 1138,1361.5C 1121.56,1340.4 1103.73,1320.56 1084.5,1302C 1039.31,1264.39 989.311,1234.39 934.5,1212C 892.422,1198.65 852.755,1180.32 815.5,1157C 799.982,1146.14 785.482,1133.98 772,1120.5C 762.71,1110.26 755.71,1098.59 751,1085.5C 745.321,1062.54 750.321,1042.2 766,1024.5C 783.571,1005.81 803.737,990.64 826.5,979C 855.256,962.637 885.922,951.637 918.5,946C 927.139,944.752 935.806,944.418 944.5,945C 953.007,950.419 961.34,956.086 969.5,962C 914.517,968.836 865.851,989.836 823.5,1025C 807.606,1039.12 798.606,1056.79 796.5,1078C 797.491,1093.98 802.991,1108.15 813,1120.5C 831.608,1142.12 853.442,1159.62 878.5,1173C 910.641,1190.07 943.974,1204.4 978.5,1216C 1027.65,1237.06 1071.98,1265.39 1111.5,1301C 1125.68,1316.85 1139.51,1333.01 1153,1349.5C 1175.71,1374.9 1201.88,1395.73 1231.5,1412C 1281.51,1433.87 1323.34,1423.37 1357,1380.5C 1377.02,1352.79 1392.02,1322.46 1402,1289.5C 1426.87,1205.63 1433.87,1120.3 1423,1033.5C 1419.65,1003.72 1410.31,976.058 1395,950.5C 1376.46,926.805 1354.29,922.972 1328.5,939C 1318.41,946.418 1308.91,954.585 1300,963.5C 1275.24,995.593 1247.07,1024.43 1215.5,1050C 1204.17,1058.17 1191.84,1064.5 1178.5,1069C 1171.95,1070.98 1165.28,1071.65 1158.5,1071C 1156.5,1069.33 1154.5,1067.67 1152.5,1066C 1175.9,1061.46 1196.9,1051.8 1215.5,1037C 1247.05,1010.45 1275.55,980.947 1301,948.5C 1314.07,933.571 1329.23,921.404 1346.5,912C 1351.82,909.941 1357.15,908.441 1362.5,907.5 Z M 1350.5,933.5 C 1366.26,931.798 1379.1,937.131 1389,949.5C 1398.39,962.605 1405.39,976.939 1410,992.5C 1420.13,1030.82 1424.96,1069.82 1424.5,1109.5C 1424.54,1179.93 1412.71,1248.26 1389,1314.5C 1379.75,1338.34 1367.42,1360.34 1352,1380.5C 1339.3,1395.88 1323.8,1407.38 1305.5,1415C 1291.42,1419.58 1277.08,1420.58 1262.5,1418C 1244.83,1414 1228.5,1407 1213.5,1397C 1180.71,1373.21 1152.21,1345.04 1128,1312.5C 1103.39,1286.54 1075.89,1264.37 1045.5,1246C 1030.49,1237.16 1015.15,1228.83 999.5,1221C 969.28,1208.39 938.947,1196.06 908.5,1184C 877.129,1169.96 848.962,1151.13 824,1127.5C 814.518,1117.34 807.518,1105.68 803,1092.5C 798.807,1076.52 801.141,1061.52 810,1047.5C 817.792,1036.04 827.292,1026.21 838.5,1018C 871.117,994.557 907.117,978.223 946.5,969C 957.085,966.926 967.752,966.26 978.5,967C 986.66,972.914 994.993,978.581 1003.5,984C 956.12,989.865 913.787,1007.53 876.5,1037C 864.625,1047.26 856.125,1059.76 851,1074.5C 847.071,1094.45 851.737,1112.12 865,1127.5C 882.206,1146.37 902.039,1161.87 924.5,1174C 933.833,1178.67 943.167,1183.33 952.5,1188C 976.726,1197.11 1000.73,1206.78 1024.5,1217C 1069.27,1237.44 1108.77,1265.28 1143,1300.5C 1164.87,1329.37 1190.37,1354.54 1219.5,1376C 1276.9,1410.77 1323.74,1399.94 1360,1343.5C 1378.27,1311.94 1391.27,1278.28 1399,1242.5C 1413.31,1179.06 1416.64,1115.06 1409,1050.5C 1406.41,1030.53 1401.41,1011.2 1394,992.5C 1373.36,948.548 1344.86,942.715 1308.5,975C 1294,991.5 1279.5,1008 1265,1024.5C 1247.83,1043.68 1228.33,1059.85 1206.5,1073C 1194.68,1079.76 1182.01,1082.43 1168.5,1081C 1166.83,1079.33 1165.17,1077.67 1163.5,1076C 1178.19,1074.33 1191.86,1069.66 1204.5,1062C 1228.33,1046.46 1249.83,1027.96 1269,1006.5C 1283.76,988.406 1299.26,970.906 1315.5,954C 1326.06,945.063 1337.72,938.23 1350.5,933.5 Z M 1344.5,958.5 C 1353.69,957.568 1362.02,959.735 1369.5,965C 1384.05,979.26 1393.55,996.427 1398,1016.5C 1405.93,1049.18 1409.76,1082.35 1409.5,1116C 1409.52,1176.51 1399.69,1235.34 1380,1292.5C 1371.61,1316.61 1359.61,1338.61 1344,1358.5C 1315.52,1392.25 1281.02,1400.41 1240.5,1383C 1211.8,1366.98 1186.64,1346.48 1165,1321.5C 1148.58,1299.08 1129.41,1279.24 1107.5,1262C 1079.38,1241.27 1049.38,1223.6 1017.5,1209C 994.595,1200.59 971.928,1191.59 949.5,1182C 920.806,1169.42 895.306,1152.25 873,1130.5C 845.116,1098.26 847.283,1068.09 879.5,1040C 913.539,1012.75 952.206,995.754 995.5,989C 1001.61,988.091 1007.61,988.424 1013.5,990C 1021.16,995.83 1029.16,1001.16 1037.5,1006C 995.689,1011.25 958.356,1026.91 925.5,1053C 897.419,1077.03 894.253,1103.86 916,1133.5C 939.861,1157.86 967.695,1176.36 999.5,1189C 1051.52,1205.52 1098.52,1230.85 1140.5,1265C 1155.45,1279.61 1169.28,1295.11 1182,1311.5C 1197.41,1328.25 1214.57,1342.75 1233.5,1355C 1281.75,1380.4 1320.58,1370.23 1350,1324.5C 1367.61,1294.67 1379.95,1262.67 1387,1228.5C 1398.75,1173.21 1401.08,1117.54 1394,1061.5C 1391.57,1043.87 1386.9,1026.87 1380,1010.5C 1364.28,977.263 1341.44,971.43 1311.5,993C 1298.2,1006.09 1285.7,1019.92 1274,1034.5C 1258.66,1051.52 1241.83,1066.68 1223.5,1080C 1209.94,1089.41 1194.94,1093.07 1178.5,1091C 1176.83,1089.33 1175.17,1087.67 1173.5,1086C 1193.3,1084.26 1210.97,1077.26 1226.5,1065C 1239.25,1055.09 1251.25,1044.26 1262.5,1032.5C 1279.62,1013.76 1296.62,994.928 1313.5,976C 1322.55,967.758 1332.88,961.925 1344.5,958.5 Z M 1340.5,983.5 C 1350.24,983.797 1358.41,987.464 1365,994.5C 1374,1006.12 1380.33,1019.12 1384,1033.5C 1392.55,1067.99 1395.88,1102.99 1394,1138.5C 1392.58,1184.69 1384.58,1229.69 1370,1273.5C 1361.14,1301.75 1346.3,1326.25 1325.5,1347C 1301.3,1366.85 1274.97,1370.19 1246.5,1357C 1231.46,1349.62 1217.8,1340.29 1205.5,1329C 1188.91,1313.91 1174.08,1297.41 1161,1279.5C 1128.19,1246.67 1090.36,1221.17 1047.5,1203C 1016.93,1192.71 987.595,1179.71 959.5,1164C 941.63,1153.63 926.463,1140.13 914,1123.5C 902.01,1104.09 903.01,1085.42 917,1067.5C 929.851,1053.64 944.684,1042.48 961.5,1034C 980.321,1023.5 1000.32,1016.17 1021.5,1012C 1029.46,1010.61 1037.46,1010.28 1045.5,1011C 1053.66,1016.91 1061.99,1022.58 1070.5,1028C 1035.97,1032.28 1004.97,1044.95 977.5,1066C 966.79,1074.69 959.29,1085.53 955,1098.5C 952.914,1113.16 956.581,1126.16 966,1137.5C 978.436,1151.6 992.936,1163.1 1009.5,1172C 1032.73,1184.08 1056.73,1194.41 1081.5,1203C 1117.25,1218.44 1148.75,1239.94 1176,1267.5C 1193.21,1290.37 1213.37,1310.21 1236.5,1327C 1255.75,1340.38 1276.75,1344.38 1299.5,1339C 1318.93,1331.03 1333.77,1317.86 1344,1299.5C 1365.33,1259.53 1377.66,1216.86 1381,1171.5C 1384.7,1138.08 1384.03,1104.75 1379,1071.5C 1376.46,1054.55 1371.13,1038.55 1363,1023.5C 1351.31,1005.16 1335.81,1000.99 1316.5,1011C 1307.44,1017.05 1299.28,1024.22 1292,1032.5C 1275.17,1054.67 1255.67,1074.17 1233.5,1091C 1221.42,1099.69 1208.08,1103.02 1193.5,1101C 1189.66,1100.28 1186.32,1098.61 1183.5,1096C 1198.27,1095.86 1211.94,1091.86 1224.5,1084C 1242.26,1071.84 1258.43,1057.67 1273,1041.5C 1284.15,1028.05 1295.65,1014.89 1307.5,1002C 1316.99,992.974 1327.99,986.807 1340.5,983.5 Z M 1330.5,1009.5 C 1339.77,1008.87 1347.61,1011.87 1354,1018.5C 1366.45,1036.51 1373.78,1056.51 1376,1078.5C 1383.43,1139.42 1377.77,1199.09 1359,1257.5C 1350.64,1284.42 1336.14,1307.25 1315.5,1326C 1295.55,1339.45 1274.55,1341.12 1252.5,1331C 1229.76,1319.27 1210.26,1303.44 1194,1283.5C 1180.5,1264.67 1164.33,1248.5 1145.5,1235C 1112.07,1211.45 1075.74,1193.45 1036.5,1181C 1012.68,1171.02 991.518,1157.19 973,1139.5C 961.754,1128.1 957.088,1114.43 959,1098.5C 961.718,1090.06 966.218,1082.73 972.5,1076.5C 1000.21,1051.81 1032.55,1037.15 1069.5,1032.5C 1074.62,1031.94 1079.28,1033.11 1083.5,1036C 1090.17,1040.67 1096.83,1045.33 1103.5,1050C 1072.46,1053.89 1045.13,1065.89 1021.5,1086C 1003.3,1103.88 1001.8,1123.04 1017,1143.5C 1035.21,1161.7 1056.38,1175.53 1080.5,1185C 1123.53,1198.08 1161.03,1220.25 1193,1251.5C 1208.63,1273.46 1227.8,1291.63 1250.5,1306C 1284.97,1322.34 1312.47,1314.51 1333,1282.5C 1345.88,1260.73 1354.88,1237.4 1360,1212.5C 1370.22,1166.27 1370.89,1119.94 1362,1073.5C 1359.3,1061.4 1354.3,1050.4 1347,1040.5C 1338.88,1031.56 1329.04,1029.06 1317.5,1033C 1311.63,1035.54 1306.3,1038.88 1301.5,1043C 1290.67,1055.17 1279.83,1067.33 1269,1079.5C 1257.59,1091.25 1244.76,1101.08 1230.5,1109C 1218.59,1114.12 1207.26,1113.12 1196.5,1106C 1204.77,1106.17 1212.77,1104.84 1220.5,1102C 1239.27,1092.57 1255.77,1080.07 1270,1064.5C 1282.76,1049.07 1296.26,1034.23 1310.5,1020C 1316.54,1015.15 1323.21,1011.65 1330.5,1009.5 Z M 1327.5,1034.5 C 1334.64,1035.45 1340.47,1038.79 1345,1044.5C 1351.85,1054.88 1356.52,1066.21 1359,1078.5C 1367.79,1130.08 1365.12,1181.08 1351,1231.5C 1344.83,1256.01 1333.33,1277.51 1316.5,1296C 1300.1,1311.37 1281.43,1314.7 1260.5,1306C 1241.76,1296.94 1225.6,1284.44 1212,1268.5C 1190.28,1239.45 1163.11,1216.95 1130.5,1201C 1109.28,1191.81 1087.95,1182.81 1066.5,1174C 1049.05,1165.55 1033.55,1154.38 1020,1140.5C 1007.79,1125.38 1007.46,1110.04 1019,1094.5C 1039.2,1075.81 1062.7,1062.98 1089.5,1056C 1095.85,1055.11 1102.18,1054.28 1108.5,1053.5C 1137.68,1071.59 1166.35,1090.42 1194.5,1110C 1211.02,1118.74 1227.02,1117.74 1242.5,1107C 1247.83,1103 1253.17,1099 1258.5,1095C 1274.87,1078.3 1290.87,1061.3 1306.5,1044C 1312.88,1039.14 1319.88,1035.97 1327.5,1034.5 Z"/></g>
</svg>
