<svg width="25" height="25" viewBox="0 0 25 25" fill="none" xmlns="http://www.w3.org/2000/svg">
<g id="link_black_24dp 1" clip-path="url(#clip0_2050_2505)">
<path id="Vector" d="M2.45371 17.7383C2.45371 16.0283 3.84371 14.6383 5.55371 14.6383H9.55371V12.7383H5.55371C2.79371 12.7383 0.553711 14.9783 0.553711 17.7383C0.553711 20.4983 2.79371 22.7383 5.55371 22.7383H9.55371V20.8383H5.55371C3.84371 20.8383 2.45371 19.4483 2.45371 17.7383ZM6.55371 18.7383H14.5537V16.7383H6.55371V18.7383ZM15.5537 12.7383H11.5537V14.6383H15.5537C17.2637 14.6383 18.6537 16.0283 18.6537 17.7383C18.6537 19.4483 17.2637 20.8383 15.5537 20.8383H11.5537V22.7383H15.5537C18.3137 22.7383 20.5537 20.4983 20.5537 17.7383C20.5537 14.9783 18.3137 12.7383 15.5537 12.7383Z" fill="#3F3F3F"/>
</g>
<defs>
<clipPath id="clip0_2050_2505">
<rect width="24" height="24" fill="white" transform="translate(0.553711 0.738281)"/>
</clipPath>
</defs>
</svg>
