<svg width="150" height="116" viewBox="0 0 150 116" fill="none" xmlns="http://www.w3.org/2000/svg">
<path d="M149.487 72.3064V68.7171C149.487 68.0326 149.119 67.3762 148.464 66.8922C147.809 66.4082 146.92 66.1363 145.994 66.1363H133.664C133.205 66.1363 132.751 66.0696 132.327 65.9399C131.904 65.8102 131.518 65.6201 131.194 65.3805C130.87 65.1408 130.612 64.8563 130.437 64.5432C130.261 64.2301 130.171 63.8945 130.171 63.5556V59.9663C130.171 59.6274 130.261 59.2918 130.437 58.9787C130.612 58.6656 130.87 58.3811 131.194 58.1414C131.518 57.9018 131.904 57.7117 132.327 57.582C132.751 57.4523 133.205 57.3855 133.664 57.3855H134.053C134.98 57.3855 135.868 57.1137 136.523 56.6297C137.179 56.1457 137.547 55.4893 137.547 54.8048V51.2155C137.547 50.531 137.179 49.8746 136.523 49.3906C135.868 48.9067 134.98 48.6348 134.053 48.6348H24.0444C23.1179 48.6348 22.2294 48.9067 21.5743 49.3906C20.9192 49.8746 20.5512 50.531 20.5512 51.2155V54.8048C20.5512 55.4893 20.9192 56.1457 21.5743 56.6297C22.2294 57.1137 23.1179 57.3855 24.0444 57.3855C24.5031 57.3855 24.9573 57.4523 25.3811 57.582C25.805 57.7117 26.19 57.9018 26.5144 58.1414C26.8388 58.3811 27.0961 58.6656 27.2716 58.9787C27.4472 59.2918 27.5375 59.6274 27.5375 59.9663V63.5556C27.5375 63.8945 27.4472 64.2301 27.2716 64.5432C27.0961 64.8563 26.8388 65.1408 26.5144 65.3805C26.19 65.6201 25.805 65.8102 25.3811 65.9399C24.9573 66.0696 24.5031 66.1363 24.0444 66.1363H10.536C9.60956 66.1363 8.72106 66.4082 8.06597 66.8922C7.41087 67.3762 7.04284 68.0326 7.04284 68.7171V72.3064C7.04284 72.9908 7.41087 73.6473 8.06597 74.1312C8.72106 74.6152 9.60956 74.8871 10.536 74.8871H15.8365C16.2952 74.8871 16.7494 74.9539 17.1733 75.0836C17.5971 75.2133 17.9822 75.4033 18.3065 75.643C18.6309 75.8826 18.8882 76.1671 19.0637 76.4802C19.2393 76.7934 19.3296 77.1289 19.3296 77.4678V81.0572C19.3296 81.3961 19.2393 81.7317 19.0637 82.0448C18.8882 82.3579 18.6309 82.6424 18.3065 82.882C17.9822 83.1217 17.5971 83.3118 17.1733 83.4415C16.7494 83.5712 16.2952 83.6379 15.8365 83.6379H15.8237C14.8972 83.6379 14.0087 83.9098 13.3536 84.3938C12.6985 84.8778 12.3305 85.5342 12.3305 86.2186V89.808C12.3305 90.1469 12.4209 90.4824 12.5964 90.7956C12.772 91.1087 13.0293 91.3932 13.3536 91.6328C13.678 91.8724 14.0631 92.0625 14.4869 92.1922C14.9107 92.3219 15.365 92.3887 15.8237 92.3887H16.5906C17.517 92.3887 18.4055 92.6606 19.0606 93.1446C19.7157 93.6285 20.0837 94.285 20.0837 94.9694V98.5588C20.0837 99.2432 19.7157 99.8996 19.0606 100.384C18.4055 100.868 17.517 101.139 16.5906 101.139H4.00488C3.07844 101.139 2.18994 101.411 1.53484 101.895C0.879746 102.379 0.511719 103.036 0.511719 103.72V107.31C0.511719 107.994 0.879746 108.65 1.53484 109.134C2.18994 109.618 3.07844 109.89 4.00488 109.89H135.929C136.855 109.89 137.744 109.618 138.399 109.134C139.054 108.65 139.422 107.994 139.422 107.31V103.72C139.422 103.036 139.054 102.379 138.399 101.895C137.744 101.411 136.855 101.139 135.929 101.139H132.9C131.974 101.139 131.085 100.868 130.43 100.384C129.775 99.8996 129.407 99.2432 129.407 98.5588V94.9694C129.407 94.285 129.775 93.6285 130.43 93.1446C131.085 92.6606 131.974 92.3887 132.9 92.3887H140.042C140.5 92.3887 140.955 92.3219 141.378 92.1922C141.802 92.0625 142.187 91.8724 142.512 91.6328C142.836 91.3932 143.093 91.1087 143.269 90.7956C143.444 90.4824 143.535 90.1469 143.535 89.808V86.2186C143.535 85.5342 143.167 84.8778 142.512 84.3938C141.857 83.9098 140.968 83.6379 140.042 83.6379H137.875C137.416 83.6379 136.962 83.5712 136.538 83.4415C136.115 83.3118 135.73 83.1217 135.405 82.882C135.081 82.6424 134.823 82.3579 134.648 82.0448C134.472 81.7317 134.382 81.3961 134.382 81.0572V77.4678C134.382 77.1289 134.472 76.7934 134.648 76.4802C134.823 76.1671 135.081 75.8826 135.405 75.643C135.73 75.4033 136.115 75.2133 136.538 75.0836C136.962 74.9539 137.416 74.8871 137.875 74.8871H145.994C146.92 74.8871 147.809 74.6152 148.464 74.1312C149.119 73.6473 149.487 72.9908 149.487 72.3064Z" fill="#DFDFDF" fill-opacity="0.47"/>
<circle cx="73.4794" cy="58.6181" r="46.2431" fill="white"/>
<path d="M109.362 72.7696C110.22 73.1121 110.641 74.087 110.263 74.9299C106.099 84.2308 98.5824 91.6513 89.1808 95.6872C79.7792 99.723 69.2224 100.061 59.6112 96.6734C58.7401 96.3664 58.3232 95.3899 58.6657 94.5322C59.0082 93.6744 59.9803 93.2606 60.8524 93.5644C69.6388 96.6247 79.275 96.2997 87.8615 92.6138C96.448 88.9279 103.321 82.1659 107.154 73.6883C107.535 72.8468 108.505 72.4271 109.362 72.7696Z" fill="#A8A8A8"/>
<path d="M53.8662 92.0798C53.3751 92.9409 52.2766 93.2441 51.438 92.7156C46.006 89.2918 41.4611 84.6303 38.1759 79.1134C37.6688 78.2617 37.9998 77.1712 38.873 76.7021C39.7462 76.233 40.8305 76.5632 41.3413 77.4127C44.3029 82.3384 48.3692 86.5089 53.2183 89.5943C54.0545 90.1264 54.3572 91.2188 53.8662 92.0798Z" fill="#B4B4B4"/>
<path d="M36.6313 71.7197C35.701 72.0618 34.6655 71.5859 34.3647 70.6414C32.4165 64.5231 31.9442 58.0298 32.9865 51.694C33.1474 50.7159 34.1032 50.0952 35.0732 50.2991C36.0432 50.5029 36.6598 51.4542 36.503 52.4329C35.5943 58.1081 36.0168 63.9175 37.7373 69.4014C38.034 70.3472 37.5616 71.3776 36.6313 71.7197Z" fill="#C6C6C6"/>
<path d="M36.0868 46.4633C35.1425 46.1617 34.6178 45.1501 34.9607 44.2201C37.3576 37.7195 41.3792 31.9285 46.6546 27.4065C52.3849 22.4946 59.3685 19.2734 66.8247 18.1034C74.2809 16.9333 81.9155 17.8603 88.875 20.7809C95.2819 23.4696 100.884 27.7503 105.157 33.2042C105.768 33.9845 105.579 35.1082 104.772 35.6845C103.966 36.2608 102.848 36.0712 102.234 35.2935C98.3501 30.3801 93.2788 26.5218 87.486 24.0908C81.1406 21.4279 74.1795 20.5826 67.3812 21.6494C60.5829 22.7163 54.2154 25.6532 48.9907 30.1318C44.2209 34.2204 40.5753 39.4467 38.3836 45.3135C38.0367 46.242 37.031 46.7649 36.0868 46.4633Z" fill="#C6C6C6"/>
<mask id="path-7-inside-1_2043_2316" fill="white">
<path d="M99.1512 40.5899C99.4445 40.3902 99.5209 39.9902 99.3153 39.701C95.3557 34.1288 89.7173 29.9603 83.2165 27.811C76.5121 25.5944 69.2642 25.649 62.594 27.9662C55.9238 30.2835 50.2031 34.7343 46.317 40.63C42.4309 46.5258 40.5961 53.5379 41.0963 60.5814C41.5966 67.6249 44.404 74.3073 49.0843 79.5946C53.7646 84.882 60.0569 88.4797 66.9876 89.831C73.9184 91.1823 81.1013 90.212 87.425 87.0701C93.5569 84.0236 98.5496 79.1001 101.682 73.0242C101.845 72.7089 101.712 72.3237 101.394 72.1675C101.075 72.0112 100.691 72.1431 100.528 72.4583C97.5204 78.2807 92.7323 82.9987 86.8534 85.9196C80.7826 88.9357 73.887 89.8672 67.2335 88.57C60.5799 87.2727 54.5394 83.819 50.0463 78.7431C45.5532 73.6672 42.8581 67.2521 42.3778 60.4904C41.8976 53.7286 43.6591 46.997 47.3897 41.3371C51.1203 35.6772 56.6122 31.4044 63.0156 29.1798C69.419 26.9552 76.377 26.9029 82.8132 29.0308C89.0458 31.0914 94.4527 35.0855 98.2532 40.4243C98.459 40.7133 98.858 40.7896 99.1512 40.5899Z"/>
</mask>
<path d="M99.1512 40.5899C99.4445 40.3902 99.5209 39.9902 99.3153 39.701C95.3557 34.1288 89.7173 29.9603 83.2165 27.811C76.5121 25.5944 69.2642 25.649 62.594 27.9662C55.9238 30.2835 50.2031 34.7343 46.317 40.63C42.4309 46.5258 40.5961 53.5379 41.0963 60.5814C41.5966 67.6249 44.404 74.3073 49.0843 79.5946C53.7646 84.882 60.0569 88.4797 66.9876 89.831C73.9184 91.1823 81.1013 90.212 87.425 87.0701C93.5569 84.0236 98.5496 79.1001 101.682 73.0242C101.845 72.7089 101.712 72.3237 101.394 72.1675C101.075 72.0112 100.691 72.1431 100.528 72.4583C97.5204 78.2807 92.7323 82.9987 86.8534 85.9196C80.7826 88.9357 73.887 89.8672 67.2335 88.57C60.5799 87.2727 54.5394 83.819 50.0463 78.7431C45.5532 73.6672 42.8581 67.2521 42.3778 60.4904C41.8976 53.7286 43.6591 46.997 47.3897 41.3371C51.1203 35.6772 56.6122 31.4044 63.0156 29.1798C69.419 26.9552 76.377 26.9029 82.8132 29.0308C89.0458 31.0914 94.4527 35.0855 98.2532 40.4243C98.459 40.7133 98.858 40.7896 99.1512 40.5899Z" stroke="#B0B0B0" stroke-width="4" mask="url(#path-7-inside-1_2043_2316)"/>
<g clip-path="url(#clip0_2043_2316)">
<path d="M78.6035 56.8516H83.4533V65.4162H78.6035V56.8516Z" fill="#B0B0B0"/>
<path d="M70.3477 56.8516H75.1975V65.4162H70.3477V56.8516Z" fill="#B0B0B0"/>
<path d="M84.3823 66.9668C83.6032 66.9668 62.1079 66.9668 61.165 66.9668C60.3115 66.9668 59.6172 67.6611 59.6172 68.5146V70.3204C59.6172 71.1739 60.3115 71.8682 61.165 71.8682H84.3823C85.2358 71.8682 85.9301 71.1739 85.9301 70.3204V68.5146C85.9301 67.6611 85.2358 66.9668 84.3823 66.9668Z" fill="#B0B0B0"/>
<path d="M84.9601 50.3142C73.0381 45.4394 73.3571 45.5698 73.3486 45.5663C72.9807 45.4191 72.5717 45.4161 72.1933 45.5685L60.5872 50.3142C59.9978 50.5513 59.6172 51.1146 59.6172 51.7501V53.7542C59.6172 54.6077 60.3115 55.3021 61.165 55.3021H84.3823C85.2358 55.3021 85.9301 54.6077 85.9301 53.7542V51.7501C85.9301 51.1146 85.5495 50.5513 84.9601 50.3142ZM73.5476 51.2261C73.5476 51.6535 73.2011 52 72.7736 52C72.3462 52 71.9997 51.6535 71.9997 51.2261V49.5751C71.9997 49.1477 72.3462 48.8012 72.7736 48.8012C73.2011 48.8012 73.5476 49.1477 73.5476 49.5751V51.2261Z" fill="#B0B0B0"/>
<path d="M62.0938 56.8516H66.9436V65.4162H62.0938V56.8516Z" fill="#B0B0B0"/>
</g>
<path d="M99.8568 66.9401C98.9387 66.9394 98.0368 66.6974 97.2416 66.2384C96.4464 65.7795 95.7857 65.1196 95.3258 64.3249C94.8659 63.5302 94.6229 62.6287 94.6211 61.7105C94.6193 60.7923 94.8588 59.8898 95.3156 59.0934L110.326 32.9097C110.782 32.1135 111.441 31.4525 112.236 30.9945C113.032 30.5365 113.934 30.2978 114.852 30.3028C115.769 30.2973 116.672 30.5357 117.467 30.9938C118.262 31.4519 118.922 32.1131 119.377 32.9097L134.549 59.0047C135.02 59.7982 135.271 60.7023 135.278 61.6248C135.285 62.5472 135.047 63.455 134.589 64.2554C134.13 65.0559 133.467 65.7203 132.668 66.181C131.869 66.6416 130.962 66.882 130.039 66.8775L99.8516 66.9714L99.8568 66.9401ZM114.873 31.8409C114.227 31.8404 113.594 32.011 113.036 32.3352C112.478 32.6595 112.016 33.1257 111.697 33.6866L96.6868 59.8702C96.3661 60.429 96.1978 61.0622 96.1989 61.7065C96.2 62.3508 96.3704 62.9834 96.6931 63.5411C97.0157 64.0988 97.4793 64.5618 98.0373 64.8838C98.5953 65.2059 99.2282 65.3756 99.8725 65.376L130.06 65.2821C130.708 65.2878 131.346 65.1208 131.908 64.7984C132.47 64.4759 132.936 64.0097 133.258 63.4475C133.581 62.8854 133.747 62.2475 133.742 61.5996C133.736 60.9517 133.557 60.317 133.225 59.7607L118.053 33.6918C117.734 33.1292 117.272 32.6614 116.713 32.3362C116.154 32.011 115.519 31.84 114.873 31.8409Z" fill="#A8A8A8"/>
<path d="M114.873 31.8409C114.227 31.8404 113.594 32.011 113.036 32.3352C112.478 32.6595 112.016 33.1257 111.697 33.6866L96.6868 59.8702C96.3661 60.429 96.1978 61.0622 96.1989 61.7065C96.2 62.3508 96.3704 62.9834 96.6931 63.5411C97.0157 64.0988 97.4793 64.5618 98.0373 64.8838C98.5953 65.2059 99.2282 65.3756 99.8725 65.376L130.06 65.2821C130.708 65.2878 131.346 65.1208 131.908 64.7984C132.47 64.4759 132.936 64.0097 133.258 63.4475C133.581 62.8854 133.747 62.2475 133.742 61.5996C133.736 60.9517 133.557 60.317 133.225 59.7607L118.053 33.6918C117.734 33.1292 117.272 32.6614 116.713 32.3362C116.154 32.011 115.519 31.84 114.873 31.8409Z" fill="white"/>
<path d="M99.8568 66.9401C98.9387 66.9394 98.0368 66.6974 97.2416 66.2384C96.4464 65.7795 95.7857 65.1196 95.3258 64.3249C94.8659 63.5302 94.6229 62.6287 94.6211 61.7105C94.6193 60.7923 94.8588 59.8898 95.3156 59.0934L110.326 32.9097C110.782 32.1135 111.441 31.4525 112.236 30.9945C113.032 30.5365 113.934 30.2978 114.852 30.3028C115.769 30.2973 116.672 30.5357 117.467 30.9938C118.262 31.4519 118.922 32.1131 119.377 32.9097L134.549 59.0047C135.02 59.7982 135.271 60.7023 135.278 61.6248C135.285 62.5472 135.047 63.455 134.589 64.2554C134.13 65.0559 133.467 65.7203 132.668 66.181C131.869 66.6416 130.962 66.882 130.039 66.8775L99.8516 66.9714L99.8568 66.9401ZM114.873 31.8409C114.227 31.8404 113.594 32.011 113.036 32.3352C112.478 32.6595 112.016 33.1257 111.697 33.6866L96.6868 59.8702C96.3661 60.429 96.1978 61.0622 96.1989 61.7065C96.2 62.3508 96.3704 62.9834 96.6931 63.5411C97.0157 64.0988 97.4793 64.5618 98.0373 64.8838C98.5953 65.2059 99.2282 65.3756 99.8725 65.376L130.06 65.2821C130.708 65.2878 131.346 65.1208 131.908 64.7984C132.47 64.4759 132.936 64.0097 133.258 63.4475C133.581 62.8854 133.747 62.2475 133.742 61.5996C133.736 60.9517 133.557 60.317 133.225 59.7607L118.053 33.6918C117.734 33.1292 117.272 32.6614 116.713 32.3362C116.154 32.011 115.519 31.84 114.873 31.8409Z" stroke="#A8A8A8"/>
<path d="M114.873 31.8409C114.227 31.8404 113.594 32.011 113.036 32.3352C112.478 32.6595 112.016 33.1257 111.697 33.6866L96.6868 59.8702C96.3661 60.429 96.1978 61.0622 96.1989 61.7065C96.2 62.3508 96.3704 62.9834 96.6931 63.5411C97.0157 64.0988 97.4793 64.5618 98.0373 64.8838C98.5953 65.2059 99.2282 65.3756 99.8725 65.376L130.06 65.2821C130.708 65.2878 131.346 65.1208 131.908 64.7984C132.47 64.4759 132.936 64.0097 133.258 63.4475C133.581 62.8854 133.747 62.2475 133.742 61.5996C133.736 60.9517 133.557 60.317 133.225 59.7607L118.053 33.6918C117.734 33.1292 117.272 32.6614 116.713 32.3362C116.154 32.011 115.519 31.84 114.873 31.8409Z" stroke="#A8A8A8"/>
<path d="M112.779 58.465C112.778 58.2043 112.83 57.9461 112.932 57.7059C113.033 57.4657 113.182 57.2485 113.37 57.0674C113.557 56.8862 113.779 56.7448 114.023 56.6517C114.266 56.5586 114.526 56.5157 114.787 56.5255C115.049 56.5099 115.312 56.5479 115.56 56.6372C115.807 56.7264 116.034 56.8651 116.226 57.0447C116.418 57.2244 116.572 57.4413 116.678 57.6821C116.783 57.923 116.839 58.1829 116.841 58.446C116.843 58.709 116.792 58.9697 116.69 59.2123C116.588 59.4549 116.438 59.6742 116.249 59.8569C116.06 60.0396 115.835 60.1819 115.589 60.2752C115.343 60.3684 115.081 60.4107 114.818 60.3993C114.556 60.4113 114.294 60.3702 114.048 60.2785C113.802 60.1869 113.577 60.0465 113.387 59.8659C113.197 59.6853 113.045 59.4682 112.94 59.2274C112.836 58.9867 112.781 58.7274 112.779 58.465ZM112.842 42.7402H116.544L116.022 54.4452H113.546L112.842 42.7402Z" fill="#F9AE2B"/>
<defs>
<clipPath id="clip0_2043_2316">
<rect width="26.4086" height="26.4086" fill="white" transform="translate(59.5684 45.4551)"/>
</clipPath>
</defs>
</svg>
