<svg width="393" height="633" viewBox="0 0 393 633" fill="none" xmlns="http://www.w3.org/2000/svg">
<path d="M326.25 -68.7048C125.622 -65.3554 -108.557 -101.476 -157.582 127.182C-266.018 632.941 221.582 696.014 221.582 537.536C221.581 242.996 288.569 391.418 526.795 219.762C765.02 48.1053 577.035 -72.8915 326.25 -68.7048Z" stroke="#31C64F" stroke-opacity="0.2" stroke-width="0.5"/>
<path d="M323.449 -53.6254C127.202 -53.442 -101.246 -92.3737 -152.712 130.478C-266.547 623.394 209.308 692.589 211.75 537.611C216.289 249.578 279.51 395.754 515.117 231.56C750.725 67.3669 568.758 -53.8546 323.449 -53.6254Z" stroke="#31C64F" stroke-opacity="0.2" stroke-width="0.5"/>
<path d="M320.532 -38.8924C128.715 -41.7362 -93.9735 -83.3077 -147.71 133.719C-266.567 613.752 197.474 688.714 202.248 537.273C211.122 255.813 270.663 399.663 503.478 242.806C736.293 85.9494 560.304 -35.3378 320.532 -38.8924Z" stroke="#31C64F" stroke-opacity="0.2" stroke-width="0.5"/>
<path d="M317.507 -24.5105C130.165 -30.2417 -86.7378 -74.2815 -142.574 136.906C-266.076 604.021 186.09 684.396 193.086 536.527C206.088 261.704 262.038 403.148 491.889 253.498C721.741 103.849 551.685 -17.3465 317.507 -24.5105Z" stroke="#31C64F" stroke-opacity="0.2" stroke-width="0.5"/>
<path d="M314.384 -10.4782C131.56 -18.9565 -79.5369 -65.2929 -137.303 140.043C-265.072 594.217 175.166 679.65 184.272 535.383C201.195 267.257 253.646 406.218 480.365 263.642C707.085 121.067 542.915 0.119782 314.384 -10.4782Z" stroke="#31C64F" stroke-opacity="0.2" stroke-width="0.5"/>
<path d="M311.17 3.19975C132.902 -7.88488 -72.3716 -56.3459 -131.897 143.132C-263.557 584.348 164.708 674.483 175.812 533.848C196.449 272.472 245.493 408.876 468.916 273.238C692.339 137.6 534.004 17.0555 311.17 3.19975Z" stroke="#31C64F" stroke-opacity="0.2" stroke-width="0.5"/>
<path d="M307.872 16.5246C134.197 2.97511 -65.24 -47.439 -126.354 146.178C-261.531 574.429 154.726 668.911 167.716 531.934C191.859 277.356 237.59 411.132 457.556 282.291C677.521 153.45 524.966 33.4614 307.872 16.5246Z" stroke="#31C64F" stroke-opacity="0.2" stroke-width="0.5"/>
<path d="M304.501 29.4947C135.451 13.6224 -58.1402 -38.5731 -120.674 149.183C-258.991 564.472 145.229 662.945 159.993 529.649C187.432 281.914 229.945 412.991 446.296 290.804C662.647 168.617 515.815 49.3352 304.501 29.4947Z" stroke="#31C64F" stroke-opacity="0.2" stroke-width="0.5"/>
<path d="M301.063 42.1095C136.666 24.0565 -51.073 -29.749 -114.858 152.151C-255.941 554.487 136.223 656.595 152.647 527.003C183.173 286.149 222.566 414.461 435.148 298.78C647.731 183.1 506.56 64.6758 301.063 42.1095Z" stroke="#31C64F" stroke-opacity="0.2" stroke-width="0.5"/>
<path d="M297.568 54.3682C137.85 34.2772 -44.0365 -20.9673 -108.904 155.085C-252.38 544.486 127.716 649.876 145.688 524.005C179.091 290.067 215.461 415.547 424.125 306.224C632.789 196.901 497.215 79.482 297.568 54.3682Z" stroke="#31C64F" stroke-opacity="0.2" stroke-width="0.5"/>
<path d="M294.024 66.2703C139.008 44.2841 -37.0286 -12.2286 -102.81 157.988C-248.308 534.482 119.716 642.799 139.124 520.664C175.194 293.672 208.639 416.259 413.239 313.14C617.839 210.021 487.794 93.7531 294.024 66.2703Z" stroke="#31C64F" stroke-opacity="0.2" stroke-width="0.5"/>
<path d="M290.438 77.817C140.142 54.0787 -30.0503 -3.53197 -96.5782 160.865C-243.728 524.488 112.229 635.378 132.959 516.993C171.485 296.97 202.107 416.604 402.5 319.533C602.893 222.462 478.307 107.49 290.438 77.817Z" stroke="#31C64F" stroke-opacity="0.2" stroke-width="0.5"/>
<path d="M286.819 89.0048C141.26 63.6574 -23.0994 5.11856 -90.2075 163.716C-238.641 514.511 105.263 627.622 127.201 512.998C167.974 299.964 195.874 416.586 391.922 325.405C587.97 234.223 468.768 120.689 286.819 89.0048Z" stroke="#31C64F" stroke-opacity="0.2" stroke-width="0.5"/>
<path d="M283.176 99.8361C142.366 73.0229 -16.1739 13.7249 -83.6964 166.547C-233.046 504.567 98.8246 619.547 121.858 508.691C164.666 302.66 189.947 416.216 381.516 330.763C573.084 245.309 459.19 133.353 283.176 99.8361Z" stroke="#31C64F" stroke-opacity="0.2" stroke-width="0.5"/>
<path d="M279.515 110.311C143.462 82.1748 -9.27669 22.2861 -77.0487 169.36C-226.951 494.665 92.9164 611.164 116.932 504.082C161.566 305.064 184.332 415.502 371.29 335.611C558.249 255.72 449.581 145.48 279.515 110.311Z" stroke="#31C64F" stroke-opacity="0.2" stroke-width="0.5"/>
<path d="M275.848 120.429C144.559 91.1133 -2.40074 30.8016 -70.2584 172.158C-220.35 484.819 87.5503 602.487 112.435 499.181C158.684 307.182 179.04 414.45 361.262 339.955C543.485 265.46 439.961 157.073 275.848 120.429Z" stroke="#31C64F" stroke-opacity="0.2" stroke-width="0.5"/>
<path d="M272.181 130.193C145.657 99.8405 4.45112 39.2725 -63.3295 174.947C-213.25 475.04 82.728 593.531 108.369 494.001C156.024 309.02 174.074 413.071 351.439 343.802C528.803 274.534 430.337 168.133 272.181 130.193Z" stroke="#31C64F" stroke-opacity="0.2" stroke-width="0.5"/>
<path d="M268.523 139.6C146.763 108.354 11.281 47.6953 -56.2608 177.727C-205.654 465.337 78.4561 584.306 104.741 488.549C153.592 310.581 169.444 411.37 341.832 347.155C514.22 282.941 420.723 178.658 268.523 139.6Z" stroke="#31C64F" stroke-opacity="0.2" stroke-width="0.5"/>
<path d="M264.882 148.653C147.882 116.655 18.091 56.0711 -49.0516 180.501C-197.561 455.723 74.7404 574.825 101.557 482.837C151.396 311.872 165.157 409.356 332.455 350.021C499.753 290.686 411.132 188.651 264.882 148.653Z" stroke="#31C64F" stroke-opacity="0.2" stroke-width="0.5"/>
<path d="M261.266 157.353C149.018 124.746 24.8803 64.3995 -41.704 183.275C-188.979 446.209 71.584 565.104 98.8196 476.876C149.438 312.899 161.217 407.039 323.315 352.407C485.414 297.774 401.574 198.113 261.266 157.353Z" stroke="#31C64F" stroke-opacity="0.2" stroke-width="0.5"/>
<path d="M257.682 165.702C150.177 132.627 31.651 72.6812 -34.2172 186.051C-179.908 436.809 68.9924 555.156 96.5358 470.678C147.727 313.67 157.632 404.428 314.426 354.319C471.219 304.21 392.064 207.047 257.682 165.702Z" stroke="#31C64F" stroke-opacity="0.2" stroke-width="0.5"/>
<path d="M254.141 173.7C151.363 140.297 38.4052 80.9138 -26.5905 188.831C-170.352 427.529 66.9708 544.993 94.7109 464.251C146.267 314.189 154.408 401.53 305.797 355.763C457.185 309.997 382.613 215.454 254.141 173.7Z" stroke="#31C64F" stroke-opacity="0.2" stroke-width="0.5"/>
<path d="M250.648 181.349C152.581 147.759 45.1421 89.098 -18.8263 191.62C-160.315 418.384 65.5212 534.629 93.3473 457.609C145.063 314.463 151.551 398.355 297.437 356.747C443.324 315.139 373.233 223.337 250.648 181.349Z" stroke="#31C64F" stroke-opacity="0.2" stroke-width="0.5"/>
<path d="M247.213 188.651C153.835 155.014 51.8639 97.2334 -10.924 194.42C-149.802 409.384 64.6483 524.079 92.4504 450.762C144.122 314.498 149.066 394.911 289.359 357.277C429.652 319.643 363.936 230.697 247.213 188.651Z" stroke="#31C64F" stroke-opacity="0.2" stroke-width="0.5"/>
<path d="M243.844 195.609C155.132 162.065 58.5728 105.321 -2.8831 197.237C-138.815 400.54 64.3566 513.357 92.0251 443.722C143.448 314.302 146.961 391.21 281.573 357.363C416.185 323.516 354.735 237.54 243.844 195.609Z" stroke="#31C64F" stroke-opacity="0.2" stroke-width="0.5"/>
<path d="M240.548 202.221C156.474 168.907 65.2678 113.357 5.29384 200.068C-127.36 391.86 64.6471 502.473 92.0733 436.497C143.046 313.878 145.238 387.256 274.086 357.007C402.934 326.757 345.641 243.864 240.548 202.221Z" stroke="#31C64F" stroke-opacity="0.2" stroke-width="0.5"/>
<path d="M237.333 208.496C157.867 175.549 71.9512 121.346 13.6072 202.924C-115.441 383.361 65.5237 491.447 92.5993 429.104C142.921 313.238 143.905 383.065 266.91 356.223C389.916 329.381 336.666 249.678 237.333 208.496Z" stroke="#31C64F" stroke-opacity="0.2" stroke-width="0.5"/>
<path d="M234.209 214.429C159.317 181.987 78.6251 129.284 22.0572 205.801C-103.063 375.047 66.9899 480.287 93.6077 421.55C143.078 312.383 142.967 378.64 260.056 355.014C377.145 331.388 327.823 254.982 234.209 214.429Z" stroke="#31C64F" stroke-opacity="0.2" stroke-width="0.5"/>
<path d="M231.18 220.028C160.826 188.226 85.2888 137.172 30.6411 208.707C-90.2315 366.932 69.0459 469.011 95.0993 413.848C143.521 311.325 142.427 373.995 253.531 353.391C364.634 332.787 319.122 259.78 231.18 220.028Z" stroke="#31C64F" stroke-opacity="0.2" stroke-width="0.5"/>
<path d="M228.255 225.294C162.4 194.267 91.9433 145.012 39.3582 211.645C-76.9524 359.028 71.6938 457.632 97.0771 406.011C144.253 310.069 142.29 369.139 247.343 351.363C352.397 333.586 310.574 264.079 228.255 225.294Z" stroke="#31C64F" stroke-opacity="0.2" stroke-width="0.5"/>
<path d="M225.444 230.23C164.044 200.11 98.592 152.8 48.2095 214.615C-63.2292 351.34 74.937 446.163 99.5455 398.047C145.282 308.622 142.562 364.08 241.505 348.935C340.448 333.789 302.194 267.879 225.444 230.23Z" stroke="#31C64F" stroke-opacity="0.2" stroke-width="0.5"/>
<path d="M222.752 234.837C165.762 205.758 105.235 160.538 57.1931 217.622C-49.0685 343.882 78.776 434.619 102.506 389.971C146.609 306.99 143.246 358.829 236.024 346.118C328.802 333.406 293.99 271.187 222.752 234.837Z" stroke="#31C64F" stroke-opacity="0.2" stroke-width="0.5"/>
<path d="M220.189 239.121C167.559 211.213 111.874 168.226 66.3088 220.668C-34.4753 336.663 83.2128 423.013 105.961 381.793C148.24 305.182 144.348 353.396 230.91 342.92C317.472 332.444 285.977 274.007 220.189 239.121Z" stroke="#31C64F" stroke-opacity="0.2" stroke-width="0.5"/>
<path d="M217.762 243.085C169.44 216.477 118.51 175.863 75.5547 223.757C-19.4566 329.693 88.2473 411.361 109.913 373.525C150.179 303.204 145.869 347.79 226.17 339.351C306.47 330.912 278.164 276.344 217.762 243.085Z" stroke="#31C64F" stroke-opacity="0.2" stroke-width="0.5"/>
<path d="M215.477 246.731C171.408 221.552 125.144 183.45 84.9296 226.893C-4.01884 322.981 93.8797 399.676 114.361 365.179C152.428 301.065 147.815 342.023 221.813 335.42C295.81 328.817 270.562 278.204 215.477 246.731Z" stroke="#31C64F" stroke-opacity="0.2" stroke-width="0.5"/>
<path d="M213.339 250.065C173.466 226.442 131.775 190.988 94.4304 230.078C11.8296 316.539 100.108 387.973 119.307 356.768C154.989 298.772 150.186 336.104 217.844 331.137C285.503 326.169 263.181 279.593 213.339 250.065Z" stroke="#31C64F" stroke-opacity="0.2" stroke-width="0.5"/>
<path d="M211.36 253.088C175.622 231.147 138.407 198.474 104.059 233.313C28.0849 310.374 106.936 376.264 124.754 348.301C157.868 296.331 152.988 330.043 214.276 326.509C275.563 322.976 256.033 280.514 211.36 253.088Z" stroke="#31C64F" stroke-opacity="0.2" stroke-width="0.5"/>
<path d="M209.545 255.806C177.877 235.67 145.041 205.91 113.812 236.604C44.7392 304.495 114.362 364.564 130.701 339.792C161.068 293.751 156.224 323.85 211.114 321.548C266.004 319.246 249.13 280.975 209.545 255.806Z" stroke="#31C64F" stroke-opacity="0.2" stroke-width="0.5"/>
<path d="M207.902 258.223C180.238 240.015 151.678 213.297 123.69 239.954C61.7863 298.915 122.385 352.89 137.15 331.254C164.592 291.041 159.896 317.537 208.367 316.265C256.837 314.992 242.482 280.984 207.902 258.223Z" stroke="#31C64F" stroke-opacity="0.2" stroke-width="0.5"/>
<path d="M206.437 260.343C182.707 244.182 158.317 220.633 133.69 243.363C79.2171 293.638 131.003 341.252 144.1 322.695C168.442 288.206 164.007 311.112 206.04 310.666C248.074 310.22 236.099 280.543 206.437 260.343Z" stroke="#31C64F" stroke-opacity="0.2" stroke-width="0.5"/>
<path d="M205.156 262.169C185.289 248.176 164.962 227.918 143.81 246.835C97.0249 288.676 140.216 329.665 151.552 314.129C172.621 285.254 168.558 304.586 204.142 304.764C239.727 304.941 229.991 279.66 205.156 262.169Z" stroke="#31C64F" stroke-opacity="0.2" stroke-width="0.5"/>
</svg>
