<svg width="25" height="25" viewBox="0 0 25 25" fill="none" xmlns="http://www.w3.org/2000/svg">
<g clip-path="url(#clip0_2050_2508)">
<path d="M9.55371 11.9783V8.23828C9.55371 6.85828 10.6737 5.73828 12.0537 5.73828C13.4337 5.73828 14.5537 6.85828 14.5537 8.23828V11.9783C15.7637 11.1683 16.5537 9.79828 16.5537 8.23828C16.5537 5.74828 14.5437 3.73828 12.0537 3.73828C9.56371 3.73828 7.55371 5.74828 7.55371 8.23828C7.55371 9.79828 8.34371 11.1683 9.55371 11.9783ZM19.3937 16.6083L14.8537 14.3483C14.6837 14.2783 14.5037 14.2383 14.3137 14.2383H13.5537V8.23828C13.5537 7.40828 12.8837 6.73828 12.0537 6.73828C11.2237 6.73828 10.5537 7.40828 10.5537 8.23828V18.9783C6.95371 18.2183 7.01371 18.2283 6.88371 18.2283C6.57371 18.2283 6.29371 18.3583 6.09371 18.5583L5.30371 19.3583L10.2437 24.2983C10.5137 24.5683 10.8937 24.7383 11.3037 24.7383H18.0937C18.8437 24.7383 19.4237 24.1883 19.5337 23.4583L20.2837 18.1883C20.2937 18.1183 20.3037 18.0483 20.3037 17.9883C20.3037 17.3683 19.9237 16.8283 19.3937 16.6083Z" fill="#3F3F3F"/>
</g>
<defs>
<clipPath id="clip0_2050_2508">
<rect width="24" height="24" fill="white" transform="translate(0.553711 0.738281)"/>
</clipPath>
</defs>
</svg>
