<?xml version="1.0" encoding="utf-8"?>
<!-- Generator: Adobe Illustrator 28.0.0, SVG Export Plug-In . SVG Version: 6.00 Build 0)  -->
<svg version="1.1" id="Layer_1" xmlns="http://www.w3.org/2000/svg" xmlns:xlink="http://www.w3.org/1999/xlink" x="0px" y="0px"
	 viewBox="0 0 1200 800" style="enable-background:new 0 0 1200 800;" xml:space="preserve">
<style type="text/css">
	.st0{fill:#239659;}
	.st1{fill:none;}
	.st2{fill:#54B94F;}
	.st3{enable-background:new    ;}
	.st4{fill:#78797A;}
	.st5{fill:#00A6B3;}
	.st6{fill:#0A80A6;}
	.st7{fill:#425B81;}
</style>
<g>
	<g>
		<g>
			<path class="st0" d="M122.5,356.4c0.9-13.5,1.8-20.1,2.7-33.5c0.7-13-4.1-16.4-11-16.4c-7.5,0-15.1,6.8-16.4,28.8
				c-3,48-9,92.3-11.6,140.3c-0.7,12.3,4.8,15.1,8.9,15.7c8.9,0.7,16.4-6.2,17.8-20.5c1.1-11.6,1.8-23.3,2.7-34.9
				c11.2-1.6,23.5-3,34.6-4.6c-0.7,12.3-1.8,21-3.2,33.3c-0.3,2.9-3.4,37.7-32.9,55.5c-6.6,3.6-26,11-42.4,5.5
				c-11.3-3.8-22.6-19.2-21.9-39c1.8-52.4,10.8-138.3,11.6-150.6c2.1-29.4,21.2-60.9,52.7-64.4c5.5-0.7,19.9-2.1,28.8,4.1
				c12.3,8.9,16.4,23.3,16.4,35.6c0,13-1.4,21.9-2.7,41.1C156.8,352.3,134,354.9,122.5,356.4z"/>
			<path class="st0" d="M169.7,267.7c-7.1,83.3-13.8,167.5-20.9,250.8c11.6-1.6,22.9-4.1,34.6-5.7c0.1-1.1,0.2-2.9,0.4-5.1
				c4.7-62.9,6.8-103.7,10.6-135.3c1.4-11.6,11.4-17.7,15.7-17.1c1.4,0.2,5.5,0.7,4.8,8.9c-3.9,49.1-8.7,96.8-12.5,145.8
				c11.4-1.6,23-3.9,34.4-5.5c4.1-49.3,8.2-98.6,12.3-147.9c0.7-13,0.2-19.6-3.4-27.4c-6.2-13-19.9-10.1-21.2-9.6
				c-11,4.1-17.1,12.3-26.7,21.9c2.1-26.2,4.1-53.2,6.2-79.4C192.5,264,181.1,265.9,169.7,267.7z"/>
			<path class="st0" d="M332.5,310.5c-15.8-12.7-47.2-8.9-65,17.1c-3.8,5.6-9.6,17-11.6,30.8c-0.5,3.3-0.6,5.7-0.7,6.8
				c-2,33.1-4.9,57.3-6.8,85.6c-2.1,30.1,9.6,46.6,35.6,45.9c14.4-0.4,39-10.1,49.3-41.1c4.1-12.3,4.8-35.6,4.8-35.6
				c-10.7,1.6-21.4,3.2-32.2,4.8c-0.5,8-0.1,14-1.4,21.9c-2.7,16.4-10.3,19.9-16.4,19.2c-4.2-0.5-8.9-4.8-8.2-16.4
				c0.9-14.4,2.5-26.7,3.4-41.1c18.9-3,37.9-5.9,56.8-8.9c1.4-18,2.7-36.1,4.1-54.1C344.4,342.7,346,321.4,332.5,310.5z
				 M312.7,348.8c-0.7,8.9-1.4,19.2-2.1,28.8c-8.2,1.1-16.4,2.3-24.6,3.4c0,0-0.2-22,4.1-34.9c1.4-4.1,4.8-10.3,11.6-11.6
				C310.7,332.7,313.4,340.6,312.7,348.8z"/>
			<path class="st0" d="M384.7,344.7c-4.1,45.2-5,60.9-7.5,90.4c-1.4,15.7,3.4,16.4,6.8,16.4c6.2,0,11.6-2.1,13-20.5
				c0.7-8.9,0.7-8.9,1.4-22.6c11.2-1.4,23-2.7,34.2-4.1c0,3.4-0.2,7.4-0.5,11.7c0,0-0.7,7.9-1.5,14.3c-3.4,27.4-17.1,38.3-17.1,38.3
				l0,0c-15.3,15.3-48.6,19.2-60.5,3.9c-4.8-6.2-9.2-13.8-7.6-44.4c1.4-27.7,3.6-51.1,5.8-78.7c0.4-4.8,3.2-36.5,26-52
				c4.8-3.2,23.2-11.1,41.8-7.5c21.2,4.1,19.9,29.4,19.9,32.9c0,11-1.4,23.9-1.4,28.8c0,0.7-22.8,3.2-34.2,4.8
				c0.7-9.4,1.4-15.3,2.1-24.6c0.7-8.9-2-10.4-5.5-11c-4.8-0.7-12.3,2.7-13.7,12.3C385.7,336.1,385.3,338.4,384.7,344.7z"/>
			<path class="st0" d="M454.7,222.5c11.5-1.5,25-3,36.4-4.9c-3.4,39.7-6.2,79.4-9.6,119.1c0.7,0,0.7,0,1.4,0
				c8-19.4,16-38.8,24-58.2c9.8-1.4,19.6-2.7,29.4-4.1c-9.6,21.2-19.2,42.4-28.8,63.7c6.6,40.4,13.2,80.8,19.9,121.2
				c-11,1.6-21.9,3.2-32.9,4.8c-3.4-24.9-7.5-49.7-11-74.6c-0.7,0-0.7,0-1.4,0c-2.3,4.8-4.6,9.6-6.8,14.4
				c-1.8,21.5-3.7,42.9-5.5,64.4c-11.2,1.6-23.1,3.6-34.3,5.1C442.4,390.1,447.9,305.8,454.7,222.5z"/>
			<path class="st0" d="M538.2,210c11.2-1.8,22.4-3.7,33.5-5.5c1.1,45.4,2.3,90.8,3.4,136.2c0.7,0,1.4,0,2.1,0
				c9.6-47,19.2-94,28.8-141c8.7-1.4,17.3-2.7,26-4.1c1.6,45.2,3.2,90.4,4.8,135.5c0.9,0,1.8,0,2.7,0c9.1-47,18.3-93.4,27.4-140.4
				c11.2-1.6,22.4-3.8,33.5-5.4c-18.3,85.1-36.5,170.2-54.8,255.3c-9.6,1.4-21.6,3.7-31.2,5.1c-2.3-43.4-2.2-87.7-4.4-131
				c-0.5,0-0.9,0-1.4,0c-10,45.4-20.1,90.8-30.1,136.2c-9.6,1.4-19.5,3.4-29.1,4.8C545.7,374.1,542.1,291.7,538.2,210z"/>
			<path class="st0" d="M800.3,211.3c-6.2-44.5-55.4-32.8-57.5-32.9c-11.4,1.8-24.3,4-35.7,5.8c-7.1,83.3-13.6,166.8-20.6,250.1
				c12.1-1.6,25.1-3.7,37.2-5.3c3-35.4,5.9-70.7,8.9-106.1c3.4-0.2,6.8-0.5,10.3-0.7c3.4,34,6.8,68,10.3,102
				c11.9-1.8,23.7-3.6,35.6-5.5c-4.1-39.2-8.2-78.5-12.3-117.7C801.7,281.1,803.2,232.5,800.3,211.3z M765.4,253.8
				c-1.7,16.6-11.6,34.2-29.4,34.9c2.1-24.9,4.1-49.7,6.2-74.6C759.9,212.7,768.8,219.5,765.4,253.8z"/>
			<g id="R-letter">
				<path class="st0" d="M1149,157.5c-6.2-44.5-55.4-32.8-57.5-32.9c-8,1.3-12.8,2-34.2,5.5c-7.1,83.3-14.2,167.4-21.3,250.7
					c12.1-1.6,24.3-4,36.4-5.6c3-35.4,5.9-70.7,8.9-106.1c3.4-0.2,6.8-0.5,10.3-0.7c3.4,34,6.8,68,10.3,102
					c11.9-1.8,23.7-3.6,35.6-5.5c-4.1-39.2-8.2-78.5-12.3-117.7C1150.3,227.3,1151.9,178.7,1149,157.5z M1114.1,199.9
					c-1.7,16.6-11.6,34.2-29.4,34.9c2.1-24.9,4.1-49.7,6.2-74.6C1108.6,158.8,1117.5,165.7,1114.1,199.9z"/>
			</g>
			<path class="st0" d="M816.1,166.7c-7.1,83.5-14,168-21.1,251.5c12.1-1.8,24.6-3.5,36.7-5.4c2.1-25.4,7.9-101.3,10.1-126.7
				c2.1-25.1,7.8-99.8,9.9-124.9c-4.3,0.6-8,1.2-12.4,1.8C831.5,164.2,823.7,165.5,816.1,166.7z"/>
			<path class="st0" d="M858.1,160.9c-0.4-0.4-1.5,25.1-2.7,37.9c11.2-1.6,21.9-3.1,33.1-4.7c-5.9,70.7-11.9,141.5-17.8,212.2
				c12.1-1.8,24.2-3.7,36.3-5.5c5.9-71,11.9-141.9,17.8-212.9c11.2-1.6,21.9-2.9,33.1-4.5c0.9-12.8,2.5-25.8,3.4-38.6
				C927.1,150.1,892.4,155.7,858.1,160.9z"/>
			<path class="st0" d="M967.5,144.1c-7.1,83.3-14,167.2-21,250.5c27.6-4.1,56.2-8.8,83.8-13c0.9-12.3,1.8-24.6,2.7-37
				c-15.5,2.3-31,4.6-46.6,6.8c1.8-23,3.7-46.1,5.5-69.1c11.4-1.6,22.8-3.2,34.2-4.8c0.9-13.2,1.8-26.5,2.7-39.7
				c-11.2,1.6-22.4,3.2-33.5,4.8c1.8-22.1,3.7-44.3,5.5-66.4c15.7-2.3,31.5-4.6,47.2-6.8c0.9-12.6,2.5-25.1,3.4-37.7
				C1024.1,135.9,994.9,140,967.5,144.1z"/>
		</g>
		<g>
			<line class="st1" x1="723.3" y1="125.6" x2="723.3" y2="117.5"/>
			<path class="st2" d="M1156.4,428.1C785.5,485.7,414.5,543.3,43.6,600.9v-8c371-57.6,742.1-115.5,1112.7-173.1v8.3H1156.4z"/>
			<path class="st2" d="M445.7,160.4v8c-134,20.8-268,41.6-402,62.4v-8C177.6,202.1,311.7,181.3,445.7,160.4z"/>
			<path class="st2" d="M1156.4,49.9v8.2c-144.3,22.4-288.6,44.8-432.9,67.2v-8.1C867.8,94.7,1012.1,72.3,1156.4,49.9z"/>
			<g>
				<polygon class="st2" points="561,119.8 561,165 544.9,165 526.6,135.1 526.6,165 513.6,165 513.6,119.8 531.4,119.8 548,146.8 
					548,119.8 				"/>
				<polygon class="st2" points="566.1,165 579.1,165 596.1,165 599.4,165 599.4,155 590.6,155 579.5,155 579.5,134.7 579.5,119.8 
					566.1,119.8 				"/>
				<rect x="603.9" y="119.8" class="st2" width="13.8" height="45.1"/>
				<polygon class="st2" points="687.4,129.8 687.4,138.2 706.5,138.2 706.5,147.4 687.4,147.4 687.4,155 711.1,155 711.1,165 
					674.7,165 674.7,119.8 711.1,119.8 711.1,129.8 				"/>
				<polygon class="st2" points="669.7,119.8 669.7,165 653.6,165 635.3,135.1 635.3,165 622.3,165 622.3,119.8 640.1,119.8 
					656.7,146.8 656.7,119.8 				"/>
				<path class="st2" d="M483.3,119.8c-14.8,0-25.2,10.3-25.2,22.7c0,12.5,10.4,22.4,25.2,22.4s25.3-9.9,25.3-22.4
					C508.6,130.1,498,119.8,483.3,119.8z M483.3,155c-7,0-12.6-5.7-12.6-12.6s5.7-12.6,12.6-12.6c7,0,12.6,5.7,12.6,12.6
					S490.2,155,483.3,155z"/>
			</g>
		</g>
	</g>
	<g class="st3">
		<path class="st4" d="M84.8,692.7c-3.4,3.3-8.5,4.9-15.4,4.9H57.9v24.8h-7.7V663h19.1c6.7,0,11.8,1.6,15.3,4.9
			c3.5,3.2,5.2,7.4,5.2,12.5C89.8,685.3,88.2,689.4,84.8,692.7z M78.9,688.4c2-1.9,3.1-4.5,3.1-8c0-7.3-4.2-11-12.6-11H57.9v21.8
			h11.4C73.6,691.2,76.8,690.3,78.9,688.4z"/>
		<path class="st4" d="M107.9,720.1c-3.5-2-6.3-4.8-8.3-8.5c-2-3.7-3-7.9-3-12.7c0-4.8,1-9,3.1-12.6c2.1-3.7,4.9-6.5,8.5-8.4
			s7.6-2.9,12-2.9c4.4,0,8.4,1,12,2.9s6.4,4.8,8.5,8.4c2.1,3.6,3.1,7.9,3.1,12.7c0,4.8-1.1,9.1-3.2,12.7c-2.1,3.7-5,6.5-8.6,8.5
			c-3.6,2-7.7,3-12.1,3C115.4,723.1,111.5,722.1,107.9,720.1z M127.6,714.3c2.4-1.3,4.4-3.3,5.9-5.9c1.5-2.6,2.3-5.8,2.3-9.5
			c0-3.7-0.7-6.9-2.2-9.5c-1.5-2.6-3.4-4.6-5.8-5.8c-2.4-1.3-5-1.9-7.7-1.9c-2.8,0-5.4,0.6-7.8,1.9c-2.4,1.3-4.2,3.2-5.7,5.8
			c-1.4,2.6-2.1,5.8-2.1,9.5c0,3.8,0.7,7,2.1,9.6c1.4,2.6,3.2,4.6,5.6,5.8c2.3,1.3,4.9,1.9,7.7,1.9
			C122.6,716.3,125.2,715.6,127.6,714.3z"/>
		<path class="st4" d="M216,675.7l-14.6,46.6h-8l-11.2-37l-11.2,37h-8l-14.6-46.6h7.9l10.7,39.1l11.6-39.1h7.9l11.3,39.2l10.6-39.2
			H216z"/>
		<path class="st4" d="M266,701.9h-37.3c0.3,4.6,1.9,8.2,4.7,10.8c2.9,2.6,6.3,3.9,10.4,3.9c3.3,0,6.1-0.8,8.4-2.3
			c2.2-1.6,3.8-3.6,4.7-6.3h8.3c-1.2,4.5-3.7,8.1-7.5,10.9c-3.7,2.8-8.4,4.2-14,4.2c-4.4,0-8.4-1-11.9-3c-3.5-2-6.2-4.8-8.2-8.5
			c-2-3.7-3-7.9-3-12.7c0-4.8,1-9,2.9-12.7c1.9-3.6,4.6-6.4,8.1-8.4c3.5-2,7.5-2.9,12-2.9c4.4,0,8.3,1,11.7,2.9c3.4,1.9,6,4.6,7.9,8
			c1.8,3.4,2.8,7.2,2.8,11.4C266.3,698.7,266.2,700.3,266,701.9z M256.3,688c-1.3-2.1-3.1-3.7-5.3-4.9c-2.2-1.1-4.7-1.7-7.4-1.7
			c-3.9,0-7.2,1.2-10,3.7c-2.8,2.5-4.3,6-4.7,10.4h29.4C258.3,692.7,257.6,690.1,256.3,688z"/>
		<path class="st4" d="M290,677.1c2.5-1.5,5.6-2.2,9.2-2.2v8h-2c-8.7,0-13,4.7-13,14.1v25.4h-7.7v-46.6h7.7v7.6
			C285.6,680.6,287.5,678.5,290,677.1z"/>
		<path class="st4" d="M350.5,701.9h-37.3c0.3,4.6,1.9,8.2,4.7,10.8c2.9,2.6,6.3,3.9,10.4,3.9c3.3,0,6.1-0.8,8.4-2.3
			c2.2-1.6,3.8-3.6,4.7-6.3h8.3c-1.2,4.5-3.7,8.1-7.5,10.9c-3.7,2.8-8.4,4.2-14,4.2c-4.4,0-8.4-1-11.9-3c-3.5-2-6.2-4.8-8.2-8.5
			c-2-3.7-3-7.9-3-12.7c0-4.8,1-9,2.9-12.7c1.9-3.6,4.6-6.4,8.1-8.4c3.5-2,7.5-2.9,12-2.9c4.4,0,8.3,1,11.7,2.9c3.4,1.9,6,4.6,7.9,8
			c1.8,3.4,2.8,7.2,2.8,11.4C350.8,698.7,350.7,700.3,350.5,701.9z M340.8,688c-1.3-2.1-3.1-3.7-5.3-4.9c-2.2-1.1-4.7-1.7-7.4-1.7
			c-3.9,0-7.2,1.2-10,3.7c-2.8,2.5-4.3,6-4.7,10.4h29.4C342.8,692.7,342.1,690.1,340.8,688z"/>
		<path class="st4" d="M361,686.3c1.9-3.6,4.6-6.4,8-8.4c3.4-2,7.2-3,11.4-3c3.6,0,7,0.8,10.1,2.5c3.1,1.7,5.5,3.9,7.1,6.6v-24.7
			h7.8v63h-7.8v-8.8c-1.5,2.8-3.8,5.1-6.8,6.9c-3,1.8-6.5,2.7-10.6,2.7c-4.1,0-7.9-1-11.3-3.1c-3.4-2-6-4.9-8-8.6
			c-1.9-3.7-2.9-7.9-2.9-12.6C358.1,694.1,359,689.9,361,686.3z M395.4,689.7c-1.4-2.6-3.3-4.6-5.7-6c-2.4-1.4-5.1-2.1-8-2.1
			c-2.9,0-5.5,0.7-7.9,2s-4.3,3.3-5.7,6c-1.4,2.6-2.1,5.7-2.1,9.2c0,3.6,0.7,6.7,2.1,9.3c1.4,2.6,3.3,4.7,5.7,6
			c2.4,1.4,5,2.1,7.9,2.1c2.9,0,5.5-0.7,8-2.1c2.4-1.4,4.3-3.4,5.7-6c1.4-2.6,2.1-5.7,2.1-9.2C397.6,695.4,396.9,692.4,395.4,689.7z
			"/>
		<path class="st4" d="M455.9,677.6c3.1-1.8,6.6-2.6,10.5-2.6c4.2,0,8,1,11.3,3c3.3,2,6,4.8,7.9,8.4c1.9,3.6,2.9,7.8,2.9,12.6
			c0,4.7-1,8.9-2.9,12.6c-1.9,3.7-4.6,6.6-8,8.6c-3.4,2-7.1,3.1-11.3,3.1c-4,0-7.6-0.9-10.6-2.6c-3-1.8-5.3-4-6.9-6.7v8.6h-7.7v-63
			h7.7v25C450.6,681.6,452.9,679.3,455.9,677.6z M478.5,689.7c-1.4-2.6-3.3-4.6-5.7-6c-2.4-1.4-5.1-2-8-2c-2.8,0-5.5,0.7-7.9,2.1
			c-2.4,1.4-4.3,3.4-5.8,6c-1.4,2.6-2.2,5.7-2.2,9.1c0,3.5,0.7,6.6,2.2,9.2c1.4,2.6,3.4,4.7,5.8,6c2.4,1.4,5,2.1,7.9,2.1
			c2.9,0,5.5-0.7,8-2.1c2.4-1.4,4.3-3.4,5.7-6c1.4-2.6,2.1-5.7,2.1-9.3C480.6,695.3,479.9,692.3,478.5,689.7z"/>
		<path class="st4" d="M538.9,675.7l-28.1,68.6h-8l9.2-22.5l-18.8-46.1h8.6l14.6,37.8l14.5-37.8H538.9z"/>
	</g>
	<g>
		<path class="st5" d="M651.2,737.2c-1.4-1.2-3.5-2.9-6.2-4.3h-0.1l0,0c-0.3-0.2-0.6-0.3-0.9-0.5l0,0c-2.3-1.1-5.2-1.8-9.2-2.6
			c-2.4-0.5-4.2-1-11.3-2c-15.8-2.3-18.9-2.6-22.9-3.5c-7.1-1.6-10.4-3.8-12.1-6.8c-2.9-4.9-2.2-9.6-2.1-12.1
			c2.7,2.1,6.4,4,11.1,5.2c4.5,1.2,5.3,1.3,16.9,3.7c5,1.1,9.8,2.2,15.2,3.7c1.2,0.4,2.3,0.7,3.3,1l0,0c4.2,1.3,6.2,2.3,8.1,3.5
			c2.9,1.8,5.6,3.5,7.7,7.2l0,0c0,0.1,0.1,0.1,0.1,0.2c1.1,2,1.7,4,2,5.7C651,736.2,651.1,736.7,651.2,737.2z"/>
		<path class="st6" d="M648.9,724.3c-2.1-3.7-4.5-5.3-7.9-7.4c-2.4-1.5-4.8-2.5-11.4-4.4c-5.5-1.6-10.2-2.7-15.2-3.7
			c-11.6-2.4-12.4-2.6-16.9-3.7c-6.7-1.7-11.3-4.8-13.8-7.9c-4.5-5.5-3.9-13.3-4.3-17.6c0.6,0.6,1.3,1.2,2,1.7
			c2,1.5,8.2,4.8,14.7,7.4c11.7,4.6,16.2,5.3,29.1,10.2c3.1,1.2,5.6,2.2,7.8,3.3c0,0,0.1,0,0.1,0.1c1.9,1,4.4,2.4,6.9,4.6
			c2,1.8,4.7,4,6.6,7.9C648.4,718.4,648.9,721.9,648.9,724.3z"/>
		<path class="st7" d="M646.6,709.3c-1.9-3.9-4.6-6.2-6.6-7.9c-2.5-2.2-4.9-3.6-6.9-4.6c0,0-0.1,0-0.1-0.1c-2.2-1.1-4.7-2.1-7.8-3.3
			c-12.9-4.9-17.4-5.6-29.1-10.2c-6.5-2.6-12.7-5.9-14.7-7.4c-9.6-7.2-8.6-17.9-9-25.5c3.6,3,7.9,6.6,15.6,11
			c5.1,2.9,14.3,7.1,24.1,11.7c19.9,9.3,21.8,11.1,23.6,12.5C642.4,690.5,644.7,696.1,646.6,709.3z"/>
		<g>
			<path class="st7" d="M879.8,671.2h16.3v66h-18v-40.6l-17.4,21L843.3,697v40.1h-18v-66h16.3l19.1,21.8L879.8,671.2z"/>
			<path class="st7" d="M968.2,704.2c0,26.3-18.6,34.1-32,34.1s-32.2-7.8-32.2-34.1c0-26.2,19.3-34.1,32.2-34.1
				C949,670.1,968.2,677.8,968.2,704.2z M923.8,704.2c0,11.3,4,18.4,12.4,18.4c8.8,0,12.2-7.1,12.2-18.4c0-8.5-2.6-18.1-12.2-18.1
				C926.6,686.1,923.8,695.7,923.8,704.2z"/>
			<path class="st7" d="M1014.1,704.9v-33.8h18v66h-18l-20-32.6v32.6h-18v-66h18L1014.1,704.9z"/>
			<path class="st7" d="M1083.3,696.1v15.2h-24.8v8.6h31.8v17.3h-49.8v-66h49.8v17.3h-31.8v7.7L1083.3,696.1L1083.3,696.1z"/>
			<path class="st7" d="M1156.4,671.2l-22.8,39.2v26.9h-18v-26.9l-22.7-39.2h18l13.7,23.3l13.7-23.3H1156.4z"/>
		</g>
		<g>
			<path class="st7" d="M722.5,737.2h-54.3v-9.9l34.2-43.6h-31.1v-12.5h50.3v10l-33.2,43.4h34.2v12.6H722.5z"/>
			<path class="st7" d="M741.3,737.2h-14.5v-66h14.5V737.2z"/>
			<path class="st7" d="M795.4,737.2h-45.1v-66h14.5v53h30.7v13H795.4z"/>
		</g>
	</g>
</g>
</svg>
