<svg width="41" height="41" viewBox="0 0 41 41" fill="none" xmlns="http://www.w3.org/2000/svg">
<mask id="mask0_736_2616" style="mask-type:alpha" maskUnits="userSpaceOnUse" x="0" y="0" width="41" height="41">
<rect x="0.5" y="0.5" width="40" height="40" fill="#D9D9D9"/>
</mask>
<g mask="url(#mask0_736_2616)">
<path d="M20.4998 18.8334C22.3332 18.8334 23.9026 18.1806 25.2082 16.875C26.5137 15.5695 27.1665 14 27.1665 12.1667V7.16671H13.8332V12.1667C13.8332 14 14.4859 15.5695 15.7915 16.875C17.0971 18.1806 18.6665 18.8334 20.4998 18.8334ZM7.1665 37.1667V33.8334H10.4998V28.8334C10.4998 27.1389 10.8957 25.5487 11.6873 24.0625C12.479 22.5764 13.5832 21.3889 14.9998 20.5C13.5832 19.6112 12.479 18.4237 11.6873 16.9375C10.8957 15.4514 10.4998 13.8612 10.4998 12.1667V7.16671H7.1665V3.83337H33.8332V7.16671H30.4998V12.1667C30.4998 13.8612 30.104 15.4514 29.3123 16.9375C28.5207 18.4237 27.4165 19.6112 25.9998 20.5C27.4165 21.3889 28.5207 22.5764 29.3123 24.0625C30.104 25.5487 30.4998 27.1389 30.4998 28.8334V33.8334H33.8332V37.1667H7.1665Z" fill="#767786"/>
</g>
</svg>
