<svg width="34" height="42" viewBox="0 0 34 42" fill="none" xmlns="http://www.w3.org/2000/svg">
<path d="M13.8749 27.25H20.1249L18.927 20.5313C19.6214 20.1841 20.1683 19.6806 20.5676 19.0209C20.9669 18.3611 21.1666 17.632 21.1666 16.8334C21.1666 15.6875 20.7586 14.7066 19.9426 13.8906C19.1267 13.0747 18.1458 12.6667 16.9999 12.6667C15.8541 12.6667 14.8732 13.0747 14.0572 13.8906C13.2412 14.7066 12.8333 15.6875 12.8333 16.8334C12.8333 17.632 13.0329 18.3611 13.4322 19.0209C13.8315 19.6806 14.3784 20.1841 15.0728 20.5313L13.8749 27.25ZM16.9999 41.8334C12.1735 40.6181 8.18915 37.849 5.04679 33.5261C1.90443 29.2031 0.333252 24.4028 0.333252 19.125V6.41669L16.9999 0.166687L33.6666 6.41669V19.125C33.6666 24.4028 32.0954 29.2031 28.953 33.5261C25.8107 37.849 21.8263 40.6181 16.9999 41.8334Z" fill="#007FA5"/>
</svg>
