<svg width="116" height="116" viewBox="0 0 116 116" fill="none" xmlns="http://www.w3.org/2000/svg">
<path d="M2.18939 48.2472L26.5144 23.9222C27.8658 22.5708 29.4585 21.6055 31.2925 21.0264C33.1265 20.4472 35.0088 20.3507 36.9394 20.7368L44.4686 22.3295C39.2561 28.5073 35.1536 34.1059 32.1613 39.1253C29.1689 44.1448 26.2731 50.226 23.4738 57.3691L2.18939 48.2472ZM31.8717 61.4232C34.0918 54.4732 37.1083 47.9094 40.9212 41.7316C44.734 35.5538 49.3432 29.7621 54.7488 24.3566C63.2432 15.8621 72.9442 9.51543 83.8519 5.31647C94.7595 1.11751 104.943 -0.161481 114.403 1.47949C116.044 10.9392 114.789 21.1229 110.638 32.0305C106.488 42.9382 100.165 52.6392 91.6706 61.1337C86.3616 66.4427 80.5699 71.0519 74.2956 74.9613C68.0213 78.8707 61.4092 81.9354 54.4592 84.1555L31.8717 61.4232ZM71.8342 44.0482C74.0543 46.2684 76.7812 47.3785 80.0149 47.3785C83.2486 47.3785 85.9755 46.2684 88.1956 44.0482C90.4158 41.8281 91.5258 39.1012 91.5258 35.8675C91.5258 32.6338 90.4158 29.9069 88.1956 27.6868C85.9755 25.4666 83.2486 24.3566 80.0149 24.3566C76.7812 24.3566 74.0543 25.4666 71.8342 27.6868C69.614 29.9069 68.504 32.6338 68.504 35.8675C68.504 39.1012 69.614 41.8281 71.8342 44.0482ZM67.78 113.693L58.5133 92.4087C65.6564 89.6094 71.7618 86.7135 76.8295 83.7212C81.8972 80.7288 87.5199 76.6264 93.6977 71.4139L95.1456 78.943C95.5318 80.8736 95.4352 82.78 94.856 84.6623C94.2769 86.5446 93.3116 88.1614 91.9602 89.5128L67.78 113.693ZM11.4561 79.9566C14.8345 76.5781 18.937 74.8647 23.7633 74.8165C28.5897 74.7682 32.6922 76.4333 36.0706 79.8118C39.4491 83.1903 41.1383 87.2927 41.1383 92.1191C41.1383 96.9455 39.4491 101.048 36.0706 104.426C33.6574 106.84 29.6274 108.915 23.9805 110.652C18.3337 112.39 10.539 113.934 0.59668 115.286C1.94807 105.343 3.49251 97.5729 5.23001 91.9743C6.96751 86.3757 9.04286 82.3698 11.4561 79.9566Z" fill="url(#paint0_linear_1433_2477)"/>
<defs>
<linearGradient id="paint0_linear_1433_2477" x1="111.784" y1="5.91713" x2="0.337236" y2="115.308" gradientUnits="userSpaceOnUse">
<stop stop-color="#9DEDFF"/>
<stop offset="0.645" stop-color="#96B4E0"/>
<stop offset="0.775" stop-color="#51ABBF"/>
<stop offset="1" stop-color="#4F86D8"/>
</linearGradient>
</defs>
</svg>
