<svg width="26" height="26" viewBox="0 0 26 26" fill="none" xmlns="http://www.w3.org/2000/svg">
<mask id="mask0_362_1268" style="mask-type:alpha" maskUnits="userSpaceOnUse" x="0" y="0" width="26" height="26">
<rect width="26" height="26" fill="#D9D9D9"/>
</mask>
<g mask="url(#mask0_362_1268)">
<path d="M19.5 19.5C19.9514 19.5 20.3351 19.342 20.651 19.026C20.967 18.7101 21.125 18.3264 21.125 17.875C21.125 17.4236 20.967 17.0399 20.651 16.724C20.3351 16.408 19.9514 16.25 19.5 16.25C19.0486 16.25 18.6649 16.408 18.349 16.724C18.033 17.0399 17.875 17.4236 17.875 17.875C17.875 18.3264 18.033 18.7101 18.349 19.026C18.6649 19.342 19.0486 19.5 19.5 19.5ZM19.5 22.75C20.0417 22.75 20.5472 22.6236 21.0167 22.3708C21.4861 22.1181 21.8743 21.766 22.1813 21.3146C21.766 21.0618 21.3326 20.8767 20.8813 20.7594C20.4299 20.642 19.9694 20.5833 19.5 20.5833C19.0306 20.5833 18.5701 20.642 18.1188 20.7594C17.6674 20.8767 17.234 21.0618 16.8188 21.3146C17.1257 21.766 17.5139 22.1181 17.9833 22.3708C18.4528 22.6236 18.9583 22.75 19.5 22.75ZM19.5 24.9167C18.0014 24.9167 16.724 24.3885 15.6677 23.3323C14.6115 22.276 14.0833 20.9986 14.0833 19.5C14.0833 18.0014 14.6115 16.724 15.6677 15.6677C16.724 14.6115 18.0014 14.0833 19.5 14.0833C20.9986 14.0833 22.276 14.6115 23.3323 15.6677C24.3885 16.724 24.9167 18.0014 24.9167 19.5C24.9167 20.9986 24.3885 22.276 23.3323 23.3323C22.276 24.3885 20.9986 24.9167 19.5 24.9167ZM7.58333 9.75H18.4167V7.58333H7.58333V9.75ZM12.6479 22.75H5.41667C4.82083 22.75 4.31076 22.5378 3.88646 22.1135C3.46215 21.6892 3.25 21.1792 3.25 20.5833V5.41667C3.25 4.82083 3.46215 4.31076 3.88646 3.88646C4.31076 3.46215 4.82083 3.25 5.41667 3.25H20.5833C21.1792 3.25 21.6892 3.46215 22.1135 3.88646C22.5378 4.31076 22.75 4.82083 22.75 5.41667V12.675C22.2264 12.4222 21.6983 12.2326 21.1656 12.1063C20.633 11.9799 20.0778 11.9167 19.5 11.9167C19.3014 11.9167 19.1163 11.9212 18.9448 11.9302C18.7733 11.9392 18.5972 11.9618 18.4167 11.9979V11.9167H7.58333V14.0833H14.2188C13.8938 14.3903 13.6003 14.7243 13.3385 15.0854C13.0767 15.4465 12.8465 15.8347 12.6479 16.25H7.58333V18.4167H11.9979C11.9618 18.5972 11.9392 18.7733 11.9302 18.9448C11.9212 19.1163 11.9167 19.3014 11.9167 19.5C11.9167 20.0958 11.9708 20.651 12.0792 21.1656C12.1875 21.6802 12.3771 22.2083 12.6479 22.75Z" fill="#0057FF"/>
</g>
</svg>
