<svg width="22" height="20" viewBox="0 0 22 20" fill="none" xmlns="http://www.w3.org/2000/svg">
<path d="M9.91602 19.75V17.5833H18.5827V9.89167C18.5827 7.77917 17.8469 5.98715 16.3754 4.51562C14.9039 3.0441 13.1118 2.30833 10.9993 2.30833C8.88685 2.30833 7.09484 3.0441 5.62331 4.51562C4.15178 5.98715 3.41602 7.77917 3.41602 9.89167V16.5H2.33268C1.73685 16.5 1.22678 16.2878 0.802474 15.8635C0.378168 15.4392 0.166016 14.9292 0.166016 14.3333V12.1667C0.166016 11.7875 0.260807 11.4309 0.450391 11.0969C0.639974 10.7628 0.906293 10.4965 1.24935 10.2979L1.3306 8.8625C1.47504 7.63472 1.83164 6.49722 2.40039 5.45C2.96914 4.40278 3.68234 3.49097 4.53997 2.71458C5.39761 1.93819 6.38164 1.33333 7.49206 0.9C8.60247 0.466667 9.77157 0.25 10.9993 0.25C12.2271 0.25 13.3917 0.466667 14.4931 0.9C15.5945 1.33333 16.5785 1.93368 17.4452 2.70104C18.3118 3.4684 19.025 4.37569 19.5848 5.42292C20.1445 6.47014 20.5056 7.60764 20.6681 8.83542L20.7493 10.2438C21.0924 10.4063 21.3587 10.65 21.5483 10.975C21.7379 11.3 21.8327 11.6431 21.8327 12.0042V14.4958C21.8327 14.8569 21.7379 15.2 21.5483 15.525C21.3587 15.85 21.0924 16.0938 20.7493 16.2563V17.5833C20.7493 18.1792 20.5372 18.6892 20.1129 19.1135C19.6886 19.5378 19.1785 19.75 18.5827 19.75H9.91602ZM7.74935 12.1667C7.4424 12.1667 7.18511 12.0628 6.97747 11.8552C6.76983 11.6476 6.66602 11.3903 6.66602 11.0833C6.66602 10.7764 6.76983 10.5191 6.97747 10.3115C7.18511 10.1038 7.4424 10 7.74935 10C8.05629 10 8.31359 10.1038 8.52122 10.3115C8.72886 10.5191 8.83268 10.7764 8.83268 11.0833C8.83268 11.3903 8.72886 11.6476 8.52122 11.8552C8.31359 12.0628 8.05629 12.1667 7.74935 12.1667ZM14.2493 12.1667C13.9424 12.1667 13.6851 12.0628 13.4775 11.8552C13.2698 11.6476 13.166 11.3903 13.166 11.0833C13.166 10.7764 13.2698 10.5191 13.4775 10.3115C13.6851 10.1038 13.9424 10 14.2493 10C14.5563 10 14.8136 10.1038 15.0212 10.3115C15.2289 10.5191 15.3327 10.7764 15.3327 11.0833C15.3327 11.3903 15.2289 11.6476 15.0212 11.8552C14.8136 12.0628 14.5563 12.1667 14.2493 12.1667ZM4.52643 10.4875C4.40004 8.57361 4.97782 6.93056 6.25977 5.55833C7.54171 4.18611 9.13963 3.5 11.0535 3.5C12.6605 3.5 14.0733 4.01007 15.2921 5.03021C16.5108 6.05035 17.2466 7.35486 17.4993 8.94375C15.8563 8.9257 14.3441 8.48333 12.9629 7.61667C11.5816 6.75 10.5209 5.57639 9.7806 4.09583C9.49171 5.54028 8.88234 6.82674 7.95247 7.95521C7.02261 9.08368 5.8806 9.92778 4.52643 10.4875Z" fill="#0057FF"/>
</svg>
