<svg width="22" height="18" viewBox="0 0 22 18" fill="none" xmlns="http://www.w3.org/2000/svg">
<path d="M2.33268 17.6673C1.73685 17.6673 1.22678 17.4552 0.802474 17.0309C0.378168 16.6066 0.166016 16.0965 0.166016 15.5007V2.50065C0.166016 1.90482 0.378168 1.39475 0.802474 0.970443C1.22678 0.546137 1.73685 0.333984 2.33268 0.333984H19.666C20.2619 0.333984 20.7719 0.546137 21.1962 0.970443C21.6205 1.39475 21.8327 1.90482 21.8327 2.50065V15.5007C21.8327 16.0965 21.6205 16.6066 21.1962 17.0309C20.7719 17.4552 20.2619 17.6673 19.666 17.6673H2.33268ZM10.9993 10.084L19.666 4.66732V2.50065L10.9993 7.91732L2.33268 2.50065V4.66732L10.9993 10.084Z" fill="#0057FF"/>
</svg>
