<svg width="22" height="18" viewBox="0 0 22 18" fill="none" xmlns="http://www.w3.org/2000/svg">
<path d="M10.9993 14.4173C11.3063 14.4173 11.5636 14.3135 11.7712 14.1059C11.9789 13.8982 12.0827 13.6409 12.0827 13.334C12.0827 13.027 11.9789 12.7697 11.7712 12.5621C11.5636 12.3545 11.3063 12.2507 10.9993 12.2507C10.6924 12.2507 10.4351 12.3545 10.2275 12.5621C10.0198 12.7697 9.91602 13.027 9.91602 13.334C9.91602 13.6409 10.0198 13.8982 10.2275 14.1059C10.4351 14.3135 10.6924 14.4173 10.9993 14.4173ZM10.9993 10.084C11.3063 10.084 11.5636 9.98016 11.7712 9.77253C11.9789 9.56489 12.0827 9.3076 12.0827 9.00065C12.0827 8.69371 11.9789 8.43641 11.7712 8.22878C11.5636 8.02114 11.3063 7.91732 10.9993 7.91732C10.6924 7.91732 10.4351 8.02114 10.2275 8.22878C10.0198 8.43641 9.91602 8.69371 9.91602 9.00065C9.91602 9.3076 10.0198 9.56489 10.2275 9.77253C10.4351 9.98016 10.6924 10.084 10.9993 10.084ZM10.9993 5.75065C11.3063 5.75065 11.5636 5.64683 11.7712 5.43919C11.9789 5.23155 12.0827 4.97426 12.0827 4.66732C12.0827 4.36037 11.9789 4.10308 11.7712 3.89544C11.5636 3.6878 11.3063 3.58398 10.9993 3.58398C10.6924 3.58398 10.4351 3.6878 10.2275 3.89544C10.0198 4.10308 9.91602 4.36037 9.91602 4.66732C9.91602 4.97426 10.0198 5.23155 10.2275 5.43919C10.4351 5.64683 10.6924 5.75065 10.9993 5.75065ZM19.666 17.6673H2.33268C1.73685 17.6673 1.22678 17.4552 0.802474 17.0309C0.378168 16.6066 0.166016 16.0965 0.166016 15.5007V11.1673C0.761849 11.1673 1.27192 10.9552 1.69622 10.5309C2.12053 10.1066 2.33268 9.59648 2.33268 9.00065C2.33268 8.40482 2.12053 7.89475 1.69622 7.47044C1.27192 7.04614 0.761849 6.83398 0.166016 6.83398V2.50065C0.166016 1.90482 0.378168 1.39475 0.802474 0.970443C1.22678 0.546137 1.73685 0.333984 2.33268 0.333984H19.666C20.2619 0.333984 20.7719 0.546137 21.1962 0.970443C21.6205 1.39475 21.8327 1.90482 21.8327 2.50065V6.83398C21.2368 6.83398 20.7268 7.04614 20.3025 7.47044C19.8782 7.89475 19.666 8.40482 19.666 9.00065C19.666 9.59648 19.8782 10.1066 20.3025 10.5309C20.7268 10.9552 21.2368 11.1673 21.8327 11.1673V15.5007C21.8327 16.0965 21.6205 16.6066 21.1962 17.0309C20.7719 17.4552 20.2619 17.6673 19.666 17.6673Z" fill="#0057FF"/>
</svg>
