<svg  viewBox="0 0 57 18" fill="none" xmlns="http://www.w3.org/2000/svg"
style="width: 43px;">
<path fill-rule="evenodd" clip-rule="evenodd"
  d="M7.20162 10.3612C7.19734 10.3602 7.19284 10.3614 7.18954 10.3643C7.09235 10.4496 6.96096 10.4737 6.84395 10.4314C6.80272 10.4165 6.76772 10.3888 6.73498 10.3597C6.72462 10.3504 6.71441 10.3413 6.70436 10.3323C6.14737 9.83075 5.31835 9.76099 4.66548 10.1291C4.16464 10.4115 3.63878 10.5133 2.92667 10.5133C1.46487 10.5131 0.327515 9.56386 0.327515 7.66555C0.327515 6.18279 1.09593 5.17529 2.17188 4.68043C3.04245 4.27848 4.23204 4.18025 5.2021 4.07328C5.33595 4.05852 5.43648 3.94514 5.43648 3.81048C5.43648 3.3755 5.46874 2.86123 5.22588 2.48451C5.01373 2.14807 4.61115 2.0107 4.25135 2.0107C3.58884 2.0107 2.99877 2.368 2.85423 3.10712C2.81996 3.43024 2.38318 3.42469 2.06037 3.38749L0.877738 3.2512C0.794428 3.23868 0.719743 3.19077 0.67093 3.11855C0.622117 3.04651 0.603489 2.9565 0.61953 2.86958C1.00538 0.722108 2.84975 0.0737305 4.50197 0.0737304C5.34731 0.0737304 6.45086 0.309817 7.11492 0.982512C7.95872 1.81363 7.88334 2.92293 7.88334 4.12768L7.88334 6.97198C7.88334 7.82905 8.22141 8.20414 8.53964 8.66506C8.65038 8.82675 8.67487 9.0289 8.53964 9.15012C8.18641 9.46071 7.56059 10.0322 7.21369 10.3581C7.21044 10.3611 7.20597 10.3622 7.20162 10.3612ZM5.44425 5.90623C5.44425 6.61776 5.4596 7.21115 5.11998 7.84665C4.84331 8.36092 4.4052 8.67776 3.91656 8.67776C3.25112 8.67776 2.86216 8.14407 2.86216 7.35179C2.86216 5.95948 3.92481 5.58659 5.04825 5.52367C5.26669 5.51143 5.44425 5.69053 5.44425 5.90932L5.44425 5.90623Z"
  fill="#232F3E" />
<path fill-rule="evenodd" clip-rule="evenodd"
  d="M11.9501 10.2888L10.2147 10.2888C10.0538 10.2799 9.92304 10.1487 9.90735 9.97991L9.90735 0.601024C9.91321 0.413025 10.0607 0.264404 10.2394 0.266219L11.8578 0.266219C12.0236 0.275836 12.156 0.415202 12.1652 0.589591L12.1652 1.79485C12.1652 1.8053 12.1736 1.81376 12.1841 1.81376C12.1921 1.81376 12.1992 1.80859 12.202 1.80106C12.6243 0.624487 13.4171 0.0771324 14.483 0.0771324C14.579 0.0771324 14.6721 0.0815776 14.7622 0.0905277C15.7321 0.186826 17.7821 0.252452 18.744 0.0958228C19.6591 -0.0533424 20.5796 0.328281 21.1519 1.09425C21.7037 1.88344 21.59 3.03466 21.59 4.034L21.59 9.9507C21.5885 10.0423 21.5521 10.1294 21.4893 10.193C21.4263 10.2563 21.3422 10.2908 21.2551 10.2888L19.5197 10.2888C19.3489 10.2793 19.2146 10.1322 19.2123 9.95234L19.2123 4.98161C19.2123 4.58711 19.2446 3.60066 19.1632 3.22557C19.0342 2.59497 18.6452 2.41696 18.1426 2.41696C17.6819 2.43184 17.274 2.7338 17.1051 3.1851C16.9267 3.66054 16.9421 4.4481 16.9421 4.98161L16.9421 9.95088C16.9405 10.0422 16.9045 10.1291 16.8419 10.1926C16.7793 10.2559 16.6954 10.2906 16.6085 10.289L14.8688 10.289C14.6984 10.2788 14.5644 10.132 14.5615 9.95251L14.5615 4.9818C14.5615 3.93565 14.7152 2.39445 13.4855 2.39445C12.2559 2.39445 12.2866 3.89336 12.2866 4.9818L12.2866 9.95106C12.285 10.0427 12.2486 10.1298 12.1859 10.1933C12.1229 10.2567 12.0386 10.2911 11.9516 10.2891"
  fill="#232F3E" />
<path fill-rule="evenodd" clip-rule="evenodd"
  d="M31.2964 8.65871C30.9783 8.19779 30.6401 7.8227 30.6401 6.96727L30.6401 4.12133C30.6401 2.91495 30.7215 1.80728 29.8717 0.976164C29.206 0.303469 28.1025 0.0673828 27.2587 0.0673828C25.6065 0.0673828 23.7621 0.714127 23.3747 2.86323C23.3583 2.9507 23.3768 3.04125 23.4259 3.11383C23.4751 3.18642 23.5505 3.23433 23.6345 3.24649L24.8313 3.3821C25.1539 3.41866 25.5897 3.4236 25.6249 3.10077C25.771 2.36184 26.3582 2.00435 27.0205 2.00435C27.3786 2.00435 27.7891 2.14335 27.995 2.47979C28.2394 2.85488 28.2072 3.36916 28.2072 3.80413C28.2072 3.93595 28.1087 4.04688 27.9776 4.06116C27.0065 4.16704 25.8133 4.26493 24.9426 4.66755C23.8544 5.1624 23.0905 6.16972 23.0905 7.6543C23.0905 9.55116 24.2278 10.5002 25.6894 10.5002C26.3993 10.5002 26.9258 10.3984 27.4274 10.1156C28.0798 9.74781 28.8816 9.78563 29.4351 10.2902C29.4884 10.3388 29.5772 10.4142 29.6476 10.4302C29.7555 10.4546 29.8704 10.4261 29.9575 10.3482C30.3034 10.0248 30.9335 9.44754 31.2886 9.13542C31.4378 9.02418 31.4133 8.82693 31.2964 8.65871ZM27.8843 7.83885C27.6092 8.35149 27.1695 8.66833 26.6824 8.66833C26.017 8.66833 25.628 8.13464 25.628 7.34399C25.628 5.94955 26.6917 5.57813 27.8158 5.51573C28.0333 5.50365 28.2101 5.682 28.2101 5.89988C28.2101 6.61323 28.2224 7.20499 27.8843 7.83885Z"
  fill="#232F3E" />
<path fill-rule="evenodd" clip-rule="evenodd"
  d="M32.7659 1.90935L32.7659 0.568859C32.7619 0.477401 32.7949 0.388482 32.8566 0.324062C32.9184 0.259641 33.0032 0.225889 33.0901 0.23097L38.7971 0.23097C38.8839 0.227885 38.9681 0.262182 39.0301 0.326058C39.0922 0.389934 39.1269 0.47758 39.126 0.569039L39.126 1.71881C39.126 1.91116 38.9724 2.16358 38.6973 2.56136L35.74 7.00165C36.8375 6.97425 37.9978 7.14719 38.9953 7.7375C39.1795 7.84093 39.2968 8.04018 39.3027 8.25976L39.3027 9.6957C39.3027 9.89295 39.0983 10.1209 38.8815 10.0029C36.9885 8.97927 34.7413 8.98344 32.8518 10.0142C32.6534 10.1258 32.4459 9.90094 32.4459 9.70368L32.4459 8.33724C32.4278 8.01514 32.5016 7.69467 32.6581 7.41721L36.0841 2.2427L33.0962 2.2427C33.0091 2.24633 32.9246 2.21203 32.8621 2.14834C32.7997 2.08446 32.7648 1.99645 32.7657 1.90481"
  fill="#232F3E" />
<path fill-rule="evenodd" clip-rule="evenodd"
  d="M44.0537 1.97666C42.7733 1.97666 42.6919 3.81038 42.6919 4.95525C42.6919 6.10012 42.6766 8.54501 44.0368 8.54501C45.397 8.54501 45.4477 6.57229 45.4477 5.36917C45.4477 4.57997 45.4154 3.63254 45.1879 2.88381C44.9927 2.23706 44.6039 1.97666 44.0537 1.97666ZM44.0368 0.0620117C46.6144 0.0620117 48.0084 2.39059 48.0084 5.34975C48.0084 8.21038 46.4714 10.4791 44.0368 10.4791C41.5083 10.4791 40.1312 8.1505 40.1312 5.25122C40.1312 2.35193 41.5252 0.0620117 44.0368 0.0620117Z"
  fill="#232F3E" />
<path fill-rule="evenodd" clip-rule="evenodd"
  d="M51.3679 10.2693L49.6372 10.2693C49.4664 10.2599 49.3319 10.1127 49.3298 9.93287L49.3298 0.553972C49.3481 0.375954 49.4932 0.242396 49.6634 0.246751L51.2742 0.246751C51.3721 0.250021 51.4606 0.298783 51.5191 0.375407C51.5789 0.453692 51.5816 0.558337 51.5816 0.656824L51.5816 1.92292C51.5816 1.93396 51.5906 1.94291 51.6016 1.94291C51.6099 1.94291 51.6174 1.93762 51.6204 1.92986C52.1058 0.656525 52.786 0.0493164 53.9809 0.0493164C54.7586 0.0493164 55.5179 0.345287 56.0082 1.15372C56.4617 1.90408 56.4617 3.1669 56.4617 4.07405L56.4617 9.48835C56.4617 9.81208 56.4518 10.276 56.1281 10.2689L54.3821 10.2689C54.2254 10.2619 54.0961 10.1379 54.0747 9.9746L54.0747 4.88248C54.0747 3.8572 54.1884 2.35666 52.988 2.35666C52.5423 2.37825 52.1496 2.6715 51.9828 3.10702C51.7399 3.67936 51.7077 4.25189 51.7077 4.88575L51.7077 9.9325C51.701 10.1229 51.5506 10.2726 51.3696 10.2689"
  fill="#232F3E" />
<path fill-rule="evenodd" clip-rule="evenodd"
  d="M35.1204 13.9679C35.1203 13.9669 35.1192 13.9664 35.1184 13.967C31.8586 16.4968 27.1271 17.8464 23.064 17.8464C17.6273 17.8756 12.3762 15.7678 8.33961 11.936C8.03224 11.6466 8.3058 11.2504 8.67319 11.4751C12.8661 14.0414 18.0489 15.5873 23.4069 15.5873C27.2688 15.5651 31.0887 14.7407 34.647 13.1618C35.1966 12.9162 35.6587 13.542 35.1224 13.9687C35.1216 13.9693 35.1204 13.9689 35.1204 13.9679ZM36.4758 12.3419C36.8939 12.903 36.0148 15.2187 35.6198 16.252C35.4999 16.5641 35.7566 16.6902 36.0257 16.4542C37.7733 14.9148 38.2252 11.6903 37.87 11.2247C37.5151 10.759 34.458 10.3643 32.592 11.7437C32.3047 11.9554 32.3538 12.2481 32.6734 12.2077C33.7232 12.075 36.0626 11.7792 36.4791 12.3419"
  fill="#FF9900" />
</svg>
