<svg xmlns="http://www.w3.org/2000/svg" width="147" height="148" viewBox="0 0 147 148" fill="none">
<g style="mix-blend-mode:multiply">
<path d="M127.151 135.59C127.151 135.59 146.713 140.38 137.695 142.017C128.676 143.652 108.438 140.154 92.6935 142.017C76.9479 143.88 22.2851 150.487 7.94319 142.766C-6.39874 135.046 0.249996 139.427 30.8296 133.203C61.4092 126.978 104.9 121.58 104.9 121.58L120.698 120.908C120.698 120.908 101.587 125.318 104.9 128.888C108.213 132.459 127.151 135.59 127.151 135.59Z" fill="#E7E7E7"/>
</g>
<path d="M4.49723 0H7.72621V107.36H4.49723C3.71377 107.36 3.07812 106.167 3.07812 104.697V2.66301C3.07812 1.19281 3.71377 0 4.49723 0Z" fill="url(#paint0_linear_3796_2087)"/>
<path d="M47.0961 131.743H41.8008V96.0684H52.3915L47.0961 131.743Z" fill="#939393"/>
<path d="M60.165 127.987L44.6172 131.743V96.0684H60.165V127.987Z" fill="#BCBCBC"/>
<path d="M6.42969 105.603V1.77185C6.42969 1.27025 6.58707 0.859649 6.81995 0.594679C7.04955 0.333446 7.35285 0.209944 7.68452 0.261602C7.68455 0.261607 7.68458 0.261612 7.68461 0.261617L91.6083 13.4066C91.7379 13.427 91.903 13.5484 92.0441 13.8127C92.1806 14.0684 92.27 14.4168 92.27 14.7938V92.5807C92.27 92.9577 92.1806 93.3062 92.0441 93.5619C91.903 93.8262 91.7379 93.9476 91.6083 93.968L7.68456 107.113C7.35353 107.165 7.05017 107.041 6.82034 106.78C6.58729 106.515 6.42969 106.104 6.42969 105.603Z" fill="url(#paint1_linear_3796_2087)" stroke="#B1B1B1" stroke-width="0.5"/>
<path d="M88.3944 89.3853L13.2752 99.6212C12.3171 99.7515 11.5352 98.8325 11.5352 97.5673V9.80257C11.5352 8.5374 12.316 7.61837 13.2752 7.74863L88.3944 17.9846C88.9706 18.063 89.4355 18.9169 89.4355 19.8914V87.4797C89.4355 88.4542 88.9706 89.3069 88.3944 89.3865V89.3853Z" fill="white"/>
<path d="M117.005 118.493L34.3515 145.048L1.59766 131.637L87.1787 112.727L117.005 118.493Z" fill="url(#paint2_linear_3796_2087)"/>
<path d="M117.009 118.494V120.909L34.3555 147.999V145.049L117.009 118.494Z" fill="#BCBCBC"/>
<path d="M1.59766 131.637V135.391L34.3515 147.998V145.048L1.59766 131.637Z" fill="#BCBCBC"/>
<path d="M20.7601 131.289L11.719 133.366L7.30469 131.679L16.3106 129.723L20.7601 131.289Z" fill="#D8D8D8"/>
<path d="M31.0507 128.926L22.9279 130.792L18.4727 129.254L26.5852 127.492L31.0507 128.926Z" fill="#D8D8D8"/>
<path d="M40.3291 126.789L32.9917 128.475L28.5273 127.066L35.8716 125.471L40.3291 126.789Z" fill="#D8D8D8"/>
<path d="M48.7536 124.857L42.0936 126.386L37.6406 125.09L44.3223 123.639L48.7536 124.857Z" fill="#D8D8D8"/>
<path d="M56.4318 123.09L50.3593 124.485L45.9336 123.286L52.0379 121.961L56.4318 123.09Z" fill="#D8D8D8"/>
<path d="M63.4642 121.479L57.9043 122.757L53.5195 121.643L59.1181 120.428L63.4642 121.479Z" fill="#D8D8D8"/>
<path d="M69.9173 119.995L64.8085 121.17L60.4727 120.133L65.6257 119.014L69.9173 119.995Z" fill="#D8D8D8"/>
<path d="M75.8594 118.629L71.1474 119.712L66.8672 118.743L71.6259 117.709L75.8594 118.629Z" fill="#D8D8D8"/>
<path d="M81.3676 117.364L77.009 118.365L72.7891 117.456L77.1977 116.5L81.3676 117.364Z" fill="#D8D8D8"/>
<path d="M86.4657 116.191L82.423 117.12L78.2656 116.266L82.3605 115.377L86.4657 116.191Z" fill="#D8D8D8"/>
<path d="M91.2206 115.102L87.4598 115.967L83.3672 115.163L87.1802 114.334L91.2206 115.102Z" fill="#D8D8D8"/>
<path d="M27.7409 133.741L18.6646 136.014L13.8945 134.192L22.9504 132.055L27.7409 133.741Z" fill="#D8D8D8"/>
<path d="M38.0266 131.165L29.906 133.201L25.1133 131.546L33.2372 129.627L38.0266 131.165Z" fill="#D8D8D8"/>
<path d="M47.2747 128.843L39.9656 130.674L35.1797 129.164L42.5103 127.434L47.2747 128.843Z" fill="#D8D8D8"/>
<path d="M55.6433 126.747L49.0298 128.404L44.2734 127.018L50.9199 125.449L55.6433 126.747Z" fill="#D8D8D8"/>
<path d="M63.2478 124.843L57.2366 126.35L52.5234 125.073L58.5789 123.643L63.2478 124.843Z" fill="#D8D8D8"/>
<path d="M70.1838 123.105L64.6954 124.48L60.0391 123.298L65.5774 121.99L70.1838 123.105Z" fill="#D8D8D8"/>
<path d="M76.5421 121.515L71.5107 122.775L66.918 121.678L72.004 120.477L76.5421 121.515Z" fill="#D8D8D8"/>
<path d="M82.3908 120.043L77.7617 121.203L73.2383 120.179L77.9242 119.072L82.3908 120.043Z" fill="#D8D8D8"/>
<path d="M87.7865 118.694L83.5132 119.765L79.0625 118.807L83.395 117.783L87.7865 118.694Z" fill="#D8D8D8"/>
<path d="M92.7773 117.445L88.821 118.436L84.4453 117.538L88.4618 116.59L92.7773 117.445Z" fill="#D8D8D8"/>
<path d="M97.4181 116.282L93.7448 117.202L89.4453 116.358L93.18 115.477L97.4181 116.282Z" fill="#D8D8D8"/>
<path d="M35.2712 136.395L26.1834 138.893L21.0156 136.918L30.0977 134.574L35.2712 136.395Z" fill="#D8D8D8"/>
<path d="M45.5235 133.573L37.4291 135.799L32.2578 134.014L40.3738 131.92L45.5235 133.573Z" fill="#D8D8D8"/>
<path d="M54.716 131.045L47.4592 133.04L42.3164 131.418L49.6118 129.535L54.716 131.045Z" fill="#D8D8D8"/>
<path d="M62.9952 128.769L56.4522 130.567L51.3594 129.083L57.9524 127.383L62.9952 128.769Z" fill="#D8D8D8"/>
<path d="M70.5003 126.711L64.5721 128.34L59.543 126.977L65.5302 125.434L70.5003 126.711Z" fill="#D8D8D8"/>
<path d="M77.3215 124.834L71.9241 126.317L66.9688 125.059L72.431 123.65L77.3215 124.834Z" fill="#D8D8D8"/>
<path d="M83.5661 123.118L78.6313 124.474L73.7578 123.308L78.7597 122.018L83.5661 123.118Z" fill="#D8D8D8"/>
<path d="M89.2822 121.543L84.7531 122.787L79.9648 121.703L84.5633 120.518L89.2822 121.543Z" fill="#D8D8D8"/>
<path d="M94.5476 120.097L90.3765 121.243L85.6758 120.231L89.9173 119.137L94.5476 120.097Z" fill="#D8D8D8"/>
<path d="M99.418 118.76L95.5652 119.819L90.9531 118.872L94.8776 117.859L99.418 118.76Z" fill="#D8D8D8"/>
<path d="M103.923 117.52L100.35 118.502L95.8281 117.613L99.4707 116.674L103.923 117.52Z" fill="#D8D8D8"/>
<path d="M43.4179 139.265L34.3495 142.016L28.7305 139.869L37.8148 137.293L43.4179 139.265Z" fill="#D8D8D8"/>
<path d="M53.6104 136.169L45.5717 138.609L39.9766 136.677L48.0573 134.387L53.6104 136.169Z" fill="#D8D8D8"/>
<path d="M62.705 133.409L55.5289 135.587L49.9883 133.839L57.2223 131.787L62.705 133.409Z" fill="#D8D8D8"/>
<path d="M96.5747 123.13L64.4199 132.889L58.9531 131.297L91.5807 122.045L96.5747 123.13Z" fill="#D8D8D8"/>
<path d="M101.69 121.578L97.6391 122.807L92.668 121.737L96.8015 120.564L101.69 121.578Z" fill="#D8D8D8"/>
<path d="M106.41 120.146L102.675 121.28L97.8086 120.28L101.625 119.197L106.41 120.146Z" fill="#D8D8D8"/>
<path d="M110.769 118.825L107.315 119.873L102.551 118.936L106.087 117.934L110.769 118.825Z" fill="#D8D8D8"/>
<path d="M124.993 110.663L55.6465 126.75L20.7617 47.322L79.9672 46.7793L124.993 110.663Z" fill="white"/>
<g style="mix-blend-mode:multiply">
<path d="M20.7617 47.3203L28.7322 97.7957L42.0127 95.7056L20.7617 47.3203Z" fill="#F2F2F2"/>
</g>
<path d="M110.354 75.4004L113.26 81.5237L109.562 76.5546L110.354 75.4004Z" fill="white"/>
<path d="M104.703 64.5625L105.825 68.282L106.306 67.012L105.478 65.2234L104.703 64.5625Z" fill="white"/>
<path d="M58.9497 115.275L112.67 104.995L78.7379 54.3848L33.4141 55.7838L58.9497 115.275Z" fill="white"/>
<path d="M61.4564 59.5938L41.8047 60.6064L42.761 63.0002L62.8474 61.9875L61.4564 59.5938Z" fill="#CDCDCD"/>
<path d="M63.4877 64.5L43.8359 65.5126L44.7923 67.9065L64.8787 66.8937L63.4877 64.5Z" fill="#CDCDCD"/>
<path d="M65.9603 69.4082L46.3086 70.4209L47.2649 72.8147L67.3513 71.8019L65.9603 69.4082Z" fill="#FB5F5F"/>
<path d="M88.1481 73.2188L48.7773 75.9547L49.7337 78.3485L89.4524 75.3365L88.1481 73.2188Z" fill="#FB5F5F"/>
<path d="M90.8513 78.3477L51.4805 81.0836L52.4368 83.4774L92.1556 80.4654L90.8513 78.3477Z" fill="#FB5F5F"/>
<path d="M65.1068 86.0039L54.3594 86.622L55.3157 89.0158L66.4111 88.3191L65.1068 86.0039Z" fill="#CDCDCD"/>
<path d="M73.3491 101.449L62.7031 102.825L63.8978 105.738L74.6493 103.991L73.3491 101.449Z" fill="#CDCDCD"/>
<path d="M71.7715 71.3273L84.5256 70.858L77.8463 59.2734L65.3789 59.2736L71.7715 71.3273Z" fill="url(#paint3_linear_3796_2087)"/>
<path d="M73.4122 69.1981L73.3076 69.0039C72.5769 66.8647 73.6599 65.6045 75.444 65.617C77.1357 65.6288 79.1516 67.0817 80.0941 69.004L80.1891 69.1981L73.4122 69.1981Z" fill="#636363"/>
<path d="M72.2882 62.8983C72.7536 63.9558 74.2131 65.1808 75.2836 65.1201C76.3156 65.0617 76.4946 63.8258 75.9702 62.8361C75.4697 61.8916 74.3162 61.1472 73.345 61.135C72.341 61.1225 71.8454 61.8922 72.2882 62.8983Z" fill="white"/>
<path d="M75.9299 66.9689C76.4249 66.9621 76.6338 66.5305 76.4085 66.016L75.8437 64.7266L74.1059 64.6903L74.6306 66.0141C74.8403 66.5429 75.4273 66.9757 75.9298 66.9687L75.9299 66.9689Z" fill="white"/>
<path d="M76.0363 63.1543C76.0363 63.1543 76.0199 62.8541 76.3018 63.1066C76.5855 63.3609 76.7044 64.1669 76.2553 63.8393L76.0363 63.1543Z" fill="#EBECF2"/>
<path d="M72.4662 63.0266C72.4662 63.0266 72.201 62.6993 72.1129 62.9528C72.0229 63.2111 72.654 64.0854 72.8591 63.7542L72.4662 63.0266Z" fill="#EBECF2"/>
<path d="M74.9139 61.9519C74.9139 61.9519 73.6679 62.8369 72.3663 62.1982L72.5167 62.8663L72.8655 63.5594C72.8655 63.5594 72.419 62.9125 72.2859 62.897C72.1523 62.8815 72.0436 62.9347 72.1101 63.0995C72.1101 63.0995 70.2718 59.9607 74.2512 60.8709L74.9137 61.9519L74.9139 61.9519Z" fill="#3660A1"/>
<path d="M74.2539 60.8713C74.2539 60.8713 75.8617 61.5118 76.301 63.1054C76.301 63.1054 76.1983 62.9772 76.0643 63.0319L76.1704 63.5748C76.1704 63.5748 75.562 62.0928 74.9163 61.9521L74.2539 60.8711L74.2539 60.8713Z" fill="#3660A1"/>
<path d="M51.9484 44.6857C55.0573 44.7943 58.0388 43.6627 60.237 41.5398C62.4353 39.417 63.6703 36.4768 63.6703 33.366C63.6703 30.2553 62.4353 27.2289 60.237 24.9525C58.0388 22.6761 55.0573 21.3363 51.9484 21.2277C48.8396 21.1191 45.8581 22.2507 43.6598 24.3736C41.4615 26.4965 40.2266 29.4366 40.2266 32.5474C40.2266 35.6581 41.4615 38.6845 43.6598 40.9609C45.8581 43.2373 48.8396 44.5772 51.9484 44.6857ZM48.2396 29.1161C48.67 28.7004 49.366 28.7247 49.7918 29.1703L51.9439 31.3988L54.0959 29.3206C54.5263 28.9049 55.2223 28.9292 55.6481 29.3748C56.074 29.8203 56.0786 30.5169 55.6481 30.9279L53.4961 33.0062L55.6481 35.2347C56.0786 35.6804 56.0786 36.3768 55.6481 36.7879C55.2177 37.1989 54.5217 37.1792 54.0959 36.7337L51.9439 34.5051L49.7918 36.5834C49.3614 36.999 48.6654 36.9747 48.2396 36.5292C47.8137 36.0836 47.8091 35.387 48.2396 34.976L50.3916 32.8978L48.2396 30.6692C47.8091 30.2235 47.8091 29.5271 48.2396 29.1161Z" fill="#FB5F5F"/>
<g clip-path="url(#clip0_3796_2087)">
<path d="M113.941 137.107C113.941 137.107 108.627 137.822 109.177 138.166C109.726 138.509 114.224 137.636 114.224 137.636L113.941 137.107Z" fill="#535353"/>
<path d="M126.746 138.06C126.746 138.06 128.792 140.326 129.305 139.964C129.819 139.603 127.8 137.998 127.8 137.998L126.746 138.06Z" fill="#535353"/>
<path d="M117.193 85.928C117.193 85.928 117.042 104.754 116.032 111.668C114.89 119.604 112.641 137.24 112.641 137.24H113.942C113.942 137.24 122.984 122.796 121.966 114.154C121.08 106.827 123.914 94.9135 123.914 94.9135C123.914 94.9135 127.058 128.034 126.571 138.121H128.218C130.206 132.989 131.531 127.626 132.159 122.161C132.522 119.269 131.034 114.789 131.336 111.694C132.221 102.656 133.107 93.4321 132.141 87.8856L131.761 85.2402L117.193 85.928Z" fill="#D9D9D9"/>
<path d="M113.172 137.222V137.099L113.278 136.728C113.367 136.411 113.508 135.944 113.686 135.335L113.978 134.321C114.075 133.951 114.19 133.545 114.305 133.113C114.421 132.681 114.545 132.231 114.677 131.729C114.748 131.482 114.801 131.226 114.863 130.961C114.925 130.697 114.996 130.432 115.058 130.159C115.191 129.612 115.342 129.039 115.483 128.395C115.625 127.752 115.749 127.161 115.891 126.517C115.962 126.191 116.032 125.856 116.112 125.521C116.192 125.186 116.245 124.842 116.316 124.498C116.446 123.804 116.587 123.09 116.741 122.355C117.272 119.419 117.804 116.183 118.255 112.752C118.707 109.322 119.035 106.069 119.291 103.053C119.353 102.312 119.406 101.58 119.468 100.875C119.468 100.522 119.522 100.178 119.539 99.8342C119.557 99.4903 119.539 99.1552 119.61 98.8202C119.61 98.1588 119.69 97.5151 119.725 96.9067C119.761 96.2982 119.787 95.6986 119.814 95.1431C119.814 94.8609 119.814 94.5787 119.858 94.3142C119.902 94.0497 119.858 93.7851 119.858 93.5294C119.858 93.018 119.858 92.5418 119.902 92.0921C119.947 91.6424 119.902 91.2103 119.947 90.8399C119.991 90.4696 119.947 90.1081 119.947 89.7906C119.947 89.1557 119.947 88.6707 119.947 88.3357C119.947 88.1681 119.947 88.0447 119.947 87.9565C119.947 87.8683 119.947 87.8242 119.947 87.8242C119.947 87.8242 119.947 87.8242 119.947 87.9565C119.947 88.0888 119.947 88.1681 119.947 88.3357C119.947 88.6707 119.947 89.1557 119.947 89.7906C119.947 90.1081 119.947 90.4608 119.947 90.8399C119.947 91.2191 119.947 91.6424 119.947 92.0921C119.947 92.5418 119.947 93.0268 119.902 93.5294C119.902 93.7851 119.902 94.0497 119.902 94.3142C119.902 94.5787 119.902 94.8609 119.902 95.1431C119.902 95.7074 119.858 96.2982 119.832 96.9067C119.805 97.5151 119.761 98.1676 119.716 98.829L119.663 99.843L119.584 100.884C119.53 101.598 119.477 102.321 119.424 103.07C119.176 106.051 118.849 109.322 118.397 112.77C117.945 116.218 117.485 119.489 116.927 122.47C116.776 123.202 116.635 123.916 116.493 124.613C116.422 124.956 116.351 125.3 116.289 125.635C116.227 125.971 116.139 126.297 116.068 126.623C115.92 127.276 115.778 127.902 115.643 128.501L115.209 130.265C115.147 130.538 115.076 130.803 115.014 131.067C114.952 131.332 114.881 131.579 114.81 131.826C114.677 132.319 114.545 132.778 114.429 133.21L114.084 134.418C113.978 134.788 113.871 135.124 113.774 135.423L113.34 136.808L113.216 137.169L113.172 137.222Z" fill="#32383F"/>
<path d="M128.225 138.095C128.225 138.095 128.225 138.095 128.225 137.963C128.225 137.831 128.225 137.76 128.225 137.601C128.225 137.275 128.304 136.799 128.366 136.182C128.366 135.873 128.437 135.538 128.472 135.159C128.508 134.78 128.543 134.383 128.579 133.942C128.658 133.06 128.756 132.072 128.818 130.97C128.818 130.423 128.898 129.85 128.942 129.207C128.942 128.907 128.942 128.598 128.942 128.325C128.942 128.051 128.942 127.69 128.986 127.372L129.039 126.385V125.873C129.039 125.706 129.039 125.53 129.039 125.362C129.039 124.665 129.092 123.96 129.11 123.228C129.181 120.309 129.199 117.056 129.11 113.731C129.022 110.407 128.942 107.153 128.818 104.243C128.756 102.779 128.694 101.395 128.632 100.099C128.57 98.8024 128.499 97.5944 128.446 96.4921C128.331 94.2876 128.242 92.4976 128.18 91.2631C128.18 90.6547 128.127 90.1697 128.109 89.8434C128.109 89.6847 128.109 89.5612 128.109 89.4731V89.3496C128.109 89.3496 128.109 89.3496 128.109 89.4731C128.109 89.5965 128.109 89.6847 128.109 89.8434C128.109 90.1697 128.171 90.6458 128.207 91.2631C128.295 92.4976 128.41 94.2788 128.534 96.4833C128.605 97.5855 128.676 98.7936 128.738 100.09C128.8 101.386 128.88 102.735 128.951 104.234C129.075 107.153 129.199 110.407 129.252 113.731C129.305 117.056 129.252 120.309 129.252 123.237C129.252 123.96 129.199 124.674 129.172 125.362C129.172 125.538 129.172 125.715 129.172 125.882V126.385C129.172 126.72 129.172 127.055 129.119 127.372L129.066 128.334C129.066 128.642 129.066 128.951 129.013 129.215C129.013 129.824 128.924 130.397 128.889 130.979C128.809 132.081 128.703 133.078 128.623 133.951C128.579 134.392 128.543 134.832 128.499 135.168C128.455 135.503 128.41 135.882 128.375 136.19C128.295 136.799 128.233 137.275 128.198 137.601C128.198 137.76 128.18 137.883 128.145 137.972C128.242 138.051 128.233 138.095 128.225 138.095Z" fill="#32383F"/>
<path d="M104.322 51.5476C103.313 51.9267 103.074 52.7468 102.941 52.4911C101.373 49.4489 101.648 47.65 100.993 47.8264C100.337 48.0027 101.373 50.4718 101.046 50.9303C101.046 50.9303 100.275 47.3414 99.5667 47.4031C98.8582 47.4649 100.071 50.216 100.045 50.7539C100.045 50.7539 98.9822 47.5795 98.5926 48.0116C98.2029 48.4436 99.0176 50.0309 99.3807 51.3359C99.3807 51.3359 98.2737 48.6905 98.0435 49.2461C97.8132 49.8016 98.4597 50.6834 99.1682 52.7732C99.3453 53.2935 100.594 56.609 100.683 56.6355C100.771 56.6619 102.144 56.5561 102.144 56.5561C102.144 56.5561 102.144 55.0924 103.773 53.1171C104.088 52.7363 104.527 52.4773 105.013 52.3853C105.151 52.3638 105.291 52.3638 105.429 52.3853C105.97 52.3941 105.438 51.1772 104.322 51.5476Z" fill="#FCCAB1"/>
<path d="M116.43 52.6583L120.459 52.041L128.934 52.1292L131.201 52.5348L126.056 72.719L119.706 71.9607L116.43 52.6583Z" fill="#E0E0E0"/>
<path d="M124.215 54.2373C124.215 54.2373 121.478 72.4993 124.498 78.9981L126.597 80.8851L128.607 78.3808C126.701 74.0468 125.566 69.4162 125.251 64.6954C125.012 61.2115 124.971 57.717 125.127 54.2285L124.215 54.2373Z" fill="#F9AC30"/>
<path d="M134.825 52.9668C134.825 52.9668 147.471 63.3896 146.993 69.2888C146.603 74.0416 132.929 80.5228 132.929 80.5228L131.805 77.9832C131.805 77.9832 142.007 71.5373 141.112 68.1336C140.227 64.9592 133.602 61.5378 133.602 61.5378C133.275 58.284 133.346 55.1889 134.825 52.9668Z" fill="#EBEBEB"/>
<path d="M121.23 48.1611V51.9793C121.773 52.7427 122.584 53.2752 123.503 53.4712C124.421 53.6672 125.38 53.5124 126.19 53.0374L127.855 51.8735V47.8613L121.23 48.1611Z" fill="#FCCAB1"/>
<path d="M120.238 51.9615L120.353 50.5859L123.984 52.3054L123.807 54.3071L120.238 51.9615Z" fill="#EAEAEA"/>
<path d="M123.984 52.3066L124.533 53.5941L123.852 53.7792L123.984 52.3066Z" fill="#CECECE"/>
<path d="M124.531 53.5941L124.992 52.3066L125.488 53.8762L124.531 53.5941Z" fill="#CECECE"/>
<path d="M128.331 50.6738C128.331 50.7267 124.992 52.3051 124.992 52.3051L125.453 54.201L128.898 52.1288L128.331 50.6738Z" fill="#EAEAEA"/>
<path d="M115.214 64.6777C115.214 64.6777 110.157 73.3722 105.349 73.3722C98.3967 73.3722 99.362 56.2213 99.362 56.2213L103.214 56.0361C103.214 56.0361 104.543 65.921 105.676 66.3972C106.81 66.8734 112.504 57.5264 113.939 53.7523L114.213 53.038L119.465 52.1562L123.849 70.0919L124.097 85.2499L122.423 90.1174L115.338 89.6853L116.835 80.0826L115.214 64.6777Z" fill="#EBEBEB"/>
<path d="M133.62 61.6259C133.482 58.6787 133.89 55.7315 134.824 52.9315L128.935 52.0938L123.852 70.0911V85.8488L124.879 89.3759L133.487 88.8028C133.487 88.8028 131.397 72.1281 131.37 71.7842C131.344 71.4403 133.62 61.6259 133.62 61.6259Z" fill="#EBEBEB"/>
<path d="M114.313 53.7793C114.354 53.9107 114.375 54.0474 114.375 54.1849C114.375 54.4583 114.446 54.8374 114.499 55.3136C114.597 56.266 114.747 57.571 114.916 59.026C115.084 60.4809 115.217 61.786 115.288 62.7383C115.288 63.2145 115.341 63.6201 115.35 63.8758C115.37 64.0132 115.37 64.1529 115.35 64.2903C115.315 64.1545 115.294 64.0157 115.288 63.8758C115.288 63.6113 115.217 63.2233 115.172 62.7471C115.075 61.8036 114.916 60.4897 114.747 59.0436C114.579 57.5975 114.446 56.2748 114.375 55.3224C114.375 54.8463 114.322 54.4406 114.322 54.1937C114.308 54.0561 114.305 53.9175 114.313 53.7793Z" fill="#CDCDCD"/>
<path d="M118.477 52.3053C118.583 52.3053 119.486 62.4811 119.486 62.4811L121.257 64.6327L120.956 66.0348L123.852 71.3255V70.091L119.486 52.1289L118.477 52.3053Z" fill="#CDCDCD"/>
<path d="M123.859 53.4348L125.346 53.373L125.656 54.2196L123.832 54.3518L123.859 53.4348Z" fill="#E8900F"/>
<path d="M124.232 53.373L124.152 54.6957L125.091 54.8545L125.135 53.3995L124.232 53.373Z" fill="#F9AC30"/>
<path d="M134.866 53.082C134.866 53.082 134.751 53.567 134.556 54.3342L134.405 54.9691C134.352 55.1983 134.299 55.4364 134.246 55.6921C134.14 56.2124 134.033 56.7767 133.936 57.3764C133.839 57.976 133.777 58.5491 133.715 59.0694C133.715 59.3251 133.715 59.5808 133.653 59.8101C133.591 60.0394 133.653 60.2598 133.599 60.4626C133.593 60.8901 133.563 61.3169 133.511 61.7412C133.496 61.6271 133.496 61.5115 133.511 61.3973C133.511 61.2827 133.511 61.1504 133.511 60.9917C133.511 60.833 133.511 60.6566 133.511 60.4538C133.511 60.251 133.511 60.0394 133.511 59.8013C133.511 59.5632 133.511 59.3163 133.564 59.0518C133.608 58.5315 133.67 57.9495 133.768 57.3499C133.865 56.7503 133.971 56.1771 134.095 55.6569C134.148 55.4011 134.21 55.1631 134.272 54.9338C134.334 54.7045 134.388 54.4929 134.45 54.3077C134.512 54.1225 134.556 53.9374 134.609 53.7875C134.662 53.6376 134.698 53.5053 134.733 53.4083C134.766 53.2953 134.81 53.1859 134.866 53.082Z" fill="#CDCDCD"/>
<path d="M123.869 71.1227L126.783 65.2323L126.376 64.1213L128.288 62.2166L129.705 52.2524L128.935 52.1289L123.852 70.091L123.869 71.1227Z" fill="#CDCDCD"/>
<path d="M128.773 63.0896L130.146 61.0703L130.509 61.2026C130.599 61.7862 130.643 62.3758 130.642 62.9662L128.773 63.0896Z" fill="#E0E0E0"/>
<path d="M128.482 62.9316H130.811C130.878 63.1138 130.878 63.3138 130.811 63.496H128.402L128.482 62.9316Z" fill="#CDCDCD"/>
<path d="M123.992 85.2414C123.951 85.0619 123.931 84.8786 123.93 84.6947C123.93 84.3331 123.868 83.8129 123.841 83.1868C123.779 81.9082 123.726 80.1446 123.682 78.2047C123.638 76.2647 123.682 74.5011 123.744 73.2225C123.744 72.5877 123.744 72.0762 123.806 71.7147C123.813 71.5316 123.831 71.349 123.859 71.168C123.878 71.3527 123.878 71.5388 123.859 71.7235C123.859 72.0762 123.859 72.6053 123.859 73.2314C123.859 74.5011 123.859 76.2647 123.859 78.2047C123.859 80.1446 123.912 81.9082 123.939 83.178C123.939 83.8129 123.939 84.3331 123.939 84.6858C123.966 84.87 123.984 85.0554 123.992 85.2414Z" fill="#CDCDCD"/>
<path d="M125.145 75.2766C125.145 75.3351 125.122 75.3912 125.08 75.4325C125.039 75.4739 124.982 75.4971 124.924 75.4971C124.89 75.5037 124.856 75.5029 124.823 75.4946C124.79 75.4864 124.759 75.471 124.733 75.4495C124.706 75.428 124.685 75.4009 124.671 75.3703C124.656 75.3396 124.648 75.3061 124.648 75.2722C124.648 75.2383 124.656 75.2049 124.671 75.1742C124.685 75.1436 124.706 75.1165 124.733 75.095C124.759 75.0735 124.79 75.0581 124.823 75.0498C124.856 75.0416 124.89 75.0408 124.924 75.0474C124.953 75.0474 124.983 75.0533 125.01 75.065C125.038 75.0766 125.063 75.0936 125.083 75.115C125.104 75.1364 125.12 75.1618 125.131 75.1896C125.141 75.2173 125.146 75.247 125.145 75.2766Z" fill="#CDCDCD"/>
<path d="M124.921 78.4253C125.043 78.4253 125.142 78.3266 125.142 78.2048C125.142 78.0831 125.043 77.9844 124.921 77.9844C124.798 77.9844 124.699 78.0831 124.699 78.2048C124.699 78.3266 124.798 78.4253 124.921 78.4253Z" fill="#CDCDCD"/>
<path d="M129.156 73.3187C129.156 73.3628 127.314 73.7243 125.011 74.13C122.708 74.5356 120.849 74.809 120.84 74.7649C120.831 74.7208 122.682 74.3504 124.984 73.9536C127.287 73.5568 129.147 73.2658 129.156 73.3187Z" fill="#CDCDCD"/>
<path d="M128.891 81.4317L132.486 80.5059L133.115 81.7315L129.201 82.5604L128.891 81.4317Z" fill="#CDCDCD"/>
<path d="M116.667 81.3164L119.129 81.8719V83.2211L115.977 82.5597L116.667 81.3164Z" fill="#CDCDCD"/>
<path d="M131.998 78.4238C131.38 78.9838 130.812 79.5944 130.297 80.2491L129.996 81.1309L131.998 80.6195L132.6 79.7377L131.998 78.4238Z" fill="#FCCAB1"/>
<path d="M118.82 40.1367C118.501 40.2425 116.765 40.6129 117.35 42.8526C117.934 45.0924 119.449 44.5633 119.449 44.5633L118.82 40.1367Z" fill="#EAB69B"/>
<path d="M118.901 43.726C118.901 43.726 118.857 43.726 118.777 43.726C118.667 43.7125 118.562 43.6765 118.467 43.6202C118.322 43.5371 118.196 43.4262 118.095 43.2939C118.035 43.2182 117.984 43.1353 117.944 43.047C117.902 42.9484 117.872 42.8447 117.856 42.7384C117.823 42.5373 117.841 42.3311 117.909 42.1388C117.96 41.9816 118.045 41.8372 118.157 41.7155C118.23 41.6308 118.317 41.5592 118.414 41.5039C118.485 41.5039 118.529 41.5039 118.529 41.5039C118.529 41.5039 118.405 41.6185 118.254 41.8302C118.17 41.9476 118.107 42.0789 118.068 42.2182C118.032 42.3927 118.032 42.5727 118.068 42.7472C118.079 42.8383 118.103 42.9273 118.139 43.0118C118.173 43.0891 118.215 43.1629 118.263 43.2322C118.343 43.356 118.445 43.4637 118.564 43.5497C118.741 43.6731 118.901 43.6996 118.901 43.726Z" fill="#D68772"/>
<path d="M119.049 42.7124C119.049 42.7124 118.979 42.6507 118.881 42.5801C118.764 42.4857 118.615 42.4385 118.465 42.4479C118.365 42.4571 118.27 42.4938 118.19 42.5537C118.122 42.5923 118.065 42.6468 118.022 42.7124L117.934 42.6595C117.987 42.5978 118.031 42.5713 118.04 42.5801C118.049 42.5889 118.04 42.6419 118.04 42.7124L117.951 42.6595C117.983 42.5704 118.038 42.4914 118.111 42.4302C118.21 42.3429 118.333 42.2875 118.465 42.2715C118.575 42.2626 118.685 42.284 118.784 42.3332C118.863 42.3698 118.933 42.4241 118.987 42.4919C119.067 42.6066 119.067 42.7036 119.049 42.7124Z" fill="#D68772"/>
<path d="M130.27 39.8105C130.589 39.9164 132.316 40.2867 131.732 42.5176C131.147 44.7486 129.633 44.2283 129.633 44.2283L130.27 39.8105Z" fill="#EAB69B"/>
<path d="M130.191 43.399C130.191 43.399 130.351 43.3373 130.555 43.1874C130.675 43.1029 130.78 42.9985 130.864 42.8787C130.912 42.807 130.95 42.7301 130.98 42.6495C131.017 42.5648 131.043 42.476 131.059 42.3849C131.095 42.2134 131.095 42.0362 131.059 41.8647C131.012 41.7244 130.947 41.591 130.864 41.4679C130.723 41.2562 130.572 41.1769 130.59 41.1504C130.608 41.124 130.643 41.1504 130.705 41.1504C130.804 41.1996 130.891 41.2687 130.962 41.3532C131.073 41.4761 131.157 41.6201 131.21 41.7765C131.276 41.9691 131.297 42.1742 131.272 42.3761C131.253 42.4817 131.223 42.5851 131.183 42.6847C131.14 42.774 131.09 42.8596 131.033 42.9405C130.932 43.0704 130.805 43.1784 130.661 43.2579C130.566 43.3152 130.46 43.354 130.351 43.3725C130.236 43.4166 130.191 43.4078 130.191 43.399Z" fill="#D68772"/>
<path d="M130.031 42.3761C130.031 42.3761 130.031 42.2791 130.111 42.1557C130.168 42.0898 130.237 42.0359 130.315 41.997C130.414 41.9485 130.524 41.9272 130.633 41.9352C130.768 41.9495 130.895 42.005 130.997 42.094C131.066 42.1615 131.12 42.2426 131.156 42.332L131.067 42.3761C131.032 42.3056 131.032 42.2615 131.067 42.2439C131.067 42.2439 131.121 42.2439 131.174 42.3232L131.094 42.3761C131.042 42.319 130.986 42.2659 130.926 42.2174C130.841 42.1618 130.743 42.1285 130.642 42.1204C130.492 42.1083 130.342 42.1558 130.226 42.2527C130.102 42.3232 130.058 42.385 130.031 42.3761Z" fill="#D68772"/>
<path d="M128.739 49.2805C126.968 51.097 120.645 49.8007 119.768 48.9983C118.892 48.1959 118.369 37.7643 118.369 37.7643C118.006 32.3853 121.097 32.0591 124.072 31.2919C127.048 30.5247 130.218 32.2442 130.511 36.6797C130.546 36.6797 130.156 47.7991 128.739 49.2805Z" fill="#FCCAB1"/>
<path d="M118.863 44.2806C123.291 44.4041 127.135 44.069 130.217 42.9844C130.217 42.9844 129.65 47.5521 129.499 48.037C129.154 49.1393 128.986 50.5502 124.31 50.1357C119.634 49.7213 119.722 49.3597 119.342 48.3104C119.09 46.9796 118.93 45.6332 118.863 44.2806Z" fill="#B76A2B"/>
<path d="M126.992 46.3746C126.622 46.0845 126.192 45.8789 125.733 45.7723C125.274 45.6656 124.797 45.6605 124.335 45.7573C123.874 45.8642 123.44 46.0661 123.062 46.3501C122.684 46.6342 122.369 46.9939 122.139 47.4062" fill="#ECE9DE"/>
<path d="M125.569 42.7737C125.569 42.7737 125.498 42.8619 125.33 42.9853C125.105 43.1574 124.868 43.3135 124.621 43.4527C124.446 43.549 124.262 43.6287 124.072 43.6908L123.913 43.7349H123.824H123.736C123.701 43.7394 123.665 43.7394 123.63 43.7349C123.582 43.7206 123.541 43.6892 123.514 43.6467C123.495 43.5774 123.495 43.5043 123.514 43.4351C123.501 43.309 123.501 43.1819 123.514 43.0559C123.514 42.9324 123.576 42.809 123.603 42.6855C123.63 42.5621 123.762 42.1829 123.851 41.9184C124.037 41.4069 124.232 40.9219 124.409 40.4899L124.568 40.1989V40.1195V40.0578V39.9961C124.572 39.9727 124.572 39.9489 124.568 39.9255C124.555 39.7333 124.531 39.542 124.497 39.3524C124.413 38.9772 124.351 38.5973 124.311 38.2148C124.311 38.2148 124.365 38.3118 124.418 38.5058C124.471 38.6998 124.542 38.982 124.621 39.3259C124.621 39.5023 124.692 39.6963 124.719 39.9167C124.719 39.9167 124.719 39.9696 124.719 39.9961V40.1372C124.719 40.1372 124.719 40.1372 124.719 40.1812V40.2606L124.586 40.5869C124.418 41.0278 124.232 41.4687 124.046 42.0154C123.957 42.2711 123.869 42.5268 123.807 42.7649C123.745 43.003 123.683 43.003 123.683 43.1088C123.675 43.2233 123.675 43.3382 123.683 43.4527C123.672 43.4961 123.672 43.5415 123.683 43.585H123.886L124.037 43.5409C124.221 43.488 124.399 43.4171 124.568 43.3292C124.82 43.2035 125.065 43.0652 125.303 42.9148C125.387 42.8594 125.476 42.8121 125.569 42.7737Z" fill="#E2A893"/>
<path d="M125.969 39.9343C125.969 39.9343 126.456 38.0737 127.802 38.2501C129.148 38.4264 129.281 40.0137 129.281 40.0137L125.969 39.9343Z" fill="#EFA98E"/>
<path d="M125.969 39.9345C126.053 39.5749 126.259 39.2553 126.553 39.0302C126.847 38.8051 127.21 38.6884 127.581 38.7C127.981 38.689 128.372 38.8206 128.684 39.0712C128.996 39.3217 129.207 39.6747 129.281 40.0668C129.281 40.0668 126.722 39.9786 125.969 39.9345Z" fill="#ECE9DE"/>
<path d="M126.801 39.9699C126.801 39.9699 126.801 38.9912 127.686 38.9559C128.572 38.9206 128.572 40.0581 128.572 40.0581C127.981 40.1217 127.383 40.092 126.801 39.9699Z" fill="#603934"/>
<path d="M129.281 40.0576C129.281 40.0576 129.192 39.8107 128.971 39.4756C128.84 39.2798 128.672 39.1119 128.475 38.9818C128.231 38.8298 127.948 38.7503 127.66 38.7526C127.374 38.7543 127.093 38.8303 126.845 38.973C126.64 39.0903 126.46 39.246 126.314 39.4315C126.189 39.6135 126.074 39.8019 125.969 39.9959C125.969 39.9959 125.969 39.9253 125.969 39.8107C126.081 39.4567 126.302 39.1468 126.601 38.9251C126.899 38.7035 127.261 38.5814 127.634 38.5762C127.949 38.5743 128.257 38.6664 128.519 38.8407C128.73 38.9894 128.905 39.182 129.033 39.4051C129.175 39.5953 129.261 39.8213 129.281 40.0576Z" fill="#393E49"/>
<path d="M128.89 39.5823C128.89 39.6352 128.731 39.6881 128.527 39.6881C128.323 39.6881 128.164 39.6352 128.164 39.5823C128.164 39.5294 128.332 39.5117 128.527 39.5117C128.722 39.5117 128.881 39.5205 128.89 39.5823Z" fill="white"/>
<path d="M120.141 39.8191C120.141 39.8191 120.628 37.9585 121.983 38.1348C123.338 38.3112 123.453 39.9513 123.453 39.9513L120.141 39.8191Z" fill="#EFA98E"/>
<path d="M120.141 39.8202C120.223 39.459 120.428 39.1373 120.722 38.9105C121.016 38.6837 121.381 38.5657 121.752 38.5769C122.153 38.5698 122.544 38.704 122.855 38.9557C123.166 39.2074 123.378 39.5604 123.453 39.9525C123.453 39.9525 120.911 39.8731 120.141 39.8202Z" fill="#ECE9DE"/>
<path d="M121.168 39.8635C121.168 39.8635 121.168 38.8759 122.098 38.8406C123.028 38.8054 122.983 39.9517 122.983 39.9517C122.392 40.0099 121.795 39.9802 121.212 39.8635" fill="#603934"/>
<path d="M123.462 39.9512C123.462 39.9512 123.373 39.7043 123.152 39.3604C123.019 39.1662 122.851 38.9987 122.656 38.8666C122.413 38.7199 122.134 38.6408 121.85 38.6373C121.564 38.6378 121.282 38.7139 121.035 38.8577C120.829 38.9737 120.648 39.1296 120.504 39.3163C120.374 39.4971 120.256 39.6856 120.15 39.8806C120.138 39.8195 120.138 39.7566 120.15 39.6954C120.199 39.5348 120.274 39.383 120.371 39.2457C120.531 39.0072 120.747 38.8111 121 38.6744C121.253 38.5376 121.535 38.4643 121.823 38.4609C122.139 38.4657 122.446 38.5606 122.709 38.7343C122.918 38.8804 123.094 39.0699 123.223 39.2898C123.367 39.4813 123.451 39.7118 123.462 39.9512Z" fill="#393E49"/>
<path d="M123.073 39.4583C123.073 39.5024 122.914 39.5553 122.71 39.5553C122.506 39.5553 122.347 39.5024 122.356 39.4583C122.365 39.4142 122.515 39.3789 122.71 39.3789C122.905 39.3789 123.064 39.4054 123.073 39.4583Z" fill="white"/>
<path d="M118.882 41.152C118.882 41.152 118.067 34.8384 119.573 33.2159C119.573 33.2159 126.799 35.4204 128.03 34.5121C129.261 33.6039 129.367 33.1101 129.367 33.1101C129.367 33.1101 129.881 35.8877 130.191 36.9371C130.347 37.9895 130.347 39.0591 130.191 40.1115L130.678 39.9087C130.678 39.9087 131.138 32.678 130.572 32.3429C130.005 32.0078 127.313 29.3272 124.771 30.112C122.229 30.8968 117.828 33.0131 117.801 34.565C117.775 36.117 118.607 41.2314 118.607 41.2314L118.882 41.152Z" fill="#B76A2B"/>
<path d="M123.355 30.6134C123.355 30.6134 127.659 28.3825 128.616 29.1673C128.902 29.4588 129.113 29.8145 129.231 30.2043C129.35 30.5941 129.373 31.0066 129.298 31.4071C129.455 31.2982 129.642 31.2399 129.834 31.2399C130.025 31.2399 130.212 31.2982 130.369 31.4071C130.874 31.8039 130.812 33.4352 130.812 33.4352L127.713 32.377L123.355 30.6134Z" fill="#B76A2B"/>
<path d="M119.575 33.1895C119.575 33.1895 117.671 34.5121 117.804 35.4733L117.981 36.8136L118.725 35.9318C118.885 34.9844 119.171 34.0623 119.575 33.1895Z" fill="#D17933"/>
<path d="M122.459 33.9731C129.331 32.2096 127.436 29.0527 127.436 29.0527L126.045 29.4407C127.604 32.1037 120.422 33.4088 120.422 33.4088L122.459 33.9731Z" fill="#D17933"/>
<path d="M125.914 34.6356C125.914 34.6356 129.235 32.9161 129.297 31.4082C129.297 31.4082 129.704 31.0908 130.032 31.2495C130.032 31.2495 130.245 33.1101 127.021 34.6973L125.914 34.6356Z" fill="#D17933"/>
<path d="M129.508 33.8418C129.508 33.8418 130.774 33.9123 130.81 34.2298L130.854 35.5966L129.685 34.7148L129.508 33.8418Z" fill="#D17933"/>
<path d="M126.01 36.3254L129.119 38.0707L129.579 37.3868L126.586 35.0755L126.01 36.3254Z" fill="#B9682B"/>
<path d="M126.585 36.6468L126.883 35.3027L127.553 35.8218L127.313 37.0567L126.585 36.6468Z" fill="#D17933"/>
<path d="M127.821 37.3488L128.164 36.2949L128.332 36.4178L128.142 37.5201L127.821 37.3488Z" fill="#D17933"/>
<path d="M119.796 37.7653C119.796 37.7653 123.298 36.4877 123.299 36.4123C123.301 36.337 122.83 35.0722 122.83 35.0722L119.539 37.0328L119.796 37.7653Z" fill="#B9682B"/>
<path d="M122.536 35.2505L122.704 36.6399L122.095 36.9085L122.039 35.5453L122.536 35.2505Z" fill="#D17933"/>
<path d="M121.449 37.1522L121.309 35.9772L121.049 36.2266L121.115 36.9508L120.801 36.3224L120.418 36.5123L120.822 37.3709L121.449 37.1522Z" fill="#D17933"/>
</g>
<defs>
<linearGradient id="paint0_linear_3796_2087" x1="5.40217" y1="0" x2="5.40217" y2="107.36" gradientUnits="userSpaceOnUse">
<stop stop-color="#ADADAD"/>
<stop offset="1" stop-color="#919191"/>
</linearGradient>
<linearGradient id="paint1_linear_3796_2087" x1="49.3498" y1="6.07422e-07" x2="62.0036" y2="104.508" gradientUnits="userSpaceOnUse">
<stop stop-color="#EFEFEF"/>
<stop offset="1" stop-color="#A8A8A8"/>
</linearGradient>
<linearGradient id="paint2_linear_3796_2087" x1="59.3012" y1="112.727" x2="59.3012" y2="145.048" gradientUnits="userSpaceOnUse">
<stop stop-color="#AFAFAF"/>
<stop offset="1" stop-color="#838383"/>
</linearGradient>
<linearGradient id="paint3_linear_3796_2087" x1="79.1034" y1="73.5547" x2="79.2746" y2="54.952" gradientUnits="userSpaceOnUse">
<stop stop-color="#CFCFCF"/>
<stop offset="0.828125" stop-color="#ECECEC"/>
<stop offset="1" stop-color="white"/>
</linearGradient>
<clipPath id="clip0_3796_2087">
<rect width="49" height="111" fill="white" transform="translate(98 29)"/>
</clipPath>
</defs>
</svg>