<svg width="141" height="148" viewBox="0 0 141 148" fill="none" xmlns="http://www.w3.org/2000/svg">
<g id="Group 1000001017">
<g id="Group 1000001016">
<g id="Group 1000001015">
<g id="Group">
<g id="a">
<g id="Vector" style="mix-blend-mode:multiply">
<path d="M127.151 135.59C127.151 135.59 146.713 140.38 137.695 142.017C128.676 143.652 108.438 140.154 92.6935 142.017C76.9479 143.88 22.2851 150.487 7.94319 142.766C-6.39874 135.046 0.249996 139.427 30.8296 133.203C61.4092 126.978 104.9 121.58 104.9 121.58L120.698 120.908C120.698 120.908 101.587 125.318 104.9 128.888C108.213 132.459 127.151 135.59 127.151 135.59Z" fill="#E7E7E7"/>
</g>
<g id="Group_2">
<g id="Group_3">
<path id="Vector_2" d="M4.49723 0H7.72621V107.36H4.49723C3.71377 107.36 3.07812 106.167 3.07812 104.697V2.66301C3.07812 1.19281 3.71377 0 4.49723 0Z" fill="url(#paint0_linear_3672_1567)"/>
<g id="Group_4">
<path id="Vector_3" d="M47.0961 131.743H41.8008V96.0684H52.3915L47.0961 131.743Z" fill="#939393"/>
<path id="Vector_4" d="M60.165 127.987L44.6172 131.743V96.0684H60.165V127.987Z" fill="#BCBCBC"/>
</g>
<g id="Group_5">
<path id="Vector_5" d="M6.42969 105.603V1.77185C6.42969 1.27025 6.58707 0.859649 6.81995 0.594679C7.04955 0.333446 7.35285 0.209944 7.68452 0.261602C7.68455 0.261607 7.68458 0.261612 7.68461 0.261617L91.6083 13.4066C91.7379 13.427 91.903 13.5484 92.0441 13.8127C92.1806 14.0684 92.27 14.4168 92.27 14.7938V92.5807C92.27 92.9577 92.1806 93.3062 92.0441 93.5619C91.903 93.8262 91.7379 93.9476 91.6083 93.968L7.68456 107.113C7.35353 107.165 7.05017 107.041 6.82034 106.78C6.58729 106.515 6.42969 106.104 6.42969 105.603Z" fill="url(#paint1_linear_3672_1567)" stroke="#B1B1B1" stroke-width="0.5"/>
<g id="Group_6">
<path id="Vector_6" d="M88.3944 89.3853L13.2752 99.6212C12.3171 99.7515 11.5352 98.8325 11.5352 97.5673V9.80257C11.5352 8.5374 12.316 7.61837 13.2752 7.74863L88.3944 17.9846C88.9706 18.063 89.4355 18.9169 89.4355 19.8914V87.4797C89.4355 88.4542 88.9706 89.3069 88.3944 89.3865V89.3853Z" fill="white"/>
</g>
</g>
<g id="Group_7">
<path id="Vector_7" d="M117.005 118.493L34.3515 145.048L1.59766 131.637L87.1787 112.727L117.005 118.493Z" fill="url(#paint2_linear_3672_1567)"/>
<path id="Vector_8" d="M117.009 118.494V120.909L34.3555 147.999V145.049L117.009 118.494Z" fill="#BCBCBC"/>
<path id="Vector_9" d="M1.59766 131.637V135.391L34.3515 147.998V145.048L1.59766 131.637Z" fill="#BCBCBC"/>
</g>
<g id="Group_8">
<path id="Vector_10" d="M20.7601 131.289L11.719 133.366L7.30469 131.679L16.3106 129.723L20.7601 131.289Z" fill="#D8D8D8"/>
<path id="Vector_11" d="M31.0507 128.926L22.9279 130.792L18.4727 129.254L26.5852 127.492L31.0507 128.926Z" fill="#D8D8D8"/>
<path id="Vector_12" d="M40.3291 126.789L32.9917 128.475L28.5273 127.066L35.8716 125.471L40.3291 126.789Z" fill="#D8D8D8"/>
<path id="Vector_13" d="M48.7536 124.857L42.0936 126.386L37.6406 125.09L44.3223 123.639L48.7536 124.857Z" fill="#D8D8D8"/>
<path id="Vector_14" d="M56.4318 123.09L50.3593 124.485L45.9336 123.286L52.0379 121.961L56.4318 123.09Z" fill="#D8D8D8"/>
<path id="Vector_15" d="M63.4642 121.479L57.9043 122.757L53.5195 121.643L59.1181 120.428L63.4642 121.479Z" fill="#D8D8D8"/>
<path id="Vector_16" d="M69.9173 119.995L64.8085 121.17L60.4727 120.133L65.6257 119.014L69.9173 119.995Z" fill="#D8D8D8"/>
<path id="Vector_17" d="M75.8594 118.629L71.1474 119.712L66.8672 118.743L71.6259 117.709L75.8594 118.629Z" fill="#D8D8D8"/>
<path id="Vector_18" d="M81.3676 117.364L77.009 118.365L72.7891 117.456L77.1977 116.5L81.3676 117.364Z" fill="#D8D8D8"/>
<path id="Vector_19" d="M86.4657 116.191L82.423 117.12L78.2656 116.266L82.3605 115.377L86.4657 116.191Z" fill="#D8D8D8"/>
<path id="Vector_20" d="M91.2206 115.102L87.4598 115.967L83.3672 115.163L87.1802 114.334L91.2206 115.102Z" fill="#D8D8D8"/>
<path id="Vector_21" d="M27.7409 133.741L18.6646 136.014L13.8945 134.192L22.9504 132.055L27.7409 133.741Z" fill="#D8D8D8"/>
<path id="Vector_22" d="M38.0266 131.165L29.906 133.201L25.1133 131.546L33.2372 129.627L38.0266 131.165Z" fill="#D8D8D8"/>
<path id="Vector_23" d="M47.2747 128.843L39.9656 130.674L35.1797 129.164L42.5103 127.434L47.2747 128.843Z" fill="#D8D8D8"/>
<path id="Vector_24" d="M55.6433 126.747L49.0298 128.404L44.2734 127.018L50.9199 125.449L55.6433 126.747Z" fill="#D8D8D8"/>
<path id="Vector_25" d="M63.2478 124.843L57.2366 126.35L52.5234 125.073L58.5789 123.643L63.2478 124.843Z" fill="#D8D8D8"/>
<path id="Vector_26" d="M70.1838 123.105L64.6954 124.48L60.0391 123.298L65.5774 121.99L70.1838 123.105Z" fill="#D8D8D8"/>
<path id="Vector_27" d="M76.5421 121.515L71.5107 122.775L66.918 121.678L72.004 120.477L76.5421 121.515Z" fill="#D8D8D8"/>
<path id="Vector_28" d="M82.3908 120.043L77.7617 121.203L73.2383 120.179L77.9242 119.072L82.3908 120.043Z" fill="#D8D8D8"/>
<path id="Vector_29" d="M87.7865 118.694L83.5132 119.765L79.0625 118.807L83.395 117.783L87.7865 118.694Z" fill="#D8D8D8"/>
<path id="Vector_30" d="M92.7773 117.445L88.821 118.436L84.4453 117.538L88.4618 116.59L92.7773 117.445Z" fill="#D8D8D8"/>
<path id="Vector_31" d="M97.4181 116.282L93.7448 117.202L89.4453 116.358L93.18 115.477L97.4181 116.282Z" fill="#D8D8D8"/>
<path id="Vector_32" d="M35.2712 136.395L26.1834 138.893L21.0156 136.918L30.0977 134.574L35.2712 136.395Z" fill="#D8D8D8"/>
<path id="Vector_33" d="M45.5235 133.573L37.4291 135.799L32.2578 134.014L40.3738 131.92L45.5235 133.573Z" fill="#D8D8D8"/>
<path id="Vector_34" d="M54.716 131.045L47.4592 133.04L42.3164 131.418L49.6118 129.535L54.716 131.045Z" fill="#D8D8D8"/>
<path id="Vector_35" d="M62.9952 128.769L56.4522 130.567L51.3594 129.083L57.9524 127.383L62.9952 128.769Z" fill="#D8D8D8"/>
<path id="Vector_36" d="M70.5003 126.711L64.5721 128.34L59.543 126.977L65.5302 125.434L70.5003 126.711Z" fill="#D8D8D8"/>
<path id="Vector_37" d="M77.3215 124.834L71.9241 126.317L66.9688 125.059L72.431 123.65L77.3215 124.834Z" fill="#D8D8D8"/>
<path id="Vector_38" d="M83.5661 123.118L78.6313 124.474L73.7578 123.308L78.7597 122.018L83.5661 123.118Z" fill="#D8D8D8"/>
<path id="Vector_39" d="M89.2822 121.543L84.7531 122.787L79.9648 121.703L84.5633 120.518L89.2822 121.543Z" fill="#D8D8D8"/>
<path id="Vector_40" d="M94.5476 120.097L90.3765 121.243L85.6758 120.231L89.9173 119.137L94.5476 120.097Z" fill="#D8D8D8"/>
<path id="Vector_41" d="M99.418 118.76L95.5652 119.819L90.9531 118.872L94.8776 117.859L99.418 118.76Z" fill="#D8D8D8"/>
<path id="Vector_42" d="M103.923 117.52L100.35 118.502L95.8281 117.613L99.4707 116.674L103.923 117.52Z" fill="#D8D8D8"/>
<path id="Vector_43" d="M43.4179 139.265L34.3495 142.016L28.7305 139.869L37.8148 137.293L43.4179 139.265Z" fill="#D8D8D8"/>
<path id="Vector_44" d="M53.6104 136.169L45.5717 138.609L39.9766 136.677L48.0573 134.387L53.6104 136.169Z" fill="#D8D8D8"/>
<path id="Vector_45" d="M62.705 133.409L55.5289 135.587L49.9883 133.839L57.2223 131.787L62.705 133.409Z" fill="#D8D8D8"/>
<path id="Vector_46" d="M96.5747 123.13L64.4199 132.889L58.9531 131.297L91.5807 122.045L96.5747 123.13Z" fill="#D8D8D8"/>
<path id="Vector_47" d="M101.69 121.578L97.6391 122.807L92.668 121.737L96.8015 120.564L101.69 121.578Z" fill="#D8D8D8"/>
<path id="Vector_48" d="M106.41 120.146L102.675 121.28L97.8086 120.28L101.625 119.197L106.41 120.146Z" fill="#D8D8D8"/>
<path id="Vector_49" d="M110.769 118.825L107.315 119.873L102.551 118.936L106.087 117.934L110.769 118.825Z" fill="#D8D8D8"/>
</g>
</g>
<path id="Vector_50" d="M124.993 110.663L55.6465 126.75L20.7617 47.322L79.9672 46.7793L124.993 110.663Z" fill="white"/>
<g id="Vector_51" style="mix-blend-mode:multiply">
<path d="M20.7617 47.3203L28.7322 97.7957L42.0127 95.7056L20.7617 47.3203Z" fill="#F2F2F2"/>
</g>
<g id="Group_9">
<g id="Group_10">
<path id="Vector_52" d="M120.673 138.885L118.546 140.038L115.871 139.593C115.871 139.593 115.445 141.203 116.756 141.42C118.068 141.638 121.722 141.665 121.722 141.665L122.537 141.728C123.028 141.765 123.392 141.25 123.225 140.755L123.108 140.409L122.858 139.248L120.673 138.885Z" fill="#404040"/>
<path id="Vector_53" d="M118.578 137.844L117.07 138.661L115.172 138.347C115.172 138.347 114.87 139.488 115.8 139.642C116.73 139.796 119.323 139.816 119.323 139.816L120.642 139.917L120.306 138.926L120.128 138.102L118.579 137.844H118.578Z" fill="#404040"/>
<g id="Group_11">
<path id="Vector_54" d="M99.582 57.0917L99.8514 60.2769L99.7184 62.1644L100.406 62.2199C100.406 62.2199 101.921 64.5561 103.353 62.4563L104.51 62.8652L105.659 65.6765L107.575 61.4239L107.679 59.9561L105.819 59.7016C105.819 59.7016 101.372 56.9192 99.582 57.0917Z" fill="#F4996F"/>
<path id="Vector_55" d="M99.5106 58.142C99.5106 58.142 100.653 57.188 101.201 57.3907C101.748 57.5933 102.222 60.3142 102.222 60.3142L102.713 60.354L102.843 58.5159C102.843 58.5159 103.854 58.171 103.992 59.0273L103.933 59.8679L105.822 59.7039L104.568 55.069L102.985 54.4141C102.985 54.4141 96.8 55.9699 99.5118 58.1408L99.5106 58.142Z" fill="#B76A2B"/>
<path id="Vector_56" d="M103.357 62.4587L103.916 61.2586L102.359 57.8503C102.359 57.8503 103.552 57.5379 104.39 59.8294L105.254 59.7547L105.822 59.7052L105.696 61.4878L104.917 63.8577L103.356 62.4587H103.357Z" fill="#DE8B65"/>
</g>
<path id="Vector_57" d="M118.371 93.77L117.781 111.163C117.781 111.163 118.981 126.695 118.719 139.539H120.223L122.228 113.253V96.8878L122.89 92.7871L118.37 93.77H118.371Z" fill="#929292"/>
<path id="Vector_58" d="M131.553 89.3926C131.553 89.3926 135.903 95.4302 131.553 99.5658L126.615 115.341C126.615 115.341 129.908 117.931 122.894 139.127L120.227 139.537L121.159 93.4667L131.553 89.3926Z" fill="#CFCFCF"/>
<path id="Vector_59" d="M111.187 58.7529L107.581 59.7286L104.703 64.5638L106.534 72.6975L112.552 83.1337L117.266 94.9954L133.914 88.4705L124.953 76.2856C124.953 76.2856 122.489 65.5913 117.745 60.6332C116.017 58.8277 113.531 58.1197 111.187 58.7529Z" fill="#CFCFCF"/>
<g id="Vector_60" style="mix-blend-mode:multiply">
<path d="M115.313 60.9817C115.313 60.9817 116.981 66.965 113.337 72.5696C109.694 78.1743 109.112 77.1648 109.112 77.1648L106.535 72.6951L115.314 60.9805L115.313 60.9817Z" fill="#929292"/>
</g>
<path id="Vector_61" d="M131.554 89.3926L118.375 94.5582L119.537 95.4048L131.554 89.3926Z" fill="#929292"/>
<path id="Vector_62" d="M106.357 59.1562L107.667 59.4071L106.63 66.2009L104.703 64.5582L106.357 59.1562Z" fill="#F1F1F1"/>
<path id="Vector_63" d="M120.007 84.291L115.691 86.1616L116.213 86.9577L121.054 84.4358L120.007 84.291Z" fill="#CFCFCF"/>
<path id="Vector_64" d="M94.0548 74.3485L92.966 69.9102L92.1602 70.19L93.3251 74.9407H93.6274C93.9172 74.9407 94.1286 74.6476 94.0559 74.3485H94.0548Z" fill="#ED1C24"/>
<path id="Vector_65" d="M94.5343 72.8073L93.9524 72.0318L93.6331 71.0078L93.3126 70.2637C93.3126 70.2637 93.1091 70.4494 93.3126 71.0392V71.5361H92.0919C92.0919 71.5361 91.8305 71.8461 92.4704 72.033L92.7898 72.8085L94.2434 73.3054L94.5343 72.8085V72.8073Z" fill="#F4996F"/>
<path id="Vector_66" d="M115.281 61.971C115.19 60.8083 114.348 59.8772 113.261 59.759C111.995 59.6216 110.252 59.9219 108.803 61.9577C106.186 65.635 103.599 75.2896 103.599 75.2896L94.3063 72.6037L93.6289 73.8267L104.887 80.249C105.563 80.6337 106.397 80.4854 106.917 79.886C109.352 77.0794 115.827 68.9095 115.282 61.9722L115.281 61.971Z" fill="#CFCFCF"/>
<g id="Group_12" opacity="0.18">
<path id="Vector_67" opacity="0.18" d="M91.9695 70.2451C93.8565 69.8402 94.9283 67.1091 94.3636 64.145C93.7989 61.1809 91.8114 59.1063 89.9244 59.5111C88.0375 59.9159 86.9656 62.647 87.5303 65.6111C88.0951 68.5752 90.0826 70.6499 91.9695 70.2451Z" fill="white"/>
</g>
<path id="Vector_68" d="M93.57 61.2949C92.9642 60.3011 92.2198 59.6269 91.4527 59.2953C90.2672 58.7827 89.0262 59.0878 88.1476 60.2891C86.7019 62.2658 86.7815 65.9347 88.3249 68.4674C89.0034 69.5807 89.8535 70.2898 90.7162 70.5696C91.8163 70.9266 92.9358 70.5817 93.7473 69.4733C95.193 67.4953 95.1134 63.8277 93.57 61.2949ZM88.6931 67.9621C87.3668 65.7863 87.2986 62.6337 88.5408 60.9343C89.3001 59.8971 90.3752 59.6378 91.3992 60.0889C92.0516 60.3759 92.6847 60.9524 93.2006 61.7991C94.527 63.9748 94.5952 67.1275 93.3529 68.8269C92.6596 69.776 91.7016 70.0739 90.7594 69.7724C90.0138 69.536 89.2796 68.9233 88.6931 67.9609V67.9621Z" fill="#D51C24"/>
<path id="Vector_69" d="M93.5656 61.2927C92.9598 60.2989 92.2154 59.6247 91.4482 59.293C90.3458 58.9336 89.2229 59.2773 88.4103 60.3881C87.8863 61.1045 87.5635 62.0428 87.4362 63.0668C87.4328 63.1006 87.4283 63.1343 87.4249 63.1681C87.3965 63.4238 87.3806 63.6843 87.376 63.9472C87.376 64.0232 87.3737 64.1004 87.376 64.1764C87.3919 65.6852 87.7988 67.2748 88.5864 68.5665C89.1945 69.5639 89.9412 70.2381 90.7095 70.5674C91.8096 70.9244 92.9291 70.5794 93.7406 69.471C95.1863 67.4931 95.1067 63.8254 93.5633 61.2927H93.5656ZM88.9569 68.0611C87.6294 65.8842 87.5613 62.7327 88.8046 61.0321C89.4968 60.0854 90.4537 59.7863 91.3948 60.0854C92.1415 60.3218 92.8768 60.9345 93.4644 61.8969C94.7919 64.0739 94.8601 67.2253 93.6167 68.9259C92.8564 69.9643 91.7812 70.2224 90.7549 69.7701C90.1037 69.4831 89.4718 68.9078 88.9569 68.0611Z" fill="#ED1C24"/>
<g id="Group_13" opacity="0.13">
<path id="Vector_70" opacity="0.13" d="M88.9101 61.6481C89.5 60.8412 90.3126 60.5891 91.1116 60.8472C90.5922 60.9063 90.1023 61.1982 89.7102 61.7337C88.6567 63.1737 88.7146 65.8367 89.8387 67.682C90.3342 68.4937 90.9536 69.0123 91.581 69.215C90.7047 69.3151 89.7455 68.7554 89.0386 67.5964C87.9145 65.7511 87.8566 63.0881 88.9101 61.6481Z" fill="#4BABFF"/>
</g>
</g>
<path id="Vector_71" d="M110.354 75.4023L113.26 81.5256L109.562 76.5566L110.354 75.4023Z" fill="white"/>
<path id="Vector_72" d="M104.703 64.5625L105.825 68.282L106.306 67.012L105.478 65.2234L104.703 64.5625Z" fill="white"/>
</g>
<g id="Group_14">
<g id="Group_15">
<path id="Vector_73" d="M58.9497 115.275L112.67 104.995L78.7379 54.3848L33.4141 55.7838L58.9497 115.275Z" fill="white"/>
<path id="Vector 181" d="M61.4564 59.5938L41.8047 60.6064L42.761 63.0002L62.8474 61.9875L61.4564 59.5938Z" fill="#CDCDCD"/>
<path id="Vector 182" d="M63.4877 64.5L43.8359 65.5126L44.7923 67.9065L64.8787 66.8937L63.4877 64.5Z" fill="#CDCDCD"/>
<path id="Vector 183" d="M65.9603 69.4082L46.3086 70.4209L47.2649 72.8147L67.3513 71.8019L65.9603 69.4082Z" fill="#CDCDCD"/>
<path id="Vector 184" d="M88.1481 73.2188L48.7773 75.9547L49.7337 78.3485L89.4524 75.3365L88.1481 73.2188Z" fill="#CDCDCD"/>
<path id="Vector 185" d="M90.8513 78.3477L51.4805 81.0836L52.4368 83.4774L92.1556 80.4654L90.8513 78.3477Z" fill="#CDCDCD"/>
<path id="Vector 186" d="M65.1068 86.0039L54.3594 86.622L55.3157 89.0158L66.4111 88.3191L65.1068 86.0039Z" fill="#CDCDCD"/>
<path id="Vector 187" d="M73.3491 101.449L62.7031 102.825L63.8978 105.738L74.6493 103.991L73.3491 101.449Z" fill="#CDCDCD"/>
</g>
</g>
</g>
</g>
</g>
<path id="Vector_74" d="M100.75 62.6616C101.272 62.6939 101.743 62.7593 102.037 62.1518C102.422 61.3565 102.335 59.252 102.809 58.8809C102.809 58.8809 103.883 61.036 103.839 61.3341C103.745 61.9994 104.085 65.3388 102.809 65.0887C101.534 64.8385 101.371 64.4206 101.265 63.7873C101.197 62.9857 100.767 63.4762 100.75 62.6616Z" fill="#B76A2B"/>
<path id="Vector 32" d="M100.496 57.5148V55.3342C100.839 55.1525 101.577 54.7891 101.783 54.7891C101.989 54.7891 101.011 56.6062 100.496 57.5148Z" fill="#D17933"/>
<path id="Vector 33" d="M102.809 54.4922L104.815 56.994C104.625 56.2442 103.383 54.5932 102.809 54.4922Z" fill="#D17933"/>
<g id="Group_16">
<g id="Group_17">
<path id="Vector_75" d="M71.7715 71.3273L84.5256 70.858L77.8463 59.2734L65.3789 59.2736L71.7715 71.3273Z" fill="url(#paint3_linear_3672_1567)"/>
</g>
<g id="Group_18">
<path id="Vector_76" d="M73.4122 69.1981L73.3076 69.0039C72.5769 66.8647 73.6599 65.6045 75.444 65.617C77.1357 65.6288 79.1516 67.0817 80.0941 69.004L80.1891 69.1981L73.4122 69.1981Z" fill="#636363"/>
<g id="Group_19">
<path id="Vector_77" d="M72.2882 62.8983C72.7536 63.9558 74.2131 65.1808 75.2836 65.1201C76.3156 65.0617 76.4946 63.8258 75.9702 62.8361C75.4697 61.8916 74.3162 61.1472 73.345 61.135C72.341 61.1225 71.8454 61.8922 72.2882 62.8983Z" fill="white"/>
<path id="Vector_78" d="M75.9299 66.9689C76.4249 66.9621 76.6338 66.5305 76.4085 66.016L75.8437 64.7266L74.1059 64.6903L74.6306 66.0141C74.8403 66.5429 75.4273 66.9757 75.9298 66.9687L75.9299 66.9689Z" fill="white"/>
<path id="Vector_79" d="M76.0363 63.1543C76.0363 63.1543 76.0199 62.8541 76.3018 63.1066C76.5855 63.3609 76.7044 64.1669 76.2553 63.8393L76.0363 63.1543Z" fill="#EBECF2"/>
<path id="Vector_80" d="M72.4662 63.0266C72.4662 63.0266 72.201 62.6993 72.1129 62.9528C72.0229 63.2111 72.654 64.0854 72.8591 63.7542L72.4662 63.0266Z" fill="#EBECF2"/>
</g>
<path id="Vector_81" d="M74.9139 61.9519C74.9139 61.9519 73.6679 62.8369 72.3663 62.1982L72.5167 62.8663L72.8655 63.5594C72.8655 63.5594 72.419 62.9125 72.2859 62.897C72.1523 62.8815 72.0436 62.9347 72.1101 63.0995C72.1101 63.0995 70.2718 59.9607 74.2512 60.8709L74.9137 61.9519L74.9139 61.9519Z" fill="#3660A1"/>
<path id="Vector_82" d="M74.2539 60.8713C74.2539 60.8713 75.8617 61.5118 76.301 63.1054C76.301 63.1054 76.1983 62.9772 76.0643 63.0319L76.1704 63.5748C76.1704 63.5748 75.562 62.0928 74.9163 61.9521L74.2539 60.8711L74.2539 60.8713Z" fill="#3660A1"/>
</g>
</g>
</g>
</g>
<path id="Vector_83" d="M52.6307 23.0795C50.4092 23.0487 48.2375 23.7762 46.3904 25.1698C44.5433 26.5635 43.1036 28.5608 42.2534 30.9091C41.4033 33.2575 41.1809 35.8515 41.6143 38.363C42.0477 40.8745 43.1174 43.1908 44.6883 45.019C46.2591 46.8471 48.2605 48.105 50.4394 48.6336C52.6182 49.1622 54.8767 48.9377 56.9291 47.9885C58.9815 47.0394 60.7357 45.4082 61.9699 43.3012C63.2042 41.1942 63.8629 38.7061 63.8629 36.1515C63.8629 34.4553 63.5724 32.7717 63.0079 31.1968C62.4434 29.6219 61.6161 28.1865 60.5731 26.9727C59.5301 25.7589 58.2918 24.7903 56.9291 24.1223C55.5663 23.4543 54.1057 23.1 52.6307 23.0795ZM53.7539 34.7198V35.5722L53.372 36.0061L48.9353 41.0465L48.1378 40.1184L52.6307 35.0142V26.9544L53.7539 26.97V34.7198Z" fill="#FA9C10"/>
</g>
<defs>
<linearGradient id="paint0_linear_3672_1567" x1="5.40217" y1="0" x2="5.40217" y2="107.36" gradientUnits="userSpaceOnUse">
<stop stop-color="#ADADAD"/>
<stop offset="1" stop-color="#919191"/>
</linearGradient>
<linearGradient id="paint1_linear_3672_1567" x1="49.3498" y1="6.07422e-07" x2="62.0036" y2="104.508" gradientUnits="userSpaceOnUse">
<stop stop-color="#EFEFEF"/>
<stop offset="1" stop-color="#A8A8A8"/>
</linearGradient>
<linearGradient id="paint2_linear_3672_1567" x1="59.3012" y1="112.727" x2="59.3012" y2="145.048" gradientUnits="userSpaceOnUse">
<stop stop-color="#AFAFAF"/>
<stop offset="1" stop-color="#838383"/>
</linearGradient>
<linearGradient id="paint3_linear_3672_1567" x1="79.1034" y1="73.5547" x2="79.2746" y2="54.952" gradientUnits="userSpaceOnUse">
<stop stop-color="#CFCFCF"/>
<stop offset="0.828125" stop-color="#ECECEC"/>
<stop offset="1" stop-color="white"/>
</linearGradient>
</defs>
</svg>
