<svg width="43" height="43" viewBox="0 0 43 43" fill="none" xmlns="http://www.w3.org/2000/svg">
<mask id="mask0_118_3274" style="mask-type:alpha" maskUnits="userSpaceOnUse" x="0" y="0" width="43" height="43">
<rect width="43" height="43" fill="#D9D9D9"/>
</mask>
<g mask="url(#mask0_118_3274)">
<path d="M19.7532 37.625V33.7729C18.1706 33.4146 16.8044 32.7278 15.6548 31.7125C14.5051 30.6972 13.6615 29.2639 13.124 27.4125L16.4386 26.0688C16.8865 27.5021 17.5509 28.592 18.4318 29.3385C19.3127 30.0851 20.4699 30.4583 21.9032 30.4583C23.1275 30.4583 24.1652 30.1821 25.0162 29.6297C25.8673 29.0773 26.2928 28.2188 26.2928 27.0542C26.2928 26.009 25.9643 25.1804 25.3074 24.5682C24.6504 23.9561 23.1275 23.2618 20.7386 22.4854C18.1706 21.6792 16.4087 20.7161 15.4532 19.5964C14.4976 18.4766 14.0199 17.1104 14.0199 15.4979C14.0199 13.5569 14.6469 12.049 15.9011 10.974C17.1553 9.89896 18.4393 9.28681 19.7532 9.1375V5.375H23.3365V9.1375C24.8296 9.37639 26.0614 9.92135 27.0318 10.7724C28.0023 11.6234 28.7115 12.6611 29.1594 13.8854L25.8449 15.3188C25.4865 14.3632 24.9789 13.6465 24.3219 13.1687C23.665 12.691 22.7692 12.4521 21.6344 12.4521C20.3206 12.4521 19.3202 12.7432 18.6334 13.3255C17.9466 13.9078 17.6032 14.6319 17.6032 15.4979C17.6032 16.4833 18.0511 17.2597 18.9469 17.8271C19.8428 18.3944 21.3956 18.9917 23.6053 19.6188C25.6657 20.216 27.2259 21.1641 28.286 22.463C29.3461 23.762 29.8761 25.2625 29.8761 26.9646C29.8761 29.0847 29.249 30.6972 27.9949 31.8021C26.7407 32.9069 25.1879 33.5938 23.3365 33.8625V37.625H19.7532Z" fill="white"/>
</g>
</svg>
