<svg width="38" height="38" viewBox="0 0 38 38" fill="none" xmlns="http://www.w3.org/2000/svg">
<circle cx="19" cy="19" r="19" fill="#E9F4FF"/>
<path d="M18.9168 10.0847L26.3535 13.2725C26.8183 13.4717 27.0772 13.9698 26.9743 14.4613C26.8714 14.9527 26.4398 15.3114 25.9352 15.3114V15.577C25.9352 16.0187 25.5799 16.374 25.1384 16.374H11.8587C11.4171 16.374 11.0619 16.0187 11.0619 15.577V15.3114C10.5573 15.3114 10.1224 14.956 10.0228 14.4613C9.92318 13.9665 10.1821 13.4684 10.6436 13.2725L18.0802 10.0847C18.3458 9.97177 18.6513 9.97177 18.9168 10.0847ZM22.748 17.4366H24.8728V23.955C24.8927 23.9649 24.9126 23.9782 24.9325 23.9915L26.5261 25.0541C26.9145 25.3131 27.0905 25.7979 26.9544 26.2462C26.8183 26.6945 26.4033 27 25.9352 27H11.0619C10.5938 27 10.1821 26.6945 10.046 26.2462C9.9099 25.7979 10.0825 25.3131 10.4743 25.0541L12.0678 23.9915C12.0878 23.9782 12.1077 23.9683 12.1276 23.955V17.4366H14.249V23.8122H15.577V17.4366H17.7018V23.8122H19.2953V17.4366H21.4201V23.8122H22.748V17.4366ZM18.4985 12.1235C18.2168 12.1235 17.9466 12.2355 17.7473 12.4348C17.5481 12.6341 17.4362 12.9043 17.4362 13.1862C17.4362 13.468 17.5481 13.7382 17.7473 13.9375C17.9466 14.1368 18.2168 14.2488 18.4985 14.2488C18.7803 14.2488 19.0505 14.1368 19.2498 13.9375C19.449 13.7382 19.5609 13.468 19.5609 13.1862C19.5609 12.9043 19.449 12.6341 19.2498 12.4348C19.0505 12.2355 18.7803 12.1235 18.4985 12.1235Z" fill="#6A76E5"/>
</svg>
