<svg width="19" height="19" viewBox="0 0 19 19" fill="none" xmlns="http://www.w3.org/2000/svg">
<path d="M9.96589 0.0946382L18.2774 3.65749C18.7969 3.88016 19.0863 4.43686 18.9713 4.98613C18.8563 5.5354 18.3739 5.93622 17.8099 5.93622V6.23313C17.8099 6.72673 17.4129 7.12384 16.9194 7.12384H2.07736C1.58387 7.12384 1.18684 6.72673 1.18684 6.23313V5.93622C0.622847 5.93622 0.136772 5.53911 0.0254555 4.98613C-0.0858593 4.43315 0.20356 3.87645 0.719318 3.65749L9.03084 0.0946382C9.32768 -0.031546 9.66905 -0.031546 9.96589 0.0946382ZM14.2478 8.31146H16.6225V15.5967C16.6448 15.6079 16.6671 15.6227 16.6893 15.6376L18.4704 16.8252C18.9045 17.1147 19.1011 17.6565 18.949 18.1575C18.7969 18.6586 18.3331 19 17.8099 19H1.18684C0.663662 19 0.20356 18.6586 0.0514297 18.1575C-0.100702 17.6565 0.0922451 17.1147 0.530083 16.8252L2.31112 15.6376C2.33339 15.6227 2.35565 15.6116 2.37791 15.5967V8.31146H4.74892V15.4372H6.23312V8.31146H8.60785V15.4372H10.3889V8.31146H12.7636V15.4372H14.2478V8.31146ZM9.49837 2.37338C9.18346 2.37338 8.88145 2.4985 8.65878 2.72122C8.4361 2.94394 8.31101 3.24602 8.31101 3.56099C8.31101 3.87597 8.4361 4.17804 8.65878 4.40076C8.88145 4.62348 9.18346 4.74861 9.49837 4.74861C9.81327 4.74861 10.1153 4.62348 10.338 4.40076C10.5606 4.17804 10.6857 3.87597 10.6857 3.56099C10.6857 3.24602 10.5606 2.94394 10.338 2.72122C10.1153 2.4985 9.81327 2.37338 9.49837 2.37338Z" fill="#5261EF"/>
</svg>
