<svg width="22" height="22" viewBox="0 0 22 22" fill="none" xmlns="http://www.w3.org/2000/svg">
<path d="M16.5 16.5C16.9514 16.5 17.3351 16.342 17.651 16.026C17.967 15.7101 18.125 15.3264 18.125 14.875C18.125 14.4236 17.967 14.0399 17.651 13.724C17.3351 13.408 16.9514 13.25 16.5 13.25C16.0486 13.25 15.6649 13.408 15.349 13.724C15.033 14.0399 14.875 14.4236 14.875 14.875C14.875 15.3264 15.033 15.7101 15.349 16.026C15.6649 16.342 16.0486 16.5 16.5 16.5ZM16.5 19.75C17.0417 19.75 17.5472 19.6236 18.0167 19.3708C18.4861 19.1181 18.8743 18.766 19.1813 18.3146C18.766 18.0618 18.3326 17.8767 17.8813 17.7594C17.4299 17.642 16.9694 17.5833 16.5 17.5833C16.0306 17.5833 15.5701 17.642 15.1188 17.7594C14.6674 17.8767 14.234 18.0618 13.8188 18.3146C14.1257 18.766 14.5139 19.1181 14.9833 19.3708C15.4528 19.6236 15.9583 19.75 16.5 19.75ZM16.5 21.9167C15.0014 21.9167 13.724 21.3885 12.6677 20.3323C11.6115 19.276 11.0833 17.9986 11.0833 16.5C11.0833 15.0014 11.6115 13.724 12.6677 12.6677C13.724 11.6115 15.0014 11.0833 16.5 11.0833C17.9986 11.0833 19.276 11.6115 20.3323 12.6677C21.3885 13.724 21.9167 15.0014 21.9167 16.5C21.9167 17.9986 21.3885 19.276 20.3323 20.3323C19.276 21.3885 17.9986 21.9167 16.5 21.9167ZM4.58333 6.75H15.4167V4.58333H4.58333V6.75ZM9.64792 19.75H2.41667C1.82083 19.75 1.31076 19.5378 0.886458 19.1135C0.462153 18.6892 0.25 18.1792 0.25 17.5833V2.41667C0.25 1.82083 0.462153 1.31076 0.886458 0.886458C1.31076 0.462153 1.82083 0.25 2.41667 0.25H17.5833C18.1792 0.25 18.6892 0.462153 19.1135 0.886458C19.5378 1.31076 19.75 1.82083 19.75 2.41667V9.675C19.2264 9.42222 18.6983 9.23264 18.1656 9.10625C17.633 8.97986 17.0778 8.91667 16.5 8.91667C16.3014 8.91667 16.1163 8.92118 15.9448 8.93021C15.7733 8.93924 15.5972 8.96181 15.4167 8.99792V8.91667H4.58333V11.0833H11.2188C10.8938 11.3903 10.6003 11.7243 10.3385 12.0854C10.0767 12.4465 9.84653 12.8347 9.64792 13.25H4.58333V15.4167H8.99792C8.96181 15.5972 8.93924 15.7733 8.93021 15.9448C8.92118 16.1163 8.91667 16.3014 8.91667 16.5C8.91667 17.0958 8.97083 17.651 9.07917 18.1656C9.1875 18.6802 9.37708 19.2083 9.64792 19.75Z" fill="#0057FF"/>
</svg>
