<svg width="49" height="49" viewBox="0 0 49 49" fill="none" xmlns="http://www.w3.org/2000/svg"><g clip-path="url(#a)"><path d="m10.86 29.611-1.706 6.367-6.234.132A24.39 24.39 0 0 1 0 24.5c0-4.063.988-7.894 2.74-11.268l5.55 1.018 2.432 5.517a14.565 14.565 0 0 0-.786 4.733c0 1.798.326 3.521.923 5.111Z" fill="#FBBB00"/><path d="M48.572 19.924c.282 1.482.428 3.012.428 4.577 0 1.754-.184 3.465-.535 5.115a24.495 24.495 0 0 1-8.626 13.99h-.002l-6.99-.357-.99-6.177a14.602 14.602 0 0 0 6.283-7.456h-13.1v-9.692h23.532Z" fill="#518EF8"/><path d="M39.837 43.605h.001A24.397 24.397 0 0 1 24.5 49c-9.33 0-17.442-5.215-21.58-12.89l7.94-6.499c2.069 5.522 7.395 9.453 13.64 9.453 2.684 0 5.199-.726 7.357-1.992l7.98 6.533Z" fill="#28B446"/><path d="m40.138 5.64-7.937 6.498A14.482 14.482 0 0 0 24.5 9.936c-6.386 0-11.813 4.111-13.778 9.83l-7.981-6.533h-.002C6.817 5.37 15.031 0 24.5 0a24.397 24.397 0 0 1 15.64 5.64Z" fill="#F14336"/></g><defs><clipPath id="a"><path fill="#fff" d="M0 0h49v49H0z"/></clipPath></defs></svg>