<svg width="52" height="52" viewBox="0 0 52 52" fill="none" xmlns="http://www.w3.org/2000/svg"><g clip-path="url(#a)"><path d="M52 9.877a22.227 22.227 0 0 1-6.142 1.683 10.601 10.601 0 0 0 4.69-5.892 21.304 21.304 0 0 1-6.76 2.58A10.683 10.683 0 0 0 36 4.875c-5.902 0-10.653 4.79-10.653 10.663 0 .845.071 1.658.247 2.431C16.73 17.537 8.889 13.29 3.62 6.82a10.733 10.733 0 0 0-1.459 5.388c0 3.692 1.901 6.965 4.736 8.86-1.713-.033-3.394-.53-4.817-1.314v.117c0 5.181 3.695 9.484 8.541 10.475-.868.238-1.814.351-2.795.351-.682 0-1.371-.039-2.018-.182 1.381 4.222 5.3 7.326 9.961 7.427a21.42 21.42 0 0 1-13.218 4.546c-.874 0-1.713-.039-2.551-.146 4.722 3.045 10.319 4.784 16.354 4.784 19.617 0 30.342-16.25 30.342-30.335 0-.472-.016-.927-.039-1.378 2.116-1.502 3.894-3.377 5.343-5.535Z" fill="#03A9F4"/></g><defs><clipPath id="a"><path fill="#fff" d="M0 0h52v52H0z"/></clipPath></defs></svg>