<svg width="31" height="27" viewBox="0 0 31 27" fill="none" xmlns="http://www.w3.org/2000/svg">
<path d="M10.9135 3.67654V5.82343H20.2524V3.67654C20.2524 3.44038 20.0423 3.24716 19.7855 3.24716H11.3804C11.1236 3.24716 10.9135 3.44038 10.9135 3.67654ZM8.11179 5.82343V3.67654C8.11179 2.01807 9.57684 0.670898 11.3804 0.670898H19.7855C21.5891 0.670898 23.0541 2.01807 23.0541 3.67654V5.82343H26.7897C28.8501 5.82343 30.5253 7.36382 30.5253 9.25844V22.9985C30.5253 24.8931 28.8501 26.4335 26.7897 26.4335H4.37621C2.3158 26.4335 0.640625 24.8931 0.640625 22.9985V9.25844C0.640625 7.36382 2.3158 5.82343 4.37621 5.82343H8.11179Z" fill="#3C4687"/>
</svg>