<svg width="18" height="20" viewBox="0 0 18 20" fill="none" xmlns="http://www.w3.org/2000/svg">
<path d="M14.1429 1.25V2.5H16.0714C17.1362 2.5 18 3.33984 18 4.375V6.25H0V4.375C0 3.33984 0.86384 2.5 1.92857 2.5H3.85714V1.25C3.85714 0.558594 4.4317 0 5.14286 0C5.85402 0 6.42857 0.558594 6.42857 1.25V2.5H11.5714V1.25C11.5714 0.558594 12.146 0 12.8571 0C13.5683 0 14.1429 0.558594 14.1429 1.25ZM0 7.5H18V18.125C18 19.1602 17.1362 20 16.0714 20H1.92857C0.86384 20 0 19.1602 0 18.125V7.5Z" fill="black"/>
</svg>
