<svg width="20" height="20" viewBox="0 0 20 20" fill="none" xmlns="http://www.w3.org/2000/svg">
<mask id="mask0_44_2256" style="mask-type:alpha" maskUnits="userSpaceOnUse" x="0" y="0" width="20" height="20">
<rect width="20" height="20" fill="#D9D9D9"/>
</mask>
<g mask="url(#mask0_44_2256)">
<path d="M15.896 16.9792C14.2154 16.8542 12.6217 16.441 11.1148 15.7396C9.60781 15.0382 8.25711 14.0903 7.06267 12.8958C5.86822 11.7014 4.92378 10.3507 4.22933 8.84374C3.53489 7.3368 3.12517 5.74305 3.00017 4.06249C2.97239 3.77082 3.0592 3.51735 3.26058 3.30207C3.46197 3.0868 3.7085 2.97916 4.00017 2.97916H6.8335C7.06961 2.97916 7.27447 3.05207 7.44808 3.19791C7.6217 3.34374 7.73628 3.52777 7.79183 3.74999L8.29183 5.97916C8.31961 6.15971 8.3092 6.33332 8.26058 6.49999C8.21197 6.66666 8.13211 6.80555 8.021 6.91666L6.00017 8.95832C6.27795 9.4861 6.59739 9.99305 6.9585 10.4792C7.31961 10.9653 7.72239 11.4236 8.16683 11.8542C8.5835 12.2708 9.02795 12.6562 9.50017 13.0104C9.97239 13.3646 10.4724 13.6805 11.0002 13.9583L13.0627 11.9583C13.1738 11.8472 13.3127 11.7674 13.4793 11.7187C13.646 11.6701 13.8196 11.6597 14.0002 11.6875L16.2293 12.1667C16.4654 12.2361 16.6529 12.3576 16.7918 12.5312C16.9307 12.7049 17.0002 12.9097 17.0002 13.1458V15.9792C17.0002 16.2708 16.8891 16.5174 16.6668 16.7187C16.4446 16.9201 16.1877 17.0069 15.896 16.9792Z" fill="#478DF6"/>
</g>
</svg>
