<svg width="20" height="20" viewBox="0 0 20 20" fill="none" xmlns="http://www.w3.org/2000/svg">
<g clip-path="url(#clip0_44_556)">
<path d="M10 20C15.5228 20 20 15.5228 20 10C20 4.47715 15.5228 0 10 0C4.47715 0 0 4.47715 0 10C0 15.5228 4.47715 20 10 20Z" fill="#ED1C24"/>
<path d="M9.99992 0C8.39992 0 6.79992 0.4 5.33325 1.13333V18.8C8.26659 20.3333 11.7333 20.3333 14.6666 18.8V1.13333C13.1999 0.4 11.5999 0 9.99992 0Z" fill="#F0F0F0"/>
<path d="M12.8667 9.86671L13.2001 8.66671L12.1334 8.93337L11.9334 8.40004L10.9334 9.40004L11.3334 7.26671L10.6667 7.60004L10.0001 6.33337L9.33341 7.60004L8.66675 7.26671L9.06675 9.40004L8.06675 8.40004L7.86675 8.93337L6.80008 8.66671L7.13341 9.86671L6.66675 10.1334L8.40008 11.5334L8.20008 12.2L9.86675 11.8667V13.6667H10.1334V11.8667L11.8001 12.2L11.6001 11.5334L13.3334 10.1334L12.8667 9.86671Z" fill="#ED1C24"/>
</g>
<defs>
<clipPath id="clip0_44_556">
<rect width="20" height="20" fill="white"/>
</clipPath>
</defs>
</svg>
