<svg width="297" height="156" viewBox="0 0 297 156" fill="none" xmlns="http://www.w3.org/2000/svg">
<path d="M88.1976 58.1892H53.8548C53.3969 54.3099 52.4582 50.8085 51.0387 47.6849C49.6192 44.5613 47.7418 41.8912 45.4065 39.6744C43.0712 37.4577 40.3008 35.77 37.0955 34.6112C33.936 33.4021 30.433 32.7975 26.5866 32.7975C19.7639 32.7975 13.8798 34.6364 8.93443 38.3142C4.03485 41.9919 0.257145 47.307 -2.3987 54.2595C-5.00875 61.212 -6.31378 69.6255 -6.31378 79.5C-6.31378 89.7776 -4.98586 98.3926 -2.33001 105.345C0.371624 112.247 4.14933 117.462 9.00311 120.988C13.9027 124.464 19.6952 126.202 26.3806 126.202C30.1354 126.202 33.5468 125.673 36.6147 124.616C39.7285 123.558 42.453 122.021 44.7883 120.006C47.1694 117.94 49.1155 115.446 50.6266 112.524C52.1835 109.552 53.2595 106.202 53.8548 102.473L88.1976 102.7C87.6023 109.552 85.7936 116.303 82.7714 122.953C79.7951 129.603 75.6968 135.674 70.4767 141.165C65.2566 146.606 58.8918 150.939 51.3821 154.164C43.9183 157.388 35.3555 159 25.6937 159C12.964 159 1.56217 155.927 -8.51171 149.78C-18.5398 143.584 -26.4615 134.566 -32.2769 122.726C-38.0923 110.887 -41 96.4781 -41 79.5C-41 62.4715 -38.0465 48.0376 -32.1396 36.1982C-26.2326 24.3588 -18.2422 15.366 -8.16829 9.21958C1.9056 3.07319 13.1929 0 25.6937 0C34.2107 0 42.0867 1.30989 49.3216 3.92966C56.5564 6.49905 62.9213 10.2776 68.4161 15.2652C73.911 20.2025 78.3756 26.2733 81.8098 33.4777C85.2441 40.682 87.3734 48.9192 88.1976 58.1892Z" fill="#4C75DD"/>
<path d="M141.262 158.849C134.531 158.849 128.555 157.615 123.335 155.146C118.161 152.627 114.063 148.848 111.04 143.81C108.064 138.722 106.576 132.349 106.576 124.691C106.576 118.242 107.606 112.801 109.667 108.368C111.727 103.934 114.566 100.332 118.184 97.5613C121.801 94.7904 125.968 92.6996 130.684 91.289C135.401 89.8279 140.438 88.8455 145.795 88.3417C151.794 87.7372 156.625 87.1074 160.288 86.4525C163.951 85.7472 166.607 84.7647 168.255 83.5052C169.95 82.1954 170.797 80.3565 170.797 77.9886V77.6107C170.797 73.7315 169.583 70.7338 167.156 68.6179C164.73 66.5019 161.456 65.4439 157.334 65.4439C152.893 65.4439 149.321 66.5019 146.62 68.6179C143.918 70.7338 142.201 73.6559 141.468 77.384L110.491 76.1749C111.407 69.1217 113.765 62.8242 117.566 57.2823C121.412 51.6901 126.678 47.307 133.363 44.1331C140.094 40.9088 148.176 39.2966 157.609 39.2966C164.34 39.2966 170.545 40.1782 176.223 41.9415C181.901 43.6545 186.846 46.1735 191.059 49.4986C195.272 52.7733 198.523 56.8037 200.812 61.5898C203.148 66.376 204.315 71.8422 204.315 77.9886V156.884H172.72V140.712H171.896C170.018 144.642 167.614 147.967 164.684 150.687C161.799 153.408 158.388 155.448 154.45 156.808C150.557 158.169 146.162 158.849 141.262 158.849ZM151.634 134.666C155.251 134.666 158.502 133.86 161.387 132.248C164.317 130.636 166.653 128.419 168.393 125.598C170.133 122.726 171.003 119.401 171.003 115.623V104.589C170.041 105.144 168.874 105.647 167.5 106.101C166.172 106.554 164.707 106.982 163.104 107.385C161.501 107.789 159.853 108.141 158.159 108.443C156.464 108.746 154.839 109.023 153.282 109.275C150.122 109.829 147.421 110.685 145.177 111.844C142.979 113.003 141.285 114.514 140.094 116.378C138.95 118.192 138.377 120.358 138.377 122.877C138.377 126.706 139.614 129.628 142.086 131.644C144.605 133.659 147.787 134.666 151.634 134.666Z" fill="#4C75DD"/>
<path d="M228.721 156.884V40.808H261.346V61.9677H262.445C264.369 54.3099 267.505 48.6169 271.855 44.8888C276.205 41.1103 281.265 39.221 287.035 39.221C288.592 39.221 290.194 39.347 291.843 39.5989C293.491 39.8004 295.025 40.1279 296.445 40.5813V72.6987C294.842 72.0941 292.736 71.6155 290.126 71.2628C287.561 70.9102 285.272 70.7338 283.257 70.7338C279.273 70.7338 275.679 71.7163 272.473 73.6811C269.314 75.5955 266.818 78.2909 264.987 81.7671C263.201 85.193 262.308 89.2234 262.308 93.8584V156.884H228.721Z" fill="#4C75DD"/>
<path d="M347.054 158.547C339.269 158.547 332.195 156.33 325.83 151.896C319.465 147.463 314.382 140.813 310.582 131.946C306.781 123.079 304.881 112.071 304.881 98.9216C304.881 85.2685 306.85 74.0338 310.788 65.2172C314.726 56.4007 319.877 49.8764 326.242 45.6445C332.653 41.4125 339.544 39.2966 346.916 39.2966C352.457 39.2966 357.196 40.3546 361.134 42.4705C365.072 44.5361 368.323 47.2063 370.888 50.481C373.452 53.7557 375.398 57.1564 376.726 60.683H377.413V2.11597H411V156.884H377.756V138.067H376.726C375.306 141.644 373.292 144.994 370.682 148.118C368.071 151.241 364.797 153.76 360.859 155.675C356.967 157.589 352.365 158.547 347.054 158.547ZM358.73 129.754C362.806 129.754 366.286 128.495 369.17 125.976C372.055 123.406 374.276 119.804 375.833 115.169C377.39 110.534 378.168 105.093 378.168 98.846C378.168 92.4981 377.39 87.0318 375.833 82.4473C374.322 77.8626 372.101 74.336 369.17 71.8674C366.286 69.3988 362.806 68.1645 358.73 68.1645C354.563 68.1645 351.037 69.424 348.153 71.943C345.268 74.462 343.07 78.0138 341.559 82.5984C340.094 87.183 339.361 92.5989 339.361 98.846C339.361 105.093 340.116 110.534 341.628 115.169C343.139 119.804 345.314 123.406 348.153 125.976C351.037 128.495 354.563 129.754 358.73 129.754Z" fill="#4C75DD"/>
</svg>
