<svg width="39" height="39" viewBox="0 0 39 39" fill="none" xmlns="http://www.w3.org/2000/svg">
<circle cx="19.5" cy="19.5" r="19.5" fill="#FEEBE3"/>
<path d="M11 14.8571C11 13.8328 11.847 13 12.8889 13L26.1111 13C27.153 13 28 13.8328 28 14.8571L28 24.1429C28 25.1672 27.153 26 26.1111 26L12.8889 26C11.847 26 11 25.1672 11 24.1429L11 14.8571ZM14.3056 20.4286C14.0458 20.4286 13.8333 20.6375 13.8333 20.8929C13.8333 21.1482 14.0458 21.3571 14.3056 21.3571L24.6944 21.3571C24.9542 21.3571 25.1667 21.1482 25.1667 20.8929C25.1667 20.6375 24.9542 20.4286 24.6944 20.4286L14.3056 20.4286ZM13.8333 22.75C13.8333 23.0054 14.0458 23.2143 14.3056 23.2143L16.1944 23.2143C16.4542 23.2143 16.6667 23.0054 16.6667 22.75C16.6667 22.4946 16.4542 22.2857 16.1944 22.2857L14.3056 22.2857C14.0458 22.2857 13.8333 22.4946 13.8333 22.75ZM17.6111 22.75C17.6111 23.0054 17.8236 23.2143 18.0833 23.2143L21.8611 23.2143C22.1208 23.2143 22.3333 23.0054 22.3333 22.75C22.3333 22.4946 22.1208 22.2857 21.8611 22.2857L18.0833 22.2857C17.8236 22.2857 17.6111 22.4946 17.6111 22.75ZM23.0417 14.8571C22.6491 14.8571 22.3333 15.1676 22.3333 15.5536L22.3333 16.9464C22.3333 17.3324 22.6491 17.6429 23.0417 17.6429L25.4028 17.6429C25.7953 17.6429 26.1111 17.3324 26.1111 16.9464L26.1111 15.5536C26.1111 15.1676 25.7953 14.8571 25.4028 14.8571L23.0417 14.8571Z" fill="#E87848"/>
</svg>
