<svg width="22" height="17" viewBox="0 0 22 17" fill="none" xmlns="http://www.w3.org/2000/svg">
<path d="M-4.0535e-07 2.42857C-1.81774e-07 1.08906 1.09618 1.82962e-07 2.44444 4.07999e-07L19.5556 3.26399e-06C20.9038 3.48903e-06 22 1.08907 22 2.42857L22 14.5714C22 15.9109 20.9038 17 19.5556 17L2.44444 17C1.09618 17 -2.65568e-06 15.9109 -2.4321e-06 14.5714L-4.0535e-07 2.42857ZM4.27778 9.71428C3.94167 9.71428 3.66667 9.9875 3.66667 10.3214C3.66667 10.6554 3.94167 10.9286 4.27778 10.9286L17.7222 10.9286C18.0583 10.9286 18.3333 10.6554 18.3333 10.3214C18.3333 9.9875 18.0583 9.71429 17.7222 9.71429L4.27778 9.71428ZM3.66666 12.75C3.66666 13.0839 3.94166 13.3571 4.27778 13.3571L6.72222 13.3571C7.05833 13.3571 7.33333 13.0839 7.33333 12.75C7.33333 12.4161 7.05833 12.1429 6.72222 12.1429L4.27778 12.1429C3.94167 12.1429 3.66666 12.4161 3.66666 12.75ZM8.55555 12.75C8.55555 13.0839 8.83055 13.3571 9.16667 13.3571L14.0556 13.3571C14.3917 13.3571 14.6667 13.0839 14.6667 12.75C14.6667 12.4161 14.3917 12.1429 14.0556 12.1429L9.16667 12.1429C8.83055 12.1429 8.55555 12.4161 8.55555 12.75ZM15.5833 2.42857C15.0753 2.42857 14.6667 2.8346 14.6667 3.33929L14.6667 5.16072C14.6667 5.6654 15.0753 6.07143 15.5833 6.07143L18.6389 6.07143C19.1469 6.07143 19.5556 5.6654 19.5556 5.16072L19.5556 3.33929C19.5556 2.8346 19.1469 2.42857 18.6389 2.42857L15.5833 2.42857Z" fill="#EF7C66"/>
</svg>
