<svg width="362" height="96" viewBox="0 0 362 96" fill="none" xmlns="http://www.w3.org/2000/svg"><path d="M81.765 37.04H49.93c-.425-3.27-1.295-6.22-2.611-8.853-1.316-2.632-3.056-4.883-5.221-6.75-2.165-1.869-4.733-3.291-7.704-4.268-2.929-1.019-6.176-1.528-9.742-1.528-6.324 0-11.779 1.55-16.363 4.649-4.542 3.1-8.044 7.579-10.506 13.438-2.42 5.86-3.63 12.95-3.63 21.272 0 8.662 1.232 15.922 3.694 21.781C.35 82.598 3.853 86.993 8.352 89.965c4.542 2.93 9.912 4.394 16.11 4.394 3.48 0 6.642-.445 9.486-1.337 2.887-.892 5.412-2.187 7.577-3.885a21.47 21.47 0 0 0 5.412-6.305c1.443-2.505 2.44-5.329 2.993-8.47l31.835.19c-.552 5.775-2.228 11.464-5.03 17.069-2.759 5.604-6.558 10.721-11.397 15.349-4.84 4.585-10.74 8.237-17.7 10.954C40.717 120.641 32.78 122 23.824 122c-11.8 0-22.37-2.59-31.709-7.77-9.296-5.222-16.639-12.823-22.03-22.8C-35.304 81.452-38 69.309-38 55c0-14.351 2.738-26.515 8.214-36.493C-24.311 8.529-16.904.95-7.566-4.23 1.775-9.41 12.237-12 23.825-12c7.896 0 15.197 1.104 21.903 3.312 6.707 2.165 12.607 5.35 17.7 9.553 5.095 4.161 9.233 9.277 12.417 15.349 3.182 6.072 5.155 13.014 5.92 20.826Zm49.19 84.833c-6.239 0-11.779-1.041-16.618-3.121-4.796-2.123-8.595-5.307-11.397-9.553-2.759-4.289-4.138-9.66-4.138-16.113 0-5.435.954-10.02 2.865-13.757 1.91-3.736 4.542-6.772 7.895-9.107 3.353-2.336 7.216-4.098 11.588-5.287 4.372-1.23 9.041-2.059 14.008-2.483 5.56-.51 10.038-1.04 13.434-1.593 3.396-.594 5.858-1.422 7.386-2.483 1.57-1.104 2.356-2.654 2.356-4.65v-.318c0-3.27-1.125-5.796-3.375-7.58-2.249-1.782-5.284-2.674-9.105-2.674-4.117 0-7.428.892-9.932 2.675-2.505 1.783-4.097 4.246-4.776 7.388l-28.715-1.02c.849-5.944 3.035-11.25 6.558-15.921 3.565-4.713 8.447-8.407 14.644-11.082 6.24-2.717 13.732-4.076 22.476-4.076 6.24 0 11.991.743 17.255 2.229 5.263 1.444 9.848 3.566 13.753 6.369 3.905 2.76 6.919 6.156 9.041 10.19 2.165 4.034 3.247 8.64 3.247 13.82v66.491h-29.288v-13.63h-.765c-1.74 3.312-3.968 6.115-6.685 8.407-2.674 2.293-5.836 4.013-9.487 5.159-3.608 1.146-7.683 1.72-12.225 1.72Zm9.615-20.381c3.353 0 6.367-.679 9.041-2.038 2.716-1.358 4.881-3.226 6.494-5.604 1.613-2.42 2.42-5.223 2.42-8.407v-9.299c-.892.468-1.974.892-3.247 1.274-1.231.382-2.59.743-4.075 1.083-1.486.34-3.014.637-4.585.892-1.57.254-3.077.488-4.52.7-2.929.467-5.434 1.189-7.513 2.166-2.038.976-3.608 2.25-4.712 3.82-1.061 1.53-1.592 3.355-1.592 5.478 0 3.227 1.146 5.69 3.438 7.388 2.335 1.698 5.285 2.547 8.851 2.547Zm71.459 18.725V22.392h30.243v17.832h1.019c1.783-6.453 4.691-11.251 8.723-14.393 4.033-3.185 8.723-4.777 14.071-4.777 1.444 0 2.929.106 4.457.319 1.528.17 2.95.445 4.266.828v27.067c-1.485-.51-3.438-.913-5.857-1.21-2.377-.297-4.5-.446-6.368-.446-3.692 0-7.025.828-9.996 2.484-2.929 1.613-5.242 3.885-6.94 6.815-1.655 2.887-2.483 6.284-2.483 10.19v53.116h-31.135Zm109.693 1.401c-7.216 0-13.774-1.868-19.674-5.605-5.9-3.736-10.612-9.341-14.135-16.813-3.523-7.473-5.285-16.75-5.285-27.832 0-11.506 1.826-20.975 5.476-28.405 3.651-7.43 8.426-12.929 14.326-16.495 5.943-3.567 12.331-5.35 19.165-5.35 5.136 0 9.529.892 13.18 2.675 3.65 1.74 6.664 3.99 9.041 6.75 2.377 2.76 4.181 5.627 5.412 8.599h.637v-49.359H381v130.434h-30.817v-15.859h-.955c-1.316 3.015-3.183 5.838-5.603 8.471-2.419 2.632-5.454 4.755-9.105 6.369-3.608 1.613-7.874 2.42-12.798 2.42Zm10.824-24.265c3.778 0 7.004-1.062 9.678-3.185 2.675-2.165 4.733-5.2 6.176-9.107 1.444-3.906 2.165-8.492 2.165-13.757 0-5.35-.721-9.956-2.165-13.82-1.4-3.864-3.459-6.836-6.176-8.916-2.674-2.081-5.9-3.121-9.678-3.121-3.862 0-7.131 1.061-9.805 3.184-2.674 2.123-4.712 5.117-6.112 8.98-1.359 3.864-2.038 8.428-2.038 13.693 0 5.265.701 9.85 2.101 13.757 1.401 3.906 3.417 6.942 6.049 9.107 2.674 2.123 5.943 3.185 9.805 3.185Z" fill="#4C75DD"/></svg>