<svg xmlns="http://www.w3.org/2000/svg" width="51" height="40" viewBox="0 0 51 40" fill="none"><path d="M47.684 39.726H3.306A3.313 3.313 0 0 1 0 36.41V3.306A3.31 3.31 0 0 1 3.306 0h44.368a3.313 3.313 0 0 1 3.316 3.306V36.41a3.313 3.313 0 0 1-3.306 3.316Z" fill="#FFC738"/><path d="M47.684 0H25.495v39.726h22.189a3.305 3.305 0 0 0 3.306-3.306V3.306A3.31 3.31 0 0 0 47.684 0Z" fill="#FFB42E"/><path d="M50.99 20.546V19.18H33.173v-6.025l4.602-4.601H50.99c0-.468-.05-.926-.13-1.364H37.487c-.18 0-.359.08-.478.209l-4.8 4.79h-6.026V0h-1.364v12.18h-5.956l-4.79-4.79a.704.704 0 0 0-.488-.21H.14c-.08.45-.13.907-.13 1.365h13.295l4.512 4.511v6.105H0v1.364h17.817v6.105l-4.512 4.542H.01c0 .468.05.926.13 1.364h13.454a.7.7 0 0 0 .488-.21l4.79-4.79h5.956v12.18h1.364v-12.18h6.025l4.8 4.79c.12.13.3.21.479.21H50.87a7.78 7.78 0 0 0 .129-1.364H37.764l-4.6-4.601v-6.026H50.99Zm-19.181 5.626H19.181V13.544h12.618v12.628h.01Z" fill="#C66D4E"/><path d="M50.99 20.546V19.18H33.173v-6.025l4.602-4.601H50.99c0-.468-.05-.926-.13-1.364H37.487c-.18 0-.359.08-.478.209l-4.8 4.79h-6.026V0h-.687v13.544h6.314v12.628h-6.314v13.545h.687v-12.18h6.025l4.8 4.79c.12.13.3.21.479.21H50.86c.08-.45.13-.897.13-1.365H37.764l-4.602-4.601v-6.026H50.99Z" fill="#AF5A35"/></svg>