<svg width="17" height="17" viewBox="0 0 17 17" fill="none" xmlns="http://www.w3.org/2000/svg">
<path fill-rule="evenodd" clip-rule="evenodd" d="M8.32246 0.708984C10.3575 0.708984 12.27 1.50019 13.7065 2.9374C16.6758 5.90673 16.6758 10.7376 13.7065 13.7069C12.2509 15.1632 10.2909 15.9339 8.30546 15.9339C7.22313 15.9339 6.13371 15.7051 5.11442 15.2334C4.81409 15.1129 4.53288 14.9996 4.331 14.9996C4.09867 15.001 3.78629 15.1087 3.48454 15.2128C2.86546 15.4253 2.09479 15.6902 1.52459 15.1222C0.956502 14.5534 1.21859 13.7848 1.42967 13.1664C1.53379 12.8619 1.64075 12.5474 1.64075 12.3094C1.64075 12.1139 1.54654 11.8645 1.40204 11.5054C0.0753356 8.64019 0.688752 5.18707 2.93913 2.93811C4.37563 1.5009 6.28742 0.708984 8.32246 0.708984ZM8.32317 1.77148C6.57146 1.77148 4.926 2.4529 3.68996 3.68965C1.75338 5.62482 1.22638 8.59627 2.37742 11.0847C2.54317 11.4948 2.70325 11.8943 2.70325 12.3094C2.70325 12.7237 2.56088 13.1409 2.4355 13.5093C2.33209 13.8124 2.17554 14.27 2.27613 14.3706C2.37459 14.4726 2.835 14.3118 3.13888 14.2077C3.50367 14.083 3.91734 13.9399 4.32746 13.9371C4.73829 13.9371 5.12575 14.0929 5.53588 14.258C8.04834 15.4196 11.0198 14.8912 12.9557 12.9561C15.5099 10.4004 15.5099 6.24319 12.9557 3.68894C11.7189 2.45219 10.0742 1.77148 8.32317 1.77148ZM11.1189 7.90756C11.5099 7.90756 11.8272 8.22419 11.8272 8.6159C11.8272 9.0076 11.5099 9.32423 11.1189 9.32423C10.7279 9.32423 10.4077 9.0076 10.4077 8.6159C10.4077 8.22419 10.7215 7.90756 11.1125 7.90756H11.1189ZM8.27932 7.90756C8.67032 7.90756 8.98766 8.22419 8.98766 8.6159C8.98766 9.0076 8.67032 9.32423 8.27932 9.32423C7.88832 9.32423 7.56816 9.0076 7.56816 8.6159C7.56816 8.22419 7.88124 7.90756 8.27295 7.90756H8.27932ZM5.43947 7.90756C5.83047 7.90756 6.14781 8.22419 6.14781 8.6159C6.14781 9.0076 5.83047 9.32423 5.43947 9.32423C5.04847 9.32423 4.72831 9.0076 4.72831 8.6159C4.72831 8.22419 5.0421 7.90756 5.4331 7.90756H5.43947Z" fill="#424242"/>
</svg>
