<svg width="27" height="18" viewBox="0 0 27 18" fill="none" xmlns="http://www.w3.org/2000/svg">
<path d="M3 0C1.34531 0 0 1.34531 0 3V15C0 16.6547 1.34531 18 3 18H24C25.6547 18 27 16.6547 27 15V3C27 1.34531 25.6547 0 24 0H3ZM12.75 6H23.25C23.6625 6 24 6.3375 24 6.75C24 7.1625 23.6625 7.5 23.25 7.5H12.75C12.3375 7.5 12 7.1625 12 6.75C12 6.3375 12.3375 6 12.75 6ZM12 11.25C12 10.8375 12.3375 10.5 12.75 10.5H23.25C23.6625 10.5 24 10.8375 24 11.25C24 11.6625 23.6625 12 23.25 12H12.75C12.3375 12 12 11.6625 12 11.25ZM7.6875 4.125V4.77656C8.03906 4.83281 8.37188 4.9125 8.67656 4.99688C9.17813 5.12813 9.47344 5.64375 9.34219 6.14531C9.21094 6.64688 8.69531 6.94219 8.19375 6.81094C7.67813 6.675 7.18125 6.57656 6.73125 6.56719C6.36094 6.5625 5.98125 6.65156 5.72344 6.80156C5.49844 6.93281 5.43281 7.06406 5.43281 7.2375C5.43281 7.32187 5.4375 7.40156 5.68125 7.55156C5.97656 7.72969 6.40781 7.86563 7.00781 8.04375L7.04062 8.05313C7.56562 8.2125 8.24063 8.41406 8.77969 8.75625C9.38438 9.13594 9.91875 9.75469 9.93281 10.7062C9.94687 11.6859 9.44063 12.3984 8.77031 12.8156C8.43281 13.0266 8.05781 13.1578 7.68281 13.2375V13.875C7.68281 14.3906 7.26094 14.8125 6.74531 14.8125C6.22969 14.8125 5.80781 14.3906 5.80781 13.875V13.1906C5.325 13.0875 4.87031 12.9328 4.48594 12.7969C4.3875 12.7641 4.29375 12.7312 4.2 12.6984C3.70781 12.5344 3.44531 12.0047 3.60938 11.5125C3.77344 11.0203 4.30313 10.7578 4.79531 10.9219C4.9125 10.9594 5.025 11.0016 5.13281 11.0344C5.77031 11.25 6.25781 11.4141 6.77813 11.4328C7.18125 11.4469 7.55156 11.3578 7.78125 11.2125C7.97344 11.0953 8.0625 10.9547 8.05781 10.7203C8.05781 10.5844 8.02031 10.4859 7.78125 10.3359C7.48594 10.1484 7.05937 10.0125 6.46875 9.83437L6.38906 9.81094C5.87813 9.65625 5.23594 9.46406 4.72031 9.15469C4.125 8.79375 3.56719 8.19375 3.5625 7.24688C3.55781 6.25781 4.11563 5.57344 4.77188 5.18906C5.09531 4.99687 5.45156 4.87031 5.8125 4.79062V4.125C5.8125 3.60938 6.23438 3.1875 6.75 3.1875C7.26562 3.1875 7.6875 3.60938 7.6875 4.125Z" fill="#749BFF"/>
</svg>
