<svg width="115" height="115" viewBox="0 0 115 115" fill="none" xmlns="http://www.w3.org/2000/svg">
<path d="M57.5 0C25.7932 0 0 25.7932 0 57.5C0 89.2068 25.7932 115 57.5 115C89.2068 115 115 89.2068 115 57.5C115 25.7932 89.2068 0 57.5 0Z" fill="#31C64F"/>
<path d="M85.5278 46.2348L52.8905 77.586C51.9114 78.5266 50.6261 79 49.3408 79C48.0555 79 46.7702 78.5266 45.791 77.586L29.4729 61.9104C27.509 60.0248 27.509 56.9761 29.4729 55.0905C31.4357 53.204 34.6085 53.204 36.5724 55.0905L49.3408 67.3561L78.4283 39.4149C80.3912 37.5284 83.564 37.5284 85.5278 39.4149C87.4907 41.3005 87.4907 44.3483 85.5278 46.2348Z" fill="#FAFAFA"/>
</svg>
