<svg width="22" height="22" viewBox="0 0 22 22" fill="none" xmlns="http://www.w3.org/2000/svg">
<g clip-path="url(#clip0_430_2307)">
<path d="M11 22C17.0751 22 22 17.0751 22 11C22 4.92487 17.0751 0 11 0C4.92487 0 0 4.92487 0 11C0 17.0751 4.92487 22 11 22Z" fill="#32BA7C"/>
<path d="M8.18945 15.9623L13.8456 21.6185C18.5301 20.3693 22.0002 16.1011 22.0002 11.0002C22.0002 10.8961 22.0002 10.792 22.0002 10.6879L17.5585 6.59326L8.18945 15.9623Z" fill="#0AA06E"/>
<path d="M11.2778 13.4637C11.7636 13.9495 11.7636 14.7823 11.2778 15.2681L10.2715 16.2744C9.78571 16.7602 8.9529 16.7602 8.46709 16.2744L4.06015 11.8328C3.57435 11.347 3.57435 10.5142 4.06015 10.0284L5.06646 9.02207C5.55227 8.53626 6.38508 8.53626 6.87088 9.02207L11.2778 13.4637Z" fill="white"/>
<path d="M15.1298 5.79502C15.6156 5.30921 16.4484 5.30921 16.9342 5.79502L17.9405 6.80133C18.4263 7.28713 18.4263 8.11994 17.9405 8.60574L10.3064 16.2051C9.82062 16.6909 8.98781 16.6909 8.50201 16.2051L7.4957 15.1988C7.0099 14.713 7.0099 13.8802 7.4957 13.3944L15.1298 5.79502Z" fill="white"/>
</g>
<defs>
<clipPath id="clip0_430_2307">
<rect width="22" height="22" fill="white"/>
</clipPath>
</defs>
</svg>
