<svg width="34" height="23" viewBox="0 0 34 23" fill="none" xmlns="http://www.w3.org/2000/svg">
<path id="Vector" d="M3.77778 0C1.6941 0 0 1.71901 0 3.83333V19.1667C0 21.281 1.6941 23 3.77778 23H30.2222C32.3059 23 34 21.281 34 19.1667V3.83333C34 1.71901 32.3059 0 30.2222 0H3.77778ZM6.61111 9.58333H16.0556C16.575 9.58333 17 10.0146 17 10.5417C17 11.0687 16.575 11.5 16.0556 11.5H6.61111C6.09167 11.5 5.66667 11.0687 5.66667 10.5417C5.66667 10.0146 6.09167 9.58333 6.61111 9.58333ZM5.66667 16.2917C5.66667 15.7646 6.09167 15.3333 6.61111 15.3333H27.3889C27.9083 15.3333 28.3333 15.7646 28.3333 16.2917C28.3333 16.8188 27.9083 17.25 27.3889 17.25H6.61111C6.09167 17.25 5.66667 16.8188 5.66667 16.2917ZM22.1944 5.75H26.9167C27.7017 5.75 28.3333 6.39089 28.3333 7.1875V10.0625C28.3333 10.8591 27.7017 11.5 26.9167 11.5H22.1944C21.4094 11.5 20.7778 10.8591 20.7778 10.0625V7.1875C20.7778 6.39089 21.4094 5.75 22.1944 5.75Z" fill="#303A77"/>
</svg>
