<svg fill="none" xmlns="http://www.w3.org/2000/svg" viewBox="-53.86 -4.95 476.21 352.41"><path d="M363.77 54.014C338.422 12.252 263.737 10.94 216.989 31.718c-53.87 23.95-57.623 71.458-103.901 77.403-42.226 5.438-60.683-31.372-90.891-25.432-27.761 5.46-58.149 45.584-75.803 187.096" stroke="url(#a)" stroke-width=".5" stroke-miterlimit="10"/><path d="M-48.294 274.433C-30.742 134.901-.711 93.885 26.975 87.258c20.53-4.886 35.778 10.285 56.886 18.192a68.957 68.957 0 0 0 33.469 4.262c37.145-4.47 47.554-34.411 78.82-58.782a129.017 129.017 0 0 1 25.813-15.737c46.633-21.574 119.004-23.719 144.622 16.01" stroke="url(#b)" stroke-width=".5" stroke-miterlimit="10"/><path d="M-42.978 278.066C-25.526 140.522 4.129 98.632 31.69 90.868c20.26-5.706 35.568 8.403 56.394 15.568a74.596 74.596 0 0 0 33.415 3.904c36.739-4.105 48.057-31.91 79.631-55.905a146.009 146.009 0 0 1 25.744-15.725c46.589-22.228 116.572-27.98 142.46 9.714" stroke="url(#c)" stroke-width=".5" stroke-miterlimit="10"/><path d="M-37.677 281.685C-20.33 146.157 8.976 103.391 36.432 94.454c20.011-6.516 35.343 6.528 55.912 12.949a81.289 81.289 0 0 0 33.33 3.559c36.364-3.753 48.519-29.4 80.442-53.027a166.194 166.194 0 0 1 25.69-15.748c46.5-22.961 114.131-32.238 140.29 3.423" stroke="url(#d)" stroke-width=".5" stroke-miterlimit="10"/><path d="M-32.363 285.344c17.239-133.563 46.17-177.178 73.545-187.297 19.742-7.31 35.137 4.654 55.432 10.311a89.474 89.474 0 0 0 33.287 3.205c35.988-3.4 49.006-26.894 81.29-50.166a195.231 195.231 0 0 1 25.587-15.712c46.419-23.7 111.703-36.492 138.139-2.868" stroke="url(#e)" stroke-width=".5" stroke-miterlimit="10"/><path d="M-27.084 288.998C-9.925 157.405 18.344 112.185 45.93 101.629c19.682-7.556 34.91 2.734 54.943 7.696a100.021 100.021 0 0 0 33.232 2.846c35.613-3.048 49.48-24.38 82.074-47.268a232.73 232.73 0 0 1 25.505-15.713c46.324-24.468 109.27-40.753 135.98-9.155" stroke="url(#f)" stroke-width=".5" stroke-miterlimit="10"/><path d="M-21.735 292.622c17.021-129.589 45.233-174.857 72.39-187.446 19.222-8.794 34.744.888 54.489 5.119a113.439 113.439 0 0 0 33.171 2.492c35.237-2.696 49.971-21.883 82.884-44.39a291.322 291.322 0 0 1 25.429-15.7c46.244-25.205 106.828-45.037 133.818-15.45" stroke="url(#g)" stroke-width=".5" stroke-miterlimit="10"/><path d="M-16.426 296.264C.47 168.665 28.316 122.527 55.423 108.806c18.925-9.612 34.518-1.115 53.984 2.445a131.01 131.01 0 0 0 33.102 2.122c34.858-2.333 50.466-19.36 83.695-41.513 7.736-5.145 16.066-10.472 25.35-15.692 46.161-25.97 104.412-49.26 131.665-21.722" stroke="url(#h)" stroke-width=".5" stroke-miterlimit="10"/><path d="M-11.116 299.904C5.697 174.285 33.173 127.371 60.158 112.375c18.665-10.364 34.338-3.054 53.526-.183a156.94 156.94 0 0 0 33.051 1.77c34.482-1.98 50.939-16.865 84.509-38.627 7.814-5.07 16.127-10.372 25.279-15.69 46.011-26.695 101.952-53.5 129.472-28.003" stroke="url(#i)" stroke-width=".5" stroke-miterlimit="10"/><path d="M-5.803 303.536C10.903 179.909 38.02 132.203 64.915 115.983c18.401-11.104 34.179-5.031 53.015-2.808a195.831 195.831 0 0 0 32.985 1.426c34.114-1.631 51.435-14.361 85.314-35.784 7.853-4.977 16.174-10.282 25.197-15.69 45.961-27.51 99.536-57.786 127.329-34.315" stroke="url(#j)" stroke-width=".5" stroke-miterlimit="10"/><path d="M-.496 307.176c16.596-121.645 43.37-170.13 70.134-187.603 18.14-11.837 33.985-7.001 52.544-5.422a263.316 263.316 0 0 0 32.92 1.063c33.731-1.275 51.912-11.857 86.141-32.868 7.938-4.886 16.233-10.19 25.121-15.675 45.857-28.302 97.097-62.045 125.175-40.614" stroke="url(#k)" stroke-width=".5" stroke-miterlimit="10"/><path d="M4.816 310.82c16.496-119.657 42.93-168.932 69.588-187.668 17.89-12.565 33.804-8.986 52.055-8.038 10.49.541 21.204 1.031 32.866.705 33.352-.931 52.4-9.35 86.951-29.99 8.004-4.797 16.28-10.101 25.058-15.676 45.753-29.093 94.664-66.306 123.008-46.898" stroke="url(#l)" stroke-width=".5" stroke-miterlimit="10"/><path d="M10.125 314.457C26.532 196.81 52.569 146.761 79.147 126.742c17.638-13.302 33.635-11.004 51.578-10.669 10.588.199 21.272.557 32.804.35 32.987-.556 52.877-6.847 87.762-27.113 8.073-4.7 16.338-10.008 24.963-15.662 45.635-29.896 92.232-70.567 120.85-53.185" stroke="url(#m)" stroke-width=".5" stroke-miterlimit="10"/><path d="M15.418 318.109C31.721 202.415 57.48 151.614 83.89 130.34c17.395-14.016 33.464-13.03 51.105-13.292 10.687-.162 21.337.074 32.711.008 32.609-.229 53.357-4.336 88.607-24.24 8.143-4.62 16.382-9.927 24.884-15.656 45.517-30.718 89.793-74.844 118.684-59.488" stroke="url(#n)" stroke-width=".5" stroke-miterlimit="10"/><path d="M20.75 321.735c16.18-113.696 41.595-165.231 67.89-187.81 17.156-14.739 33.286-15.07 50.612-15.915 10.784-.53 21.422-.407 32.688-.363 32.219.129 53.842-1.837 89.387-21.35a286.682 286.682 0 0 0 24.803-15.675c45.401-31.496 87.396-79.066 116.527-65.75" stroke="url(#o)" stroke-width=".5" stroke-miterlimit="10"/><path d="M26.058 325.375C42.14 213.667 67.26 161.34 93.358 137.52c16.92-15.457 33.111-17.122 50.168-18.551 10.877-.906 21.487-.89 32.619-.715 31.85.478 54.329.67 90.181-18.466a227.547 227.547 0 0 0 24.735-15.646c45.265-32.382 84.945-83.346 114.368-72.1" stroke="url(#p)" stroke-width=".5" stroke-miterlimit="10"/><path d="M31.369 329.017c15.97-109.725 40.83-162.785 66.76-187.923 16.676-16.152 32.924-19.186 49.654-21.165 10.966-1.29 21.558-1.357 32.56-1.063 31.467.834 54.814 3.171 91.015-15.598a188.874 188.874 0 0 0 24.655-15.639C341.137 54.454 378.515.036 408.221 9.28" stroke="url(#q)" stroke-width=".5" stroke-miterlimit="10"/><path d="M36.686 332.657c15.877-107.704 40.38-161.529 66.188-187.968 16.463-16.878 32.733-21.277 49.168-23.792 11.079-1.702 21.631-1.842 32.506-1.421 31.085 1.171 55.294 5.681 91.829-12.713a162.415 162.415 0 0 0 24.577-15.632C345.935 57.117 381.019-.731 410.998 6.487" stroke="url(#r)" stroke-width=".5" stroke-miterlimit="10"/><path d="M41.994 336.294c15.723-105.738 39.992-160.279 65.64-187.996 16.242-17.582 32.528-23.36 48.694-26.395 11.149-2.069 21.714-2.324 32.444-1.776 30.716 1.538 55.782 8.188 92.633-9.851a142.215 142.215 0 0 0 24.497-15.626c44.836-34.86 77.682-96.116 107.886-90.93" stroke="url(#s)" stroke-width=".5" stroke-miterlimit="10"/><path d="M47.303 339.936c15.655-103.764 39.61-159.034 65.061-188.074 16.033-18.301 32.32-25.47 48.21-29.041 11.212-2.514 21.776-2.795 32.389-2.116 30.333 1.894 56.259 10.692 93.45-6.958a125.918 125.918 0 0 0 24.419-15.619C355.504 62.403 386.03-2.264 416.552.894" stroke="url(#t)" stroke-width=".5" stroke-miterlimit="10"/><path d="M52.618 343.568c15.548-101.773 39.24-157.739 64.465-188.108 15.823-19.001 32.097-27.573 47.721-31.657 11.278-2.951 21.848-3.281 32.317-2.494 29.969 2.251 56.758 13.203 94.272-4.076a113.754 113.754 0 0 0 24.347-15.616C360.184 64.981 388.508-3.009 419.313-1.9" stroke="url(#u)" stroke-width=".5" stroke-miterlimit="10"/><path d="M57.918 347.212C82.972 185.26 129.034 136.713 169.1 124.753c43.736-13.059 76.258 18.766 127.34-4.04C356.361 93.951 385.775-3.635 422.104-4.701" stroke="url(#v)" stroke-width=".5" stroke-miterlimit="10"/><defs><linearGradient id="a" x1="105.45" y1="47.001" x2="161.844" y2="178.122" gradientUnits="userSpaceOnUse"><stop stop-color="#C2BDFF"/><stop offset="1" stop-color="#726BC1" stop-opacity="0"/></linearGradient><linearGradient id="b" x1="110.872" y1="50.579" x2="167.275" y2="181.718" gradientUnits="userSpaceOnUse"><stop stop-color="#C2BDFF"/><stop offset="1" stop-color="#726BC1" stop-opacity="0"/></linearGradient><linearGradient id="c" x1="116.251" y1="54.136" x2="172.671" y2="185.317" gradientUnits="userSpaceOnUse"><stop stop-color="#C2BDFF"/><stop offset="1" stop-color="#726BC1" stop-opacity="0"/></linearGradient><linearGradient id="d" x1="121.614" y1="57.636" x2="178.068" y2="188.895" gradientUnits="userSpaceOnUse"><stop stop-color="#C2BDFF"/><stop offset="1" stop-color="#726BC1" stop-opacity="0"/></linearGradient><linearGradient id="e" x1="126.979" y1="61.084" x2="183.501" y2="192.502" gradientUnits="userSpaceOnUse"><stop stop-color="#C2BDFF"/><stop offset="1" stop-color="#726BC1" stop-opacity="0"/></linearGradient><linearGradient id="f" x1="132.258" y1="64.463" x2="188.879" y2="196.114" gradientUnits="userSpaceOnUse"><stop stop-color="#C2BDFF"/><stop offset="1" stop-color="#726BC1" stop-opacity="0"/></linearGradient><linearGradient id="g" x1="137.57" y1="67.782" x2="194.309" y2="199.703" gradientUnits="userSpaceOnUse"><stop stop-color="#C2BDFF"/><stop offset="1" stop-color="#726BC1" stop-opacity="0"/></linearGradient><linearGradient id="h" x1="142.859" y1="71.101" x2="199.717" y2="203.302" gradientUnits="userSpaceOnUse"><stop stop-color="#C2BDFF"/><stop offset="1" stop-color="#726BC1" stop-opacity="0"/></linearGradient><linearGradient id="i" x1="148.096" y1="74.296" x2="205.128" y2="206.899" gradientUnits="userSpaceOnUse"><stop stop-color="#C2BDFF"/><stop offset="1" stop-color="#726BC1" stop-opacity="0"/></linearGradient><linearGradient id="j" x1="153.323" y1="77.464" x2="210.536" y2="210.491" gradientUnits="userSpaceOnUse"><stop stop-color="#C2BDFF"/><stop offset="1" stop-color="#726BC1" stop-opacity="0"/></linearGradient><linearGradient id="k" x1="158.499" y1="80.534" x2="215.939" y2="214.089" gradientUnits="userSpaceOnUse"><stop stop-color="#C2BDFF"/><stop offset="1" stop-color="#726BC1" stop-opacity="0"/></linearGradient><linearGradient id="l" x1="163.66" y1="83.521" x2="221.362" y2="217.685" gradientUnits="userSpaceOnUse"><stop stop-color="#C2BDFF"/><stop offset="1" stop-color="#726BC1" stop-opacity="0"/></linearGradient><linearGradient id="m" x1="168.759" y1="86.419" x2="226.763" y2="221.282" gradientUnits="userSpaceOnUse"><stop stop-color="#C2BDFF"/><stop offset="1" stop-color="#726BC1" stop-opacity="0"/></linearGradient><linearGradient id="n" x1="173.818" y1="89.229" x2="232.164" y2="224.888" gradientUnits="userSpaceOnUse"><stop stop-color="#C2BDFF"/><stop offset="1" stop-color="#726BC1" stop-opacity="0"/></linearGradient><linearGradient id="o" x1="178.841" y1="91.896" x2="237.583" y2="228.477" gradientUnits="userSpaceOnUse"><stop stop-color="#C2BDFF"/><stop offset="1" stop-color="#726BC1" stop-opacity="0"/></linearGradient><linearGradient id="p" x1="183.796" y1="94.427" x2="242.996" y2="232.072" gradientUnits="userSpaceOnUse"><stop stop-color="#C2BDFF"/><stop offset="1" stop-color="#726BC1" stop-opacity="0"/></linearGradient><linearGradient id="q" x1="188.683" y1="96.81" x2="248.406" y2="235.671" gradientUnits="userSpaceOnUse"><stop stop-color="#C2BDFF"/><stop offset="1" stop-color="#726BC1" stop-opacity="0"/></linearGradient><linearGradient id="r" x1="191.948" y1="95.416" x2="253.819" y2="239.269" gradientUnits="userSpaceOnUse"><stop stop-color="#C2BDFF"/><stop offset="1" stop-color="#726BC1" stop-opacity="0"/></linearGradient><linearGradient id="s" x1="195.065" y1="93.683" x2="259.227" y2="242.864" gradientUnits="userSpaceOnUse"><stop stop-color="#C2BDFF"/><stop offset="1" stop-color="#726BC1" stop-opacity="0"/></linearGradient><linearGradient id="t" x1="198.08" y1="91.717" x2="264.635" y2="246.463" gradientUnits="userSpaceOnUse"><stop stop-color="#C2BDFF"/><stop offset="1" stop-color="#726BC1" stop-opacity="0"/></linearGradient><linearGradient id="u" x1="201.044" y1="89.64" x2="270.039" y2="250.057" gradientUnits="userSpaceOnUse"><stop stop-color="#C2BDFF"/><stop offset="1" stop-color="#726BC1" stop-opacity="0"/></linearGradient><linearGradient id="v" x1="203.963" y1="87.441" x2="275.45" y2="253.654" gradientUnits="userSpaceOnUse"><stop stop-color="#C2BDFF"/><stop offset="1" stop-color="#726BC1" stop-opacity="0"/></linearGradient></defs></svg>