<svg width="20" height="20" viewBox="0 0 20 20" fill="none" xmlns="http://www.w3.org/2000/svg">
<mask id="mask0_44_2249" style="mask-type:alpha" maskUnits="userSpaceOnUse" x="0" y="0" width="20" height="20">
<path d="M0 0H20V20H0V0Z" fill="#478DF6"/>
</mask>
<g mask="url(#mask0_44_2249)">
<path d="M6.66667 11.6667C6.43056 11.6667 6.23264 11.5868 6.07292 11.4271C5.91319 11.2674 5.83333 11.0694 5.83333 10.8333C5.83333 10.5972 5.91319 10.3993 6.07292 10.2396C6.23264 10.0799 6.43056 10 6.66667 10C6.90278 10 7.10069 10.0799 7.26042 10.2396C7.42014 10.3993 7.5 10.5972 7.5 10.8333C7.5 11.0694 7.42014 11.2674 7.26042 11.4271C7.10069 11.5868 6.90278 11.6667 6.66667 11.6667ZM10 11.6667C9.76389 11.6667 9.56597 11.5868 9.40625 11.4271C9.24653 11.2674 9.16667 11.0694 9.16667 10.8333C9.16667 10.5972 9.24653 10.3993 9.40625 10.2396C9.56597 10.0799 9.76389 10 10 10C10.2361 10 10.434 10.0799 10.5938 10.2396C10.7535 10.3993 10.8333 10.5972 10.8333 10.8333C10.8333 11.0694 10.7535 11.2674 10.5938 11.4271C10.434 11.5868 10.2361 11.6667 10 11.6667ZM13.3333 11.6667C13.0972 11.6667 12.8993 11.5868 12.7396 11.4271C12.5799 11.2674 12.5 11.0694 12.5 10.8333C12.5 10.5972 12.5799 10.3993 12.7396 10.2396C12.8993 10.0799 13.0972 10 13.3333 10C13.5694 10 13.7674 10.0799 13.9271 10.2396C14.0868 10.3993 14.1667 10.5972 14.1667 10.8333C14.1667 11.0694 14.0868 11.2674 13.9271 11.4271C13.7674 11.5868 13.5694 11.6667 13.3333 11.6667ZM4.16667 18.3333C3.70833 18.3333 3.31597 18.1701 2.98958 17.8438C2.66319 17.5174 2.5 17.125 2.5 16.6667V5.00001C2.5 4.54167 2.66319 4.14931 2.98958 3.82292C3.31597 3.49653 3.70833 3.33334 4.16667 3.33334H5V1.66667H6.66667V3.33334H13.3333V1.66667H15V3.33334H15.8333C16.2917 3.33334 16.684 3.49653 17.0104 3.82292C17.3368 4.14931 17.5 4.54167 17.5 5.00001V16.6667C17.5 17.125 17.3368 17.5174 17.0104 17.8438C16.684 18.1701 16.2917 18.3333 15.8333 18.3333H4.16667ZM4.16667 16.6667H15.8333V8.33334H4.16667V16.6667Z" fill="#478DF6"/>
</g>
</svg>
