<svg width="52" height="52" viewBox="0 0 52 52" fill="none" xmlns="http://www.w3.org/2000/svg">
<path d="M38.75 38.75C39.8264 38.75 40.7413 38.3733 41.4948 37.6198C42.2483 36.8663 42.625 35.9514 42.625 34.875C42.625 33.7986 42.2483 32.8837 41.4948 32.1302C40.7413 31.3767 39.8264 31 38.75 31C37.6736 31 36.7587 31.3767 36.0052 32.1302C35.2517 32.8837 34.875 33.7986 34.875 34.875C34.875 35.9514 35.2517 36.8663 36.0052 37.6198C36.7587 38.3733 37.6736 38.75 38.75 38.75ZM38.75 46.5C40.0417 46.5 41.2472 46.1986 42.3667 45.5958C43.4861 44.9931 44.4118 44.1535 45.1438 43.0771C44.1535 42.4743 43.1201 42.033 42.0438 41.7531C40.9674 41.4733 39.8694 41.3333 38.75 41.3333C37.6306 41.3333 36.5326 41.4733 35.4563 41.7531C34.3799 42.033 33.3465 42.4743 32.3563 43.0771C33.0882 44.1535 34.0139 44.9931 35.1333 45.5958C36.2528 46.1986 37.4583 46.5 38.75 46.5ZM5.16667 46.5C3.74583 46.5 2.52951 45.9941 1.51771 44.9823C0.505903 43.9705 0 42.7542 0 41.3333V5.16667C0 3.74583 0.505903 2.52951 1.51771 1.51771C2.52951 0.505903 3.74583 0 5.16667 0H41.3333C42.7542 0 43.9705 0.505903 44.9823 1.51771C45.9941 2.52951 46.5 3.74583 46.5 5.16667V22.475C45.6819 22.0875 44.8424 21.7538 43.9813 21.474C43.1201 21.1941 42.2375 20.9896 41.3333 20.8604V5.16667H5.16667V41.3333H20.7958C20.925 42.2806 21.1295 43.1847 21.4094 44.0458C21.6892 44.907 22.0229 45.725 22.4104 46.5H5.16667ZM5.16667 41.3333V5.16667V20.8604V20.6667V41.3333ZM10.3333 36.1667H20.8604C20.9896 35.2625 21.1941 34.3799 21.474 33.5188C21.7538 32.6576 22.066 31.8181 22.4104 31H10.3333V36.1667ZM10.3333 25.8333H26.0917C27.4694 24.5417 29.0087 23.4653 30.7094 22.6042C32.4101 21.7431 34.2292 21.1618 36.1667 20.8604V20.6667H10.3333V25.8333ZM10.3333 15.5H36.1667V10.3333H10.3333V15.5ZM38.75 51.6667C35.1764 51.6667 32.1302 50.4073 29.6115 47.8885C27.0927 45.3698 25.8333 42.3236 25.8333 38.75C25.8333 35.1764 27.0927 32.1302 29.6115 29.6115C32.1302 27.0927 35.1764 25.8333 38.75 25.8333C42.3236 25.8333 45.3698 27.0927 47.8885 29.6115C50.4073 32.1302 51.6667 35.1764 51.6667 38.75C51.6667 42.3236 50.4073 45.3698 47.8885 47.8885C45.3698 50.4073 42.3236 51.6667 38.75 51.6667Z" fill="#39437C"/>
</svg>
