<svg width="23" height="23" viewBox="0 0 23 23" fill="none" xmlns="http://www.w3.org/2000/svg">
<path d="M19.5296 2.43456L20.0654 2.9704C20.4817 3.38668 20.4817 4.05981 20.0654 4.47166L18.7768 5.76477L16.7352 3.72324L18.0239 2.43456C18.4402 2.01828 19.1133 2.01828 19.5252 2.43456H19.5296ZM9.29095 11.1719L15.234 5.2245L17.2755 7.26603L11.3281 13.209C11.1996 13.3375 11.0402 13.4305 10.8675 13.4792L8.27683 14.2187L9.01639 11.6281C9.0651 11.4554 9.1581 11.2959 9.28652 11.1675L9.29095 11.1719ZM16.5227 0.933302L7.78527 9.66626C7.39999 10.0515 7.121 10.5254 6.97486 11.0435L5.70831 15.472C5.60203 15.844 5.70388 16.2426 5.97845 16.5171C6.25301 16.7917 6.65158 16.8935 7.02357 16.7873L11.452 15.5207C11.9746 15.3701 12.4485 15.0912 12.8293 14.7103L21.5667 5.97734C22.8111 4.73294 22.8111 2.71355 21.5667 1.46915L21.0308 0.933302C19.7864 -0.311101 17.7671 -0.311101 16.5227 0.933302ZM3.89706 2.66041C1.74482 2.66041 0 4.40523 0 6.55747V18.6029C0 20.7552 1.74482 22.5 3.89706 22.5H15.9425C18.0948 22.5 19.8396 20.7552 19.8396 18.6029V13.643C19.8396 13.0541 19.3657 12.5802 18.7768 12.5802C18.1878 12.5802 17.7139 13.0541 17.7139 13.643V18.6029C17.7139 19.5816 16.9212 20.3743 15.9425 20.3743H3.89706C2.91837 20.3743 2.12567 19.5816 2.12567 18.6029V6.55747C2.12567 5.57878 2.91837 4.78608 3.89706 4.78608H8.85696C9.44595 4.78608 9.9198 4.31223 9.9198 3.72324C9.9198 3.13426 9.44595 2.66041 8.85696 2.66041H3.89706Z" fill="#478DF7"/>
</svg>
