<svg width="20" height="15" viewBox="0 0 20 15" fill="none" xmlns="http://www.w3.org/2000/svg">
<path id="Vector" d="M9.49918 0C6.8339 0 4.6997 1.22187 3.14605 2.67617C1.6023 4.11719 0.569835 5.84375 0.0816406 7.0291C-0.0272135 7.29141 -0.0272135 7.58359 0.0816406 7.8459C0.569835 9.03125 1.6023 10.7578 3.14605 12.1988C4.6997 13.6531 6.8339 14.875 9.49918 14.875C12.1645 14.875 14.2987 13.6531 15.8523 12.1988C17.396 10.7545 18.4285 9.03125 18.92 7.8459C19.0289 7.58359 19.0289 7.29141 18.92 7.0291C18.4285 5.84375 17.396 4.11719 15.8523 2.67617C14.2987 1.22187 12.1645 0 9.49918 0ZM4.74918 7.4375C4.74918 6.16943 5.24962 4.9533 6.14042 4.05665C7.03122 3.15999 8.2394 2.65625 9.49918 2.65625C10.759 2.65625 11.9671 3.15999 12.8579 4.05665C13.7487 4.9533 14.2492 6.16943 14.2492 7.4375C14.2492 8.70557 13.7487 9.9217 12.8579 10.8184C11.9671 11.715 10.759 12.2188 9.49918 12.2188C8.2394 12.2188 7.03122 11.715 6.14042 10.8184C5.24962 9.9217 4.74918 8.70557 4.74918 7.4375ZM9.49918 5.3125C9.49918 6.48457 8.55247 7.4375 7.38806 7.4375C7.15386 7.4375 6.92956 7.39766 6.71845 7.32793C6.53702 7.26816 6.32591 7.38105 6.33251 7.57363C6.3424 7.80273 6.37539 8.03184 6.43806 8.26094C6.88997 9.96094 8.62834 10.9703 10.3172 10.5154C12.0061 10.0605 13.0089 8.31074 12.557 6.61074C12.1908 5.23281 10.9803 4.30645 9.63442 4.25C9.4431 4.24336 9.33095 4.45254 9.39032 4.63848C9.45959 4.85098 9.49918 5.07676 9.49918 5.3125Z" fill="#3F3F3F"/>
</svg>
