<svg fill="none" xmlns="http://www.w3.org/2000/svg" viewBox="-1 -0.97 48.09 66.53"><mask id="b" fill="#fff"><path d="M12.367 57.494A65.31 65.31 0 0 1 1.93 41.838a1.008 1.008 0 0 0-.57-.524.996.996 0 0 0-1.085.276 1.01 1.01 0 0 0-.154 1.116 67.321 67.321 0 0 0 10.76 16.14 101.851 101.851 0 0 0 3.867 4.07 1 1 0 0 0 1.42-.004 1.01 1.01 0 0 0-.01-1.428 99.976 99.976 0 0 1-3.79-3.99Zm-8.861-4.991a1.004 1.004 0 0 0-1.034-.431.998.998 0 0 0-.639.435 1.011 1.011 0 0 0 .015 1.127 68.121 68.121 0 0 0 4.845 6.358 1 1 0 0 0 1.757-.587 1.01 1.01 0 0 0-.241-.733 66.112 66.112 0 0 1-4.703-6.169Zm9.292-48.248a24.998 24.998 0 0 1 10.25-2.205c5.35 0 10.558 1.737 14.849 4.953a25.334 25.334 0 0 1 4.31 4.07 1.003 1.003 0 0 0 1.071.317 1.002 1.002 0 0 0 .697-.879 1.014 1.014 0 0 0-.236-.737 27.337 27.337 0 0 0-4.652-4.393A26.83 26.83 0 0 0 28.024.503a26.75 26.75 0 0 0-12.069.483c-1.36.372-2.689.85-3.975 1.428a1.014 1.014 0 0 0 .062 1.85.996.996 0 0 0 .756-.01ZM1.875 11.972a.997.997 0 0 0 1.405-.18 24.989 24.989 0 0 1 6.28-5.777 1.008 1.008 0 0 0 .303-1.393 1.006 1.006 0 0 0-.63-.442.997.997 0 0 0-.754.136 26.993 26.993 0 0 0-6.782 6.24 1.01 1.01 0 0 0 .178 1.416Z"/><path d="M1.862 21.071a.996.996 0 0 0 1.076-.288.998.998 0 0 0 .196-.34 21.153 21.153 0 0 1 7.665-10.4 20.94 20.94 0 0 1 12.25-3.96c9.135 0 17.401 6.137 20.101 14.924a.805.805 0 0 0 .025.07c.27.67.588 1.32.95 1.943a1.007 1.007 0 0 0 .607.472.995.995 0 0 0 1.055-.358 1.013 1.013 0 0 0 .075-1.117 13.598 13.598 0 0 1-.809-1.644C42.083 10.77 33.041 4.066 23.05 4.066A22.936 22.936 0 0 0 9.634 8.403a23.17 23.17 0 0 0-8.396 11.388 1.014 1.014 0 0 0 .624 1.28ZM15.34 54.79C6.273 44.692 3.256 34.706 2.743 32.807a21.105 21.105 0 0 1-.508-8.652 1.014 1.014 0 0 0-.474-1.016.998.998 0 0 0-1.508.718 23.122 23.122 0 0 0 .557 9.478c.533 1.977 3.671 12.368 13.044 22.806.473.527.96 1.057 1.446 1.575a1 1 0 0 0 1.73-.665 1.012 1.012 0 0 0-.273-.72 91.633 91.633 0 0 1-1.417-1.543Zm8.084 8.005a100.789 100.789 0 0 1-3.75-3.485.998.998 0 0 0-1.416.02 1.012 1.012 0 0 0 .02 1.426 102.409 102.409 0 0 0 3.824 3.554 1.001 1.001 0 0 0 1.104.147 1.003 1.003 0 0 0 .557-.97 1.013 1.013 0 0 0-.34-.692Z"/><path d="M45.819 28.562c-.252-.27-.503-.543-.745-.813-2.565-2.856-3.655-5.635-3.81-6.055a18.989 18.989 0 0 0-2.604-5.377 1.004 1.004 0 0 0-1.041-.414.999.999 0 0 0-.632.446 1.013 1.013 0 0 0 .032 1.126 16.968 16.968 0 0 1 2.353 4.887c.21.574 1.396 3.6 4.215 6.739.25.28.51.563.772.843a1 1 0 0 0 1.731-.66 1.012 1.012 0 0 0-.271-.722ZM18.582 10.716a16.858 16.858 0 0 1 8.463-.117 16.927 16.927 0 0 1 7.466 4.013.998.998 0 0 0 1.415-.068 1.012 1.012 0 0 0-.067-1.424 18.927 18.927 0 0 0-8.345-4.482 18.849 18.849 0 0 0-9.457.132C7.927 11.539 1.925 22.085 4.677 32.279a40.137 40.137 0 0 0 1.853 5.17.996.996 0 0 0 1.851-.028 1.014 1.014 0 0 0-.011-.771 38.044 38.044 0 0 1-1.76-4.9c-2.46-9.12 2.91-18.557 11.972-21.034ZM28.87 62.15a95.08 95.08 0 0 1-10.556-10.065 57.666 57.666 0 0 1-8.355-12.073 1.008 1.008 0 0 0-.587-.502.996.996 0 0 0-1.073.312 1.01 1.01 0 0 0-.118 1.119 59.68 59.68 0 0 0 8.646 12.496 97.086 97.086 0 0 0 10.78 10.279.997.997 0 0 0 1.409-.147 1.013 1.013 0 0 0-.147-1.418Z"/><path d="M35.556 23.598c.146.426 1.535 4.284 5.058 8.207a64.92 64.92 0 0 0 3.541 3.64.998.998 0 0 0 1.624-.374 1.012 1.012 0 0 0-.247-1.092 63.148 63.148 0 0 1-3.432-3.526c-3.206-3.57-4.478-7.017-4.644-7.494a15.208 15.208 0 0 0-5.43-7.804 15.05 15.05 0 0 0-8.977-3.023.999.999 0 0 0-.709.295 1.011 1.011 0 0 0 0 1.426c.188.19.443.296.709.296 2.809.012 5.54.932 7.79 2.626a13.181 13.181 0 0 1 4.717 6.823ZM15.595 45.455a1.004 1.004 0 0 0 1.04.4.998.998 0 0 0 .626-.445 1.013 1.013 0 0 0-.03-1.12c-4.76-6.766-6.46-12.513-6.752-13.597a13.199 13.199 0 0 1 1.14-9.71 13.061 13.061 0 0 1 7.495-6.221 1.014 1.014 0 0 0 .16-1.856.996.996 0 0 0-.764-.067 15.068 15.068 0 0 0-8.65 7.179 15.226 15.226 0 0 0-1.315 11.204c.433 1.603 2.22 7.366 7.05 14.233Zm17.691 15.073a91.391 91.391 0 0 1-12-11.147 56.146 56.146 0 0 1-1.703-1.988 1.004 1.004 0 0 0-1.067-.33 1 1 0 0 0-.707.87 1.015 1.015 0 0 0 .226.74c.569.696 1.162 1.39 1.765 2.06A93.413 93.413 0 0 0 32.068 62.13a1 1 0 0 0 1.592-.534 1.014 1.014 0 0 0-.374-1.067ZM45.64 39.487a68.25 68.25 0 0 1-6.513-6.33 29.884 29.884 0 0 1-2.027-2.521 1.001 1.001 0 0 0-1.397-.224 1.009 1.009 0 0 0-.227 1.405 31.931 31.931 0 0 0 2.165 2.692 70.264 70.264 0 0 0 6.705 6.517.998.998 0 0 0 1.408-.121 1.012 1.012 0 0 0-.114-1.418Z"/><path d="M20.684 18.5a8.965 8.965 0 0 1 6.788.849 9.062 9.062 0 0 1 4.242 5.4l.01.032c.08.249.53 1.586 1.551 3.503a1.005 1.005 0 0 0 .983.526.997.997 0 0 0 .86-.712 1.013 1.013 0 0 0-.077-.768 21.046 21.046 0 0 1-1.406-3.154 11.079 11.079 0 0 0-5.225-6.614 10.96 10.96 0 0 0-8.34-.99 11.03 11.03 0 0 0-6.61 5.209 11.152 11.152 0 0 0-1.048 8.383c.408 1.51 2.825 9.472 10.362 17.865a89.633 89.633 0 0 0 5.1 5.23.999.999 0 0 0 1.417-.045 1.012 1.012 0 0 0-.045-1.425 87.414 87.414 0 0 1-4.985-5.112c-7.232-8.053-9.528-15.609-9.915-17.042a9.135 9.135 0 0 1 .881-6.886 9.036 9.036 0 0 1 5.457-4.25Zm16.254 39.748a79.984 79.984 0 0 1-4.696-3.755.997.997 0 0 0-1.402.12 1.013 1.013 0 0 0 .1 1.412 82.152 82.152 0 0 0 4.814 3.849.997.997 0 0 0 1.396-.22 1.013 1.013 0 0 0-.212-1.406Z"/><path d="M45.249 44.361a71.905 71.905 0 0 1-9.095-8.5c-4.702-5.236-6.264-10.215-6.357-10.523a7.05 7.05 0 0 0-3.31-4.235 6.974 6.974 0 0 0-5.313-.651 7.02 7.02 0 0 0-4.223 3.31 7.097 7.097 0 0 0-.671 5.345c.036.133.116.416.249.826a.997.997 0 0 0 1.843.14c.12-.237.142-.513.061-.766-.12-.368-.189-.615-.22-.729a5.07 5.07 0 0 1 .479-3.822 5.014 5.014 0 0 1 3.02-2.366 4.981 4.981 0 0 1 3.799.471 5.036 5.036 0 0 1 2.365 3.052c.069.229 1.742 5.678 6.791 11.3a73.96 73.96 0 0 0 9.353 8.742.999.999 0 0 0 1.58-.53 1.015 1.015 0 0 0-.351-1.064Zm-5.304 11.103c-2.506-1.797-7.491-5.678-12.712-11.49a45.371 45.371 0 0 1-7.35-11.036 1.008 1.008 0 0 0-.565-.526.995.995 0 0 0-1.086.268 1.01 1.01 0 0 0-.163 1.113 47.416 47.416 0 0 0 7.678 11.532c5.347 5.955 10.462 9.937 13.035 11.78a.997.997 0 0 0 1.398-.236 1.013 1.013 0 0 0-.235-1.406Z"/><path d="M42.358 52.245c-2.375-1.69-7.11-5.363-12.15-10.976-6.242-6.95-8.053-13.474-8.127-13.748a1.014 1.014 0 0 1 .097-.766.996.996 0 0 1 1.367-.374c.23.133.4.352.47.61.017.063 1.8 6.379 7.679 12.926.5.556 1.019 1.117 1.542 1.665a1.001 1.001 0 0 0 1.09.248 1.002 1.002 0 0 0 .64-.924 1.014 1.014 0 0 0-.285-.72 73.326 73.326 0 0 1-1.5-1.621c-5.51-6.137-7.22-12.055-7.235-12.109a3.032 3.032 0 0 0-1.409-1.83 2.995 2.995 0 0 0-4.1 1.127 3.04 3.04 0 0 0-.29 2.297c.08.293 2.015 7.268 8.574 14.572 5.17 5.756 10.038 9.532 12.48 11.27a1 1 0 0 0 1.564-.597 1.014 1.014 0 0 0-.407-1.05Z"/><path d="M44.181 48.605a58.676 58.676 0 0 1-1.786-1.364 75.13 75.13 0 0 1-4.856-4.213 1.001 1.001 0 0 0-1.103-.19 1.002 1.002 0 0 0-.59.956 1.015 1.015 0 0 0 .322.705 77.135 77.135 0 0 0 4.986 4.326c.633.502 1.255.977 1.848 1.411a1 1 0 0 0 1.586-.971 1.013 1.013 0 0 0-.407-.66Z"/></mask><path d="M12.367 57.494A65.31 65.31 0 0 1 1.93 41.838a1.008 1.008 0 0 0-.57-.524.996.996 0 0 0-1.085.276 1.01 1.01 0 0 0-.154 1.116 67.321 67.321 0 0 0 10.76 16.14 101.851 101.851 0 0 0 3.867 4.07 1 1 0 0 0 1.42-.004 1.01 1.01 0 0 0-.01-1.428 99.976 99.976 0 0 1-3.79-3.99Z" stroke="url(#a)" stroke-width="2" mask="url(#b)"/><path d="M3.506 52.503a1.004 1.004 0 0 0-1.034-.431.998.998 0 0 0-.639.435 1.011 1.011 0 0 0 .015 1.127 68.121 68.121 0 0 0 4.845 6.358 1 1 0 0 0 1.757-.587 1.01 1.01 0 0 0-.241-.733 66.112 66.112 0 0 1-4.703-6.169Z" stroke="url(#c)" stroke-width="2" mask="url(#b)"/><path d="M12.798 4.255a24.998 24.998 0 0 1 10.25-2.205c5.35 0 10.558 1.737 14.849 4.953a25.334 25.334 0 0 1 4.31 4.07 1.003 1.003 0 0 0 1.071.317 1.002 1.002 0 0 0 .697-.879 1.014 1.014 0 0 0-.236-.737 27.337 27.337 0 0 0-4.652-4.393A26.83 26.83 0 0 0 28.024.503a26.75 26.75 0 0 0-12.069.483c-1.36.372-2.689.85-3.975 1.428a1.014 1.014 0 0 0 .062 1.85.996.996 0 0 0 .756-.01Z" stroke="url(#d)" stroke-width="2" mask="url(#b)"/><path d="M1.875 11.972a.997.997 0 0 0 1.405-.18 24.989 24.989 0 0 1 6.28-5.777 1.008 1.008 0 0 0 .303-1.393 1.006 1.006 0 0 0-.63-.442.997.997 0 0 0-.754.136 26.993 26.993 0 0 0-6.782 6.24 1.01 1.01 0 0 0 .178 1.416Z" stroke="url(#e)" stroke-width="2" mask="url(#b)"/><path d="M1.862 21.071a.996.996 0 0 0 1.076-.288.998.998 0 0 0 .196-.34 21.153 21.153 0 0 1 7.665-10.4 20.94 20.94 0 0 1 12.25-3.96c9.135 0 17.401 6.137 20.101 14.924a.805.805 0 0 0 .025.07c.27.67.588 1.32.95 1.943a1.007 1.007 0 0 0 .607.472.995.995 0 0 0 1.055-.358 1.013 1.013 0 0 0 .075-1.117 13.598 13.598 0 0 1-.809-1.644C42.083 10.77 33.041 4.066 23.05 4.066A22.936 22.936 0 0 0 9.634 8.403a23.17 23.17 0 0 0-8.396 11.388 1.014 1.014 0 0 0 .624 1.28Z" stroke="url(#f)" stroke-width="2" mask="url(#b)"/><path d="M15.34 54.79C6.273 44.692 3.256 34.706 2.743 32.807a21.105 21.105 0 0 1-.508-8.652 1.014 1.014 0 0 0-.474-1.016.998.998 0 0 0-1.508.718 23.122 23.122 0 0 0 .557 9.478c.533 1.977 3.671 12.368 13.044 22.806.473.527.96 1.057 1.446 1.575a1 1 0 0 0 1.73-.665 1.012 1.012 0 0 0-.273-.72 91.633 91.633 0 0 1-1.417-1.543Z" stroke="url(#g)" stroke-width="2" mask="url(#b)"/><path d="M23.424 62.795a100.789 100.789 0 0 1-3.75-3.485.998.998 0 0 0-1.416.02 1.012 1.012 0 0 0 .02 1.426 102.409 102.409 0 0 0 3.824 3.554 1.001 1.001 0 0 0 1.104.147 1.003 1.003 0 0 0 .557-.97 1.013 1.013 0 0 0-.34-.692Z" stroke="url(#h)" stroke-width="2" mask="url(#b)"/><path d="M45.819 28.562c-.252-.27-.503-.543-.745-.813-2.565-2.856-3.655-5.635-3.81-6.055a18.989 18.989 0 0 0-2.604-5.377 1.004 1.004 0 0 0-1.041-.414.999.999 0 0 0-.632.446 1.013 1.013 0 0 0 .032 1.126 16.968 16.968 0 0 1 2.353 4.887c.21.574 1.396 3.6 4.215 6.739.25.28.51.563.772.843a1 1 0 0 0 1.731-.66 1.012 1.012 0 0 0-.271-.722Z" stroke="url(#i)" stroke-width="2" mask="url(#b)"/><path d="M18.582 10.716a16.858 16.858 0 0 1 8.463-.117 16.927 16.927 0 0 1 7.466 4.013.998.998 0 0 0 1.415-.068 1.012 1.012 0 0 0-.067-1.424 18.927 18.927 0 0 0-8.345-4.482 18.849 18.849 0 0 0-9.457.132C7.927 11.539 1.925 22.085 4.677 32.279a40.137 40.137 0 0 0 1.853 5.17.996.996 0 0 0 1.851-.028 1.014 1.014 0 0 0-.011-.771 38.044 38.044 0 0 1-1.76-4.9c-2.46-9.12 2.91-18.557 11.972-21.034Z" stroke="url(#j)" stroke-width="2" mask="url(#b)"/><path d="M28.87 62.15a95.08 95.08 0 0 1-10.556-10.065 57.666 57.666 0 0 1-8.355-12.073 1.008 1.008 0 0 0-.587-.502.996.996 0 0 0-1.073.312 1.01 1.01 0 0 0-.118 1.119 59.68 59.68 0 0 0 8.646 12.496 97.086 97.086 0 0 0 10.78 10.279.997.997 0 0 0 1.409-.147 1.013 1.013 0 0 0-.147-1.418Z" stroke="url(#k)" stroke-width="2" mask="url(#b)"/><path d="M35.556 23.598c.146.426 1.535 4.284 5.058 8.207a64.92 64.92 0 0 0 3.541 3.64.998.998 0 0 0 1.624-.374 1.012 1.012 0 0 0-.247-1.092 63.148 63.148 0 0 1-3.432-3.526c-3.206-3.57-4.478-7.017-4.644-7.494a15.208 15.208 0 0 0-5.43-7.804 15.05 15.05 0 0 0-8.977-3.023.999.999 0 0 0-.709.295 1.011 1.011 0 0 0 0 1.426c.188.19.443.296.709.296 2.809.012 5.54.932 7.79 2.626a13.181 13.181 0 0 1 4.717 6.823Z" stroke="url(#l)" stroke-width="2" mask="url(#b)"/><path d="M15.595 45.455a1.004 1.004 0 0 0 1.04.4.998.998 0 0 0 .626-.445 1.013 1.013 0 0 0-.03-1.12c-4.76-6.766-6.46-12.513-6.752-13.597a13.199 13.199 0 0 1 1.14-9.71 13.061 13.061 0 0 1 7.495-6.221 1.014 1.014 0 0 0 .16-1.856.996.996 0 0 0-.764-.067 15.068 15.068 0 0 0-8.65 7.179 15.226 15.226 0 0 0-1.315 11.204c.433 1.603 2.22 7.366 7.05 14.233Z" stroke="url(#m)" stroke-width="2" mask="url(#b)"/><path d="M33.286 60.528a91.391 91.391 0 0 1-12-11.147 56.146 56.146 0 0 1-1.703-1.988 1.004 1.004 0 0 0-1.067-.33 1 1 0 0 0-.707.87 1.015 1.015 0 0 0 .226.74c.569.696 1.162 1.39 1.765 2.06A93.413 93.413 0 0 0 32.068 62.13a1 1 0 0 0 1.592-.534 1.014 1.014 0 0 0-.374-1.067Z" stroke="url(#n)" stroke-width="2" mask="url(#b)"/><path d="M45.64 39.487a68.25 68.25 0 0 1-6.513-6.33 29.884 29.884 0 0 1-2.027-2.521 1.001 1.001 0 0 0-1.397-.224 1.009 1.009 0 0 0-.227 1.405 31.931 31.931 0 0 0 2.165 2.692 70.264 70.264 0 0 0 6.705 6.517.998.998 0 0 0 1.408-.121 1.012 1.012 0 0 0-.114-1.418Z" stroke="url(#o)" stroke-width="2" mask="url(#b)"/><path d="M20.684 18.5a8.965 8.965 0 0 1 6.788.849 9.062 9.062 0 0 1 4.242 5.4l.01.032c.08.249.53 1.586 1.551 3.503a1.005 1.005 0 0 0 .983.526.997.997 0 0 0 .86-.712 1.013 1.013 0 0 0-.077-.768 21.046 21.046 0 0 1-1.406-3.154 11.079 11.079 0 0 0-5.225-6.614 10.96 10.96 0 0 0-8.34-.99 11.03 11.03 0 0 0-6.61 5.209 11.152 11.152 0 0 0-1.048 8.383c.408 1.51 2.825 9.472 10.362 17.865a89.633 89.633 0 0 0 5.1 5.23.999.999 0 0 0 1.417-.045 1.012 1.012 0 0 0-.045-1.425 87.414 87.414 0 0 1-4.985-5.112c-7.232-8.053-9.528-15.609-9.915-17.042a9.135 9.135 0 0 1 .881-6.886 9.036 9.036 0 0 1 5.457-4.25Z" stroke="url(#p)" stroke-width="2" mask="url(#b)"/><path d="M36.938 58.248a79.984 79.984 0 0 1-4.696-3.755.997.997 0 0 0-1.402.12 1.013 1.013 0 0 0 .1 1.412 82.152 82.152 0 0 0 4.814 3.849.997.997 0 0 0 1.396-.22 1.013 1.013 0 0 0-.212-1.406Z" stroke="url(#q)" stroke-width="2" mask="url(#b)"/><path d="M45.249 44.361a71.905 71.905 0 0 1-9.095-8.5c-4.702-5.236-6.264-10.215-6.357-10.523a7.05 7.05 0 0 0-3.31-4.235 6.974 6.974 0 0 0-5.313-.651 7.02 7.02 0 0 0-4.223 3.31 7.097 7.097 0 0 0-.671 5.345c.036.133.116.416.249.826a.997.997 0 0 0 1.843.14c.12-.237.142-.513.061-.766-.12-.368-.189-.615-.22-.729a5.07 5.07 0 0 1 .479-3.822 5.014 5.014 0 0 1 3.02-2.366 4.981 4.981 0 0 1 3.799.471 5.036 5.036 0 0 1 2.365 3.052c.069.229 1.742 5.678 6.791 11.3a73.96 73.96 0 0 0 9.353 8.742.999.999 0 0 0 1.58-.53 1.015 1.015 0 0 0-.351-1.064Z" stroke="url(#r)" stroke-width="2" mask="url(#b)"/><path d="M39.945 55.464c-2.506-1.797-7.491-5.678-12.712-11.49a45.371 45.371 0 0 1-7.35-11.036 1.008 1.008 0 0 0-.565-.526.995.995 0 0 0-1.086.268 1.01 1.01 0 0 0-.163 1.113 47.416 47.416 0 0 0 7.678 11.532c5.347 5.955 10.462 9.937 13.035 11.78a.997.997 0 0 0 1.398-.236 1.013 1.013 0 0 0-.235-1.406Z" stroke="url(#s)" stroke-width="2" mask="url(#b)"/><path d="M42.358 52.245c-2.375-1.69-7.11-5.363-12.15-10.976-6.242-6.95-8.053-13.474-8.127-13.748a1.014 1.014 0 0 1 .097-.766.996.996 0 0 1 1.367-.374c.23.133.4.352.47.61.017.063 1.8 6.379 7.679 12.926.5.556 1.019 1.117 1.542 1.665a1.001 1.001 0 0 0 1.09.248 1.002 1.002 0 0 0 .64-.924 1.014 1.014 0 0 0-.285-.72 73.326 73.326 0 0 1-1.5-1.621c-5.51-6.137-7.22-12.055-7.235-12.109a3.032 3.032 0 0 0-1.409-1.83 2.995 2.995 0 0 0-4.1 1.127 3.04 3.04 0 0 0-.29 2.297c.08.293 2.015 7.268 8.574 14.572 5.17 5.756 10.038 9.532 12.48 11.27a1 1 0 0 0 1.564-.597 1.014 1.014 0 0 0-.407-1.05Z" stroke="url(#t)" stroke-width="2" mask="url(#b)"/><path d="M44.181 48.605a58.676 58.676 0 0 1-1.786-1.364 75.13 75.13 0 0 1-4.856-4.213 1.001 1.001 0 0 0-1.103-.19 1.002 1.002 0 0 0-.59.956 1.015 1.015 0 0 0 .322.705 77.135 77.135 0 0 0 4.986 4.326c.633.502 1.255.977 1.848 1.411a1 1 0 0 0 1.586-.971 1.013 1.013 0 0 0-.407-.66Z" stroke="url(#u)" stroke-width="2" mask="url(#b)"/><defs><radialGradient id="a" cx="0" cy="0" r="1" gradientUnits="userSpaceOnUse" gradientTransform="matrix(-.04533 30.20317 -39.50176 -.0593 23.046 32.297)"><stop stop-color="#6DC0E3"/><stop offset="1" stop-color="#567AD9"/></radialGradient><radialGradient id="c" cx="0" cy="0" r="1" gradientUnits="userSpaceOnUse" gradientTransform="matrix(-.04533 30.20317 -39.50176 -.0593 23.046 32.297)"><stop stop-color="#6DC0E3"/><stop offset="1" stop-color="#567AD9"/></radialGradient><radialGradient id="d" cx="0" cy="0" r="1" gradientUnits="userSpaceOnUse" gradientTransform="matrix(-.04533 30.20317 -39.50176 -.0593 23.046 32.297)"><stop stop-color="#6DC0E3"/><stop offset="1" stop-color="#567AD9"/></radialGradient><radialGradient id="e" cx="0" cy="0" r="1" gradientUnits="userSpaceOnUse" gradientTransform="matrix(-.04533 30.20317 -39.50176 -.0593 23.046 32.297)"><stop stop-color="#6DC0E3"/><stop offset="1" stop-color="#567AD9"/></radialGradient><radialGradient id="f" cx="0" cy="0" r="1" gradientUnits="userSpaceOnUse" gradientTransform="matrix(-.04533 30.20317 -39.50176 -.0593 23.046 32.297)"><stop stop-color="#6DC0E3"/><stop offset="1" stop-color="#567AD9"/></radialGradient><radialGradient id="g" cx="0" cy="0" r="1" gradientUnits="userSpaceOnUse" gradientTransform="matrix(-.04533 30.20317 -39.50176 -.0593 23.046 32.297)"><stop stop-color="#6DC0E3"/><stop offset="1" stop-color="#567AD9"/></radialGradient><radialGradient id="h" cx="0" cy="0" r="1" gradientUnits="userSpaceOnUse" gradientTransform="matrix(-.04533 30.20317 -39.50176 -.0593 23.046 32.297)"><stop stop-color="#6DC0E3"/><stop offset="1" stop-color="#567AD9"/></radialGradient><radialGradient id="i" cx="0" cy="0" r="1" gradientUnits="userSpaceOnUse" gradientTransform="matrix(-.04533 30.20317 -39.50176 -.0593 23.046 32.297)"><stop stop-color="#6DC0E3"/><stop offset="1" stop-color="#567AD9"/></radialGradient><radialGradient id="j" cx="0" cy="0" r="1" gradientUnits="userSpaceOnUse" gradientTransform="matrix(-.04533 30.20317 -39.50176 -.0593 23.046 32.297)"><stop stop-color="#6DC0E3"/><stop offset="1" stop-color="#567AD9"/></radialGradient><radialGradient id="k" cx="0" cy="0" r="1" gradientUnits="userSpaceOnUse" gradientTransform="matrix(-.04533 30.20317 -39.50176 -.0593 23.046 32.297)"><stop stop-color="#6DC0E3"/><stop offset="1" stop-color="#567AD9"/></radialGradient><radialGradient id="l" cx="0" cy="0" r="1" gradientUnits="userSpaceOnUse" gradientTransform="matrix(-.04533 30.20317 -39.50176 -.0593 23.046 32.297)"><stop stop-color="#6DC0E3"/><stop offset="1" stop-color="#567AD9"/></radialGradient><radialGradient id="m" cx="0" cy="0" r="1" gradientUnits="userSpaceOnUse" gradientTransform="matrix(-.04533 30.20317 -39.50176 -.0593 23.046 32.297)"><stop stop-color="#6DC0E3"/><stop offset="1" stop-color="#567AD9"/></radialGradient><radialGradient id="n" cx="0" cy="0" r="1" gradientUnits="userSpaceOnUse" gradientTransform="matrix(-.04533 30.20317 -39.50176 -.0593 23.046 32.297)"><stop stop-color="#6DC0E3"/><stop offset="1" stop-color="#567AD9"/></radialGradient><radialGradient id="o" cx="0" cy="0" r="1" gradientUnits="userSpaceOnUse" gradientTransform="matrix(-.04533 30.20317 -39.50176 -.0593 23.046 32.297)"><stop stop-color="#6DC0E3"/><stop offset="1" stop-color="#567AD9"/></radialGradient><radialGradient id="p" cx="0" cy="0" r="1" gradientUnits="userSpaceOnUse" gradientTransform="matrix(-.04533 30.20317 -39.50176 -.0593 23.046 32.297)"><stop stop-color="#6DC0E3"/><stop offset="1" stop-color="#567AD9"/></radialGradient><radialGradient id="q" cx="0" cy="0" r="1" gradientUnits="userSpaceOnUse" gradientTransform="matrix(-.04533 30.20317 -39.50176 -.0593 23.046 32.297)"><stop stop-color="#6DC0E3"/><stop offset="1" stop-color="#567AD9"/></radialGradient><radialGradient id="r" cx="0" cy="0" r="1" gradientUnits="userSpaceOnUse" gradientTransform="matrix(-.04533 30.20317 -39.50176 -.0593 23.046 32.297)"><stop stop-color="#6DC0E3"/><stop offset="1" stop-color="#567AD9"/></radialGradient><radialGradient id="s" cx="0" cy="0" r="1" gradientUnits="userSpaceOnUse" gradientTransform="matrix(-.04533 30.20317 -39.50176 -.0593 23.046 32.297)"><stop stop-color="#6DC0E3"/><stop offset="1" stop-color="#567AD9"/></radialGradient><radialGradient id="t" cx="0" cy="0" r="1" gradientUnits="userSpaceOnUse" gradientTransform="matrix(-.04533 30.20317 -39.50176 -.0593 23.046 32.297)"><stop stop-color="#6DC0E3"/><stop offset="1" stop-color="#567AD9"/></radialGradient><radialGradient id="u" cx="0" cy="0" r="1" gradientUnits="userSpaceOnUse" gradientTransform="matrix(-.04533 30.20317 -39.50176 -.0593 23.046 32.297)"><stop stop-color="#6DC0E3"/><stop offset="1" stop-color="#567AD9"/></radialGradient></defs></svg>