<svg width="90" height="113" viewBox="0 0 90 113" fill="none" xmlns="http://www.w3.org/2000/svg"><mask id="b" fill="#fff"><path d="M21.703 100.203A113.826 113.826 0 0 1 3.385 72.901 1.759 1.759 0 1 0 .21 74.415a117.352 117.352 0 0 0 18.884 28.146 178.472 178.472 0 0 0 6.784 7.099 1.762 1.762 0 0 0 1.921.378 1.761 1.761 0 0 0 .554-2.876 174.713 174.713 0 0 1-6.65-6.959ZM6.153 91.5a1.76 1.76 0 1 0-2.91 1.973 118.757 118.757 0 0 0 8.503 11.087 1.757 1.757 0 1 0 2.66-2.301A115.338 115.338 0 0 1 6.152 91.5ZM22.46 7.362a44.104 44.104 0 0 1 17.988-3.845c9.39 0 18.528 3.028 26.058 8.637a44.354 44.354 0 0 1 7.563 7.099 1.758 1.758 0 1 0 2.689-2.266 47.855 47.855 0 0 0-8.164-7.661A47.231 47.231 0 0 0 28 1.66a47.801 47.801 0 0 0-6.977 2.49 1.758 1.758 0 0 0 1.437 3.21ZM3.29 20.82a1.758 1.758 0 0 0 2.467-.313 43.75 43.75 0 0 1 11.018-10.076 1.759 1.759 0 0 0-1.896-2.962A47.259 47.259 0 0 0 2.978 18.352a1.759 1.759 0 0 0 .312 2.467Z"/><path d="M3.268 36.688a1.757 1.757 0 0 0 2.233-1.096A36.906 36.906 0 0 1 40.449 10.55c16.031 0 30.537 10.703 35.276 26.025.012.042.027.083.044.124a26.708 26.708 0 0 0 1.665 3.388 1.759 1.759 0 0 0 3.05-1.751 23.665 23.665 0 0 1-1.42-2.866C73.853 18.724 57.984 7.033 40.45 7.033A40.423 40.423 0 0 0 2.173 34.455a1.758 1.758 0 0 0 1.095 2.233Zm23.653 58.8C11.009 77.88 5.714 60.466 4.814 57.154a36.58 36.58 0 0 1-.892-15.087 1.758 1.758 0 1 0-3.478-.52 40.077 40.077 0 0 0 .977 16.528c.937 3.449 6.443 21.57 22.891 39.771.83.92 1.684 1.843 2.538 2.746.32.339.762.537 1.228.551a1.762 1.762 0 0 0 1.809-1.709 1.76 1.76 0 0 0-.48-1.258 159.38 159.38 0 0 1-2.486-2.688Zm14.185 13.96a176.393 176.393 0 0 1-6.579-6.077 1.757 1.757 0 0 0-2.486.035 1.758 1.758 0 0 0 .035 2.487 179.195 179.195 0 0 0 6.71 6.197 1.76 1.76 0 0 0 1.938.256 1.765 1.765 0 0 0 .887-1.011 1.762 1.762 0 0 0-.505-1.887Z"/><path d="M80.408 49.751c-.443-.47-.883-.948-1.308-1.418-4.5-4.98-6.413-9.828-6.687-10.56a33.024 33.024 0 0 0-4.569-9.375 1.758 1.758 0 1 0-2.879 2.018 29.51 29.51 0 0 1 4.097 8.425c.01.033.021.065.033.097.367 1.002 2.45 6.278 7.397 11.752.44.488.896.982 1.354 1.47a1.759 1.759 0 0 0 2.562-2.409ZM32.61 18.629a29.764 29.764 0 0 1 27.953 6.794 1.758 1.758 0 1 0 2.366-2.602 33.281 33.281 0 0 0-31.24-7.586c-17.777 4.829-28.31 23.22-23.482 40.997a69.7 69.7 0 0 0 3.253 9.017 1.758 1.758 0 1 0 3.229-1.394A66.09 66.09 0 0 1 11.6 55.31c-4.32-15.907 5.106-32.362 21.01-36.682Zm18.053 89.696a166.425 166.425 0 0 1-18.524-17.553 100.554 100.554 0 0 1-14.662-21.055 1.758 1.758 0 1 0-3.12 1.62A104.064 104.064 0 0 0 29.53 93.13a169.834 169.834 0 0 0 18.917 17.924 1.759 1.759 0 0 0 2.216-2.729Z"/><path d="M62.397 41.093c.257.745 2.694 7.471 8.877 14.313a113.456 113.456 0 0 0 6.214 6.346 1.758 1.758 0 1 0 2.416-2.555c-2.115-2-4.141-4.068-6.022-6.149-5.627-6.225-7.858-12.236-8.15-13.068a26.52 26.52 0 0 0-25.284-18.881 1.759 1.759 0 0 0 0 3.516 22.985 22.985 0 0 1 21.949 16.478ZM27.369 79.21a1.76 1.76 0 0 0 2.87-2.033c-8.352-11.797-11.337-21.82-11.85-23.71a22.887 22.887 0 0 1 15.154-27.782 1.758 1.758 0 1 0-1.06-3.353 26.404 26.404 0 0 0-17.487 32.057c.759 2.795 3.896 12.846 12.373 24.82Zm31.045 26.285a160.013 160.013 0 0 1-21.058-19.438 98.17 98.17 0 0 1-2.989-3.468 1.757 1.757 0 0 0-3.115.942 1.759 1.759 0 0 0 .398 1.29c.998 1.215 2.04 2.424 3.096 3.594a163.519 163.519 0 0 0 21.53 19.871 1.757 1.757 0 0 0 1.967.149 1.756 1.756 0 0 0 .171-2.94Zm21.68-36.693a119.423 119.423 0 0 1-11.429-11.038 52.173 52.173 0 0 1-3.558-4.397 1.758 1.758 0 0 0-2.85 2.06 55.722 55.722 0 0 0 3.799 4.694 122.944 122.944 0 0 0 11.767 11.365 1.758 1.758 0 0 0 2.27-2.684Z"/><path d="M36.299 32.203a15.82 15.82 0 0 1 19.373 10.954c.14.434.93 2.766 2.723 6.108a1.758 1.758 0 1 0 3.099-1.663 36.569 36.569 0 0 1-2.467-5.5 19.34 19.34 0 0 0-37.244 10.442c.716 2.635 4.956 16.518 18.184 31.155a156.63 156.63 0 0 0 8.95 9.12 1.759 1.759 0 0 0 2.408-2.564 152.952 152.952 0 0 1-8.75-8.914c-12.69-14.044-16.72-27.22-17.399-29.719a15.843 15.843 0 0 1 11.123-19.42Zm28.524 69.315a140.02 140.02 0 0 1-8.24-6.548 1.759 1.759 0 0 0-2.286 2.672 144.073 144.073 0 0 0 8.448 6.713 1.761 1.761 0 0 0 2.45-.385 1.758 1.758 0 0 0-.372-2.452Z"/><path d="M79.407 77.303a125.89 125.89 0 0 1-15.96-14.823c-8.251-9.131-10.992-17.815-11.156-18.352a12.308 12.308 0 0 0-23.721 6.573c.062.231.203.725.437 1.441a1.759 1.759 0 0 0 3.342-1.093 27.287 27.287 0 0 1-.386-1.27A8.791 8.791 0 0 1 48.92 45.13c.12.4 3.057 9.902 11.918 19.708A129.48 129.48 0 0 0 77.252 80.08a1.758 1.758 0 1 0 2.155-2.778ZM70.1 96.663c-4.399-3.132-13.146-9.9-22.308-20.037a79.092 79.092 0 0 1-12.898-19.244 1.757 1.757 0 1 0-3.185 1.49 82.655 82.655 0 0 0 13.474 20.11c9.385 10.385 18.36 17.33 22.876 20.545a1.759 1.759 0 0 0 2.04-2.865l.001.001Z"/><path d="M74.334 91.05c-4.167-2.946-12.478-9.352-21.323-19.14C42.06 59.79 38.88 48.413 38.75 47.935a1.759 1.759 0 0 1 3.394-.923c.03.11 3.16 11.123 13.477 22.54.877.97 1.788 1.948 2.706 2.904a1.757 1.757 0 1 0 2.537-2.435c-.894-.931-1.78-1.882-2.634-2.827-9.67-10.701-12.67-21.022-12.696-21.116a5.276 5.276 0 0 0-10.177 2.78c.139.51 3.536 12.675 15.046 25.41 9.072 10.04 17.616 16.623 21.901 19.654a1.757 1.757 0 0 0 2.761-1.73 1.758 1.758 0 0 0-.73-1.141Z"/><path d="M77.534 84.703a102.95 102.95 0 0 1-3.135-2.379 131.546 131.546 0 0 1-8.522-7.346 1.759 1.759 0 1 0-2.405 2.565 135.097 135.097 0 0 0 8.75 7.543c1.11.876 2.202 1.704 3.244 2.462a1.758 1.758 0 1 0 2.068-2.845Z"/></mask><path d="M21.703 100.203A113.826 113.826 0 0 1 3.385 72.901 1.759 1.759 0 1 0 .21 74.415a117.352 117.352 0 0 0 18.884 28.146 178.472 178.472 0 0 0 6.784 7.099 1.762 1.762 0 0 0 1.921.378 1.761 1.761 0 0 0 .554-2.876 174.713 174.713 0 0 1-6.65-6.959Z" stroke="url(#a)" stroke-width="5" mask="url(#b)"/><path d="M6.153 91.5a1.76 1.76 0 1 0-2.91 1.973 118.757 118.757 0 0 0 8.503 11.087 1.757 1.757 0 1 0 2.66-2.301A115.338 115.338 0 0 1 6.152 91.5Z" stroke="url(#c)" stroke-width="5" mask="url(#b)"/><path d="M22.46 7.362a44.104 44.104 0 0 1 17.988-3.845c9.39 0 18.528 3.028 26.058 8.637a44.354 44.354 0 0 1 7.563 7.099 1.758 1.758 0 1 0 2.689-2.266 47.855 47.855 0 0 0-8.164-7.661A47.231 47.231 0 0 0 28 1.66a47.801 47.801 0 0 0-6.977 2.49 1.758 1.758 0 0 0 1.437 3.21Z" stroke="url(#d)" stroke-width="5" mask="url(#b)"/><path d="M3.29 20.82a1.758 1.758 0 0 0 2.467-.313 43.75 43.75 0 0 1 11.018-10.076 1.759 1.759 0 0 0-1.896-2.962A47.259 47.259 0 0 0 2.978 18.352a1.759 1.759 0 0 0 .312 2.467Z" stroke="url(#e)" stroke-width="5" mask="url(#b)"/><path d="M3.268 36.688a1.757 1.757 0 0 0 2.233-1.096A36.906 36.906 0 0 1 40.449 10.55c16.031 0 30.537 10.703 35.276 26.025.012.042.027.083.044.124a26.708 26.708 0 0 0 1.665 3.388 1.759 1.759 0 0 0 3.05-1.751 23.665 23.665 0 0 1-1.42-2.866C73.853 18.724 57.984 7.033 40.45 7.033A40.423 40.423 0 0 0 2.173 34.455a1.758 1.758 0 0 0 1.095 2.233Z" stroke="url(#f)" stroke-width="5" mask="url(#b)"/><path d="M26.921 95.488C11.009 77.88 5.714 60.466 4.814 57.154a36.58 36.58 0 0 1-.892-15.087 1.758 1.758 0 1 0-3.478-.52 40.077 40.077 0 0 0 .977 16.528c.937 3.449 6.443 21.57 22.891 39.771.83.92 1.684 1.843 2.538 2.746.32.339.762.537 1.228.551a1.762 1.762 0 0 0 1.809-1.709 1.76 1.76 0 0 0-.48-1.258 159.38 159.38 0 0 1-2.486-2.688Z" stroke="url(#g)" stroke-width="5" mask="url(#b)"/><path d="M41.106 109.448a176.393 176.393 0 0 1-6.579-6.077 1.757 1.757 0 0 0-2.486.035 1.758 1.758 0 0 0 .035 2.487 179.195 179.195 0 0 0 6.71 6.197 1.76 1.76 0 0 0 1.938.256 1.765 1.765 0 0 0 .887-1.011 1.762 1.762 0 0 0-.505-1.887Z" stroke="url(#h)" stroke-width="5" mask="url(#b)"/><path d="M80.408 49.751c-.443-.47-.883-.948-1.308-1.418-4.5-4.98-6.413-9.828-6.687-10.56a33.024 33.024 0 0 0-4.569-9.375 1.758 1.758 0 1 0-2.879 2.018 29.51 29.51 0 0 1 4.097 8.425c.01.033.021.065.033.097.367 1.002 2.45 6.278 7.397 11.752.44.488.896.982 1.354 1.47a1.759 1.759 0 0 0 2.562-2.409Z" stroke="url(#i)" stroke-width="5" mask="url(#b)"/><path d="M32.61 18.629a29.764 29.764 0 0 1 27.953 6.794 1.758 1.758 0 1 0 2.366-2.602 33.281 33.281 0 0 0-31.24-7.586c-17.777 4.829-28.31 23.22-23.482 40.997a69.7 69.7 0 0 0 3.253 9.017 1.758 1.758 0 1 0 3.229-1.394A66.09 66.09 0 0 1 11.6 55.31c-4.32-15.907 5.106-32.362 21.01-36.682Z" stroke="url(#j)" stroke-width="5" mask="url(#b)"/><path d="M50.663 108.325a166.425 166.425 0 0 1-18.524-17.553 100.554 100.554 0 0 1-14.662-21.055 1.758 1.758 0 1 0-3.12 1.62A104.064 104.064 0 0 0 29.53 93.13a169.834 169.834 0 0 0 18.917 17.924 1.759 1.759 0 0 0 2.216-2.729Z" stroke="url(#k)" stroke-width="5" mask="url(#b)"/><path d="M62.397 41.093c.257.745 2.694 7.471 8.877 14.313a113.456 113.456 0 0 0 6.214 6.346 1.758 1.758 0 1 0 2.416-2.555c-2.115-2-4.141-4.068-6.022-6.149-5.627-6.225-7.858-12.236-8.15-13.068a26.52 26.52 0 0 0-25.284-18.881 1.759 1.759 0 0 0 0 3.516 22.985 22.985 0 0 1 21.949 16.478Z" stroke="url(#l)" stroke-width="5" mask="url(#b)"/><path d="M27.369 79.21a1.76 1.76 0 0 0 2.87-2.033c-8.352-11.797-11.337-21.82-11.85-23.71a22.887 22.887 0 0 1 15.154-27.782 1.758 1.758 0 1 0-1.06-3.353 26.404 26.404 0 0 0-17.487 32.057c.759 2.795 3.896 12.846 12.373 24.82Z" stroke="url(#m)" stroke-width="5" mask="url(#b)"/><path d="M58.414 105.495a160.013 160.013 0 0 1-21.058-19.438 98.17 98.17 0 0 1-2.989-3.468 1.757 1.757 0 0 0-3.115.942 1.759 1.759 0 0 0 .398 1.29c.998 1.215 2.04 2.424 3.096 3.594a163.519 163.519 0 0 0 21.53 19.871 1.757 1.757 0 0 0 1.967.149 1.756 1.756 0 0 0 .171-2.94Z" stroke="url(#n)" stroke-width="5" mask="url(#b)"/><path d="M80.094 68.802a119.423 119.423 0 0 1-11.429-11.038 52.173 52.173 0 0 1-3.558-4.397 1.758 1.758 0 0 0-2.85 2.06 55.722 55.722 0 0 0 3.799 4.694 122.944 122.944 0 0 0 11.767 11.365 1.758 1.758 0 0 0 2.27-2.684Z" stroke="url(#o)" stroke-width="5" mask="url(#b)"/><path d="M36.299 32.203a15.82 15.82 0 0 1 19.373 10.954c.14.434.93 2.766 2.723 6.108a1.758 1.758 0 1 0 3.099-1.663 36.569 36.569 0 0 1-2.467-5.5 19.34 19.34 0 0 0-37.244 10.442c.716 2.635 4.956 16.518 18.184 31.155a156.63 156.63 0 0 0 8.95 9.12 1.759 1.759 0 0 0 2.408-2.564 152.952 152.952 0 0 1-8.75-8.914c-12.69-14.044-16.72-27.22-17.399-29.719a15.843 15.843 0 0 1 11.123-19.42Z" stroke="url(#p)" stroke-width="5" mask="url(#b)"/><path d="M64.823 101.518a140.02 140.02 0 0 1-8.24-6.548 1.759 1.759 0 0 0-2.286 2.672 144.073 144.073 0 0 0 8.448 6.713 1.761 1.761 0 0 0 2.45-.385 1.758 1.758 0 0 0-.372-2.452Z" stroke="url(#q)" stroke-width="5" mask="url(#b)"/><path d="M79.407 77.303a125.89 125.89 0 0 1-15.96-14.823c-8.251-9.131-10.992-17.815-11.156-18.352a12.308 12.308 0 0 0-23.721 6.573c.062.231.203.725.437 1.441a1.759 1.759 0 0 0 3.342-1.093 27.287 27.287 0 0 1-.386-1.27A8.791 8.791 0 0 1 48.92 45.13c.12.4 3.057 9.902 11.918 19.708A129.48 129.48 0 0 0 77.252 80.08a1.758 1.758 0 1 0 2.155-2.778Z" stroke="url(#r)" stroke-width="5" mask="url(#b)"/><path d="M70.1 96.663c-4.399-3.132-13.146-9.9-22.308-20.037a79.092 79.092 0 0 1-12.898-19.244 1.757 1.757 0 1 0-3.185 1.49 82.655 82.655 0 0 0 13.474 20.11c9.385 10.385 18.36 17.33 22.876 20.545a1.759 1.759 0 0 0 2.04-2.865l.001.001Z" stroke="url(#s)" stroke-width="5" mask="url(#b)"/><path d="M74.334 91.05c-4.167-2.946-12.478-9.352-21.323-19.14C42.06 59.79 38.88 48.413 38.75 47.935a1.759 1.759 0 0 1 3.394-.923c.03.11 3.16 11.123 13.477 22.54.877.97 1.788 1.948 2.706 2.904a1.757 1.757 0 1 0 2.537-2.435c-.894-.931-1.78-1.882-2.634-2.827-9.67-10.701-12.67-21.022-12.696-21.116a5.276 5.276 0 0 0-10.177 2.78c.139.51 3.536 12.675 15.046 25.41 9.072 10.04 17.616 16.623 21.901 19.654a1.757 1.757 0 0 0 2.761-1.73 1.758 1.758 0 0 0-.73-1.141Z" stroke="url(#t)" stroke-width="5" mask="url(#b)"/><path d="M77.534 84.703a102.95 102.95 0 0 1-3.135-2.379 131.546 131.546 0 0 1-8.522-7.346 1.759 1.759 0 1 0-2.405 2.565 135.097 135.097 0 0 0 8.75 7.543c1.11.876 2.202 1.704 3.244 2.462a1.758 1.758 0 1 0 2.068-2.845Z" stroke="url(#u)" stroke-width="5" mask="url(#b)"/><path d="M80.47 80.62v.5h3.888a5.147 5.147 0 0 1 5.141 5.14v19.18a5.147 5.147 0 0 1-5.14 5.14H57.281a5.147 5.147 0 0 1-5.14-5.14V86.26a5.147 5.147 0 0 1 5.14-5.14h3.882v-8.23c0-5.198 4.32-9.445 9.653-9.445 5.332 0 9.653 4.247 9.653 9.444v7.73Zm-3.26.5h.5v-8.23c0-3.702-3.108-6.684-6.893-6.684-3.785 0-6.893 2.982-6.893 6.683v8.23H77.21Zm-4.783 14.7-.23.147v4.396a1.38 1.38 0 0 1-2.76 0v-4.4l-.23-.148a2.978 2.978 0 1 1 3.22.004Zm11.931 12a2.383 2.383 0 0 0 2.38-2.38V86.26a2.382 2.382 0 0 0-2.38-2.38H57.282a2.382 2.382 0 0 0-2.38 2.38v19.18a2.383 2.383 0 0 0 2.38 2.38h27.076Z" fill="#6B90FF" stroke="#fff"/><circle cx="40.847" cy="47.05" r="21.071" transform="rotate(.262 40.847 47.05)" fill="#fff"/><path d="M53.466 36.37v5.441a.68.68 0 1 1-1.36 0v-5.44c0-1.125-.916-2.04-2.04-2.04h-5.44a.68.68 0 1 1 0-1.36h5.44c1.874 0 3.4 1.525 3.4 3.4Zm-.68 12.922a.68.68 0 0 0-.68.68v5.44c0 1.125-.916 2.04-2.04 2.04h-5.44a.68.68 0 1 0 0 1.36h5.44c1.874 0 3.4-1.524 3.4-3.4v-5.44a.68.68 0 0 0-.68-.68Zm-16.321 8.16h-5.44a2.042 2.042 0 0 1-2.04-2.04v-5.44a.68.68 0 1 0-1.361 0v5.44c0 1.876 1.526 3.4 3.4 3.4h5.44a.68.68 0 1 0 0-1.36Zm-8.16-14.96a.68.68 0 0 0 .68-.68V36.37c0-1.125.914-2.04 2.04-2.04h5.44a.68.68 0 1 0 0-1.36h-5.44a3.404 3.404 0 0 0-3.401 3.4v5.44c0 .376.304.68.68.68Zm6.12-2.04v1.36a.68.68 0 1 0 1.36 0v-1.36a.68.68 0 1 0-1.36 0Zm11.56 2.04a.68.68 0 0 0 .68-.68v-1.36a.68.68 0 1 0-1.36 0v1.36c0 .375.304.68.68.68Zm-4.205 1.95c.393.787.24 1.732-.382 2.355a.68.68 0 1 0 .961.962 3.397 3.397 0 0 0 .638-3.925l-1.164-2.327a.68.68 0 1 0-1.216.608l1.163 2.328Zm4.813 5.834a.679.679 0 0 0-.3-.909.687.687 0 0 0-.914.297c-.05.095-1.258 2.348-4.834 2.348-3.576 0-4.785-2.253-4.832-2.344a.68.68 0 1 0-1.217.608c.063.126 1.6 3.096 6.049 3.096 4.45 0 5.985-2.97 6.048-3.096Z" fill="#6A8AFF"/><defs><radialGradient id="a" cx="0" cy="0" r="1" gradientUnits="userSpaceOnUse" gradientTransform="matrix(40.10529 63.1795 -72.43576 45.98102 37.908 44.5)"><stop stop-color="#686EFF"/><stop offset="1" stop-color="#71DDFF"/><stop offset="1" stop-color="#4DADCC"/></radialGradient><radialGradient id="c" cx="0" cy="0" r="1" gradientUnits="userSpaceOnUse" gradientTransform="matrix(40.10529 63.1795 -72.43576 45.98102 37.908 44.5)"><stop stop-color="#686EFF"/><stop offset="1" stop-color="#71DDFF"/><stop offset="1" stop-color="#4DADCC"/></radialGradient><radialGradient id="d" cx="0" cy="0" r="1" gradientUnits="userSpaceOnUse" gradientTransform="matrix(40.10529 63.1795 -72.43576 45.98102 37.908 44.5)"><stop stop-color="#686EFF"/><stop offset="1" stop-color="#71DDFF"/><stop offset="1" stop-color="#4DADCC"/></radialGradient><radialGradient id="e" cx="0" cy="0" r="1" gradientUnits="userSpaceOnUse" gradientTransform="matrix(40.10529 63.1795 -72.43576 45.98102 37.908 44.5)"><stop stop-color="#686EFF"/><stop offset="1" stop-color="#71DDFF"/><stop offset="1" stop-color="#4DADCC"/></radialGradient><radialGradient id="f" cx="0" cy="0" r="1" gradientUnits="userSpaceOnUse" gradientTransform="matrix(40.10529 63.1795 -72.43576 45.98102 37.908 44.5)"><stop stop-color="#686EFF"/><stop offset="1" stop-color="#71DDFF"/><stop offset="1" stop-color="#4DADCC"/></radialGradient><radialGradient id="g" cx="0" cy="0" r="1" gradientUnits="userSpaceOnUse" gradientTransform="matrix(40.10529 63.1795 -72.43576 45.98102 37.908 44.5)"><stop stop-color="#686EFF"/><stop offset="1" stop-color="#71DDFF"/><stop offset="1" stop-color="#4DADCC"/></radialGradient><radialGradient id="h" cx="0" cy="0" r="1" gradientUnits="userSpaceOnUse" gradientTransform="matrix(40.10529 63.1795 -72.43576 45.98102 37.908 44.5)"><stop stop-color="#686EFF"/><stop offset="1" stop-color="#71DDFF"/><stop offset="1" stop-color="#4DADCC"/></radialGradient><radialGradient id="i" cx="0" cy="0" r="1" gradientUnits="userSpaceOnUse" gradientTransform="matrix(40.10529 63.1795 -72.43576 45.98102 37.908 44.5)"><stop stop-color="#686EFF"/><stop offset="1" stop-color="#71DDFF"/><stop offset="1" stop-color="#4DADCC"/></radialGradient><radialGradient id="j" cx="0" cy="0" r="1" gradientUnits="userSpaceOnUse" gradientTransform="matrix(40.10529 63.1795 -72.43576 45.98102 37.908 44.5)"><stop stop-color="#686EFF"/><stop offset="1" stop-color="#71DDFF"/><stop offset="1" stop-color="#4DADCC"/></radialGradient><radialGradient id="k" cx="0" cy="0" r="1" gradientUnits="userSpaceOnUse" gradientTransform="matrix(40.10529 63.1795 -72.43576 45.98102 37.908 44.5)"><stop stop-color="#686EFF"/><stop offset="1" stop-color="#71DDFF"/><stop offset="1" stop-color="#4DADCC"/></radialGradient><radialGradient id="l" cx="0" cy="0" r="1" gradientUnits="userSpaceOnUse" gradientTransform="matrix(40.10529 63.1795 -72.43576 45.98102 37.908 44.5)"><stop stop-color="#686EFF"/><stop offset="1" stop-color="#71DDFF"/><stop offset="1" stop-color="#4DADCC"/></radialGradient><radialGradient id="m" cx="0" cy="0" r="1" gradientUnits="userSpaceOnUse" gradientTransform="matrix(40.10529 63.1795 -72.43576 45.98102 37.908 44.5)"><stop stop-color="#686EFF"/><stop offset="1" stop-color="#71DDFF"/><stop offset="1" stop-color="#4DADCC"/></radialGradient><radialGradient id="n" cx="0" cy="0" r="1" gradientUnits="userSpaceOnUse" gradientTransform="matrix(40.10529 63.1795 -72.43576 45.98102 37.908 44.5)"><stop stop-color="#686EFF"/><stop offset="1" stop-color="#71DDFF"/><stop offset="1" stop-color="#4DADCC"/></radialGradient><radialGradient id="o" cx="0" cy="0" r="1" gradientUnits="userSpaceOnUse" gradientTransform="matrix(40.10529 63.1795 -72.43576 45.98102 37.908 44.5)"><stop stop-color="#686EFF"/><stop offset="1" stop-color="#71DDFF"/><stop offset="1" stop-color="#4DADCC"/></radialGradient><radialGradient id="p" cx="0" cy="0" r="1" gradientUnits="userSpaceOnUse" gradientTransform="matrix(40.10529 63.1795 -72.43576 45.98102 37.908 44.5)"><stop stop-color="#686EFF"/><stop offset="1" stop-color="#71DDFF"/><stop offset="1" stop-color="#4DADCC"/></radialGradient><radialGradient id="q" cx="0" cy="0" r="1" gradientUnits="userSpaceOnUse" gradientTransform="matrix(40.10529 63.1795 -72.43576 45.98102 37.908 44.5)"><stop stop-color="#686EFF"/><stop offset="1" stop-color="#71DDFF"/><stop offset="1" stop-color="#4DADCC"/></radialGradient><radialGradient id="r" cx="0" cy="0" r="1" gradientUnits="userSpaceOnUse" gradientTransform="matrix(40.10529 63.1795 -72.43576 45.98102 37.908 44.5)"><stop stop-color="#686EFF"/><stop offset="1" stop-color="#71DDFF"/><stop offset="1" stop-color="#4DADCC"/></radialGradient><radialGradient id="s" cx="0" cy="0" r="1" gradientUnits="userSpaceOnUse" gradientTransform="matrix(40.10529 63.1795 -72.43576 45.98102 37.908 44.5)"><stop stop-color="#686EFF"/><stop offset="1" stop-color="#71DDFF"/><stop offset="1" stop-color="#4DADCC"/></radialGradient><radialGradient id="t" cx="0" cy="0" r="1" gradientUnits="userSpaceOnUse" gradientTransform="matrix(40.10529 63.1795 -72.43576 45.98102 37.908 44.5)"><stop stop-color="#686EFF"/><stop offset="1" stop-color="#71DDFF"/><stop offset="1" stop-color="#4DADCC"/></radialGradient><radialGradient id="u" cx="0" cy="0" r="1" gradientUnits="userSpaceOnUse" gradientTransform="matrix(40.10529 63.1795 -72.43576 45.98102 37.908 44.5)"><stop stop-color="#686EFF"/><stop offset="1" stop-color="#71DDFF"/><stop offset="1" stop-color="#4DADCC"/></radialGradient></defs></svg>