<svg width="178" height="186" viewBox="0 0 178 186" fill="none" xmlns="http://www.w3.org/2000/svg">
<g clip-path="url(#clip0_1628_4336)">
<path d="M65.8995 177.525C65.8995 177.525 68.5223 211.646 68.1885 238.696C67.9421 260.385 48.9387 310.256 48.9387 310.256L45.227 310.636C45.227 310.636 48.8513 268.866 51.6648 245.403C54.0492 225.512 45.3065 189.665 45.3065 189.665C45.3065 189.665 45.1555 283.103 46.5782 310.415H42.0399C42.0399 310.415 33.2972 294.831 29.8876 268.62C28.8782 260.757 30.7301 247.106 29.8876 238.696C27.4476 214.149 23.7598 184.541 26.5256 169.464" fill="#3D9DF0"/>
<path d="M46.6183 310.437C46.6452 310.329 46.6798 310.223 46.7216 310.12L47.0713 309.201C47.2223 308.797 47.421 308.299 47.6436 307.713C47.7628 307.42 47.882 307.103 48.0171 306.77C48.1522 306.438 48.2953 306.073 48.4304 305.685C49.559 302.621 51.1645 298.163 52.7779 292.549C54.6526 285.965 56.1283 279.275 57.1969 272.515C57.793 268.698 58.2858 264.675 58.6832 260.486C59.0806 256.297 59.319 251.958 59.478 247.508C59.7879 238.592 59.5972 230.087 59.3429 222.359C59.0885 214.63 58.7547 207.678 58.5481 201.826C58.3414 195.974 58.2143 191.254 58.1825 187.976C58.1825 186.345 58.1825 185.07 58.1825 184.215C58.1825 183.779 58.1825 183.423 58.1825 183.233C58.172 183.122 58.172 183.011 58.1825 182.9C58.1911 183.011 58.1911 183.122 58.1825 183.233C58.1825 183.455 58.1825 183.779 58.1825 184.207C58.1825 185.07 58.2302 186.345 58.2858 187.976C58.3732 191.247 58.5401 195.974 58.8024 201.818C59.0647 207.662 59.4144 214.614 59.7085 222.343C60.0025 230.071 60.1853 238.592 59.8754 247.524C59.7244 251.982 59.478 256.337 59.0806 260.534C58.6832 264.731 58.254 268.785 57.6341 272.586C56.5397 279.36 55.0213 286.059 53.0879 292.644C51.4347 298.258 49.7736 302.7 48.5894 305.757C48.4463 306.137 48.2953 306.493 48.1522 306.826C48.0092 307.158 47.882 307.475 47.7628 307.768L47.1428 309.241L46.7534 310.136C46.7208 310.241 46.6755 310.342 46.6183 310.437Z" fill="#32383F"/>
<path d="M43.4153 310.277C43.3817 310.166 43.3604 310.052 43.3517 309.937C43.3517 309.715 43.2643 309.382 43.1928 308.947C43.0735 308.068 42.8907 306.777 42.6523 305.122C42.1993 301.796 41.5475 296.982 40.7687 291.027C40.3792 288.058 39.9739 284.795 39.5288 281.295C39.0837 277.795 38.6466 274.05 38.1776 270.106C37.2716 262.227 36.3417 253.549 35.5469 244.427C34.7521 235.304 34.2355 226.578 33.9017 218.652C33.8381 216.667 33.7745 214.735 33.7109 212.855C33.7109 212.38 33.695 211.913 33.6632 211.454V210.076C33.6632 209.165 33.6632 208.263 33.6235 207.384C33.5838 206.505 33.6235 205.634 33.6235 204.786C33.6235 203.939 33.6235 203.1 33.6235 202.276C33.6235 200.637 33.6235 199.109 33.6235 197.565C33.6235 194.563 33.7268 191.847 33.7904 189.464C33.8301 188.276 33.854 187.168 33.9017 186.146C33.9494 185.125 34.005 184.198 34.0527 183.359C34.1481 181.68 34.2196 180.381 34.2752 179.494L34.3468 178.497C34.3476 178.382 34.3609 178.268 34.3865 178.156C34.3951 178.27 34.3951 178.383 34.3865 178.497C34.3865 178.726 34.3865 179.059 34.3865 179.502C34.3865 180.389 34.315 181.688 34.2514 183.367C34.2514 184.198 34.1878 185.132 34.1481 186.154C34.1083 187.175 34.1004 188.284 34.0765 189.472C34.0765 191.847 33.9494 194.571 33.9812 197.565V202.268C33.9812 203.06 33.9812 203.923 34.0209 204.77C34.0606 205.618 34.0209 206.489 34.0686 207.368C34.1163 208.247 34.0686 209.149 34.1163 210.06C34.1163 210.511 34.1163 210.971 34.1163 211.438L34.164 212.832C34.2328 214.711 34.3044 216.643 34.3785 218.628C34.7362 226.547 35.2846 235.257 36.0635 244.371C36.8424 253.485 37.7723 262.164 38.6466 270.051C39.1075 274.01 39.5288 277.732 39.958 281.24C40.3872 284.748 40.7528 288.002 41.1422 290.98C41.8734 296.934 42.4616 301.757 42.8748 305.083C43.0735 306.753 43.2245 308.044 43.3279 308.923C43.3279 309.367 43.4073 309.715 43.4312 309.929C43.4352 310.045 43.4299 310.162 43.4153 310.277Z" fill="#32383F"/>
<path d="M23.9271 83.5558L34.8555 81.8691L57.8408 82.1146L63.9845 83.2153L50.0121 138.004L32.8129 135.937L23.9271 83.5558Z" fill="#E0E0E0"/>
<path d="M45.0296 87.8389C45.0296 87.8389 37.6142 137.409 45.8243 155.036L51.4991 160.151L56.9514 153.294C56.9514 153.294 48.8525 136.158 47.8431 116.164C46.8337 96.1693 47.5252 87.7598 47.5252 87.7598L45.0296 87.8389Z" fill="#F9AC30"/>
<path d="M36.9381 71.3617V81.7192C36.9381 81.7192 42.3188 89.226 50.3939 84.5936L54.9083 81.4262V70.5303L36.9381 71.3617Z" fill="#FCCAB1"/>
<path d="M34.2355 81.6777L34.5613 77.9243L44.3929 82.5883L43.9319 88.0284L34.2355 81.6777Z" fill="#EAEAEA"/>
<path d="M44.3934 82.5894L45.9035 86.0894L44.0516 86.5882L44.3934 82.5894Z" fill="#CECECE"/>
<path d="M45.9041 86.0893L47.1439 82.5894L48.4792 86.8574L45.9041 86.0893Z" fill="#CECECE"/>
<path d="M56.2043 78.1699C56.2043 78.3125 47.1437 82.5885 47.1437 82.5885L48.4869 87.7593L57.8574 82.1134L56.2043 78.1699Z" fill="#EAEAEA"/>
<path d="M17.2195 86.5264C17.6964 85.2831 17.9666 84.5942 17.9666 84.5942L32.2013 82.1157L44.0516 130.886L44.7112 172.015L40.173 185.215L21.0186 184.059L25.0799 157.991L20.6291 116.173" fill="#4BABFF"/>
<path d="M70.5737 107.986C70.196 99.9924 71.3007 91.9983 73.8324 84.4042L57.8571 82.1157L44.0516 130.886L44.155 173.646L46.9447 183.267L70.2956 181.684C70.2956 181.684 64.6287 136.437 64.5492 135.495C64.4698 134.552 70.5737 107.986 70.5737 107.986Z" fill="#4BABFF"/>
<path d="M18.1803 86.5879C18.2739 86.9534 18.3299 87.3275 18.3472 87.7044C18.4267 88.4329 18.53 89.4782 18.6651 90.761C18.9354 93.3424 19.3487 96.8978 19.8096 100.825C20.2706 104.753 20.6044 108.324 20.8111 110.922C20.9064 112.212 20.9621 113.297 20.978 113.986C21.0208 114.362 21.0208 114.742 20.978 115.118C20.8795 114.754 20.8235 114.379 20.8111 114.002C20.7316 113.273 20.6203 112.236 20.4852 110.945C20.2229 108.372 19.8096 104.816 19.3407 100.881C18.8718 96.9453 18.5459 93.382 18.3393 90.7926C18.2518 89.494 18.1962 88.4171 18.1724 87.7202C18.1288 87.3439 18.1315 86.9636 18.1803 86.5879Z" fill="#3C87DF"/>
<path d="M29.4509 82.5908C29.7529 82.5433 32.2009 110.227 32.2009 110.227L36.9696 116.047L36.1748 119.792L44.0433 134.125V130.886L32.2009 82.1157L29.4509 82.5908Z" fill="#3C87DF"/>
<path d="M44.0594 85.6697L48.0969 85.5034L48.9474 87.7998L44.0038 88.1403L44.0594 85.6697Z" fill="#E8900F"/>
<path d="M45.077 85.5034L44.8545 89.0905L47.3978 89.5023L47.525 85.5588L45.077 85.5034Z" fill="#F9AC30"/>
<path d="M73.9192 84.709C73.9907 84.709 73.6171 86.0155 73.1244 88.106C72.9893 88.6366 72.8462 89.2067 72.7111 89.8244C72.576 90.442 72.417 91.0993 72.266 91.7961C71.9799 93.1897 71.6858 94.7339 71.4712 96.3572C71.2566 97.9805 71.0261 99.5246 70.8751 100.95C70.8115 101.663 70.74 102.336 70.6923 102.969C70.6446 103.603 70.6049 104.189 70.5651 104.727C70.5438 105.892 70.4615 107.055 70.3188 108.211C70.2485 107.905 70.2191 107.591 70.2313 107.277C70.2313 106.968 70.2313 106.604 70.2313 106.168C70.2313 105.733 70.2313 105.25 70.2313 104.711C70.2313 104.173 70.2313 103.571 70.3029 102.937C70.3744 102.304 70.3823 101.623 70.438 100.91C70.5652 99.485 70.748 97.9171 71.0023 96.278C71.2566 94.6388 71.5666 93.1106 71.8766 91.7011C72.0435 91.0042 72.1945 90.3391 72.3614 89.7293C72.5283 89.1196 72.6872 88.5416 72.8382 88.0189C72.9893 87.4963 73.1403 87.037 73.2674 86.6253C73.3946 86.2135 73.5218 85.8334 73.6251 85.58C73.6882 85.2791 73.7869 84.9867 73.9192 84.709Z" fill="#3C87DF"/>
<path d="M44.0993 133.665L51.9916 117.678L50.8868 114.669L56.0688 109.514L59.9236 82.4721L57.8412 82.1157L44.0516 130.886L44.0993 133.665Z" fill="#3C87DF"/>
<path d="M57.3873 111.881L61.1308 106.401C61.1308 106.401 61.8381 106.662 62.1084 106.749C62.3786 106.836 62.4581 111.611 62.4581 111.611L57.3873 111.881Z" fill="#E0E0E0"/>
<path d="M56.6082 111.444H62.9109C63.0895 111.932 63.0895 112.468 62.9109 112.956L56.3777 113.035L56.6082 111.444Z" fill="#3C87DF"/>
<path d="M44.4164 171.988C44.3231 171.494 44.2699 170.994 44.2575 170.492C44.1859 169.526 44.0985 168.116 44.019 166.398C43.8521 162.945 43.7011 158.17 43.6614 152.889C43.6216 147.607 43.7091 142.832 43.8203 139.372C43.8839 137.646 43.9395 136.244 44.0031 135.278C44.0072 134.776 44.0524 134.276 44.1382 133.781C44.2057 134.28 44.2243 134.784 44.1939 135.286C44.1939 136.26 44.1939 137.661 44.1939 139.38C44.1939 142.84 44.1382 147.615 44.1939 152.889C44.2495 158.162 44.329 162.929 44.4085 166.39C44.4085 168.116 44.472 169.51 44.4959 170.484C44.5086 170.987 44.482 171.49 44.4164 171.988Z" fill="#3C87DF"/>
<path d="M47.5241 144.933C47.5241 145.095 47.4597 145.25 47.3449 145.364C47.2301 145.478 47.0745 145.543 46.9122 145.543C46.7498 145.543 46.5942 145.478 46.4794 145.364C46.3646 145.25 46.3002 145.095 46.3002 144.933C46.3002 144.771 46.3646 144.616 46.4794 144.502C46.5942 144.387 46.7498 144.323 46.9122 144.323C47.0745 144.323 47.2301 144.387 47.3449 144.502C47.4597 144.616 47.5241 144.771 47.5241 144.933Z" fill="#3C87DF"/>
<path d="M47.5241 152.89C47.5241 153.011 47.4883 153.128 47.421 153.229C47.3538 153.329 47.2582 153.407 47.1464 153.453C47.0345 153.499 46.9115 153.512 46.7928 153.488C46.6741 153.464 46.565 153.406 46.4794 153.321C46.3938 153.236 46.3355 153.127 46.3119 153.009C46.2883 152.891 46.3004 152.768 46.3468 152.657C46.3931 152.545 46.4715 152.45 46.5722 152.383C46.6728 152.316 46.7911 152.28 46.9122 152.28C46.9925 152.28 47.0721 152.296 47.1464 152.327C47.2206 152.357 47.2881 152.402 47.3449 152.459C47.4017 152.515 47.4468 152.583 47.4776 152.657C47.5083 152.731 47.5241 152.81 47.5241 152.89Z" fill="#3C87DF"/>
<path d="M58.4362 139.618C58.4362 139.753 53.4291 140.735 47.1979 141.82C40.9668 142.904 35.8881 143.672 35.8642 143.546C35.8404 143.419 40.8793 142.429 47.1105 141.344C53.3416 140.26 58.4124 139.491 58.4362 139.618Z" fill="#3C87DF"/>
<path d="M30.3894 49.5859C29.5231 49.871 24.8259 50.8767 26.4154 56.9423C28.005 63.0079 32.1061 61.5905 32.1061 61.5905L30.3894 49.5859Z" fill="#EAB69B"/>
<path d="M30.604 59.3226C30.604 59.3226 30.4848 59.3702 30.2782 59.3226C29.979 59.278 29.6907 59.1787 29.4277 59.0297C29.0471 58.8034 28.715 58.5047 28.4501 58.1507C28.2903 57.9365 28.1543 57.7054 28.0448 57.4618C27.9308 57.2087 27.8481 56.9428 27.7984 56.6699C27.7186 56.1188 27.7731 55.5565 27.9574 55.0308C28.1014 54.6078 28.3283 54.2175 28.625 53.8826C28.8205 53.6562 29.0546 53.4659 29.3165 53.3204C29.5072 53.2254 29.6264 53.2016 29.6423 53.2254C29.6582 53.2491 29.2926 53.5263 28.8952 54.0964C28.6654 54.4221 28.4909 54.7833 28.3786 55.1654C28.1605 55.8675 28.1942 56.6234 28.474 57.3034C28.5675 57.5183 28.6792 57.725 28.8078 57.9211C29.0241 58.2452 29.2926 58.5315 29.6026 58.7683C30.1748 59.1643 30.6199 59.2435 30.604 59.3226Z" fill="#D68772"/>
<path d="M31.0245 56.5685C30.9609 56.5685 30.8337 56.418 30.5715 56.2201C30.2565 55.9581 29.8522 55.8276 29.4429 55.8558C29.1722 55.8852 28.9129 55.9803 28.6878 56.133C28.5169 56.253 28.3643 56.397 28.2348 56.5606L27.9964 56.426C28.1474 56.2676 28.2586 56.1884 28.2984 56.2122C28.3381 56.2359 28.2984 56.3705 28.2268 56.5685L27.9884 56.4339C28.0829 56.179 28.2417 55.9527 28.4494 55.7766C28.7201 55.5371 29.059 55.3876 29.419 55.349C29.7175 55.3264 30.0166 55.3839 30.2853 55.5153C30.4984 55.618 30.6858 55.7668 30.8337 55.9509C31.0642 56.2834 31.0801 56.5685 31.0245 56.5685Z" fill="#D68772"/>
<path d="M61.4572 48.6489C62.3156 48.934 67.0207 49.9397 65.4312 56.0053C63.8416 62.0709 59.7405 60.6534 59.7405 60.6534L61.4572 48.6489Z" fill="#EAB69B"/>
<path d="M61.2351 58.4287C61.2351 58.3495 61.6722 58.2624 62.2286 57.8586C62.5389 57.6221 62.8075 57.3357 63.0234 57.0113C63.1534 56.8188 63.2651 56.6147 63.3572 56.4016C63.4474 56.1713 63.514 55.9325 63.5559 55.6889C63.6272 55.2094 63.5919 54.7201 63.4526 54.2557C63.3429 53.874 63.171 53.5128 62.9439 53.1867C62.5465 52.6165 62.1491 52.3948 62.1968 52.3156C62.2445 52.2364 62.324 52.3156 62.5147 52.4106C62.7779 52.5541 63.0124 52.7447 63.2062 52.9729C63.5082 53.3053 63.7381 53.6961 63.8818 54.121C64.0795 54.6491 64.1424 55.2178 64.0646 55.776C64.021 56.0494 63.9408 56.3157 63.8261 56.5679C63.7166 56.8115 63.5807 57.0425 63.4208 57.2568C63.1482 57.6197 62.8049 57.9241 62.4114 58.1516C62.1516 58.3012 61.8657 58.4006 61.5689 58.4446C61.3543 58.4762 61.2431 58.4525 61.2351 58.4287Z" fill="#D68772"/>
<path d="M60.8136 55.657C60.758 55.657 60.8136 55.3799 61.0282 55.0631C61.1796 54.8825 61.3662 54.7344 61.5766 54.6276C61.8447 54.4946 62.145 54.4397 62.4429 54.4692C62.8051 54.5029 63.1472 54.6498 63.4205 54.8889C63.6134 55.062 63.7607 55.2795 63.8497 55.5224L63.6192 55.6649C63.5318 55.459 63.5 55.3323 63.5477 55.3086C63.5954 55.2848 63.6908 55.3561 63.8418 55.5145L63.6113 55.6491C63.4786 55.4856 63.3234 55.3417 63.1503 55.2215C62.9132 55.0636 62.6397 54.9682 62.3555 54.9443C61.9497 54.9244 61.5508 55.0541 61.2349 55.3086C61.0362 55.5066 60.8852 55.6887 60.8136 55.657Z" fill="#D68772"/>
<path d="M57.3083 74.3711C52.5395 79.2964 35.3403 75.7885 32.9639 73.5792C30.5875 71.3699 29.2443 43.1086 29.2443 43.1086C28.2826 28.5464 36.6676 27.6437 44.7347 25.5849C52.8018 23.5261 61.4253 28.1663 62.2201 40.1946C62.2042 40.1946 61.1392 70.3722 57.3083 74.3711Z" fill="#FCCAB1"/>
<path d="M30.5154 60.829C42.4373 61.1616 52.9523 60.251 61.2976 57.2974C61.2976 57.2974 59.7796 69.6978 59.3663 71.0202C58.4205 74.0134 57.9833 77.8381 45.2826 76.7216C32.5819 75.6051 32.8521 74.5994 31.8109 71.7487C31.2387 70.1808 30.428 60.9557 30.5154 60.829Z" fill="#B76A2B"/>
<path d="M39.3936 64.4408C40.3947 65.216 41.5525 65.766 42.7872 66.053C44.022 66.3401 45.3045 66.3574 46.5467 66.1037C47.8004 65.8183 48.9801 65.274 50.0096 64.5061C51.0391 63.7382 51.8955 62.7637 52.5235 61.6455" fill="#ECE9DE"/>
<path d="M48.7009 56.7419C48.5199 56.9615 48.3054 57.1512 48.065 57.3041C47.4482 57.7674 46.8002 58.188 46.1258 58.5632C45.6554 58.8313 45.1603 59.054 44.6475 59.2283C44.5042 59.2763 44.3582 59.3159 44.2103 59.3471L43.9719 59.3946C43.8898 59.3988 43.8076 59.3988 43.7255 59.3946C43.6283 59.4128 43.5286 59.4128 43.4314 59.3946C43.3038 59.3571 43.1956 59.272 43.1294 59.1571C43.0416 58.98 42.998 58.7844 43.0022 58.5869C43.0034 58.2435 43.0407 57.9011 43.1135 57.5654C43.1771 57.2329 43.2645 56.8924 43.3599 56.5519C43.5427 55.8709 43.7732 55.1819 44.0196 54.4851C44.5123 53.0835 45.0448 51.777 45.5376 50.5892C45.6568 50.2962 45.784 50.0111 45.8953 49.7261C45.8953 49.6627 45.9509 49.5915 45.9827 49.5281V49.4331C45.9827 49.4331 45.9827 49.3856 45.9827 49.3539V49.1718C45.9827 49.1084 45.9827 49.0372 45.9827 48.9659C45.935 48.4195 45.8476 47.889 45.7761 47.3822C45.5521 46.3631 45.3875 45.332 45.2833 44.2939C45.4189 44.541 45.5128 44.8085 45.5615 45.0858C45.7125 45.6084 45.9112 46.3686 46.1099 47.3188C46.2278 47.8416 46.318 48.3703 46.3801 48.9025C46.3843 48.9764 46.3843 49.0504 46.3801 49.1243V49.441V49.5835C46.3717 49.6246 46.3583 49.6645 46.3403 49.7023L46.2609 49.9161C46.1496 50.2012 46.0383 50.4942 45.9191 50.7872C45.4502 51.9829 44.9336 53.2894 44.4408 54.6752C44.2024 55.372 43.9719 56.053 43.7811 56.7102C43.6858 57.0428 43.6063 57.3675 43.5347 57.6921C43.4658 57.9938 43.4259 58.3014 43.4155 58.6107C43.4362 58.7299 43.4823 58.8433 43.5506 58.9433C43.5506 58.9433 43.5506 58.9433 43.5983 58.9908H43.956H44.1626C44.2994 58.9666 44.4347 58.9349 44.568 58.8957C45.0389 58.719 45.4959 58.5073 45.935 58.2623C46.7934 57.8347 47.461 57.4229 47.9299 57.1458C48.1659 56.9745 48.4256 56.8385 48.7009 56.7419Z" fill="#E2A893"/>
<path d="M49.3768 40.9855L59.0017 41.904L59.3912 39.6869L49.4325 37.2559L49.3768 40.9855Z" fill="#B9682B"/>
<path d="M49.7739 49.0206C49.7739 49.0206 51.0933 43.9606 54.7652 44.4436C58.4371 44.9267 58.7391 49.369 58.7391 49.369L49.7739 49.0206Z" fill="#EFA98E"/>
<path d="M49.7738 49.0197C49.9935 48.0373 50.5503 47.162 51.3483 46.5448C52.1463 45.9275 53.1354 45.607 54.1451 45.6385C57.9919 45.4643 58.7629 49.3681 58.7629 49.3681C58.7629 49.3681 51.8323 49.1543 49.7738 49.0197Z" fill="#ECE9DE"/>
<path d="M52.0312 49.1343C52.0312 49.1343 52.1346 46.4658 54.5428 46.3629C56.951 46.2599 56.8636 49.3719 56.8636 49.3719C55.25 49.5359 53.6208 49.4558 52.0312 49.1343Z" fill="#603934"/>
<path d="M58.7627 49.369C58.6753 49.369 58.5164 48.696 57.9203 47.7853C57.5655 47.2548 57.1057 46.8021 56.5691 46.455C55.9138 46.0466 55.1565 45.8298 54.3835 45.8294C53.6045 45.8354 52.8404 46.0427 52.166 46.4312C51.603 46.7383 51.1061 47.1526 50.7036 47.6507C50.0201 48.5217 49.8293 49.2344 49.7498 49.1869C49.6704 49.1394 49.7498 48.9969 49.8293 48.688C50.1272 47.7207 50.7273 46.8734 51.5421 46.2695C52.357 45.6656 53.3441 45.3367 54.3596 45.3306C55.2255 45.3311 56.0719 45.5874 56.7917 46.067C57.3658 46.4612 57.8416 46.9813 58.1826 47.5874C58.5417 48.1144 58.7429 48.7323 58.7627 49.369Z" fill="#443949"/>
<path d="M57.6982 48.0232C57.6982 48.1578 57.277 48.3082 56.7286 48.3082C56.1802 48.3082 55.743 48.1578 55.751 48.0232C55.7589 47.8885 56.196 47.8252 56.7286 47.8252C57.2611 47.8252 57.6902 47.8965 57.6982 48.0232Z" fill="white"/>
<path d="M34.0133 48.7212C34.0133 48.7212 35.3327 43.6613 39.0046 44.1443C42.6765 44.6274 42.9785 49.0697 42.9785 49.0697L34.0133 48.7212Z" fill="#EFA98E"/>
<path d="M34.0133 48.7204C34.2346 47.7373 34.793 46.8619 35.5923 46.2447C36.3916 45.6276 37.3819 45.3074 38.3926 45.3392C42.2314 45.1649 43.0024 49.0688 43.0024 49.0688C43.0024 49.0688 36.0639 48.855 34.0133 48.7204Z" fill="#ECE9DE"/>
<path d="M36.7628 48.8316C36.7628 48.8316 36.8741 46.1631 39.2823 46.0601C41.6905 45.9572 41.6031 49.0692 41.6031 49.0692C39.9867 49.2282 38.3557 49.1482 36.7628 48.8316Z" fill="#603934"/>
<path d="M42.9861 49.0692C42.9066 49.0692 42.7476 48.3882 42.1436 47.4855C41.7918 46.9552 41.3347 46.5024 40.8004 46.1551C40.1476 45.7289 39.3871 45.4956 38.6068 45.4821C37.829 45.4895 37.0659 45.6938 36.3893 46.076C35.833 46.3929 35.3443 46.8152 34.9507 47.3192C34.2752 48.1902 34.0844 48.9029 33.997 48.8474C33.9096 48.792 33.997 48.6653 34.0765 48.3486C34.4242 47.2394 35.1678 46.2957 36.1668 45.6959C36.9005 45.2449 37.7447 45.0038 38.6068 44.999C39.4729 44.9981 40.3197 45.2545 41.0388 45.7355C41.6131 46.1319 42.0911 46.6514 42.4376 47.2558C42.7947 47.7938 42.9854 48.4243 42.9861 49.0692Z" fill="#443949"/>
<path d="M41.9604 47.7249C41.9604 47.8595 41.5392 48.0021 40.9908 48.0021C40.4424 48.0021 40.0052 47.8595 40.0132 47.7249C40.0211 47.5903 40.4662 47.519 40.9908 47.519C41.5153 47.519 41.9127 47.5903 41.9604 47.7249Z" fill="white"/>
<path d="M33.0197 41.9029C33.0197 41.9029 43.1373 41.7524 43.2009 41.5624C43.2645 41.3723 43.2009 37.7061 43.2009 37.7061L33.0197 39.7966V41.9029Z" fill="#B9682B"/>
<path d="M30.5559 52.3174C30.5559 52.3174 28.3464 35.1895 32.4237 30.7155C32.4237 30.7155 52.0232 36.6941 55.3613 34.2314C58.6994 31.7687 59.0014 30.4384 59.0014 30.4384C59.0014 30.4384 60.44 38.0481 61.2348 40.9859C62.0296 43.9237 61.2348 49.6092 61.2348 49.6092L62.5541 49.0549C62.5541 49.0549 63.8099 29.4248 62.276 28.53C60.742 27.6352 53.4379 20.2393 46.5312 22.3694C39.6245 24.4995 27.7106 30.2404 27.655 34.4452C27.5993 38.6499 29.8327 52.5391 29.8327 52.5391L30.5559 52.3174Z" fill="#B76A2B"/>
<path d="M56.9592 19.8111C59.5582 21.9571 58.819 25.8926 58.819 25.8926C59.2441 25.5958 59.7505 25.4366 60.2695 25.4366C60.7885 25.4366 61.295 25.5958 61.72 25.8926C63.087 26.9695 62.9201 31.3881 62.9201 31.3881L54.5033 28.5295L42.6927 23.7308C42.6927 23.7308 54.3603 17.6652 56.9592 19.8111Z" fill="#B76A2B"/>
<path d="M32.4225 30.7144C32.4225 30.7144 27.2644 34.3173 27.6538 36.9225L28.1386 40.5492L30.1494 38.2132C30.1494 38.2132 30.9204 33.47 32.4225 30.7144Z" fill="#D17933"/>
<path d="M50.0133 20.5394C54.2416 27.769 34.7374 31.3878 34.7374 31.3878L40.301 32.8369C58.907 28.062 53.7806 19.4941 53.7806 19.4941" fill="#D17933"/>
<path d="M49.6464 34.6433C49.6464 34.6433 58.6513 29.9872 58.8182 25.8933C58.8182 25.8933 59.915 25.0302 60.8132 25.4578C60.8132 25.4578 61.3774 30.5019 52.6427 34.8254L49.6464 34.6433Z" fill="#D17933"/>
<path d="M59.3907 32.48C59.3907 32.48 62.8242 32.6779 62.9276 33.5331L63.0388 37.2628L59.8597 34.8872L59.3907 32.48Z" fill="#D17933"/>
<path d="M51.1487 41.159L50.4095 37.4927L52.6429 38.0391L53.4059 41.3728L51.1487 41.159Z" fill="#D17933"/>
<path d="M55.0037 41.5239L54.6858 38.5386L55.2342 38.6732L55.9893 41.6189L55.0037 41.5239Z" fill="#D17933"/>
<path d="M42.3028 37.8877L41.4762 41.6173L39.6641 41.7599L40.745 38.2124L42.3028 37.8877Z" fill="#D17933"/>
<path d="M37.804 41.8071L38.4955 38.6714L37.5974 39.0594L37.1284 40.9836L36.8741 39.0832L35.7375 39.2415L35.9919 41.8071H37.804Z" fill="#D17933"/>
<path d="M57.7218 160.879L67.4659 159.137L69.1668 162.447L58.5484 164.703L57.7218 160.879Z" fill="#3C87DF"/>
<path d="M24.1823 161.243L31.9156 163.001L31.2401 166.501L22.6802 164.703L24.1823 161.243Z" fill="#3C87DF"/>
<path d="M73.7109 84.3032C73.7109 84.3032 89.7904 129.229 76.1041 141.028C75.345 141.676 74.4046 142.076 73.4098 142.176C72.4149 142.275 71.4135 142.067 70.5406 141.582L24.7607 129.759L31.9138 124.129C31.9138 124.129 65.2076 129.229 67.6158 125.46C71.4626 119.426 57.0045 89.0148 73.7109 84.3032Z" fill="#4BABFF"/>
<path d="M43.8917 125.649C44.1075 125.649 44.3228 125.668 44.5355 125.704L46.3794 125.926C47.969 126.116 50.2977 126.385 53.1669 126.607C54.6055 126.71 56.1792 126.797 57.8641 126.828C59.6578 126.876 61.4527 126.805 63.2369 126.615C64.1917 126.51 65.1323 126.303 66.0425 125.997C66.4961 125.843 66.9225 125.618 67.3062 125.332C67.4884 125.192 67.6467 125.023 67.7751 124.833C67.9002 124.647 67.9842 124.436 68.0215 124.215C68.0254 124.157 68.0254 124.099 68.0215 124.041C68.0257 123.983 68.0257 123.925 68.0215 123.867V122.695C68.0215 122.164 68.0215 121.642 68.0215 121.111C68.0215 120.042 67.9261 118.965 67.8467 117.88C67.7274 116.297 67.5605 114.816 67.3539 113.351C67.2426 112.623 67.1234 111.902 66.9962 111.197C66.8691 110.492 66.7181 109.796 66.5512 109.138C66.0162 106.119 65.708 103.065 65.6292 100C65.5671 97.5742 65.9579 95.1577 66.7817 92.8737C67.1234 91.9076 67.4731 91.0683 67.7751 90.3319L68.1884 89.2549L68.5302 88.3918C68.7448 87.8771 68.8878 87.4733 68.9912 87.2119C69.0353 87.069 69.0995 86.9331 69.1819 86.8081C69.1594 86.954 69.1221 87.0973 69.0706 87.2357C68.9832 87.5129 68.864 87.9246 68.6812 88.4472L68.3712 89.3183C68.252 89.635 68.1248 89.9834 67.9818 90.3556C67.7036 91.1475 67.3698 91.9393 67.0519 92.9133C66.2766 95.1848 65.929 97.5794 66.0266 99.9767C66.131 103.016 66.4578 106.044 67.0042 109.035C67.179 109.724 67.3221 110.421 67.4572 111.134C67.5923 111.847 67.7195 112.567 67.8228 113.311C68.0374 114.784 68.2123 116.313 68.3315 117.865C68.411 118.965 68.4746 120.05 68.5063 121.119C68.5063 121.65 68.5063 122.18 68.5063 122.703C68.5063 122.964 68.5063 123.226 68.5063 123.495V123.891C68.5102 123.959 68.5102 124.028 68.5063 124.097C68.5102 124.168 68.5102 124.239 68.5063 124.31C68.4591 124.594 68.3507 124.864 68.1884 125.102C68.0293 125.333 67.8364 125.538 67.6162 125.712C67.1904 126.025 66.7186 126.271 66.2173 126.44C65.2739 126.754 64.2982 126.961 63.3084 127.058C61.5028 127.246 59.6862 127.307 57.8721 127.24C56.1712 127.193 54.5975 127.082 53.159 126.955C50.2818 126.694 47.969 126.369 46.3715 126.163C45.5767 126.037 44.9567 125.926 44.5355 125.847C44.3143 125.804 44.0984 125.738 43.8917 125.649Z" fill="#3C87DF"/>
<path d="M24.8014 117.146C24.8014 117.146 33.0751 118.889 32.9321 124.115L28.4892 128.43C28.4892 128.43 25.0637 126.308 24.8014 117.146Z" fill="#FCCAB1"/>
<path d="M17.544 84.7915C17.544 84.7915 6.98925 102.363 9.88228 127.132C12.6561 150.682 41.96 140.934 41.96 140.934L63.8961 132.699L60.2401 123.957C60.2401 123.957 26.5172 139.604 25.6032 121.581C25.023 110.17 34.2505 89.4397 17.544 84.7915Z" fill="#4BABFF"/>
<path d="M62.459 129.823C62.3808 129.711 62.3092 129.594 62.2444 129.474L61.696 128.437C61.2192 127.526 60.5357 126.188 59.6693 124.478L59.8362 124.549C56.9909 125.452 53.168 126.552 48.6695 127.716C46.4202 128.287 44.004 128.872 41.4528 129.411C40.1732 129.68 38.8538 129.926 37.4788 130.132C36.0978 130.36 34.6975 130.453 33.2982 130.409C32.1352 130.374 30.9882 130.13 29.9124 129.688C29.3836 129.463 28.8866 129.17 28.4341 128.817L28.1083 128.54C27.997 128.445 27.9096 128.334 27.8063 128.231C27.6159 128.025 27.4381 127.809 27.2737 127.582C26.6809 126.671 26.2457 125.667 25.9862 124.612C25.716 123.599 25.5332 122.593 25.3504 121.619C25.1676 120.645 24.9768 119.711 24.8178 118.776C24.7463 118.317 24.6668 117.858 24.6033 117.406C24.5397 116.955 24.492 116.504 24.4363 116.068C24.2377 114.318 24.1264 112.679 24.0548 111.182C23.9833 109.686 23.9674 108.324 23.9754 107.136C23.9833 105.948 24.0151 104.919 24.0548 104.079C24.0946 103.24 24.1582 102.599 24.2138 102.163C24.2268 101.938 24.2668 101.714 24.333 101.498C24.349 101.722 24.349 101.947 24.333 102.171C24.333 102.607 24.2853 103.256 24.2694 104.087C24.2535 104.919 24.2694 105.948 24.2694 107.136C24.2694 108.324 24.3251 109.67 24.4205 111.159C24.5158 112.647 24.643 114.279 24.8576 116.021C24.9212 116.456 24.9768 116.9 25.0404 117.343C25.104 117.787 25.1914 118.246 25.2629 118.705C25.4219 119.624 25.6285 120.566 25.8193 121.54C26.01 122.514 26.1849 123.504 26.4551 124.494C26.6937 125.489 27.0995 126.436 27.6552 127.297C27.8063 127.508 27.9709 127.709 28.148 127.898C28.2347 127.997 28.3276 128.089 28.4262 128.176L28.7203 128.437C28.8243 128.52 28.9331 128.596 29.0461 128.667C29.1574 128.73 29.2607 128.817 29.3799 128.88L29.7296 129.07C29.8489 129.134 29.976 129.181 30.0952 129.237C31.1178 129.657 32.2086 129.887 33.3141 129.918C34.6813 129.956 36.0491 129.866 37.3994 129.648C38.7425 129.443 40.046 129.205 41.3256 128.944C43.8689 128.421 46.2851 127.851 48.5343 127.297C53.0329 126.188 56.8637 125.143 59.725 124.296H59.8362L59.8919 124.398C60.6867 126.117 61.3622 127.471 61.7914 128.405C62.014 128.865 62.1809 129.197 62.2842 129.474C62.3573 129.582 62.4161 129.7 62.459 129.823Z" fill="#3C87DF"/>
<path d="M67.8237 117.884L59.9235 125.462L62.4588 129.833C62.4588 129.833 68.2608 125.462 68.388 124.67C68.5151 123.878 67.8237 117.884 67.8237 117.884Z" fill="#FCCAB1"/>
</g>
<path d="M138.661 100.337L132.11 110.648L88.4171 84.1922L94.9677 73.8843L138.661 100.337Z" fill="#5D7A7F"/>
<path opacity="0.18" d="M89.6421 84.8748L114.764 86.1389L96.0434 74.4971C96.0434 74.4971 93.0541 80.6618 89.6421 84.8748Z" fill="black"/>
<path opacity="0.3" d="M51.6532 99.6192C78.0485 99.6192 99.4461 78.3587 99.4461 52.1326C99.4461 25.9065 78.0485 4.646 51.6532 4.646C25.2579 4.646 3.86023 25.9065 3.86023 52.1326C3.86023 78.3587 25.2579 99.6192 51.6532 99.6192Z" fill="#F2F2F2"/>
<path d="M176.925 129.559L174.146 134.025C173.714 134.725 173.145 135.334 172.473 135.815C171.802 136.296 171.04 136.641 170.233 136.83C169.425 137.018 168.588 137.046 167.769 136.913C166.95 136.779 166.167 136.487 165.463 136.052L121.384 108.796C121.149 108.651 120.983 108.42 120.92 108.154C120.857 107.888 120.902 107.608 121.047 107.375L129.393 93.978C129.464 93.8634 129.558 93.7639 129.669 93.6851C129.779 93.6064 129.905 93.5499 130.037 93.519C130.17 93.4881 130.308 93.4834 130.442 93.505C130.577 93.5267 130.706 93.5744 130.821 93.6453L174.898 120.901C176.321 121.79 177.332 123.198 177.711 124.819C178.091 126.439 177.808 128.143 176.925 129.559Z" fill="#153E49"/>
<path d="M138.66 97.7041L129.421 113.099L127.631 111.951L136.87 96.5557L138.66 97.7041Z" fill="#F7D77F"/>
<path d="M142.95 100.767L133.713 116.163L131.921 115.015L141.16 99.6191L142.95 100.767Z" fill="#F7D77F"/>
<path d="M95.4019 79.1058C80.4357 103.086 48.6401 110.496 24.517 95.6223C0.393846 80.749 -7.05872 49.1366 7.90139 25.1564C22.8615 1.17628 54.6571 -6.23024 78.7863 8.643C102.916 23.5162 110.365 55.1407 95.4019 79.1058ZM11.8965 27.6153C-1.71059 49.4225 5.06392 78.1397 26.991 91.6587C48.918 105.178 77.8151 98.4422 91.4129 76.647C105.011 54.8518 98.2394 26.1225 76.3154 12.6066C54.3914 -0.909343 25.4882 5.82003 11.8965 27.6153Z" fill="#153E49"/>
<defs>
<clipPath id="clip0_1628_4336">
<rect width="72.3417" height="299.012" fill="white" transform="translate(9.37451 19.3516)"/>
</clipPath>
</defs>
</svg>
