<svg  viewBox="0 0 26 28" fill="none" xmlns="http://www.w3.org/2000/svg">
  <path fill-rule="evenodd" clip-rule="evenodd"
    d="M25.9362 14.4221C25.9362 13.4753 25.8524 12.5649 25.6969 11.6909L13.3031 11.6909L13.3031 16.8558L20.3853 16.8558C20.0802 18.5249 19.1531 19.939 17.7594 20.8858L17.7594 24.236L22.0123 24.236C24.5006 21.9115 25.9362 18.4885 25.9362 14.4221Z"
    fill="#4285F4" />
  <path fill-rule="evenodd" clip-rule="evenodd"
    d="M13.3033 27.4711C16.8563 27.4711 19.8352 26.2755 22.0124 24.2362L17.7596 20.886C16.5812 21.6872 15.0738 22.1606 13.3033 22.1606C9.87588 22.1606 6.97483 19.8118 5.94002 16.6558L1.54358 16.6558L1.54358 20.1152C3.7089 24.479 8.15917 27.4711 13.3033 27.4711Z"
    fill="#34A853" />
  <path fill-rule="evenodd" clip-rule="evenodd"
    d="M5.93993 16.6559C5.67674 15.8548 5.52721 14.999 5.52721 14.119C5.52721 13.2389 5.67674 12.3832 5.93993 11.582L5.93993 8.12256L1.54348 8.12256C0.652232 9.92512 0.143799 11.9644 0.143799 14.119C0.143799 16.2735 0.652232 18.3128 1.54348 20.1154L5.93993 16.6559Z"
    fill="#FBBC05" />
  <path fill-rule="evenodd" clip-rule="evenodd"
    d="M13.3033 6.07718C15.2354 6.07718 16.97 6.75086 18.3338 8.07396L22.1082 4.24427C19.8292 2.08969 16.8504 0.766601 13.3033 0.766601C8.15919 0.766602 3.70891 3.75873 1.54358 8.12251L5.94003 11.582C6.97484 8.42597 9.8759 6.07718 13.3033 6.07718Z"
    fill="#EA4335" />
</svg>
