<svg width="20" height="20" viewBox="0 0 20 20" fill="none" xmlns="http://www.w3.org/2000/svg">
<g id="Group 1000001940">
<path id="Vector" d="M10 0C4.48578 0 0 4.48578 0 10C0 15.5142 4.48578 20 10 20C15.5142 20 20 15.5142 20 10C20 4.48578 15.5142 0 10 0Z" fill="#31C64F"/>
<path id="Vector_2" d="M14.7505 7.60679L9.21874 13.7241C9.05278 13.9076 8.83493 14 8.61708 14C8.39924 14 8.18139 13.9076 8.01543 13.7241L5.24964 10.6654C4.91679 10.2975 4.91679 9.70265 5.24964 9.33473C5.58233 8.96663 6.12009 8.96663 6.45294 9.33473L8.61708 11.728L13.5472 6.27607C13.8799 5.90798 14.4176 5.90798 14.7505 6.27607C15.0832 6.64399 15.0832 7.2387 14.7505 7.60679Z" fill="#FAFAFA"/>
</g>
</svg>
