<svg width="65" height="52" viewBox="0 0 65 52" fill="none" xmlns="http://www.w3.org/2000/svg">
  <g clip-path="url(#clip0_2074_1745)">
    <rect x="-0.000976562" y="0.0654297" width="64.6228" height="51.8683" rx="25" fill="#31C64F"/>
    <path fill-rule="evenodd" clip-rule="evenodd" d="M19.436 25.2058C18.9966 25.6451 18.9966 26.3574 19.436 26.7967L26.5954 33.9562C27.0347 34.3955 27.7471 34.3955 28.1864 33.9562C28.6257 33.5169 28.6257 32.8046 28.1864 32.3652L22.9474 27.1263H30.2726C30.2829 27.1265 30.2933 27.1267 30.3037 27.1267L42.0428 27.1267L36.8038 32.3656C36.3645 32.805 36.3645 33.5173 36.8038 33.9566C37.2432 34.396 37.9555 34.396 38.3948 33.9566L45.5543 26.7972C45.9936 26.3578 45.9936 25.6455 45.5543 25.2062L38.3948 18.0467C37.9555 17.6074 37.2432 17.6074 36.8038 18.0467C36.3645 18.4861 36.3645 19.1984 36.8038 19.6377L42.0428 24.8767L34.7177 24.8767C34.7073 24.8764 34.6969 24.8763 34.6865 24.8763H22.9474L28.1864 19.6373C28.6257 19.198 28.6257 18.4856 28.1864 18.0463C27.7471 17.607 27.0347 17.607 26.5954 18.0463L19.436 25.2058Z" fill="white"/>
  </g>
  <defs>
    <clipPath id="clip0_2074_1745">
      <rect width="64.62" height="52" fill="white"/>
    </clipPath>
  </defs>
</svg>
