<svg width="20" height="20" viewBox="0 0 20 20" fill="none" xmlns="http://www.w3.org/2000/svg">
<path d="M10 0C4.48578 0 0 4.48578 0 10C0 15.5142 4.48578 20 10 20C15.5142 20 20 15.5142 20 10C20 4.48578 15.5142 0 10 0Z" fill="#DDDDDD" fill-opacity="0.866667"/>
<path d="M14.7505 7.75637L9.21874 13.4913C9.05278 13.6634 8.83493 13.75 8.61708 13.75C8.39924 13.75 8.18139 13.6634 8.01543 13.4913L5.24964 10.6239C4.91679 10.2789 4.91679 9.72123 5.24964 9.37631C5.58233 9.03122 6.12009 9.03122 6.45294 9.37631L8.61708 11.62L13.5472 6.50882C13.8799 6.16373 14.4176 6.16373 14.7505 6.50882C15.0832 6.85374 15.0832 7.41128 14.7505 7.75637Z" fill="white"/>
</svg>
