<svg width="38" height="36" viewBox="0 0 38 36" fill="none" xmlns="http://www.w3.org/2000/svg">
<path d="M7.33333 1.25C5.08058 1.25 3.25 3.08058 3.25 5.33333V18.6667C3.25 20.9194 5.08058 22.75 7.33333 22.75H30.6667C32.9194 22.75 34.75 20.9194 34.75 18.6667V5.33333C34.75 3.08058 32.9194 1.25 30.6667 1.25H7.33333ZM9.83333 11.0833H18.1667C18.1873 11.0833 18.2075 11.0911 18.2249 11.1085C18.2423 11.1258 18.25 11.1461 18.25 11.1667C18.25 11.1873 18.2423 11.2075 18.2249 11.2249C18.2075 11.2423 18.1873 11.25 18.1667 11.25H9.83333C9.81275 11.25 9.7925 11.2423 9.77512 11.2249C9.75774 11.2075 9.75 11.1873 9.75 11.1667C9.75 11.1461 9.75774 11.1258 9.77512 11.1085C9.7925 11.0911 9.81275 11.0833 9.83333 11.0833ZM9.75 16.1667C9.75 16.1461 9.75774 16.1258 9.77512 16.1085C9.7925 16.0911 9.81275 16.0833 9.83333 16.0833H28.1667C28.1873 16.0833 28.2075 16.0911 28.2249 16.1085C28.2423 16.1258 28.25 16.1461 28.25 16.1667C28.25 16.1873 28.2423 16.2075 28.2249 16.2249C28.2075 16.2423 28.1873 16.25 28.1667 16.25H9.83333C9.81275 16.25 9.7925 16.2423 9.77512 16.2249C9.75774 16.2075 9.75 16.1873 9.75 16.1667ZM23.5833 7.75H27.75C28.0285 7.75 28.25 7.97151 28.25 8.25V10.75C28.25 11.0285 28.0285 11.25 27.75 11.25H23.5833C23.3048 11.25 23.0833 11.0285 23.0833 10.75V8.25C23.0833 7.97151 23.3048 7.75 23.5833 7.75Z" fill="#303A77" stroke="white" stroke-width="1.5"/>
<path d="M5.77778 6C3.6941 6 2 7.71901 2 9.83333V25.1667C2 27.281 3.6941 29 5.77778 29H32.2222C34.3059 29 36 27.281 36 25.1667V9.83333C36 7.71901 34.3059 6 32.2222 6H5.77778ZM8.61111 15.5833H18.0556C18.575 15.5833 19 16.0146 19 16.5417C19 17.0687 18.575 17.5 18.0556 17.5H8.61111C8.09167 17.5 7.66667 17.0687 7.66667 16.5417C7.66667 16.0146 8.09167 15.5833 8.61111 15.5833ZM7.66667 22.2917C7.66667 21.7646 8.09167 21.3333 8.61111 21.3333H29.3889C29.9083 21.3333 30.3333 21.7646 30.3333 22.2917C30.3333 22.8187 29.9083 23.25 29.3889 23.25H8.61111C8.09167 23.25 7.66667 22.8187 7.66667 22.2917ZM24.1944 11.75H28.9167C29.7017 11.75 30.3333 12.3909 30.3333 13.1875V16.0625C30.3333 16.8591 29.7017 17.5 28.9167 17.5H24.1944C23.4094 17.5 22.7778 16.8591 22.7778 16.0625V13.1875C22.7778 12.3909 23.4094 11.75 24.1944 11.75Z" fill="#303A77" stroke="white" stroke-width="1.5"/>
<path d="M5.77778 10.25C3.2696 10.25 1.25 12.3152 1.25 14.8333V30.1667C1.25 32.6848 3.2696 34.75 5.77778 34.75H32.2222C34.7304 34.75 36.75 32.6848 36.75 30.1667V14.8333C36.75 12.3152 34.7304 10.25 32.2222 10.25H5.77778ZM8.61111 21.3333H18.0556C18.1505 21.3333 18.25 21.4184 18.25 21.5417C18.25 21.6649 18.1505 21.75 18.0556 21.75H8.61111C8.51616 21.75 8.41667 21.6649 8.41667 21.5417C8.41667 21.4184 8.51616 21.3333 8.61111 21.3333ZM8.41667 27.2917C8.41667 27.1684 8.51616 27.0833 8.61111 27.0833H29.3889C29.4838 27.0833 29.5833 27.1684 29.5833 27.2917C29.5833 27.4149 29.4838 27.5 29.3889 27.5H8.61111C8.51616 27.5 8.41667 27.4149 8.41667 27.2917ZM24.1944 17.5H28.9167C29.2772 17.5 29.5833 17.7947 29.5833 18.1875V21.0625C29.5833 21.4553 29.2772 21.75 28.9167 21.75H24.1944C23.8339 21.75 23.5278 21.4553 23.5278 21.0625V18.1875C23.5278 17.7947 23.8339 17.5 24.1944 17.5Z" fill="#303A77" stroke="white" stroke-width="1.5"/>
</svg>
