<svg width="20" height="20" viewBox="0 0 20 20" fill="none" xmlns="http://www.w3.org/2000/svg">
<mask id="mask0_44_964" style="mask-type:alpha" maskUnits="userSpaceOnUse" x="0" y="0" width="20" height="20">
<rect width="20" height="20" fill="#D9D9D9"/>
</mask>
<g mask="url(#mask0_44_964)">
<path d="M10 19.1667V17.5001H15.8333V16.6667H12.5V10.0001H15.8333V9.16675C15.8333 7.55564 15.2639 6.18064 14.125 5.04175C12.9861 3.90286 11.6111 3.33341 10 3.33341C8.38889 3.33341 7.01389 3.90286 5.875 5.04175C4.73611 6.18064 4.16667 7.55564 4.16667 9.16675V10.0001H7.5V16.6667H4.16667C3.70833 16.6667 3.31597 16.5036 2.98958 16.1772C2.66319 15.8508 2.5 15.4584 2.5 15.0001V9.16675C2.5 8.13897 2.69792 7.17022 3.09375 6.2605C3.48958 5.35078 4.02778 4.55564 4.70833 3.87508C5.38889 3.19453 6.18403 2.65633 7.09375 2.2605C8.00347 1.86466 8.97222 1.66675 10 1.66675C11.0278 1.66675 11.9965 1.86466 12.9062 2.2605C13.816 2.65633 14.6111 3.19453 15.2917 3.87508C15.9722 4.55564 16.5104 5.35078 16.9062 6.2605C17.3021 7.17022 17.5 8.13897 17.5 9.16675V17.5001C17.5 17.9584 17.3368 18.3508 17.0104 18.6772C16.684 19.0036 16.2917 19.1667 15.8333 19.1667H10Z" fill="#478DF6"/>
</g>
</svg>
