<svg width="18" height="18" viewBox="0 0 18 18" fill="none" xmlns="http://www.w3.org/2000/svg">
<g id="help">
<mask id="mask0_3606_2098" style="mask-type:alpha" maskUnits="userSpaceOnUse" x="0" y="0" width="18" height="18">
<rect id="Bounding box" x="0.605469" y="0.160156" width="16.9395" height="16.9395" fill="#D9D9D9"/>
</mask>
<g mask="url(#mask0_3606_2098)">
<path id="help_2" d="M9.04039 12.8652C9.28743 12.8652 9.49623 12.7799 9.6668 12.6094C9.83737 12.4388 9.92266 12.23 9.92266 11.983C9.92266 11.7359 9.83737 11.5271 9.6668 11.3566C9.49623 11.186 9.28743 11.1007 9.04039 11.1007C8.79336 11.1007 8.58456 11.186 8.41399 11.3566C8.24342 11.5271 8.15813 11.7359 8.15813 11.983C8.15813 12.23 8.24342 12.4388 8.41399 12.6094C8.58456 12.7799 8.79336 12.8652 9.04039 12.8652ZM8.40516 10.1479H9.71091C9.71091 9.75967 9.75503 9.45382 9.84325 9.23031C9.93148 9.0068 10.1815 8.70095 10.5932 8.31276C10.899 8.00691 11.1402 7.71576 11.3166 7.43932C11.4931 7.16287 11.5813 6.83055 11.5813 6.44236C11.5813 5.7836 11.3402 5.27777 10.8579 4.92487C10.3756 4.57196 9.80502 4.39551 9.14627 4.39551C8.47574 4.39551 7.93168 4.57196 7.51408 4.92487C7.09647 5.27777 6.80533 5.70126 6.64064 6.19532L7.80522 6.6541C7.86404 6.44236 7.99638 6.21297 8.20224 5.96594C8.4081 5.7189 8.72278 5.59539 9.14627 5.59539C9.5227 5.59539 9.80502 5.69832 9.99324 5.90418C10.1815 6.11004 10.2756 6.33649 10.2756 6.58352C10.2756 6.81879 10.205 7.03936 10.0638 7.24522C9.92266 7.45108 9.7462 7.64224 9.53446 7.81869C9.01687 8.27747 8.69925 8.62449 8.58162 8.85976C8.46398 9.09503 8.40516 9.5244 8.40516 10.1479ZM9.07568 15.6885C8.09931 15.6885 7.18176 15.5032 6.32302 15.1327C5.46429 14.7621 4.7173 14.2592 4.08207 13.624C3.44684 12.9888 2.94395 12.2418 2.5734 11.383C2.20285 10.5243 2.01758 9.60674 2.01758 8.63037C2.01758 7.654 2.20285 6.73645 2.5734 5.87771C2.94395 5.01897 3.44684 4.27199 4.08207 3.63676C4.7173 3.00153 5.46429 2.49864 6.32302 2.12809C7.18176 1.75754 8.09931 1.57227 9.07568 1.57227C10.0521 1.57227 10.9696 1.75754 11.8283 2.12809C12.6871 2.49864 13.4341 3.00153 14.0693 3.63676C14.7045 4.27199 15.2074 5.01897 15.578 5.87771C15.9485 6.73645 16.1338 7.654 16.1338 8.63037C16.1338 9.60674 15.9485 10.5243 15.578 11.383C15.2074 12.2418 14.7045 12.9888 14.0693 13.624C13.4341 14.2592 12.6871 14.7621 11.8283 15.1327C10.9696 15.5032 10.0521 15.6885 9.07568 15.6885Z" fill="#6F6F6F"/>
</g>
</g>
</svg>
