<svg width="42" height="42" viewBox="0 0 42 42" fill="none" xmlns="http://www.w3.org/2000/svg">
<mask id="mask0_7_193" style="mask-type:alpha" maskUnits="userSpaceOnUse" x="0" y="0" width="42" height="42">
<rect width="42" height="42" fill="#D9D9D9"/>
</mask>
<g mask="url(#mask0_7_193)">
<path d="M36.5337 41.6943L34.7837 39.988H5.515V34.4755H9.015V29.7505C9.015 28.088 9.35041 26.4911 10.0212 24.9599C10.6921 23.4286 11.64 22.1088 12.865 21.0005C11.9317 20.1547 11.166 19.1703 10.5681 18.0474C9.97021 16.9245 9.55458 15.7359 9.32125 14.4818L0.964996 6.1255L3.89625 3.19425L39.465 38.763L36.5337 41.6943ZM28.265 21.7005L24.3275 17.763C25.29 17.1797 26.0556 16.3995 26.6244 15.4224C27.1931 14.4453 27.4775 13.388 27.4775 12.2505V7.5255H14.5275V8.00675L14.09 7.5255L8.5775 2.013H36.49V7.5255H32.99V12.2505C32.99 14.1172 32.5744 15.8818 31.7431 17.5443C30.9119 19.2068 29.7525 20.5922 28.265 21.7005ZM14.5275 34.4755H27.4775V32.638L18.5525 23.7568C17.3275 24.2526 16.3504 25.0474 15.6212 26.1411C14.8921 27.2349 14.5275 28.438 14.5275 29.7505V34.4755Z" fill="#6F6F6F"/>
</g>
</svg>
