<svg width="19" height="19" viewBox="0 0 19 19" fill="none" xmlns="http://www.w3.org/2000/svg">
<path d="M9.5 19C12.0196 19 14.4359 17.9991 16.2175 16.2175C17.9991 14.4359 19 12.0196 19 9.5C19 6.98044 17.9991 4.56408 16.2175 2.78249C14.4359 1.00089 12.0196 0 9.5 0C6.98044 0 4.56408 1.00089 2.78249 2.78249C1.00089 4.56408 0 6.98044 0 9.5C0 12.0196 1.00089 14.4359 2.78249 16.2175C4.56408 17.9991 6.98044 19 9.5 19ZM9.5 4.75C9.99356 4.75 10.3906 5.14707 10.3906 5.64062V9.79688C10.3906 10.2904 9.99356 10.6875 9.5 10.6875C9.00644 10.6875 8.60938 10.2904 8.60938 9.79688V5.64062C8.60938 5.14707 9.00644 4.75 9.5 4.75ZM8.3125 13.0625C8.3125 12.7476 8.43761 12.4455 8.66031 12.2228C8.88301 12.0001 9.18506 11.875 9.5 11.875C9.81494 11.875 10.117 12.0001 10.3397 12.2228C10.5624 12.4455 10.6875 12.7476 10.6875 13.0625C10.6875 13.3774 10.5624 13.6795 10.3397 13.9022C10.117 14.1249 9.81494 14.25 9.5 14.25C9.18506 14.25 8.88301 14.1249 8.66031 13.9022C8.43761 13.6795 8.3125 13.3774 8.3125 13.0625Z" fill="#F3C523"/>
</svg>
