<svg  viewBox="0 0 199 49" fill="none" xmlns="http://www.w3.org/2000/svg"
style="width: 124px;">
<g clip-path="url(#clip0_322_48)">
  <path
    d="M194.149 1.8833H4.02981C2.39768 1.8833 1.07458 3.22645 1.07458 4.8833V44.8833C1.07458 46.5402 2.39768 47.8833 4.02981 47.8833H194.149C195.781 47.8833 197.104 46.5402 197.104 44.8833V4.8833C197.104 3.22645 195.781 1.8833 194.149 1.8833Z"
    fill="white" stroke="#0077C5" stroke-width="2" />
  <path
    d="M30.1151 18.8832C29.0512 17.8632 27.4554 17.3632 26.0566 17.3632C23.5348 17.3632 20.9539 18.6432 20.9539 21.5232C20.9539 24.1632 22.7861 25.0032 24.4805 25.5432C26.2339 26.1032 27.6918 26.5232 27.6918 28.0032C27.6918 29.5232 26.3324 30.1032 25.17 30.1032C24.0667 30.1032 22.8058 29.5032 22.1163 28.5432L20.3431 30.2232C21.4464 31.5432 23.3181 32.2432 25.1306 32.2432C27.8691 32.2432 30.2136 30.7632 30.2136 27.7232C30.2136 24.9432 27.9282 24.1432 26.1354 23.5832C24.5593 23.0832 23.4757 22.7032 23.4757 21.4032C23.4757 20.0232 24.7957 19.4632 25.9384 19.4632C26.9234 19.4632 27.9676 19.9832 28.4996 20.6832L30.1151 18.8832ZM32.6215 31.8832H34.9857V22.2832H32.6215V31.8832ZM32.2866 19.0232C32.2866 19.7832 32.917 20.4632 33.7839 20.4632C34.6508 20.4632 35.3206 19.8432 35.3206 19.0232C35.3206 18.2032 34.6508 17.5832 33.7839 17.5832C32.917 17.5832 32.2866 18.2632 32.2866 19.0232ZM45.2222 22.2832V23.7232H45.1828C44.4932 22.5632 43.252 22.0032 41.932 22.0032C39.0753 22.0032 37.3022 24.2632 37.3022 27.0432C37.3022 29.7632 39.1344 32.0432 41.9714 32.0432C43.2717 32.0432 44.375 31.5432 45.0646 30.6032H45.104V31.3032C45.104 33.2032 44.3947 34.6032 42.1094 34.6032C40.9273 34.6032 39.7058 34.1232 38.7995 33.2432L37.4401 35.1032C38.6616 36.1232 40.5923 36.6832 42.1291 36.6832C45.8132 36.6832 47.4682 34.4832 47.4682 31.0232V22.2832H45.2222ZM42.4246 23.9632C44.1386 23.9632 45.2222 25.3632 45.2222 27.0232C45.2222 28.6232 44.1583 30.0632 42.4049 30.0632C40.7105 30.0632 39.7058 28.5432 39.7058 27.0232C39.7058 25.3232 40.7105 23.9632 42.4246 23.9632ZM50.3019 31.8832H52.6661V26.6032C52.6661 25.3232 53.3754 24.0032 54.8727 24.0032C56.3897 24.0032 56.6458 25.4232 56.6458 26.5632V31.8832H59.01V25.8832C59.01 23.9232 57.9855 22.0032 55.5228 22.0032C54.124 22.0032 53.001 22.8632 52.5873 23.8232H52.5479V22.2832H50.3019V31.8832ZM66.7336 31.8832H69.0977V22.2832H66.7336V31.8832ZM66.3986 19.0232C66.3986 19.7832 67.0291 20.4632 67.8959 20.4632C68.7628 20.4632 69.4327 19.8432 69.4327 19.0232C69.4327 18.2032 68.7628 17.5832 67.8959 17.5832C67.0291 17.5832 66.3986 18.2632 66.3986 19.0232ZM71.9659 31.8832H74.3301V26.6032C74.3301 25.3232 75.0393 24.0032 76.5366 24.0032C78.0536 24.0032 78.3098 25.4232 78.3098 26.5632V31.8832H80.6739V25.8832C80.6739 23.9232 79.6495 22.0032 77.1868 22.0032C75.788 22.0032 74.665 22.8632 74.2513 23.8232H74.2118V22.2832H71.9659V31.8832ZM90.3086 31.8832H92.7121L94.8399 25.1632H94.8793L97.0268 31.8832H99.4304L102.701 22.2832H100.238L98.2286 29.1632H98.1892L96.1402 22.2832H93.6184L91.5892 29.1632H91.5498L89.5796 22.2832H87.0184L90.3086 31.8832ZM104.232 31.8832H106.596V22.2832H104.232V31.8832ZM103.897 19.0232C103.897 19.7832 104.527 20.4632 105.394 20.4632C106.261 20.4632 106.931 19.8432 106.931 19.0232C106.931 18.2032 106.261 17.5832 105.394 17.5832C104.527 17.5832 103.897 18.2632 103.897 19.0232ZM109.76 24.2032V28.6832C109.76 30.5232 110.331 32.0832 112.833 32.0832C113.365 32.0832 113.996 31.9832 114.409 31.8232L114.331 29.9432C114.055 30.0832 113.641 30.1432 113.326 30.1432C112.282 30.1432 112.085 29.5232 112.085 28.6632V24.2032H114.449V22.2832H112.085V19.5032H109.76V22.2832H108.105V24.2032H109.76ZM121.42 22.0032C120.021 22.0032 118.977 22.8232 118.603 23.6232H118.563V16.7632H116.199V31.8832H118.563V26.6432C118.563 25.3632 119.292 24.0632 120.79 24.0632C122.307 24.0632 122.543 25.4632 122.543 26.6032V31.8832H124.907V25.8832C124.907 23.9232 123.883 22.0032 121.42 22.0032ZM132.708 31.8832H135.191V17.7232H132.708V31.8832ZM138.151 31.8832H140.515V26.6032C140.515 25.3232 141.224 24.0032 142.721 24.0032C144.238 24.0032 144.495 25.4232 144.495 26.5632V31.8832H146.859V25.8832C146.859 23.9232 145.834 22.0032 143.372 22.0032C141.973 22.0032 140.85 22.8632 140.436 23.8232H140.397V22.2832H138.151V31.8832ZM149.913 24.2032V28.6832C149.913 30.5232 150.485 32.0832 152.987 32.0832C153.519 32.0832 154.149 31.9832 154.563 31.8232L154.484 29.9432C154.208 30.0832 153.795 30.1432 153.479 30.1432C152.435 30.1432 152.238 29.5232 152.238 28.6632V24.2032H154.602V22.2832H152.238V19.5032H149.913V22.2832H148.259V24.2032H149.913ZM164.942 22.2832H162.578V27.5632C162.578 28.8432 161.868 30.1632 160.371 30.1632C158.854 30.1632 158.598 28.7432 158.598 27.6032V22.2832H156.234V28.2832C156.234 30.2432 157.258 32.1632 159.721 32.1632C161.12 32.1632 162.243 31.3032 162.656 30.3432H162.696V31.8832H164.942V22.2832ZM167.819 31.8832H170.183V22.2832H167.819V31.8832ZM167.484 19.0232C167.484 19.7832 168.115 20.4632 168.982 20.4632C169.848 20.4632 170.518 19.8432 170.518 19.0232C170.518 18.2032 169.848 17.5832 168.982 17.5832C168.115 17.5832 167.484 18.2632 167.484 19.0232ZM173.347 24.2032V28.6832C173.347 30.5232 173.919 32.0832 176.421 32.0832C176.953 32.0832 177.583 31.9832 177.997 31.8232L177.918 29.9432C177.642 30.0832 177.229 30.1432 176.913 30.1432C175.869 30.1432 175.672 29.5232 175.672 28.6632V24.2032H178.036V22.2832H175.672V19.5032H173.347V22.2832H171.692V24.2032H173.347Z"
    fill="#0077C5" />
</g>
<defs>
  <clipPath id="clip0_322_48">
    <rect width="198" height="48" fill="white" transform="translate(0.0894775 0.883301)" />
  </clipPath>
</defs>
</svg>
