<svg width="115" height="127" viewBox="0 0 115 127" fill="none" xmlns="http://www.w3.org/2000/svg">
<g id="Group 1000001987">
<g id="Layer 2">
<path id="Vector" d="M26.8755 13.5937V63.1779C26.8669 64.0756 26.5825 64.9489 26.0607 65.6793C25.539 66.4098 24.8051 66.9621 23.9587 67.2613C23.4946 67.447 23.0003 67.5459 22.5004 67.553H5.00009C3.84444 67.5379 2.74038 67.0721 1.92315 66.2548C1.10592 65.4376 0.640122 64.3336 0.625013 63.1779V13.5937C0.620207 10.2461 1.90039 7.02435 4.20149 4.593C6.50259 2.16165 9.64908 0.706189 12.9919 0.526855H13.7502C17.2212 0.526821 20.5508 1.90164 23.0106 4.3505C25.4704 6.79935 26.86 10.1228 26.8755 13.5937Z" fill="#7A95DE"/>
<path id="Vector_2" d="M114.377 34.011V114.396C114.377 116.162 113.918 117.898 113.045 119.433C112.173 120.969 110.918 122.252 109.401 123.158C107.884 124.063 106.159 124.559 104.393 124.598C102.627 124.637 100.882 124.217 99.327 123.379L97.4603 122.329C95.1749 120.677 92.4033 119.835 89.5852 119.937C86.723 119.844 83.9112 120.706 81.5934 122.387C77.8869 124.769 73.5739 126.036 69.1681 126.036C64.7624 126.036 60.4494 124.769 56.7429 122.387C54.4044 120.754 51.6026 119.915 48.7511 119.996C45.9172 119.911 43.1327 120.751 40.8177 122.387L39.0093 123.438C37.4544 124.275 35.7088 124.695 33.9431 124.656C32.1773 124.617 30.4519 124.121 28.9353 123.216C27.4188 122.311 26.163 121.027 25.2908 119.492C24.4186 117.956 23.9597 116.22 23.959 114.454V12.1356C23.9644 9.15892 22.8318 6.29275 20.793 4.12384C18.7542 1.95494 15.9635 0.647347 12.9922 0.46875H80.835C89.7262 0.484173 98.2489 4.02303 104.536 10.3101C110.823 16.5971 114.362 25.1198 114.377 34.011Z" fill="#BBC8EC"/>
<g id="Group">
<path id="Vector_3" d="M89.5861 38.3859H48.752C47.5917 38.3859 46.4789 37.9249 45.6584 37.1045C44.8379 36.284 44.377 35.1712 44.377 34.0108C44.377 32.8505 44.8379 31.7377 45.6584 30.9172C46.4789 30.0967 47.5917 29.6357 48.752 29.6357H89.5861C90.7464 29.6357 91.8592 30.0967 92.6797 30.9172C93.5002 31.7377 93.9611 32.8505 93.9611 34.0108C93.9611 35.1712 93.5002 36.284 92.6797 37.1045C91.8592 37.9249 90.7464 38.3859 89.5861 38.3859Z" fill="white"/>
<path id="Vector_4" d="M72.0858 85.0529H48.752C47.5917 85.0529 46.4789 84.5919 45.6584 83.7715C44.8379 82.951 44.377 81.8382 44.377 80.6778C44.377 79.5175 44.8379 78.4047 45.6584 77.5842C46.4789 76.7637 47.5917 76.3027 48.752 76.3027H72.0858C73.2461 76.3027 74.3589 76.7637 75.1794 77.5842C75.9999 78.4047 76.4608 79.5175 76.4608 80.6778C76.4608 81.8382 75.9999 82.951 75.1794 83.7715C74.3589 84.5919 73.2461 85.0529 72.0858 85.0529Z" fill="white"/>
<path id="Vector_5" d="M89.5861 61.7194H48.752C47.5917 61.7194 46.4789 61.2584 45.6584 60.438C44.8379 59.6175 44.377 58.5047 44.377 57.3443C44.377 56.184 44.8379 55.0712 45.6584 54.2507C46.4789 53.4302 47.5917 52.9692 48.752 52.9692H89.5861C90.7464 52.9692 91.8592 53.4302 92.6797 54.2507C93.5002 55.0712 93.9611 56.184 93.9611 57.3443C93.9611 58.5047 93.5002 59.6175 92.6797 60.438C91.8592 61.2584 90.7464 61.7194 89.5861 61.7194Z" fill="white"/>
</g>
</g>
</g>
</svg>
