<svg width="352" height="126" viewBox="0 0 352 126" fill="none" xmlns="http://www.w3.org/2000/svg">
<path d="M-36.0656 48.4781C-193.078 121.811 -70.8228 198.733 9.93118 228.027C91.1178 256.064 144.154 301.951 160.524 321.39C443.856 685.399 482.74 -181.303 300.488 39.3271C118.236 259.956 160.2 -43.1889 -36.0656 48.4781Z" stroke="#A2E9E7"/>
<path d="M162.802 139.801C100.079 169.098 148.915 199.825 181.174 211.526C213.605 222.725 234.791 241.055 241.33 248.82C354.508 394.229 370.052 48.0032 297.245 136.141C224.438 224.28 241.205 103.18 162.802 139.801Z" stroke="#A2E9E7"/>
<path d="M148.599 133.281C79.1418 165.723 133.222 199.75 168.944 212.707C204.858 225.109 228.319 245.408 235.56 254.007C360.892 415.03 378.103 31.627 297.479 129.229C216.855 226.831 235.421 92.728 148.599 133.281Z" stroke="#A2E9E7"/>
<path d="M134.393 126.753C58.2002 162.34 117.525 199.667 156.711 213.881C196.107 227.486 221.843 249.752 229.787 259.185C367.273 435.823 386.15 15.2428 297.709 122.308C209.267 229.374 229.633 82.2678 134.393 126.753Z" stroke="#A2E9E7"/>
<path d="M120.188 120.232C37.2606 158.966 101.829 199.591 144.48 215.063C187.359 229.87 215.37 254.105 224.015 264.372C373.655 456.623 394.2 -1.13284 297.941 115.396C201.681 231.925 223.847 71.8162 120.188 120.232Z" stroke="#A2E9E7"/>
<path d="M105.982 113.712C16.319 155.591 86.1321 199.516 132.246 216.244C178.608 232.254 208.894 258.457 218.242 269.558C380.035 477.424 402.247 -17.51 298.171 108.483C194.094 234.476 218.06 61.364 105.982 113.712Z" stroke="#A2E9E7"/>
<path d="M91.7771 107.184C-4.62029 152.208 70.4369 199.433 120.015 217.418C169.859 234.63 202.42 262.802 212.47 274.736C386.417 498.217 410.297 -33.894 298.403 101.563C186.508 237.02 212.274 50.904 91.7771 107.184Z" stroke="#A2E9E7"/>
<path d="M77.5746 100.664C-25.5578 148.833 54.7436 199.358 107.786 218.599C161.112 237.015 195.948 267.155 206.7 279.923C392.802 519.017 418.348 -50.2699 298.637 94.6501C178.925 239.571 206.49 40.4521 77.5746 100.664Z" stroke="#A2E9E7"/>
<path d="M63.3702 94.1361C-46.4971 145.451 39.0485 199.275 95.5547 219.773C152.363 239.391 189.474 271.499 200.929 285.101C399.184 539.81 426.398 -66.6538 298.868 87.7302C171.339 242.114 200.704 29.9912 63.3702 94.1361Z" stroke="#A2E9E7"/>
<path d="M49.1653 87.6151C-67.437 142.076 23.3528 199.2 83.323 220.954C143.615 241.775 183.001 275.852 195.157 290.288C405.566 560.611 434.447 -83.0302 299.1 80.8181C163.754 244.665 194.918 19.5391 49.1653 87.6151Z" stroke="#A2E9E7"/>
<path d="M34.9609 81.0908C-88.3764 138.697 7.65755 199.121 71.0918 222.132C134.866 244.155 176.527 280.2 189.386 295.47C411.948 581.408 442.497 -99.4106 299.332 73.9008C156.168 247.213 189.133 9.08279 34.9609 81.0908Z" stroke="#A2E9E7"/>
<path d="M20.7545 74.5712C-109.318 135.322 -8.03955 199.045 58.8586 223.313C126.115 246.539 170.051 284.553 183.612 300.656C418.329 602.208 450.544 -115.786 299.562 66.9892C148.581 249.764 183.345 -1.36877 20.7545 74.5712Z" stroke="#A2E9E7"/>
<path d="M6.54791 68.0469C-130.259 131.944 -23.7369 198.966 46.6252 224.491C117.364 248.92 163.575 288.902 177.838 305.839C424.709 623.005 458.592 -132.167 299.792 60.0719C140.993 252.311 177.557 -11.8251 6.54791 68.0469Z" stroke="#A2E9E7"/>
<path d="M-7.65674 61.5219C-151.199 128.565 -39.4324 198.887 34.3937 225.668C108.615 251.3 157.102 293.25 172.067 311.021C431.091 643.802 466.641 -148.547 300.024 53.1559C133.408 254.858 171.771 -22.2811 -7.65674 61.5219Z" stroke="#A2E9E7"/>
<path d="M-21.8609 54.9981C-172.138 125.186 -55.1273 198.808 22.1628 226.846C99.8669 253.68 150.628 297.599 166.295 316.204C437.473 664.598 474.69 -164.927 300.256 46.2391C125.822 257.405 165.985 -32.7369 -21.8609 54.9981Z" stroke="#A2E9E7"/>
</svg>
