<svg width="352" height="302" viewBox="0 0 352 302" fill="none" xmlns="http://www.w3.org/2000/svg">
  <path d="M-36.0657 237.478C-193.078 310.812 -70.8229 387.734 9.93108 417.028C91.1177 445.065 144.154 490.952 160.524 510.391C443.856 874.399 482.74 7.69718 300.488 228.327C118.236 448.957 160.2 145.811 -36.0657 237.478Z" stroke="#D0C4FF"/>
  <path d="M219.622 354.894C183.839 371.608 211.699 389.137 230.101 395.811C248.602 402.2 260.688 412.656 264.418 417.086C328.981 500.038 337.856 302.519 296.319 352.803C254.782 403.086 264.35 334 219.622 354.894Z" stroke="#D0C4FF"/>
  <path d="M205.418 348.367C162.901 368.228 196.004 389.056 217.871 396.987C239.855 404.578 254.215 417.003 258.648 422.267C335.364 520.833 345.906 286.137 296.552 345.884C247.198 405.632 258.565 323.542 205.418 348.367Z" stroke="#D0C4FF"/>
  <path d="M191.213 341.845C141.96 364.851 180.308 388.978 205.639 398.167C231.105 406.96 247.74 421.354 252.875 427.451C341.746 541.632 353.955 269.759 296.783 338.97C239.611 408.181 252.778 313.088 191.213 341.845Z" stroke="#D0C4FF"/>
  <path d="M177.008 335.324C121.021 361.475 164.613 388.902 193.407 399.347C222.356 409.343 241.267 425.705 247.103 432.636C348.128 562.431 362.004 253.382 297.015 332.056C232.026 410.731 246.993 302.635 177.008 335.324Z" stroke="#D0C4FF"/>
  <path d="M162.803 328.802C100.08 358.098 148.916 388.825 181.175 400.526C213.606 411.726 234.792 430.056 241.331 437.821C354.509 583.23 370.052 237.004 297.246 325.142C224.439 413.28 241.206 292.181 162.803 328.802Z" stroke="#D0C4FF"/>
  <path d="M148.599 322.279C79.1416 354.722 133.222 388.748 168.944 401.706C204.858 414.108 228.319 434.406 235.56 443.005C360.892 604.029 378.103 220.625 297.479 318.227C216.855 415.829 235.421 281.726 148.599 322.279Z" stroke="#D0C4FF"/>
  <path d="M134.394 315.753C58.2011 351.341 117.526 388.667 156.712 402.882C196.108 416.486 221.844 438.753 229.788 448.186C367.274 624.823 386.151 204.243 297.71 311.309C209.268 418.375 229.634 271.268 134.394 315.753Z" stroke="#D0C4FF"/>
  <path d="M120.189 309.232C37.2616 347.965 101.83 388.591 144.481 404.062C187.36 418.869 215.371 443.104 224.016 453.371C373.656 645.623 394.201 187.866 297.942 304.395C201.682 420.925 223.848 260.815 120.189 309.232Z" stroke="#D0C4FF"/>
  <path d="M105.983 302.71C16.3211 344.588 86.1341 388.514 132.248 405.241C178.61 421.252 208.896 447.455 218.244 458.555C380.037 666.422 402.249 171.488 298.173 297.481C194.096 423.474 218.062 250.361 105.983 302.71Z" stroke="#D0C4FF"/>
  <path d="M91.779 296.184C-4.61835 341.208 70.4389 388.433 120.017 406.417C169.861 423.63 202.422 451.802 212.472 463.736C386.419 687.216 410.299 155.106 298.405 290.563C186.51 426.019 212.276 239.903 91.779 296.184Z" stroke="#D0C4FF"/>
  <path d="M77.5745 289.661C-25.5579 337.831 54.7435 388.356 107.786 407.597C161.112 426.012 195.948 456.152 206.7 468.92C392.802 708.015 418.348 138.728 298.637 283.648C178.925 428.568 206.49 229.449 77.5745 289.661Z" stroke="#D0C4FF"/>
  <path d="M63.3709 283.136C-46.4965 334.451 39.0492 388.275 95.5554 408.773C152.364 428.391 189.475 460.5 200.93 474.102C399.185 728.811 426.399 122.346 298.869 276.731C171.34 431.115 200.705 218.992 63.3709 283.136Z" stroke="#D0C4FF"/>
  <path d="M49.1664 276.614C-67.4359 331.075 23.3539 388.198 83.3241 409.953C143.616 430.774 183.002 464.85 195.158 479.286C405.567 749.609 434.448 105.968 299.101 269.816C163.755 433.664 194.919 208.538 49.1664 276.614Z" stroke="#D0C4FF"/>
  <path d="M34.9619 270.092C-88.3755 327.698 7.65856 388.121 71.0927 411.132C134.867 433.156 176.528 469.201 189.387 484.471C411.949 770.408 442.498 89.5901 299.333 262.902C156.169 436.213 189.133 198.084 34.9619 270.092Z" stroke="#D0C4FF"/>
  <path d="M20.7553 263.57C-109.317 324.322 -8.03876 388.045 58.8594 412.313C126.116 435.539 170.052 473.552 183.613 489.656C418.33 791.208 450.545 73.2129 299.563 255.988C148.582 438.763 183.346 187.631 20.7553 263.57Z" stroke="#D0C4FF"/>
  <path d="M6.54881 257.048C-130.258 320.945 -23.736 387.968 46.6261 413.492C117.365 437.921 163.576 477.903 177.839 494.84C424.71 812.006 458.592 56.8347 299.793 249.074C140.994 441.312 177.558 177.177 6.54881 257.048Z" stroke="#D0C4FF"/>
  <path d="M-7.65566 250.522C-151.198 317.565 -39.4313 387.887 34.3948 414.668C108.616 440.299 157.102 482.25 172.068 500.021C431.092 832.801 466.642 40.4525 300.025 242.155C133.408 443.858 171.772 166.718 -7.65566 250.522Z" stroke="#D0C4FF"/>
  <path d="M-21.8592 243.996C-172.136 314.184 -55.1256 387.806 22.1644 415.843C99.8685 442.678 150.63 486.596 166.297 505.201C437.475 853.596 474.692 24.0705 300.258 235.237C125.824 446.403 165.987 156.261 -21.8592 243.996Z" stroke="#D0C4FF"/>
</svg>
