<svg width="126" height="111" viewBox="0 0 126 111" fill="none" xmlns="http://www.w3.org/2000/svg">
    <rect width="126" height="111" rx="10" fill="#EDFFF2"/>
    <mask id="mask0_625_1578" style="mask-type:alpha" maskUnits="userSpaceOnUse" x="28" y="24" width="69" height="69">
        <rect x="28" y="24" width="69" height="69" fill="#D9D9D9"/>
    </mask>
    <g mask="url(#mask0_625_1578)">
        <path d="M40.3846 80.0624C38.9324 80.0624 37.7031 79.5592 36.6969 78.553C35.6906 77.5467 35.1875 76.3175 35.1875 74.8652V67.1249H39.4999V74.8652C39.4999 75.0864 39.5921 75.2892 39.7764 75.4735C39.9607 75.6578 40.1635 75.7499 40.3846 75.7499H48.1249V80.0624H40.3846ZM54.1846 69.1152L57.1149 54.121L50.2811 56.8799V66.4061H45.9688V54.0548L57.3803 49.2226C58.8362 48.6144 59.9088 48.2117 60.598 48.0145C61.2873 47.8173 61.9212 47.7188 62.4999 47.7188C63.3771 47.7188 64.1917 47.95 64.9437 48.4126C65.6956 48.8751 66.3074 49.4916 66.7792 50.262L69.2948 54.309L69.6486 54.8398C69.7666 55.0167 69.8993 55.1789 70.0467 55.3263C67.8278 56.8965 66.0254 58.8777 64.6395 61.2698C63.2536 63.662 62.4188 66.2771 62.1349 69.1152H54.1846ZM66.8124 45.1201C65.3418 45.1201 64.0895 44.6032 63.0556 43.5693C62.0217 42.5354 61.5047 41.2831 61.5047 39.8124C61.5047 38.3418 62.0217 37.0895 63.0556 36.0556C64.0895 35.0217 65.3418 34.5047 66.8124 34.5047C68.2831 34.5047 69.5354 35.0217 70.5693 36.0556C71.6032 37.0895 72.1201 38.3418 72.1201 39.8124C72.1201 41.2831 71.6032 42.5354 70.5693 43.5693C69.5354 44.6032 68.2831 45.1201 66.8124 45.1201ZM35.1875 38.3749V30.6346C35.1875 29.1824 35.6906 27.9531 36.6969 26.9469C37.7031 25.9406 38.9324 25.4375 40.3846 25.4375H48.1249V29.7499H40.3846C40.1635 29.7499 39.9607 29.8421 39.7764 30.0264C39.5921 30.2107 39.4999 30.4135 39.4999 30.6346V38.3749H35.1875ZM85.4999 38.3749V30.6346C85.4999 30.4135 85.4078 30.2107 85.2235 30.0264C85.0392 29.8421 84.8364 29.7499 84.6152 29.7499H76.8749V25.4375H84.6152C86.0675 25.4375 87.2967 25.9406 88.303 26.9469C89.3092 27.9531 89.8124 29.1824 89.8124 30.6346V38.3749H85.4999Z" fill="#219942"/>
    </g>
    <mask id="mask1_625_1578" style="mask-type:alpha" maskUnits="userSpaceOnUse" x="66" y="56" width="31" height="31">
        <rect x="66" y="56" width="31" height="31" fill="#D9D9D9"/>
    </mask>
    <g mask="url(#mask1_625_1578)">
        <path d="M81.5 72.4711C82.6658 72.4711 83.6569 72.0629 84.4733 71.2465C85.2897 70.4301 85.6979 69.439 85.6979 68.2732C85.6979 67.1074 85.2897 66.1163 84.4733 65.2999C83.6569 64.4835 82.6658 64.0753 81.5 64.0753C80.3342 64.0753 79.3431 64.4835 78.5267 65.2999C77.7103 66.1163 77.3021 67.1074 77.3021 68.2732C77.3021 69.439 77.7103 70.4301 78.5267 71.2465C79.3431 72.0629 80.3342 72.4711 81.5 72.4711ZM81.5 83.7483C78.5391 82.9352 76.1843 81.2751 74.4356 78.7679C72.6869 76.2608 71.8125 73.4514 71.8125 70.3399V62.9078L81.5 59.2812L91.1874 62.9078V70.3399C91.1874 73.4514 90.3131 76.2608 88.5643 78.7679C86.8156 81.2751 84.4609 82.9352 81.5 83.7483ZM81.5 81.7065C82.7121 81.3141 83.7976 80.7129 84.7565 79.9032C85.7153 79.0934 86.5482 78.1644 87.2553 77.1162C86.3627 76.6591 85.4325 76.3089 84.4646 76.0654C83.4967 75.822 82.5085 75.7003 81.5 75.7003C80.4915 75.7003 79.5033 75.822 78.5354 76.0654C77.5674 76.3089 76.6372 76.6591 75.7446 77.1162C76.4517 78.1644 77.2847 79.0934 78.2435 79.9032C79.2023 80.7129 80.2878 81.3141 81.5 81.7065Z" fill="#219942"/>
    </g>
</svg>