<svg width="20" height="20" viewBox="0 0 20 20" fill="none" xmlns="http://www.w3.org/2000/svg">
<mask id="mask0_44_955" style="mask-type:alpha" maskUnits="userSpaceOnUse" x="0" y="0" width="20" height="20">
<rect width="20" height="20" fill="#D9D9D9"/>
</mask>
<g mask="url(#mask0_44_955)">
<path d="M9.99984 18.3334C8.86095 18.3334 7.78456 18.1147 6.77067 17.6772C5.75678 17.2397 4.87136 16.6424 4.11442 15.8855C3.35748 15.1286 2.76025 14.2431 2.32275 13.2292C1.88525 12.2154 1.6665 11.139 1.6665 10.0001C1.6665 8.8473 1.88525 7.76744 2.32275 6.7605C2.76025 5.75355 3.35748 4.87161 4.11442 4.11466C4.87136 3.35772 5.75678 2.7605 6.77067 2.323C7.78456 1.8855 8.86095 1.66675 9.99984 1.66675C11.1526 1.66675 12.2325 1.8855 13.2394 2.323C14.2464 2.7605 15.1283 3.35772 15.8853 4.11466C16.6422 4.87161 17.2394 5.75355 17.6769 6.7605C18.1144 7.76744 18.3332 8.8473 18.3332 10.0001C18.3332 11.139 18.1144 12.2154 17.6769 13.2292C17.2394 14.2431 16.6422 15.1286 15.8853 15.8855C15.1283 16.6424 14.2464 17.2397 13.2394 17.6772C12.2325 18.1147 11.1526 18.3334 9.99984 18.3334ZM9.99984 16.6251C10.3609 16.1251 10.6734 15.6042 10.9373 15.0626C11.2012 14.5209 11.4165 13.9445 11.5832 13.3334H8.4165C8.58317 13.9445 8.79845 14.5209 9.06234 15.0626C9.32623 15.6042 9.63873 16.1251 9.99984 16.6251ZM7.83317 16.2917C7.58317 15.8334 7.36442 15.3577 7.17692 14.8647C6.98942 14.3716 6.83317 13.8612 6.70817 13.3334H4.24984C4.65262 14.0279 5.15609 14.632 5.76025 15.1459C6.36442 15.6598 7.05539 16.0417 7.83317 16.2917ZM12.1665 16.2917C12.9443 16.0417 13.6353 15.6598 14.2394 15.1459C14.8436 14.632 15.3471 14.0279 15.7498 13.3334H13.2915C13.1665 13.8612 13.0103 14.3716 12.8228 14.8647C12.6353 15.3577 12.4165 15.8334 12.1665 16.2917ZM3.5415 11.6667H6.37484C6.33317 11.389 6.30192 11.1147 6.28109 10.8438C6.26025 10.573 6.24984 10.2917 6.24984 10.0001C6.24984 9.70841 6.26025 9.42716 6.28109 9.15633C6.30192 8.8855 6.33317 8.61119 6.37484 8.33341H3.5415C3.47206 8.61119 3.41998 8.8855 3.38525 9.15633C3.35053 9.42716 3.33317 9.70841 3.33317 10.0001C3.33317 10.2917 3.35053 10.573 3.38525 10.8438C3.41998 11.1147 3.47206 11.389 3.5415 11.6667ZM8.0415 11.6667H11.9582C11.9998 11.389 12.0311 11.1147 12.0519 10.8438C12.0728 10.573 12.0832 10.2917 12.0832 10.0001C12.0832 9.70841 12.0728 9.42716 12.0519 9.15633C12.0311 8.8855 11.9998 8.61119 11.9582 8.33341H8.0415C7.99984 8.61119 7.96859 8.8855 7.94775 9.15633C7.92692 9.42716 7.9165 9.70841 7.9165 10.0001C7.9165 10.2917 7.92692 10.573 7.94775 10.8438C7.96859 11.1147 7.99984 11.389 8.0415 11.6667ZM13.6248 11.6667H16.4582C16.5276 11.389 16.5797 11.1147 16.6144 10.8438C16.6491 10.573 16.6665 10.2917 16.6665 10.0001C16.6665 9.70841 16.6491 9.42716 16.6144 9.15633C16.5797 8.8855 16.5276 8.61119 16.4582 8.33341H13.6248C13.6665 8.61119 13.6978 8.8855 13.7186 9.15633C13.7394 9.42716 13.7498 9.70841 13.7498 10.0001C13.7498 10.2917 13.7394 10.573 13.7186 10.8438C13.6978 11.1147 13.6665 11.389 13.6248 11.6667ZM13.2915 6.66675H15.7498C15.3471 5.9723 14.8436 5.36814 14.2394 4.85425C13.6353 4.34036 12.9443 3.95841 12.1665 3.70841C12.4165 4.16675 12.6353 4.64244 12.8228 5.1355C13.0103 5.62855 13.1665 6.13897 13.2915 6.66675ZM8.4165 6.66675H11.5832C11.4165 6.05564 11.2012 5.47925 10.9373 4.93758C10.6734 4.39591 10.3609 3.87508 9.99984 3.37508C9.63873 3.87508 9.32623 4.39591 9.06234 4.93758C8.79845 5.47925 8.58317 6.05564 8.4165 6.66675ZM4.24984 6.66675H6.70817C6.83317 6.13897 6.98942 5.62855 7.17692 5.1355C7.36442 4.64244 7.58317 4.16675 7.83317 3.70841C7.05539 3.95841 6.36442 4.34036 5.76025 4.85425C5.15609 5.36814 4.65262 5.9723 4.24984 6.66675Z" fill="#478DF6"/>
</g>
</svg>
