<svg width="173" height="84" viewBox="0 0 173 84" fill="none" xmlns="http://www.w3.org/2000/svg">
<path d="M247.562 36.1063C236.101 10.7835 194.451 -8.07177 166.982 -9.9809C135.328 -12.1778 130.156 8.66388 103.91 0.0757258C79.9618 -7.75417 72.0305 -29.1248 54.7655 -33.7875C38.8987 -38.0718 19.3203 -27.1218 0.293923 33.3769" stroke="url(#paint0_linear_424_1188)" stroke-width="0.5" stroke-miterlimit="10"/>
<path d="M2.80698 35.7923C21.6487 -23.8266 41.0862 -35.2727 56.9869 -31.5412C68.7762 -28.761 76.3145 -18.0855 87.5984 -9.30474C93.2697 -4.79587 99.6017 -1.31405 106.026 0.828109C127.073 7.85944 134.828 -3.31009 153.878 -6.83051C158.729 -7.74313 163.912 -8.04475 169.321 -7.72915C196.778 -6.21261 237.359 10.4937 249.103 34.9519" stroke="url(#paint1_linear_424_1188)" stroke-width="0.5" stroke-miterlimit="10"/>
<path d="M5.32896 38.2048C23.9867 -20.5283 43.2708 -32.4668 59.175 -29.2866C70.8661 -26.9479 78.5072 -16.7439 89.6812 -8.37203C95.4108 -4.00412 101.711 -0.599099 108.101 1.58346C128.898 8.68296 137.023 -1.28634 156.22 -4.5591C161.096 -5.40149 166.258 -5.70652 171.625 -5.46931C199.099 -4.26292 238.58 10.2074 250.606 33.8002" stroke="url(#paint2_linear_424_1188)" stroke-width="0.5" stroke-miterlimit="10"/>
<path d="M7.84161 40.6089C26.31 -17.2252 45.4552 -29.6504 61.3768 -27.033C72.9813 -25.1265 80.7046 -15.4044 91.7834 -7.43599C97.5607 -3.21224 103.826 0.117368 110.179 2.34057C130.742 9.50962 139.195 0.733132 158.564 -2.28576C163.462 -3.06906 168.609 -3.38154 173.939 -3.21935C201.411 -2.37095 239.805 9.91068 252.115 32.6377" stroke="url(#paint3_linear_424_1188)" stroke-width="0.5" stroke-miterlimit="10"/>
<path d="M10.3784 43.0404C28.6574 -13.9176 47.6479 -26.8218 63.5999 -24.766C75.1054 -23.2885 82.9332 -14.0467 93.9081 -6.49538C99.737 -2.41368 105.977 0.844348 112.301 3.10807C132.632 10.3465 141.428 2.76852 160.974 9.79763e-05C165.889 -0.712961 171.009 -1.02806 176.289 -0.942403C203.763 -0.451531 241.072 9.64555 253.668 31.5064" stroke="url(#paint4_linear_424_1188)" stroke-width="0.5" stroke-miterlimit="10"/>
<path d="M12.8843 45.453C30.9889 -10.6163 49.7113 -24.416 65.809 -22.5083C77.2959 -21.1587 85.1392 -12.7246 96.0117 -5.55679C101.888 -1.62406 108.103 1.562 114.397 3.86851C134.494 11.176 143.623 4.79611 163.317 2.28015C168.248 1.62628 173.348 1.30468 178.585 1.31737C206.054 1.43364 242.28 9.35913 255.16 30.3569" stroke="url(#paint5_linear_424_1188)" stroke-width="0.5" stroke-miterlimit="10"/>
<path d="M15.4506 47.8812C33.3457 -7.29651 52.0374 -21.1302 68.0256 -20.2582C79.3348 -19.5878 87.3806 -11.3614 98.1394 -4.59918C104.057 -0.817212 110.247 2.29848 116.512 4.64745C136.375 12.0238 145.849 6.83874 165.694 4.57568C170.644 3.98627 175.725 3.66106 180.918 3.60134C208.387 3.36044 243.521 9.08448 256.687 29.2274" stroke="url(#paint6_linear_424_1188)" stroke-width="0.5" stroke-miterlimit="10"/>
<path d="M17.9816 50.2953C35.6748 -3.99469 54.2169 -18.3138 70.2487 -17.9725C81.4438 -17.7488 89.6061 -10.0484 100.251 -3.6621C106.205 -0.0343472 112.373 3.00982 118.608 5.39727C138.234 12.8465 148.056 8.86451 168.054 6.8417C172.709 6.37651 177.707 5.97277 183.232 5.85148C210.701 5.24091 244.753 8.81117 258.198 28.078" stroke="url(#paint7_linear_424_1188)" stroke-width="0.5" stroke-miterlimit="10"/>
<path d="M20.5291 52.7217C38.0428 -0.670717 56.4252 -15.4325 72.4697 -15.7041C83.567 -15.8877 91.8497 -8.71316 102.383 -2.71132C108.372 0.76029 114.523 3.73852 120.733 6.17367C140.124 13.6914 150.28 10.8988 170.44 9.1384C175.133 8.72702 180.12 8.33102 185.576 8.13285C213.006 7.15405 245.99 8.55146 259.715 26.9455" stroke="url(#paint8_linear_424_1188)" stroke-width="0.5" stroke-miterlimit="10"/>
<path d="M23.0745 55.1477C40.3951 2.65207 58.6252 -12.5557 74.6962 -13.4092C85.6924 -13.996 94.1126 -7.36262 104.49 -1.74449C110.508 1.56867 116.641 4.48229 122.823 6.96536C141.984 14.5518 152.481 12.9572 172.79 11.4286C177.498 11.0692 182.489 10.6737 187.878 10.4031C215.329 9.0401 247.211 8.27126 261.219 25.8012" stroke="url(#paint9_linear_424_1188)" stroke-width="0.5" stroke-miterlimit="10"/>
<path d="M25.6277 57.5751C42.7525 5.97486 60.8367 -9.66859 76.9132 -11.1262C87.8092 -12.1116 96.3459 -6.02959 106.609 -0.775098C112.652 2.37313 118.77 5.22075 124.926 7.75103C143.847 15.4051 154.685 15.0037 175.158 13.7506C179.907 13.4536 184.882 13.053 190.201 12.7139C217.639 10.9646 248.436 8.04053 262.733 24.7023" stroke="url(#paint10_linear_424_1188)" stroke-width="0.5" stroke-miterlimit="10"/>
<path d="M28.1932 60.0021C45.1274 9.30346 63.0683 -6.77866 79.1632 -8.83888C89.9645 -10.2178 98.6193 -4.69532 108.75 0.194122C114.573 3.00285 120.524 5.84297 127.057 8.54104C145.741 16.2585 156.92 17.0584 177.546 16.0544C182.325 15.8148 187.289 15.4095 192.55 15.003C219.976 12.868 249.69 7.79039 264.265 23.5872" stroke="url(#paint11_linear_424_1188)" stroke-width="0.5" stroke-miterlimit="10"/>
<path d="M30.762 62.4305C47.5086 12.6489 65.2724 -3.87744 81.4018 -6.54247C92.1066 -8.31885 100.89 -3.36328 110.885 1.16939C116.784 3.84486 122.726 6.61626 129.177 9.33648C147.629 17.1342 159.139 19.1126 179.922 18.3625C184.732 18.1847 189.689 17.775 194.869 17.2952C222.274 14.7659 250.912 7.5457 265.768 22.4776" stroke="url(#paint12_linear_424_1188)" stroke-width="0.5" stroke-miterlimit="10"/>
<path d="M33.3185 64.8706C49.8718 15.9779 67.5226 -0.95259 83.6349 -4.23006C94.247 -6.39052 103.153 -2.01883 113.016 2.16579C118.992 4.69974 124.921 7.40633 131.274 10.1514C149.49 18.0035 161.335 21.1893 182.293 20.6945C187.136 20.5701 192.076 20.1555 197.191 19.6121C224.576 16.6808 252.132 7.31978 267.269 21.3869" stroke="url(#paint13_linear_424_1188)" stroke-width="0.5" stroke-miterlimit="10"/>
<path d="M35.9205 67.3105C52.2666 19.3255 69.7659 1.98554 85.8922 -1.91343C96.414 -4.46133 105.436 -0.6779 115.159 3.16231C121.21 5.55043 127.138 8.20144 133.423 10.9695C151.393 18.8872 163.585 23.2635 184.676 23.0206C189.744 22.9095 194.701 22.5391 199.525 21.9108C226.887 18.5991 253.382 7.11443 268.781 20.3026" stroke="url(#paint14_linear_424_1188)" stroke-width="0.5" stroke-miterlimit="10"/>
<path d="M38.523 69.7461C54.6744 22.6726 72.0516 4.91049 88.141 0.399633C98.5734 -2.53074 107.713 0.656618 117.32 4.163C123.445 6.40103 129.363 8.99564 135.562 11.7893C153.299 19.7732 165.826 25.3416 187.056 25.3471C192.139 25.3012 197.084 24.9299 201.86 24.2355C229.192 20.4895 254.604 6.89933 270.294 19.2069" stroke="url(#paint15_linear_424_1188)" stroke-width="0.5" stroke-miterlimit="10"/>
<path d="M41.129 72.1902C57.0783 26.0264 74.3475 7.87912 90.421 2.73004C100.757 -0.574136 110.012 2.00085 119.469 5.17496C125.666 7.25865 131.577 9.80968 137.694 12.6247C155.188 20.6735 168.057 27.4288 189.449 27.6885C194.544 27.7021 199.476 27.3257 204.202 26.5625C231.495 22.4244 255.831 6.70816 271.803 18.1641" stroke="url(#paint16_linear_424_1188)" stroke-width="0.5" stroke-miterlimit="10"/>
<path d="M44.0365 74.7485C59.7505 29.6119 76.8296 11.0845 92.8862 5.33205C103.13 1.65756 112.47 3.61311 121.782 6.46538C128.059 8.3851 133.944 10.8875 139.972 13.7236C157.206 21.8157 170.397 29.7546 191.914 30.2711C197.012 30.3423 201.926 29.9625 206.596 29.1361C233.812 24.6007 257.039 6.81585 273.271 17.3897" stroke="url(#paint17_linear_424_1188)" stroke-width="0.5" stroke-miterlimit="10"/>
<path d="M46.9531 77.3042C62.4024 33.1531 79.3541 14.3001 95.3707 7.95054C105.515 3.91585 114.936 5.24668 124.115 7.79207C130.444 9.55888 136.334 12.0071 142.263 14.8588C159.242 23.01 172.754 32.1088 194.384 32.8673C199.485 32.9959 204.381 32.6125 208.994 31.7233C236.13 26.7889 258.277 6.97098 274.739 16.6521" stroke="url(#paint18_linear_424_1188)" stroke-width="0.5" stroke-miterlimit="10"/>
<path d="M49.886 79.8658C65.1194 36.7201 81.9007 17.5195 97.8576 10.5455C107.91 6.14909 117.402 6.84971 126.446 9.08119C132.826 10.6585 138.707 13.0889 144.554 15.9655C161.27 24.1662 175.103 34.4223 196.857 35.4429C201.961 35.6306 206.839 35.2438 211.394 34.2899C238.44 28.9453 259.461 7.08519 276.201 15.9033" stroke="url(#paint19_linear_424_1188)" stroke-width="0.5" stroke-miterlimit="10"/>
<path d="M52.8281 82.4246C67.8263 40.2747 84.4637 20.7543 100.345 13.1492C110.303 8.40079 119.858 8.46576 128.77 10.3977C135.204 11.7909 141.081 14.1957 146.832 17.0794C163.295 25.3341 177.451 36.7456 199.319 38.0136C204.426 38.2556 209.288 37.8652 213.789 36.8516C240.711 31.0625 260.669 7.23692 277.667 15.1789" stroke="url(#paint20_linear_424_1188)" stroke-width="0.5" stroke-miterlimit="10"/>
<path d="M55.7578 84.9905C79.7194 18.1812 108.226 7.44656 131.133 11.7233C156.139 16.3913 172.141 38.545 201.819 40.5987C236.631 43.0034 258.989 6.19769 279.149 14.4744" stroke="url(#paint21_linear_424_1188)" stroke-width="0.5" stroke-miterlimit="10"/>
<defs>
<linearGradient id="paint0_linear_424_1188" x1="103.663" y1="-30.2428" x2="97.8824" y2="41.2663" gradientUnits="userSpaceOnUse">
<stop stop-color="#C2BDFF"/>
<stop offset="1" stop-color="#726BC1" stop-opacity="0"/>
</linearGradient>
<linearGradient id="paint1_linear_424_1188" x1="106.245" y1="-27.8349" x2="100.463" y2="43.6869" gradientUnits="userSpaceOnUse">
<stop stop-color="#C2BDFF"/>
<stop offset="1" stop-color="#726BC1" stop-opacity="0"/>
</linearGradient>
<linearGradient id="paint2_linear_424_1188" x1="108.808" y1="-25.4424" x2="103.024" y2="46.1025" gradientUnits="userSpaceOnUse">
<stop stop-color="#C2BDFF"/>
<stop offset="1" stop-color="#726BC1" stop-opacity="0"/>
</linearGradient>
<linearGradient id="paint3_linear_424_1188" x1="111.362" y1="-23.0765" x2="105.575" y2="48.5098" gradientUnits="userSpaceOnUse">
<stop stop-color="#C2BDFF"/>
<stop offset="1" stop-color="#726BC1" stop-opacity="0"/>
</linearGradient>
<linearGradient id="paint4_linear_424_1188" x1="113.937" y1="-20.725" x2="108.142" y2="50.9442" gradientUnits="userSpaceOnUse">
<stop stop-color="#C2BDFF"/>
<stop offset="1" stop-color="#726BC1" stop-opacity="0"/>
</linearGradient>
<linearGradient id="paint5_linear_424_1188" x1="116.452" y1="-18.4308" x2="110.648" y2="53.3575" gradientUnits="userSpaceOnUse">
<stop stop-color="#C2BDFF"/>
<stop offset="1" stop-color="#726BC1" stop-opacity="0"/>
</linearGradient>
<linearGradient id="paint6_linear_424_1188" x1="119.008" y1="-16.1414" x2="113.192" y2="55.7848" gradientUnits="userSpaceOnUse">
<stop stop-color="#C2BDFF"/>
<stop offset="1" stop-color="#726BC1" stop-opacity="0"/>
</linearGradient>
<linearGradient id="paint7_linear_424_1188" x1="121.538" y1="-13.8705" x2="115.709" y2="58.1989" gradientUnits="userSpaceOnUse">
<stop stop-color="#C2BDFF"/>
<stop offset="1" stop-color="#726BC1" stop-opacity="0"/>
</linearGradient>
<linearGradient id="paint8_linear_424_1188" x1="124.057" y1="-11.6502" x2="118.211" y2="60.6231" gradientUnits="userSpaceOnUse">
<stop stop-color="#C2BDFF"/>
<stop offset="1" stop-color="#726BC1" stop-opacity="0"/>
</linearGradient>
<linearGradient id="paint9_linear_424_1188" x1="126.568" y1="-9.44181" x2="120.703" y2="63.0464" gradientUnits="userSpaceOnUse">
<stop stop-color="#C2BDFF"/>
<stop offset="1" stop-color="#726BC1" stop-opacity="0"/>
</linearGradient>
<linearGradient id="paint10_linear_424_1188" x1="129.063" y1="-7.2859" x2="123.175" y2="65.4693" gradientUnits="userSpaceOnUse">
<stop stop-color="#C2BDFF"/>
<stop offset="1" stop-color="#726BC1" stop-opacity="0"/>
</linearGradient>
<linearGradient id="paint11_linear_424_1188" x1="131.562" y1="-5.17213" x2="125.647" y2="67.891" gradientUnits="userSpaceOnUse">
<stop stop-color="#C2BDFF"/>
<stop offset="1" stop-color="#726BC1" stop-opacity="0"/>
</linearGradient>
<linearGradient id="paint12_linear_424_1188" x1="134.032" y1="-3.104" x2="128.087" y2="70.3118" gradientUnits="userSpaceOnUse">
<stop stop-color="#C2BDFF"/>
<stop offset="1" stop-color="#726BC1" stop-opacity="0"/>
</linearGradient>
<linearGradient id="paint13_linear_424_1188" x1="136.478" y1="-1.07412" x2="130.498" y2="72.7432" gradientUnits="userSpaceOnUse">
<stop stop-color="#C2BDFF"/>
<stop offset="1" stop-color="#726BC1" stop-opacity="0"/>
</linearGradient>
<linearGradient id="paint14_linear_424_1188" x1="138.93" y1="0.890641" x2="132.91" y2="75.1713" gradientUnits="userSpaceOnUse">
<stop stop-color="#C2BDFF"/>
<stop offset="1" stop-color="#726BC1" stop-opacity="0"/>
</linearGradient>
<linearGradient id="paint15_linear_424_1188" x1="141.361" y1="2.77817" x2="135.295" y2="77.5933" gradientUnits="userSpaceOnUse">
<stop stop-color="#C2BDFF"/>
<stop offset="1" stop-color="#726BC1" stop-opacity="0"/>
</linearGradient>
<linearGradient id="paint16_linear_424_1188" x1="143.76" y1="4.59536" x2="137.64" y2="80.021" gradientUnits="userSpaceOnUse">
<stop stop-color="#C2BDFF"/>
<stop offset="1" stop-color="#726BC1" stop-opacity="0"/>
</linearGradient>
<linearGradient id="paint17_linear_424_1188" x1="145.628" y1="4.57756" x2="139.291" y2="82.4957" gradientUnits="userSpaceOnUse">
<stop stop-color="#C2BDFF"/>
<stop offset="1" stop-color="#726BC1" stop-opacity="0"/>
</linearGradient>
<linearGradient id="paint18_linear_424_1188" x1="147.44" y1="4.39045" x2="140.872" y2="84.9606" gradientUnits="userSpaceOnUse">
<stop stop-color="#C2BDFF"/>
<stop offset="1" stop-color="#726BC1" stop-opacity="0"/>
</linearGradient>
<linearGradient id="paint19_linear_424_1188" x1="149.223" y1="4.09212" x2="142.415" y2="87.4255" gradientUnits="userSpaceOnUse">
<stop stop-color="#C2BDFF"/>
<stop offset="1" stop-color="#726BC1" stop-opacity="0"/>
</linearGradient>
<linearGradient id="paint20_linear_424_1188" x1="150.992" y1="3.74255" x2="143.94" y2="89.8837" gradientUnits="userSpaceOnUse">
<stop stop-color="#C2BDFF"/>
<stop offset="1" stop-color="#726BC1" stop-opacity="0"/>
</linearGradient>
<linearGradient id="paint21_linear_424_1188" x1="152.744" y1="3.34338" x2="145.444" y2="92.3465" gradientUnits="userSpaceOnUse">
<stop stop-color="#C2BDFF"/>
<stop offset="1" stop-color="#726BC1" stop-opacity="0"/>
</linearGradient>
</defs>
</svg>
