<svg width="59" height="64" viewBox="0 0 59 64" fill="none" xmlns="http://www.w3.org/2000/svg">
<g opacity="0.5">
<path d="M-23.2078 46.2276C-16.6649 55.7989 1.07833 57.1828 11.9124 53.2906C24.3968 48.8041 24.6888 38.3936 35.5982 37.7623C45.5521 37.1833 50.397 45.5627 57.4921 44.6969C64.0125 43.901 70.7194 35.5075 73.126 4.59266" stroke="url(#paint0_linear_118_3403)" stroke-width="0.5" stroke-miterlimit="10"/>
<path d="M71.8816 3.80174C69.4742 34.2823 62.8631 42.8777 56.3752 43.9319C51.5637 44.7073 47.7534 41.1416 42.6436 39.0905C40.0675 38.0159 37.3193 37.5247 34.6457 37.6609C25.8855 38.1013 23.7923 44.5445 16.6782 49.455C14.868 50.7128 12.8782 51.7493 10.7497 52.5433C-0.0470762 56.6125 -17.1976 56.0242 -23.779 46.8968" stroke="url(#paint1_linear_118_3403)" stroke-width="0.5" stroke-miterlimit="10"/>
<path d="M70.6375 3.01584C68.2287 33.0601 61.7178 41.8536 55.2739 43.16C50.537 44.1199 46.7257 40.7874 41.6923 38.9038C39.1052 37.9036 36.3757 37.442 33.7118 37.5539C25.0433 37.9198 22.7074 43.8793 15.5156 48.7023C13.6901 49.9322 11.7087 50.9667 9.6031 51.7891C-1.17487 56.0029 -17.7133 56.2444 -24.3331 47.5611" stroke="url(#paint2_linear_118_3403)" stroke-width="0.5" stroke-miterlimit="10"/>
<path d="M69.3962 2.23282C66.9868 31.8342 60.57 40.8258 54.1658 42.3921C49.4982 43.5343 45.6946 40.4359 40.7315 38.72C38.1377 37.7939 35.4281 37.3605 32.7755 37.4474C24.1917 37.7411 21.6299 43.2131 14.3507 47.9499C12.5113 49.1569 10.5368 50.192 8.45151 51.0424C-2.29613 55.4192 -18.232 56.4714 -24.8903 48.2321" stroke="url(#paint3_linear_118_3403)" stroke-width="0.5" stroke-miterlimit="10"/>
<path d="M68.1476 1.4407C65.7395 30.6102 59.4222 39.7939 53.0524 41.6219C48.4585 42.9428 44.6539 40.0817 39.7654 38.5381C37.1632 37.6858 34.4692 37.2807 31.8243 37.3442C23.3253 37.5658 20.5314 42.5503 13.1621 47.2038C11.3107 48.3816 9.34653 49.4134 7.28708 50.29C-3.43187 54.8304 -18.7659 56.6915 -25.4644 48.8972" stroke="url(#paint4_linear_118_3403)" stroke-width="0.5" stroke-miterlimit="10"/>
<path d="M66.909 0.651251C64.4953 29.3867 58.3559 38.9333 51.9415 40.8543C47.3652 42.2303 43.6211 39.7405 38.8039 38.354C36.1956 37.5779 33.5172 37.2013 30.8803 37.24C22.4662 37.3896 19.4439 41.8852 11.9963 46.4493C10.1335 47.603 8.17765 48.6344 6.1409 49.5369C-4.5457 54.2477 -19.2804 56.9126 -26.0182 49.5609" stroke="url(#paint5_linear_118_3403)" stroke-width="0.5" stroke-miterlimit="10"/>
<path d="M65.6544 -0.133784C63.2486 28.1606 57.1236 37.7181 50.8369 40.0931C46.3855 41.7486 42.5796 39.3885 37.8399 38.1673C35.2279 37.467 32.5646 37.1183 29.9357 37.1325C21.6065 37.21 18.3514 41.2204 10.8237 45.6958C8.94841 46.8233 7.00006 47.8531 4.98632 48.7811C-5.67136 53.6554 -19.8004 57.136 -26.5792 50.2235" stroke="url(#paint6_linear_118_3403)" stroke-width="0.5" stroke-miterlimit="10"/>
<path d="M64.4055 -0.92592C62.0048 26.9304 55.9778 36.6844 49.7176 39.3094C45.3473 41.1492 41.5393 39.0492 36.8745 37.9799C34.261 37.3563 31.6121 37.0364 28.9915 37.0279C20.748 37.031 17.2584 40.5527 9.65147 44.9451C7.88035 45.9649 5.97063 47.0163 3.83295 48.03C-6.79494 53.0736 -20.3263 57.35 -27.1416 50.8855" stroke="url(#paint7_linear_118_3403)" stroke-width="0.5" stroke-miterlimit="10"/>
<path d="M63.1555 -1.71128C60.7503 25.7075 54.8215 35.6372 48.6065 38.5446C44.3076 40.5536 40.4959 38.7144 35.906 37.8011C33.2913 37.2549 30.6546 36.9619 28.0398 36.9272C19.8814 36.8583 16.1635 39.8954 8.47134 44.1966C6.68089 45.1985 4.77484 46.2445 2.67003 47.2815C-7.91274 52.487 -20.8506 57.5709 -27.7034 51.5527" stroke="url(#paint8_linear_118_3403)" stroke-width="0.5" stroke-miterlimit="10"/>
<path d="M61.9058 -2.49653C59.5017 24.4829 53.6684 34.5911 47.4907 37.7692C43.264 39.945 39.4433 38.3766 34.9452 37.6114C32.3323 37.1424 29.7078 36.8758 27.0994 36.8144C19.0243 36.6742 15.0746 39.2238 7.30519 43.4454C5.50429 44.4265 3.59659 45.473 1.52376 46.5316C-9.03611 51.9168 -21.368 57.7996 -28.2599 52.2242" stroke="url(#paint9_linear_118_3403)" stroke-width="0.5" stroke-miterlimit="10"/>
<path d="M60.656 -3.28497C58.2538 23.2561 52.5127 33.5397 46.3822 36.9953C42.227 39.3361 38.4061 38.0395 33.9821 37.4203C31.3729 37.031 28.7593 36.7919 26.1569 36.7044C18.1688 36.4917 13.9882 38.5556 6.13109 42.6808C4.30914 43.6405 2.40781 44.6868 0.367889 45.7646C-10.1564 51.325 -21.8893 58.0048 -28.8228 52.8752" stroke="url(#paint10_linear_118_3403)" stroke-width="0.5" stroke-miterlimit="10"/>
<path d="M59.4008 -4.07456C56.9981 22.0267 51.3484 32.4879 45.2597 36.2226C41.1733 38.7273 37.3523 37.7064 33.0097 37.2309C30.5138 36.9583 27.9654 36.6936 25.2025 36.5949C17.3004 36.312 12.8873 37.8869 4.94963 41.9254C3.11108 42.8643 1.21436 43.911 -0.797955 45.0098C-11.2866 50.7454 -22.4221 58.2224 -29.3928 53.5351" stroke="url(#paint11_linear_118_3403)" stroke-width="0.5" stroke-miterlimit="10"/>
<path d="M58.1479 -4.86128C55.7422 20.7945 50.1973 31.4303 44.1445 35.4482C40.1279 38.1183 36.3033 37.3785 32.042 37.0425C29.5273 36.8439 26.9879 36.609 24.2546 36.4859C16.4352 36.1259 11.7957 37.22 3.77508 41.1707C1.91909 42.087 0.0252374 43.1347 -1.94968 44.2532C-12.3989 50.1666 -22.9404 58.4375 -29.9499 54.1931" stroke="url(#paint12_linear_118_3403)" stroke-width="0.5" stroke-miterlimit="10"/>
<path d="M56.8977 -5.65652C54.4935 19.5661 49.0251 30.3697 43.0286 34.6657C39.0793 37.4959 35.2546 37.0441 31.073 36.8441C28.5396 36.7235 26.0101 36.5159 23.3126 36.3643C15.5795 35.9384 10.7094 36.539 2.59871 40.4044C0.725281 41.3022 -1.16212 42.3496 -3.10671 43.4861C-13.5164 49.5813 -23.4621 58.645 -30.5102 54.8435" stroke="url(#paint13_linear_118_3403)" stroke-width="0.5" stroke-miterlimit="10"/>
<path d="M55.6341 -6.43887C53.2351 18.3405 47.8586 29.3084 41.907 33.8922C38.0241 36.8848 34.2022 36.722 30.103 36.6549C27.5518 36.6142 25.0269 36.4317 22.3538 36.2576C14.7098 35.7587 9.60553 35.8756 1.42101 39.65C-0.541595 40.5812 -2.43911 41.6114 -4.26408 42.7367C-14.6349 49.0035 -23.9941 58.8567 -31.0729 55.5014" stroke="url(#paint14_linear_118_3403)" stroke-width="0.5" stroke-miterlimit="10"/>
<path d="M54.3738 -7.22875C51.975 17.1087 46.6798 28.2523 40.7919 33.1112C36.9747 36.2642 33.1555 36.3944 29.1282 36.4598C26.5601 36.5005 24.0434 36.342 21.401 36.1413C13.8408 35.5714 8.507 35.2011 0.246147 38.8874C-1.72764 39.7916 -3.62093 40.8205 -5.42199 41.968C-15.7475 48.4306 -24.5131 59.062 -31.6338 56.1589" stroke="url(#paint15_linear_118_3403)" stroke-width="0.5" stroke-miterlimit="10"/>
<path d="M53.1138 -8.01768C50.7179 15.8783 45.4954 27.1839 39.6652 32.334C35.9155 35.6425 32.101 36.0731 28.1589 36.2644C25.5749 36.3882 23.0638 36.2484 20.4512 36.0234C12.9785 35.3814 7.41258 34.5272 -0.93414 38.1269C-2.91783 39.0061 -4.80626 40.0357 -6.58253 41.2065C-16.8624 47.8441 -25.036 59.2658 -32.1976 56.8001" stroke="url(#paint16_linear_118_3403)" stroke-width="0.5" stroke-miterlimit="10"/>
<path d="M51.7899 -8.8072C49.3985 14.6177 44.2767 26.0836 38.4977 31.5159C34.811 34.9837 31.0113 35.7135 27.1486 36.0273C24.5448 36.2404 22.046 36.1178 19.4635 35.8674C12.082 35.1588 6.28766 33.8166 -2.13624 37.3261C-4.12783 38.181 -6.01044 39.2106 -7.76135 40.4026C-17.9879 47.22 -25.5658 59.4159 -32.7622 57.3953" stroke="url(#paint17_linear_118_3403)" stroke-width="0.5" stroke-miterlimit="10"/>
<path d="M50.4659 -9.60006C48.0937 13.3675 43.0437 24.9806 37.3241 30.6895C33.7025 34.3114 29.9196 35.3432 26.1302 35.7753C23.5165 36.0677 21.0177 35.9708 18.4699 35.6955C11.1762 34.9136 5.15545 33.0922 -3.3408 36.5163C-5.34012 37.3468 -7.21711 38.3766 -8.9424 39.5895C-19.1144 46.5879 -26.1099 59.5501 -33.3289 57.9757" stroke="url(#paint18_linear_118_3403)" stroke-width="0.5" stroke-miterlimit="10"/>
<path d="M49.137 -10.392C46.7635 12.1161 41.8037 23.8799 36.1535 29.8755C32.5943 33.654 28.8321 34.9899 25.1178 35.5433C22.4969 35.9325 20.0008 35.8418 17.4806 35.5401C10.2783 34.6879 4.03064 32.3868 -4.54383 35.7177C-6.55128 36.523 -8.423 37.5531 -10.1218 38.7877C-20.2346 45.971 -26.6286 59.6988 -33.8919 58.567" stroke="url(#paint19_linear_118_3403)" stroke-width="0.5" stroke-miterlimit="10"/>
<path d="M47.8059 -11.1784C45.4393 10.869 40.5573 22.7755 34.9835 29.0589C31.4867 32.9897 27.7488 34.6317 24.107 35.301C21.4782 35.7849 18.9831 35.7052 16.4975 35.3827C9.38214 34.4598 2.90684 31.6783 -5.74132 34.9208C-7.75627 35.7029 -9.62341 36.7337 -11.2975 37.9883C-21.3351 45.367 -27.1575 59.8384 -34.4558 59.1531" stroke="url(#paint20_linear_118_3403)" stroke-width="0.5" stroke-miterlimit="10"/>
<path d="M46.4833 -11.9731C42.6544 23.0662 32.3976 33.0179 23.0855 35.0588C12.9201 37.287 4.82517 29.8657 -6.95001 34.1195C-20.7623 39.1113 -26.4525 60.0197 -35.0224 59.7328" stroke="url(#paint21_linear_118_3403)" stroke-width="0.5" stroke-miterlimit="10"/>
</g>
<defs>
<linearGradient id="paint0_linear_118_3403" x1="38.194" y1="51.5587" x2="27.4255" y2="20.3734" gradientUnits="userSpaceOnUse">
<stop stop-color="#C2BDFF"/>
<stop offset="1" stop-color="#726BC1" stop-opacity="0"/>
</linearGradient>
<linearGradient id="paint1_linear_118_3403" x1="36.9239" y1="50.7823" x2="26.1536" y2="19.592" gradientUnits="userSpaceOnUse">
<stop stop-color="#C2BDFF"/>
<stop offset="1" stop-color="#726BC1" stop-opacity="0"/>
</linearGradient>
<linearGradient id="paint2_linear_118_3403" x1="35.6659" y1="50.0124" x2="24.8922" y2="18.8121" gradientUnits="userSpaceOnUse">
<stop stop-color="#C2BDFF"/>
<stop offset="1" stop-color="#726BC1" stop-opacity="0"/>
</linearGradient>
<linearGradient id="paint3_linear_118_3403" x1="34.4114" y1="49.2544" x2="23.6314" y2="18.0358" gradientUnits="userSpaceOnUse">
<stop stop-color="#C2BDFF"/>
<stop offset="1" stop-color="#726BC1" stop-opacity="0"/>
</linearGradient>
<linearGradient id="paint4_linear_118_3403" x1="33.154" y1="48.5068" x2="22.3612" y2="17.2511" gradientUnits="userSpaceOnUse">
<stop stop-color="#C2BDFF"/>
<stop offset="1" stop-color="#726BC1" stop-opacity="0"/>
</linearGradient>
<linearGradient id="paint5_linear_118_3403" x1="31.9204" y1="47.776" x2="21.1089" y2="16.4664" gradientUnits="userSpaceOnUse">
<stop stop-color="#C2BDFF"/>
<stop offset="1" stop-color="#726BC1" stop-opacity="0"/>
</linearGradient>
<linearGradient id="paint6_linear_118_3403" x1="30.6799" y1="47.0562" x2="19.8468" y2="15.6839" gradientUnits="userSpaceOnUse">
<stop stop-color="#C2BDFF"/>
<stop offset="1" stop-color="#726BC1" stop-opacity="0"/>
</linearGradient>
<linearGradient id="paint7_linear_118_3403" x1="29.4417" y1="46.3331" x2="18.5862" y2="14.8958" gradientUnits="userSpaceOnUse">
<stop stop-color="#C2BDFF"/>
<stop offset="1" stop-color="#726BC1" stop-opacity="0"/>
</linearGradient>
<linearGradient id="paint8_linear_118_3403" x1="28.2172" y1="45.6429" x2="17.3297" y2="14.1126" gradientUnits="userSpaceOnUse">
<stop stop-color="#C2BDFF"/>
<stop offset="1" stop-color="#726BC1" stop-opacity="0"/>
</linearGradient>
<linearGradient id="paint9_linear_118_3403" x1="26.9968" y1="44.9572" x2="16.0754" y2="13.329" gradientUnits="userSpaceOnUse">
<stop stop-color="#C2BDFF"/>
<stop offset="1" stop-color="#726BC1" stop-opacity="0"/>
</linearGradient>
<linearGradient id="paint10_linear_118_3403" x1="25.7889" y1="44.2907" x2="14.8254" y2="12.5406" gradientUnits="userSpaceOnUse">
<stop stop-color="#C2BDFF"/>
<stop offset="1" stop-color="#726BC1" stop-opacity="0"/>
</linearGradient>
<linearGradient id="paint11_linear_118_3403" x1="24.5819" y1="43.6418" x2="13.5699" y2="11.7511" gradientUnits="userSpaceOnUse">
<stop stop-color="#C2BDFF"/>
<stop offset="1" stop-color="#726BC1" stop-opacity="0"/>
</linearGradient>
<linearGradient id="paint12_linear_118_3403" x1="23.3929" y1="43.0136" x2="12.3251" y2="10.9616" gradientUnits="userSpaceOnUse">
<stop stop-color="#C2BDFF"/>
<stop offset="1" stop-color="#726BC1" stop-opacity="0"/>
</linearGradient>
<linearGradient id="paint13_linear_118_3403" x1="22.2146" y1="42.399" x2="11.0835" y2="10.1633" gradientUnits="userSpaceOnUse">
<stop stop-color="#C2BDFF"/>
<stop offset="1" stop-color="#726BC1" stop-opacity="0"/>
</linearGradient>
<linearGradient id="paint14_linear_118_3403" x1="21.0429" y1="41.8227" x2="9.83844" y2="9.37458" gradientUnits="userSpaceOnUse">
<stop stop-color="#C2BDFF"/>
<stop offset="1" stop-color="#726BC1" stop-opacity="0"/>
</linearGradient>
<linearGradient id="paint15_linear_118_3403" x1="19.8882" y1="41.2706" x2="8.59912" y2="8.5775" gradientUnits="userSpaceOnUse">
<stop stop-color="#C2BDFF"/>
<stop offset="1" stop-color="#726BC1" stop-opacity="0"/>
</linearGradient>
<linearGradient id="paint16_linear_118_3403" x1="18.7532" y1="40.752" x2="7.36737" y2="7.77882" gradientUnits="userSpaceOnUse">
<stop stop-color="#C2BDFF"/>
<stop offset="1" stop-color="#726BC1" stop-opacity="0"/>
</linearGradient>
<linearGradient id="paint17_linear_118_3403" x1="18.0161" y1="41.0444" x2="6.23383" y2="6.92389" gradientUnits="userSpaceOnUse">
<stop stop-color="#C2BDFF"/>
<stop offset="1" stop-color="#726BC1" stop-opacity="0"/>
</linearGradient>
<linearGradient id="paint18_linear_118_3403" x1="17.3174" y1="41.4051" x2="5.11234" y2="6.06174" gradientUnits="userSpaceOnUse">
<stop stop-color="#C2BDFF"/>
<stop offset="1" stop-color="#726BC1" stop-opacity="0"/>
</linearGradient>
<linearGradient id="paint19_linear_118_3403" x1="16.6415" y1="41.8174" x2="3.99491" y2="5.19774" gradientUnits="userSpaceOnUse">
<stop stop-color="#C2BDFF"/>
<stop offset="1" stop-color="#726BC1" stop-opacity="0"/>
</linearGradient>
<linearGradient id="paint20_linear_118_3403" x1="15.9773" y1="42.2564" x2="2.88108" y2="4.33755" gradientUnits="userSpaceOnUse">
<stop stop-color="#C2BDFF"/>
<stop offset="1" stop-color="#726BC1" stop-opacity="0"/>
</linearGradient>
<linearGradient id="paint21_linear_118_3403" x1="15.3297" y1="42.715" x2="1.77405" y2="3.46994" gradientUnits="userSpaceOnUse">
<stop stop-color="#C2BDFF"/>
<stop offset="1" stop-color="#726BC1" stop-opacity="0"/>
</linearGradient>
</defs>
</svg>
