<svg width="173" height="84" viewBox="0 0 173 84" fill="none" xmlns="http://www.w3.org/2000/svg">
<path d="M-21.5421 81.9069C-3.8402 101.035 38.7544 105.56 63.7198 99.1954C92.4878 91.8582 90.8916 71.8291 116.754 71.7554C140.351 71.6824 153.744 88.3361 170.464 87.4111C185.83 86.5605 199.967 71.0897 198.896 11.7727" stroke="url(#paint0_linear_424_1163)" stroke-width="0.5" stroke-miterlimit="10"/>
<path d="M195.942 10.3598C196.916 68.8412 183.051 84.7111 167.819 86.0628C156.522 87.053 146.655 79.7831 134.025 75.2954C127.648 72.9549 120.99 71.7205 114.647 71.7029C93.8645 71.6338 90.294 83.8301 74.4191 92.5469C70.3815 94.781 65.8671 96.5699 60.9689 97.8768C36.1311 104.587 -4.87612 101.657 -22.5722 83.3794" stroke="url(#paint1_linear_424_1163)" stroke-width="0.5" stroke-miterlimit="10"/>
<path d="M192.985 8.95206C193.858 66.5928 180.276 82.855 165.205 84.6973C154.126 86.0508 144.308 79.2301 131.896 75.0732C125.51 72.875 118.902 71.6994 112.578 71.6361C91.9975 71.433 87.7419 82.6718 71.6624 91.2119C67.5823 93.3907 63.0875 95.1765 58.25 96.5407C33.4888 103.531 -5.87664 102.264 -23.5667 84.8385" stroke="url(#paint2_linear_424_1163)" stroke-width="0.5" stroke-miterlimit="10"/>
<path d="M190.031 7.55279C190.806 64.3395 177.491 80.9933 162.572 83.3406C151.698 85.0526 141.951 78.6838 129.743 74.8574C123.357 72.8012 116.804 71.6823 110.501 71.5719C90.1062 71.2387 85.2049 81.5143 68.8981 89.8791C64.7798 92.0123 60.3016 93.8 55.5187 95.2201C30.8658 102.528 -6.88486 102.886 -24.5687 86.3123" stroke="url(#paint3_linear_424_1163)" stroke-width="0.5" stroke-miterlimit="10"/>
<path d="M187.067 6.13319C187.749 62.0862 174.714 79.1201 159.935 81.9751C149.277 84.039 139.579 78.1276 127.588 74.6411C121.198 72.7262 114.688 71.6636 108.398 71.5088C88.19 71.0456 82.6285 80.3571 66.089 88.5518C61.9355 90.6273 57.4813 92.4097 52.7658 93.883C28.2177 101.509 -7.91987 103.489 -25.6013 87.7684" stroke="url(#paint4_linear_424_1163)" stroke-width="0.5" stroke-miterlimit="10"/>
<path d="M184.113 4.72489C184.687 59.8374 172.157 77.588 157.292 80.6174C146.688 82.7893 137.216 77.5999 125.43 74.424C119.042 72.6552 112.576 71.6491 106.3 71.4475C86.2791 70.8543 80.0659 79.1996 63.3204 87.2133C59.1348 89.2411 54.7004 91.0232 50.0448 92.5488C25.6121 100.506 -8.91889 104.097 -26.5959 89.2264" stroke="url(#paint5_linear_424_1163)" stroke-width="0.5" stroke-miterlimit="10"/>
<path d="M181.118 3.31885C181.613 57.578 169.12 75.3498 154.66 79.2669C144.416 81.99 134.826 77.0444 123.261 74.1953C116.882 72.5726 110.458 71.6219 104.196 71.3738C84.3622 70.6507 77.4875 78.0361 60.5323 85.8696C56.3112 87.8455 51.8945 89.6254 47.2996 91.2023C22.9728 99.4767 -9.93388 104.702 -27.6111 90.675" stroke="url(#paint6_linear_424_1163)" stroke-width="0.5" stroke-miterlimit="10"/>
<path d="M178.147 1.90645C178.558 55.318 166.342 73.477 152.001 77.8783C141.99 80.9647 132.453 76.5204 121.101 73.9719C114.735 72.4968 108.352 71.6031 102.105 71.3122C82.4604 70.4548 74.9193 76.8736 57.7577 84.5384C53.7614 86.3175 49.4416 88.1428 44.5704 89.8718C20.3528 98.4747 -10.953 105.296 -28.618 92.1285" stroke="url(#paint7_linear_424_1163)" stroke-width="0.5" stroke-miterlimit="10"/>
<path d="M175.161 0.498926C175.465 53.0607 163.522 71.5661 149.351 76.5154C139.549 79.9349 130.061 75.993 118.922 73.7531C112.571 72.4272 106.223 71.5868 99.9848 71.246C80.5283 70.2589 72.3369 75.7195 54.9532 83.1988C50.9071 84.9413 46.5952 86.7563 41.8077 88.5334C17.7347 97.4518 -11.9772 105.889 -29.6319 93.5795" stroke="url(#paint8_linear_424_1163)" stroke-width="0.5" stroke-miterlimit="10"/>
<path d="M172.175 -0.90771C172.384 50.801 160.708 69.6578 146.687 75.1317C137.095 78.8796 127.645 75.4587 116.759 73.514C110.43 72.3371 104.117 71.5488 97.8881 71.1574C78.6156 70.0417 69.7651 74.5385 52.181 81.8554C48.1056 83.5562 43.7902 85.3719 39.0839 87.1937C15.1066 96.4593 -12.9837 106.498 -30.6329 95.0382" stroke="url(#paint9_linear_424_1163)" stroke-width="0.5" stroke-miterlimit="10"/>
<path d="M169.183 -2.3161C169.3 48.54 157.884 67.741 144.038 73.7531C134.652 77.8256 125.263 74.9286 114.586 73.2732C108.284 72.2502 102.004 71.5161 95.7841 71.0753C76.7045 69.8291 67.1978 73.3657 49.3849 80.4864C45.2551 82.1437 40.9551 83.9593 36.3319 85.8212C12.4798 95.4264 -14.0055 107.06 -31.6542 96.4569" stroke="url(#paint10_linear_424_1163)" stroke-width="0.5" stroke-miterlimit="10"/>
<path d="M166.182 -3.72488C166.201 46.2746 155.042 65.8232 141.358 72.3759C132.174 76.7702 122.846 74.4048 112.396 73.0346C106.389 72.2485 100.26 71.4722 93.6557 70.9928C74.7676 69.6208 64.6002 72.1908 46.5781 79.1349C42.4045 80.7499 38.116 82.5665 33.5637 84.4714C9.83735 94.4155 -15.0469 107.645 -32.685 97.8907" stroke="url(#paint11_linear_424_1163)" stroke-width="0.5" stroke-miterlimit="10"/>
<path d="M163.175 -5.13508C163.088 43.9951 152.219 63.8863 138.684 70.9863C129.704 75.7053 120.43 73.881 110.205 72.7882C104.171 72.1427 98.0706 71.4246 91.5324 70.9015C72.8265 69.3901 62.0154 71.0103 43.7782 77.7751C39.5585 79.3444 35.2776 81.1627 30.8191 83.1089C7.22846 93.3971 -16.0634 108.213 -33.6944 99.3101" stroke="url(#paint12_linear_424_1163)" stroke-width="0.5" stroke-miterlimit="10"/>
<path d="M160.175 -6.55213C159.995 41.7319 149.346 61.949 136.009 69.588C127.225 74.6208 118.016 73.3511 108.012 72.5285C101.951 72.0314 95.8807 71.3672 89.4226 70.7931C70.9102 69.1641 59.4426 69.8102 40.9746 76.3994C36.7099 77.9309 32.4448 79.7489 28.0631 81.7324C4.60957 92.3717 -17.0857 108.772 -34.7091 100.719" stroke="url(#paint13_linear_424_1163)" stroke-width="0.5" stroke-miterlimit="10"/>
<path d="M157.136 -7.95741C156.871 39.4598 146.479 59.9962 133.313 68.1913C124.724 73.5418 115.587 72.8287 105.81 72.2707C99.7255 71.9253 93.6725 71.3101 87.2685 70.6955C68.9551 68.9359 56.8254 68.6265 38.1643 75.0309C33.6952 76.6169 29.403 78.4002 25.3043 80.3739C1.98481 91.3441 -18.1374 109.32 -35.7327 102.124" stroke="url(#paint14_linear_424_1163)" stroke-width="0.5" stroke-miterlimit="10"/>
<path d="M154.106 -9.36826C153.744 37.1825 143.585 58.0581 130.634 66.7858C122.238 72.4498 113.173 72.3006 103.599 72.0051C97.4929 71.8147 91.4658 71.2465 85.1301 70.5841C67.0039 68.6972 54.2228 67.4271 35.3639 73.6519C30.863 75.184 26.5812 76.9647 22.5451 78.9829C-0.619481 90.3304 -19.1538 109.858 -36.7464 103.53" stroke="url(#paint15_linear_424_1163)" stroke-width="0.5" stroke-miterlimit="10"/>
<path d="M151.059 -10.7808C150.606 34.903 140.658 56.0891 127.911 65.379C119.711 71.3467 110.725 71.7754 101.383 71.7308C95.2592 71.6986 89.251 71.1672 82.9821 70.4615C65.0522 68.4456 51.6149 66.2216 32.5363 72.2681C28.0073 73.7508 23.7381 75.5324 19.7669 77.5971C-3.24598 89.2811 -20.1938 110.382 -37.7838 104.893" stroke="url(#paint16_linear_424_1163)" stroke-width="0.5" stroke-miterlimit="10"/>
<path d="M147.72 -12.191C147.171 32.5124 137.505 53.9807 124.952 63.8016C116.944 70.0713 108.067 71.0748 98.9487 71.2735C92.8024 71.4103 86.8324 70.914 80.6353 70.1637C62.9235 68.0326 48.8478 64.8516 29.5822 70.7063C25.0329 72.1388 20.7812 73.918 16.8783 76.0224C-5.94903 88.0368 -21.2967 110.65 -38.8558 106.02" stroke="url(#paint17_linear_424_1163)" stroke-width="0.5" stroke-miterlimit="10"/>
<path d="M144.372 -13.6051C143.766 30.1465 134.31 51.8669 121.97 62.2066C114.158 68.7671 105.395 70.3489 96.485 70.7813C90.3384 71.0688 84.3793 70.6223 78.265 69.8291C60.7623 67.5701 46.0569 63.4525 26.6181 69.1254C22.0493 70.5078 17.8147 72.2847 13.9808 74.4282C-8.6569 86.7735 -22.4403 110.875 -39.939 107.106" stroke="url(#paint18_linear_424_1163)" stroke-width="0.5" stroke-miterlimit="10"/>
<path d="M141.001 -15.0283C140.289 27.7679 131.088 49.7476 118.986 60.6244C111.363 67.4793 102.724 69.6417 94.0278 70.313C87.8913 70.784 81.9458 70.3505 75.8971 69.5108C58.6129 67.1304 43.2781 62.0786 23.6514 67.5547C19.062 68.8855 14.844 70.6604 11.0811 72.8442C-11.3547 85.5272 -23.5312 111.113 -41.0213 108.192" stroke="url(#paint19_linear_424_1163)" stroke-width="0.5" stroke-miterlimit="10"/>
<path d="M137.627 -16.4354C136.829 25.4082 127.851 47.6303 116.005 59.0455C108.57 66.1855 100.063 68.931 91.5725 69.8297C85.4437 70.4797 79.5086 70.0678 73.5434 69.1934C56.4667 66.6907 40.5021 60.7065 20.6999 65.9964C16.0919 67.2796 11.8888 69.053 8.1925 71.2738C-14.0016 84.3154 -24.6499 111.336 -42.1086 109.268" stroke="url(#paint20_linear_424_1163)" stroke-width="0.5" stroke-miterlimit="10"/>
<path d="M134.263 -17.8519C132.832 48.529 110.7 66.4288 89.0814 69.3501C65.482 72.5396 44.6839 57.554 17.7119 64.4365C-13.9258 72.5138 -22.8483 111.77 -43.216 110.332" stroke="url(#paint21_linear_424_1163)" stroke-width="0.5" stroke-miterlimit="10"/>
<defs>
<linearGradient id="paint0_linear_424_1163" x1="125.979" y1="98.6114" x2="110.121" y2="33.3417" gradientUnits="userSpaceOnUse">
<stop stop-color="#C2BDFF"/>
<stop offset="1" stop-color="#726BC1" stop-opacity="0"/>
</linearGradient>
<linearGradient id="paint1_linear_424_1163" x1="122.966" y1="97.2254" x2="107.105" y2="31.9441" gradientUnits="userSpaceOnUse">
<stop stop-color="#C2BDFF"/>
<stop offset="1" stop-color="#726BC1" stop-opacity="0"/>
</linearGradient>
<linearGradient id="paint2_linear_424_1163" x1="119.978" y1="95.8473" x2="104.112" y2="30.5449" gradientUnits="userSpaceOnUse">
<stop stop-color="#C2BDFF"/>
<stop offset="1" stop-color="#726BC1" stop-opacity="0"/>
</linearGradient>
<linearGradient id="paint3_linear_424_1163" x1="116.999" y1="94.4942" x2="101.124" y2="29.154" gradientUnits="userSpaceOnUse">
<stop stop-color="#C2BDFF"/>
<stop offset="1" stop-color="#726BC1" stop-opacity="0"/>
</linearGradient>
<linearGradient id="paint4_linear_424_1163" x1="114.025" y1="93.1567" x2="98.1314" y2="27.7408" gradientUnits="userSpaceOnUse">
<stop stop-color="#C2BDFF"/>
<stop offset="1" stop-color="#726BC1" stop-opacity="0"/>
</linearGradient>
<linearGradient id="paint5_linear_424_1163" x1="111.098" y1="91.8565" x2="95.1791" y2="26.3315" gradientUnits="userSpaceOnUse">
<stop stop-color="#C2BDFF"/>
<stop offset="1" stop-color="#726BC1" stop-opacity="0"/>
</linearGradient>
<linearGradient id="paint6_linear_424_1163" x1="108.154" y1="90.5706" x2="92.2046" y2="24.9194" gradientUnits="userSpaceOnUse">
<stop stop-color="#C2BDFF"/>
<stop offset="1" stop-color="#726BC1" stop-opacity="0"/>
</linearGradient>
<linearGradient id="paint7_linear_424_1163" x1="105.226" y1="89.2852" x2="89.246" y2="23.503" gradientUnits="userSpaceOnUse">
<stop stop-color="#C2BDFF"/>
<stop offset="1" stop-color="#726BC1" stop-opacity="0"/>
</linearGradient>
<linearGradient id="paint8_linear_424_1163" x1="102.326" y1="88.0526" x2="86.3015" y2="22.0838" gradientUnits="userSpaceOnUse">
<stop stop-color="#C2BDFF"/>
<stop offset="1" stop-color="#726BC1" stop-opacity="0"/>
</linearGradient>
<linearGradient id="paint9_linear_424_1163" x1="99.4355" y1="86.829" x2="83.3645" y2="20.6636" gradientUnits="userSpaceOnUse">
<stop stop-color="#C2BDFF"/>
<stop offset="1" stop-color="#726BC1" stop-opacity="0"/>
</linearGradient>
<linearGradient id="paint10_linear_424_1163" x1="96.5765" y1="85.6448" x2="80.4477" y2="19.2349" gradientUnits="userSpaceOnUse">
<stop stop-color="#C2BDFF"/>
<stop offset="1" stop-color="#726BC1" stop-opacity="0"/>
</linearGradient>
<linearGradient id="paint11_linear_424_1163" x1="93.7276" y1="84.4947" x2="77.5322" y2="17.803" gradientUnits="userSpaceOnUse">
<stop stop-color="#C2BDFF"/>
<stop offset="1" stop-color="#726BC1" stop-opacity="0"/>
</linearGradient>
<linearGradient id="paint12_linear_424_1163" x1="90.9155" y1="83.3758" x2="74.6437" y2="16.3613" gradientUnits="userSpaceOnUse">
<stop stop-color="#C2BDFF"/>
<stop offset="1" stop-color="#726BC1" stop-opacity="0"/>
</linearGradient>
<linearGradient id="paint13_linear_424_1163" x1="88.1346" y1="82.2908" x2="71.776" y2="14.9087" gradientUnits="userSpaceOnUse">
<stop stop-color="#C2BDFF"/>
<stop offset="1" stop-color="#726BC1" stop-opacity="0"/>
</linearGradient>
<linearGradient id="paint14_linear_424_1163" x1="85.3702" y1="81.2638" x2="68.9115" y2="13.4575" gradientUnits="userSpaceOnUse">
<stop stop-color="#C2BDFF"/>
<stop offset="1" stop-color="#726BC1" stop-opacity="0"/>
</linearGradient>
<linearGradient id="paint15_linear_424_1163" x1="82.6555" y1="80.2897" x2="66.0812" y2="11.994" gradientUnits="userSpaceOnUse">
<stop stop-color="#C2BDFF"/>
<stop offset="1" stop-color="#726BC1" stop-opacity="0"/>
</linearGradient>
<linearGradient id="paint16_linear_424_1163" x1="79.9789" y1="79.3734" x2="63.2727" y2="10.5189" gradientUnits="userSpaceOnUse">
<stop stop-color="#C2BDFF"/>
<stop offset="1" stop-color="#726BC1" stop-opacity="0"/>
</linearGradient>
<linearGradient id="paint17_linear_424_1163" x1="78.3285" y1="79.9473" x2="61.084" y2="8.81042" gradientUnits="userSpaceOnUse">
<stop stop-color="#C2BDFF"/>
<stop offset="1" stop-color="#726BC1" stop-opacity="0"/>
</linearGradient>
<linearGradient id="paint18_linear_424_1163" x1="76.7771" y1="80.6467" x2="58.9598" y2="7.08148" gradientUnits="userSpaceOnUse">
<stop stop-color="#C2BDFF"/>
<stop offset="1" stop-color="#726BC1" stop-opacity="0"/>
</linearGradient>
<linearGradient id="paint19_linear_424_1163" x1="75.278" y1="81.4278" x2="56.8634" y2="5.33239" gradientUnits="userSpaceOnUse">
<stop stop-color="#C2BDFF"/>
<stop offset="1" stop-color="#726BC1" stop-opacity="0"/>
</linearGradient>
<linearGradient id="paint20_linear_424_1163" x1="73.8108" y1="82.2616" x2="54.789" y2="3.59526" gradientUnits="userSpaceOnUse">
<stop stop-color="#C2BDFF"/>
<stop offset="1" stop-color="#726BC1" stop-opacity="0"/>
</linearGradient>
<linearGradient id="paint21_linear_424_1163" x1="72.3747" y1="83.135" x2="52.7334" y2="1.84808" gradientUnits="userSpaceOnUse">
<stop stop-color="#C2BDFF"/>
<stop offset="1" stop-color="#726BC1" stop-opacity="0"/>
</linearGradient>
</defs>
</svg>
