<svg width="35" height="26" viewBox="0 0 35 26" fill="none" xmlns="http://www.w3.org/2000/svg">
<g id="mastercard-2 1" clip-path="url(#clip0_1133_5214)">
<path id="Vector" d="M34.6655 16.7301V16.3291H34.5561L34.4296 16.6043L34.3038 16.3291H34.194V16.7301H34.2717V16.428L34.39 16.6887H34.4705L34.5888 16.4274V16.7301H34.6658H34.6655ZM33.9716 16.7301V16.3978H34.1116V16.3301H33.7539V16.3978H33.8939V16.7301H33.9709H33.9716Z" fill="#F79410"/>
<path id="Vector_2" d="M22.2346 18.4497H12.7695V2.20801H22.2348L22.2346 18.4497Z" fill="#FF5F00"/>
<path id="Vector_3" d="M13.37 10.3293C13.37 7.03472 14.9856 4.09986 17.5014 2.20851C15.5971 0.774743 13.2417 -0.0034102 10.8166 1.12346e-05C4.8426 1.12346e-05 0 4.62454 0 10.3293C0 16.0341 4.8426 20.6586 10.8166 20.6586C13.2418 20.6621 15.5972 19.884 17.5016 18.4502C14.9859 16.5591 13.37 13.6241 13.37 10.3293Z" fill="#EB001B"/>
<path id="Vector_4" d="M35.0044 10.3293C35.0044 16.0341 30.1618 20.6586 24.1878 20.6586C21.7624 20.662 19.4067 19.8839 17.502 18.4502C20.0185 16.5588 21.6341 13.6241 21.6341 10.3293C21.6341 7.03455 20.0185 4.09986 17.502 2.20851C19.4066 0.774786 21.7623 -0.00335022 24.1877 1.08427e-05C30.1616 1.08427e-05 35.0042 4.62454 35.0042 10.3293" fill="#F79E1B"/>
</g>
<defs>
<clipPath id="clip0_1133_5214">
<rect width="35" height="26" fill="white"/>
</clipPath>
</defs>
</svg>
