<svg fill="none" xmlns="http://www.w3.org/2000/svg" viewBox="0 0 22.58 23.98"><path d="M19.356 15.167v-4.556c0-3.385-2.258-6.337-5.367-7.439a2.6 2.6 0 0 0 .056-.53C14.045 1.184 12.812 0 11.291 0c-1.52 0-2.754 1.184-2.754 2.642 0 .174.02.348.053.514a8.075 8.075 0 0 0-2.9 1.722c-1.588 1.47-2.463 3.446-2.463 5.566v4.723a.313.313 0 0 1-.319.306c-1.488 0-2.758 1.075-2.895 2.445-.077.762.186 1.52.722 2.085a2.89 2.89 0 0 0 2.089.885h4.862c.202 1.737 1.742 3.095 3.605 3.095s3.404-1.358 3.605-3.095h4.863a2.89 2.89 0 0 0 2.089-.886 2.67 2.67 0 0 0 .722-2.084c-.137-1.37-1.412-2.445-2.896-2.445a.31.31 0 0 1-.318-.306ZM11.29 1.547c.63 0 1.141.492 1.141 1.095 0 .05-.008.097-.016.147a7.44 7.44 0 0 0-.83-.074 8.656 8.656 0 0 0-1.42.078c-.008-.05-.016-.097-.016-.147 0-.607.512-1.099 1.141-1.099Zm0 20.889c-.971 0-1.786-.666-1.975-1.548h3.951c-.19.882-1.004 1.548-1.976 1.548Zm9.674-4.372c.032.333-.077.654-.307.898a1.24 1.24 0 0 1-.899.379H2.824c-.347 0-.662-.135-.896-.38a1.124 1.124 0 0 1-.31-.896c.056-.585.625-1.045 1.29-1.045 1.065 0 1.932-.831 1.932-1.853v-4.723c0-1.694.701-3.276 1.972-4.452 1.213-1.126 2.794-1.737 4.48-1.737.08 0 .157 0 .237.004 3.424.116 6.214 2.967 6.214 6.351v4.557c0 1.022.867 1.853 1.931 1.853.666 0 1.23.46 1.29 1.044Z" fill="#454F94"/></svg>