<?xml version="1.0" encoding="utf-8"?>
<!-- Generator: Adobe Illustrator 24.0.1, SVG Export Plug-In . SVG Version: 6.00 Build 0)  -->
<svg version="1.1" id="Layer_1" xmlns="http://www.w3.org/2000/svg" xmlns:xlink="http://www.w3.org/1999/xlink" x="0px" y="0px"
	 viewBox="0 0 1610 850" style="enable-background:new 0 0 1610 850;" xml:space="preserve">
<style type="text/css">
	.st0{fill:#239658;}
	.st1{fill:none;}
	.st2{fill:#33CB4E;}
</style>
<g>
	<path class="st0" d="M114.6,484.07c1.32-19.47,2.64-29.05,3.96-48.52c0.99-18.81-5.94-23.76-15.84-23.76
		c-10.89,0-21.78,9.9-23.76,41.59c-4.34,69.41-12.98,133.56-16.83,202.99c-0.99,17.82,6.93,21.78,12.87,22.77
		c12.87,0.99,23.76-8.91,25.75-29.71c1.6-16.81,2.64-33.67,3.96-50.5c16.17-2.31,33.94-4.31,50.11-6.62
		c-0.99,17.82-2.58,30.39-4.57,48.21c-0.38,4.25-4.95,54.46-47.53,80.21c-9.59,5.23-37.63,15.84-61.39,7.92
		c-16.41-5.47-32.68-27.73-31.69-56.44c2.61-75.8,15.59-200.04,16.83-217.84c2.97-42.58,30.7-88.13,76.25-93.08
		c7.92-0.99,28.72-2.97,41.59,5.94c17.82,12.87,23.76,33.67,23.76,51.49c0,18.84-1.98,31.69-3.96,59.41
		C164.11,478.13,131.1,481.76,114.6,484.07z"/>
	<path class="st0" d="M182.8,355.69c-10.23,120.47-19.98,242.25-30.21,362.72c16.83-2.31,33.18-5.92,50.01-8.23
		c0.13-1.6,0.35-4.18,0.58-7.35c6.75-91.01,9.89-149.97,15.26-195.64c1.98-16.83,16.45-25.66,22.77-24.75
		c1.96,0.28,7.92,0.99,6.93,12.87c-5.61,70.96-12.52,139.97-18.13,210.94c16.5-2.31,33.31-5.64,49.81-7.95
		c5.94-71.29,11.88-142.59,17.82-213.88c0.99-18.81,0.36-28.4-4.95-39.61c-8.91-18.81-28.78-14.58-30.7-13.86
		c-15.84,5.94-24.75,17.82-38.62,31.69c2.97-37.96,5.94-76.91,8.91-114.86C215.81,350.41,199.31,353.05,182.8,355.69z"/>
	<path class="st0" d="M418.36,417.61c-22.8-18.4-68.32-12.87-94.07,24.76c-5.54,8.09-13.89,24.6-16.83,44.56
		c-0.69,4.7-0.89,8.25-0.99,9.9c-2.86,47.92-7.11,82.88-9.9,123.77c-2.97,43.57,13.86,67.33,51.49,66.34
		c20.78-0.54,56.34-14.55,71.29-59.41c5.94-17.82,6.93-51.49,6.93-51.49c-15.52,2.31-31.02,4.62-46.54,6.93
		c-0.66,11.56-0.08,20.27-1.98,31.69c-3.96,23.76-14.85,28.72-23.76,27.73c-6.13-0.68-12.87-6.93-11.88-23.76
		c1.32-20.79,3.63-38.62,4.95-59.41c27.4-4.29,54.79-8.59,82.19-12.87c1.98-26.07,3.96-52.15,5.94-78.23
		C435.55,464.12,437.85,433.34,418.36,417.61z M389.64,473.06c-1.07,12.86-1.98,27.73-2.97,41.59c-11.88,1.65-23.76,3.3-35.65,4.95
		c0,0-0.3-31.79,5.94-50.5c1.98-5.94,6.93-14.85,16.83-16.83C386.75,449.67,390.63,461.18,389.64,473.06z"/>
	<path class="st0" d="M493.84,467.12c-5.94,65.35-7.19,88.1-10.89,130.71c-1.98,22.77,4.95,23.76,9.9,23.76
		c8.91,0,16.83-2.97,18.81-29.71c0.95-12.88,0.99-12.87,1.98-32.68c16.17-1.98,33.34-3.96,49.51-5.94c0,4.95-0.25,10.64-0.74,16.96
		c0,0-1.08,11.45-2.23,20.67c-4.95,39.57-24.72,55.42-24.75,55.45l0,0c-22.2,22.2-70.28,27.81-87.48,5.7
		c-6.93-8.91-13.27-19.91-11.06-64.16c2-40.02,5.14-73.9,8.44-113.83c0.59-6.89,4.62-52.74,37.63-75.26
		c6.89-4.7,33.54-16.09,60.4-10.89c30.7,5.94,28.72,42.58,28.72,47.53c0,15.87-1.98,34.59-1.98,41.59c0,0.99-33.01,4.62-49.51,6.93
		c0.99-13.53,1.98-22.11,2.97-35.65c0.99-12.87-2.88-15.07-7.92-15.84c-6.95-1.06-17.82,3.96-19.8,17.82
		C495.23,454.68,494.67,458,493.84,467.12z"/>
	<path class="st0" d="M595.07,290.32c16.59-2.21,36.1-4.39,52.6-7.03c-4.95,57.43-8.91,114.86-13.86,172.29c0.99,0,0.99,0,1.98,0
		c11.55-28.06,23.1-56.11,34.66-84.17c14.19-1.98,28.39-3.96,42.58-5.94c-13.86,30.7-27.73,61.39-41.59,92.09
		c9.57,58.42,19.14,116.84,28.72,175.27c-15.84,2.31-31.69,4.62-47.53,6.93c-4.95-35.98-10.89-71.95-15.84-107.93
		c-0.99,0-0.99,0-1.98,0c-3.3,6.93-6.6,13.86-9.9,20.79c-2.64,31.03-5.28,62.05-7.92,93.08c-16.17,2.31-33.39,5.14-49.56,7.45
		C577.32,532.67,585.17,410.79,595.07,290.32z"/>
	<path class="st0" d="M715.88,272.28c16.17-2.64,32.35-5.28,48.52-7.92c1.65,65.68,3.3,131.37,4.95,197.05c0.99,0,1.98,0,2.97,0
		c13.86-67.99,27.73-135.99,41.59-203.98c12.54-1.98,25.09-3.96,37.63-5.94c2.31,65.35,4.62,130.71,6.93,196.06
		c1.32,0,2.64,0,3.96,0c13.2-67.99,26.41-135.14,39.61-203.13c16.17-2.31,32.34-5.47,48.52-7.78
		c-26.41,123.11-52.81,246.23-79.22,369.34c-13.86,1.98-31.21,5.37-45.08,7.35c-3.3-62.71-3.11-126.83-6.41-189.54
		c-0.66,0-1.32,0-1.98,0c-14.52,65.68-29.05,131.37-43.57,197.05c-13.86,1.98-28.2,4.89-42.06,6.87
		C726.63,509.54,721.49,390.45,715.88,272.28z"/>
	<path class="st0" d="M1094.95,274.15c-8.91-64.36-80.08-47.4-83.18-47.53c-16.51,2.64-35.15,5.75-51.66,8.39
		c-10.23,120.48-19.64,241.25-29.87,361.72c17.5-2.31,36.3-5.4,53.8-7.7c4.29-51.16,8.59-102.32,12.87-153.48
		c4.95-0.33,9.9-0.66,14.85-0.99c4.95,49.18,9.9,98.36,14.85,147.54c17.16-2.64,34.33-5.28,51.49-7.92
		c-5.94-56.77-11.88-113.55-17.82-170.31C1096.93,375.15,1099.2,304.8,1094.95,274.15z M1044.45,335.54
		c-2.4,24-16.83,49.51-42.58,50.5c2.97-35.97,5.94-71.96,8.91-107.93C1036.53,276.13,1049.4,286.03,1044.45,335.54z"/>
	<path class="st0" d="M1599.27,196.26c-8.91-64.36-80.08-47.4-83.18-47.53c-11.59,1.86-18.5,2.95-49.51,7.92
		c-10.23,120.48-20.58,242.18-30.81,362.65c17.5-2.31,35.1-5.85,52.6-8.16c4.29-51.16,8.58-102.32,12.87-153.48
		c4.95-0.33,9.9-0.66,14.85-0.99c4.95,49.18,9.9,98.36,14.85,147.54c17.16-2.64,34.33-5.28,51.49-7.92
		c-5.94-56.77-11.88-113.55-17.82-170.31C1601.25,297.26,1603.52,226.91,1599.27,196.26z M1548.77,257.65
		c-2.4,24-16.83,49.51-42.58,50.5c2.97-35.97,5.94-71.96,8.91-107.93C1540.85,198.24,1553.72,208.14,1548.77,257.65z"/>
	<path class="st0" d="M1117.84,209.67c-10.23,120.8-20.28,243.03-30.51,363.84c17.49-2.64,35.6-5.1,53.1-7.74
		c3.09-36.73,11.44-146.57,14.55-183.3c3.08-36.38,11.26-144.34,14.36-180.71c-6.25,0.83-11.56,1.71-17.91,2.64
		C1140.02,206.05,1128.83,207.81,1117.84,209.67z"/>
	<path class="st0" d="M1178.59,201.27c-0.55-0.55-2.22,36.27-3.87,54.76c16.17-2.31,31.73-4.44,47.91-6.75
		c-8.58,102.32-17.16,204.64-25.75,306.96c17.49-2.64,34.99-5.28,52.48-7.92c8.58-102.65,17.16-205.3,25.75-307.95
		c16.17-2.31,31.67-4.15,47.84-6.46c1.32-18.48,3.66-37.38,4.98-55.86C1278.41,185.63,1228.1,193.68,1178.59,201.27z"/>
	<path class="st0" d="M1336.77,176.93c-10.23,120.47-20.19,241.8-30.42,362.28c39.94-5.94,81.24-12.8,121.18-18.74
		c1.32-17.82,2.64-35.65,3.96-53.47c-22.44,3.3-44.89,6.6-67.33,9.9c2.64-33.34,5.28-66.67,7.92-100.01
		c16.5-2.31,33.01-4.62,49.51-6.93c1.32-19.14,2.64-38.29,3.96-57.43c-16.17,2.31-32.35,4.62-48.52,6.93
		c2.64-32.02,5.28-64.03,7.92-96.05c22.77-3.3,45.55-6.6,68.32-9.9c1.32-18.15,3.63-36.31,4.95-54.46
		C1418.62,164.99,1376.38,170.99,1336.77,176.93z"/>
</g>
<path class="st1" d="M954.03,235.56"/>
<path class="st1" d="M719.52,270.96"/>
<g>
	<line class="st2" x1="983.58" y1="136.51" x2="983.58" y2="124.76"/>
	<path class="st2" d="M1610,574.09C1073.51,657.39,537,740.69,0.5,824v-11.5C537.14,729.12,1073.92,645.43,1610,562.18V574.09z"/>
	<path class="st2" d="M582,186.83v11.62c-193.84,30.1-387.67,60.2-581.5,90.3v-11.51C194.33,247.14,388.17,216.99,582,186.83z"/>
	<path class="st2" d="M1610,26.92v11.91c-208.7,32.4-417.4,64.81-626.1,97.21v-11.77C1192.67,91.79,1401.38,59.32,1610,26.92z"/>
	<g>
		<polygon class="st2" points="748.83,128.14 748.83,193.41 725.56,193.41 699.05,150.23 699.05,193.41 680.25,193.41 
			680.25,128.14 706.09,128.14 730.03,167.12 730.03,128.14 		"/>
		<polygon class="st2" points="756.26,193.41 775.07,193.41 799.6,193.41 804.35,193.41 804.35,179.03 791.71,179.03 775.59,179.03 
			775.59,149.66 775.59,128.14 756.26,128.14 		"/>
		<rect x="810.88" y="128.14" class="st2" width="19.91" height="65.27"/>
		<polygon class="st2" points="931.67,142.52 931.67,154.69 959.33,154.69 959.33,167.97 931.67,167.97 931.67,179.03 
			965.96,179.03 965.96,193.41 913.26,193.41 913.26,128.14 965.96,128.14 965.96,142.52 		"/>
		<polygon class="st2" points="906.02,128.14 906.02,193.41 882.74,193.41 856.24,150.23 856.24,193.41 837.43,193.41 
			837.43,128.14 863.27,128.14 887.21,167.12 887.21,128.14 		"/>
		<path class="st2" d="M636.38,128.14C615,128.14,600,142.98,600,161c0,18.02,15,32.41,36.38,32.41c21.38,0,36.62-14.39,36.62-32.41
			C673,142.98,657.77,128.14,636.38,128.14z M636.38,179.03c-10.08,0-18.25-8.17-18.25-18.25c0-10.08,8.17-18.25,18.25-18.25
			c10.08,0,18.25,8.17,18.25,18.25C654.64,170.85,646.46,179.03,636.38,179.03z"/>
	</g>
</g>
</svg>
