<svg width="43" height="14" viewBox="0 0 43 14" fill="none" xmlns="http://www.w3.org/2000/svg">
<g clip-path="url(#clip0_118_2314)">
<path d="M39.3513 0.882812H36.7444C35.9292 0.882812 35.3158 1.10956 34.9688 1.91129L29.9648 13.3217H33.516C33.516 13.3217 34.1052 11.7911 34.2263 11.4672H38.5523C38.6572 11.8964 38.9639 13.3217 38.9639 13.3217H42.1034L39.3513 0.882812ZM35.1948 8.91626C35.4692 8.20361 36.5184 5.42592 36.5184 5.42592C36.5184 5.42592 36.8089 4.69708 36.9784 4.25168L37.2044 5.32064C37.2044 5.32064 37.8582 8.28459 37.9873 8.91626H35.1948Z" fill="white"/>
<path d="M25.4615 4.3394C25.4535 4.91437 26.1879 5.30309 27.3663 5.87806C29.3113 6.76887 30.2153 7.83783 30.1911 9.26312C30.1749 11.8465 27.8667 13.5147 24.3235 13.5147C22.8062 13.4985 21.3534 13.1908 20.5625 12.8506L21.0387 10.0648L21.4664 10.2592C22.5721 10.7208 23.2985 10.9152 24.6464 10.9152C25.6149 10.9152 26.656 10.5345 26.6722 9.70042C26.6802 9.14974 26.2283 8.76103 24.9208 8.15366C23.6294 7.56249 21.9345 6.56641 21.9588 4.7848C21.9749 2.37153 24.3316 0.670898 27.6649 0.670898C28.9724 0.670898 30.0297 0.946238 30.6915 1.19728L30.2314 3.8859L29.9247 3.74823C29.2952 3.49718 28.4962 3.26233 27.3905 3.27043C26.0749 3.26233 25.4615 3.82111 25.4615 4.3394Z" fill="white"/>
<path d="M20.5465 0.888672L18.44 13.3195H15.0664L15.478 10.9062L16.1479 6.93805L17.1648 0.89677L20.5465 0.888672Z" fill="white"/>
<path d="M8.42484 7.2939C7.29492 4.41902 4.59924 2.03005 0.523438 1.04206L0.563794 0.791016H5.8018C6.51204 0.823409 7.08508 1.04206 7.27878 1.80329L8.42484 7.2939Z" fill="white"/>
<path d="M15.8032 0.90625L10.4845 13.3127H6.91721L3.89062 2.947C6.0617 4.348 7.90992 6.56691 8.56366 8.10558L8.91879 9.3932L12.2278 0.90625H15.8032Z" fill="white"/>
</g>
<defs>
<clipPath id="clip0_118_2314">
<rect width="43" height="14" fill="white"/>
</clipPath>
</defs>
</svg>
