<svg width="20" height="20" viewBox="0 0 20 20" fill="none" xmlns="http://www.w3.org/2000/svg">
<mask id="mask0_44_946" style="mask-type:alpha" maskUnits="userSpaceOnUse" x="0" y="0" width="20" height="20">
<rect width="20" height="20" fill="#D9D9D9"/>
</mask>
<g mask="url(#mask0_44_946)">
<path d="M9.24984 15.8334H10.7082V14.7917C11.4026 14.6667 11.9998 14.3959 12.4998 13.9792C12.9998 13.5626 13.2498 12.9445 13.2498 12.1251C13.2498 11.5417 13.0832 11.007 12.7498 10.5209C12.4165 10.0348 11.7498 9.61119 10.7498 9.25008C9.9165 8.9723 9.34011 8.72925 9.02067 8.52092C8.70123 8.31258 8.5415 8.02786 8.5415 7.66675C8.5415 7.30564 8.66998 7.02091 8.92692 6.81258C9.18387 6.60425 9.55539 6.50008 10.0415 6.50008C10.4859 6.50008 10.8332 6.60772 11.0832 6.823C11.3332 7.03828 11.5137 7.30564 11.6248 7.62508L12.9582 7.08341C12.8054 6.5973 12.5241 6.17369 12.1144 5.81258C11.7047 5.45147 11.2498 5.25008 10.7498 5.20841V4.16675H9.2915V5.20841C8.59706 5.36119 8.05539 5.66675 7.6665 6.12508C7.27762 6.58341 7.08317 7.0973 7.08317 7.66675C7.08317 8.31953 7.27414 8.8473 7.65609 9.25008C8.03803 9.65286 8.63873 10.0001 9.45817 10.2917C10.3332 10.6112 10.9408 10.8959 11.2811 11.1459C11.6214 11.3959 11.7915 11.7223 11.7915 12.1251C11.7915 12.5834 11.6283 12.9202 11.3019 13.1355C10.9755 13.3508 10.5832 13.4584 10.1248 13.4584C9.6665 13.4584 9.26025 13.3161 8.90609 13.0313C8.55192 12.7466 8.2915 12.3195 8.12484 11.7501L6.74984 12.2917C6.94428 12.9584 7.24637 13.4966 7.65609 13.9063C8.06581 14.3161 8.59706 14.5973 9.24984 14.7501V15.8334ZM9.99984 18.3334C8.84706 18.3334 7.76373 18.1147 6.74984 17.6772C5.73595 17.2397 4.854 16.6459 4.104 15.8959C3.354 15.1459 2.76025 14.264 2.32275 13.2501C1.88525 12.2362 1.6665 11.1529 1.6665 10.0001C1.6665 8.8473 1.88525 7.76397 2.32275 6.75008C2.76025 5.73619 3.354 4.85425 4.104 4.10425C4.854 3.35425 5.73595 2.7605 6.74984 2.323C7.76373 1.8855 8.84706 1.66675 9.99984 1.66675C11.1526 1.66675 12.2359 1.8855 13.2498 2.323C14.2637 2.7605 15.1457 3.35425 15.8957 4.10425C16.6457 4.85425 17.2394 5.73619 17.6769 6.75008C18.1144 7.76397 18.3332 8.8473 18.3332 10.0001C18.3332 11.1529 18.1144 12.2362 17.6769 13.2501C17.2394 14.264 16.6457 15.1459 15.8957 15.8959C15.1457 16.6459 14.2637 17.2397 13.2498 17.6772C12.2359 18.1147 11.1526 18.3334 9.99984 18.3334Z" fill="#478DF6"/>
</g>
</svg>
