<svg fill="none" xmlns="http://www.w3.org/2000/svg" viewBox="61.93 48.06 365.68 268.78"><path d="M371.455 164.063C313.236 100.031 258.248 13.892 170.222 63.128-24.478 172.03 93.948 347.93 145.28 302.8c95.405-83.877 66.406-19.912 189.848 8.368 123.441 28.281 109.1-67.066 36.327-147.106Z" stroke="url(#a)"/><path d="M365.774 167.45C309.829 103.936 257.383 18.852 170.543 65.644c-192.079 103.498-78.98 277.337-28.086 233.994 94.59-80.554 65.245-18.449 185.524 11.109s107.725-63.904 37.793-143.297Z" stroke="url(#b)"/><path d="M360.171 170.7C306.467 107.759 256.517 23.79 170.917 68.187c-189.335 98.201-81.47 269.857-31.057 228.277 93.695-77.278 64.056-17.028 181.164 13.715C438.131 340.921 427.3 249.377 360.171 170.7Z" stroke="url(#c)"/><path d="M354.651 173.816c-51.494-62.314-98.997-145.113-183.304-103.058-186.473 93.018-83.743 262.369-33.854 222.525 92.721-74.051 62.839-15.648 176.767 16.187 113.929 31.835 104.758-57.761 40.391-135.654Z" stroke="url(#d)"/><path d="M349.216 176.801c-49.317-61.634-94.424-143.206-177.384-103.442-183.497 87.951-85.802 254.877-36.479 216.744 91.668-70.874 61.594-14.312 172.339 18.523 110.746 32.835 103.17-54.784 41.524-131.825Z" stroke="url(#e)"/><path d="M343.871 179.655c-47.176-60.899-89.935-141.19-171.499-103.665-180.409 83.001-87.646 247.389-38.93 210.936 90.539-67.748 60.323-13.018 167.883 20.725 107.559 33.743 101.515-51.871 42.546-127.996Z" stroke="url(#f)"/><path d="M338.615 182.382c-45.069-60.114-85.534-139.07-165.652-103.73-177.21 78.17-89.275 239.907-41.208 205.107 89.336-64.677 59.028-11.769 163.401 22.79 104.374 34.559 99.796-49.025 43.459-124.167Z" stroke="url(#g)"/><path d="M333.455 184.983c-43-59.278-81.223-136.848-159.848-103.635-173.905 73.461-90.69 232.435-43.31 199.258 88.058-61.661 57.707-10.563 158.896 24.72 101.189 35.282 98.012-46.247 44.262-120.343Z" stroke="url(#h)"/><path d="M328.389 187.461C287.42 129.07 251.385 52.937 174.302 84.077c-170.498 68.876-91.894 224.98-45.24 193.396 86.708-58.701 56.364-9.402 154.372 26.513 98.008 35.915 96.165-43.536 44.955-116.525Z" stroke="url(#i)"/><path d="M323.423 189.82c-38.976-57.456-72.878-132.103-148.376-102.98-166.99 64.418-92.885 217.548-46.996 187.525 85.287-55.8 55-8.286 149.833 28.17s94.258-40.895 45.539-112.715Z" stroke="url(#j)"/><path d="M318.558 192.062c-37.023-56.473-68.848-129.586-142.716-102.42-163.385 60.087-93.666 210.14-48.578 181.646 83.797-52.959 53.614-7.216 145.28 29.691 91.666 36.906 92.293-38.327 46.014-108.917Z" stroke="url(#k)"/><path d="M313.797 194.188c-35.111-55.443-64.916-126.976-137.112-101.709-159.686 55.887-94.237 202.764-49.987 175.766 82.239-50.178 52.208-6.191 140.717 31.076 88.509 37.266 90.271-35.83 46.382-105.133Z" stroke="url(#l)"/><path d="M309.143 196.203c-33.241-54.367-61.085-124.275-131.567-100.847-155.896 51.818-94.6 195.423-51.224 169.887 80.615-47.46 50.785-5.212 136.149 32.324s88.193-33.406 46.642-101.364Z" stroke="url(#m)"/><path d="M304.597 198.107c-31.414-53.246-57.355-121.485-126.084-99.837-152.02 47.883-94.754 188.123-52.288 164.015 78.927-44.806 49.344-4.279 131.577 33.437 82.233 37.716 86.063-31.058 46.795-97.615Z" stroke="url(#n)"/><path d="M300.162 199.904c-29.63-52.081-53.728-118.61-120.666-98.679-148.058 44.084-94.704 180.868-53.18 158.152 77.175-42.217 47.886-3.393 127.004 34.414 79.119 37.807 83.881-28.785 46.842-93.887Z" stroke="url(#o)"/><path d="M295.84 201.597c-27.893-50.874-50.207-115.651-115.318-97.376-144.016 40.421-94.449 173.662-53.9 152.304 75.361-39.696 46.412-2.556 122.434 35.254 76.022 37.81 81.649-26.589 46.784-90.182Z" stroke="url(#p)"/><path d="M291.633 203.19c-26.199-49.626-46.792-112.612-110.041-95.93-139.896 36.897-93.99 166.511-54.449 146.473 73.488-37.242 44.925-1.764 117.87 35.96 72.946 37.724 79.37-24.47 46.62-86.503Z" stroke="url(#q)"/><path d="M287.545 204.683c-24.553-48.337-43.487-109.495-104.84-94.343-135.703 33.514-93.331 159.419-54.83 140.664 71.558-34.857 43.426-1.021 113.317 36.531 69.891 37.552 77.044-22.43 46.353-82.852Z" stroke="url(#r)"/><path d="M283.575 206.083c-22.954-47.01-40.291-106.304-99.716-92.618-131.439 30.272-92.473 152.391-55.04 134.881 69.57-32.543 41.913-.324 108.774 36.968 66.861 37.293 74.675-20.469 45.982-79.231Z" stroke="url(#s)"/><path d="M279.727 207.389c-21.403-45.643-37.207-103.038-94.674-90.753-127.107 27.173-91.417 145.43-55.083 129.127 67.529-30.3 40.39.324 104.248 37.271 63.857 36.948 72.263-18.59 45.509-75.645Z" stroke="url(#t)"/><path d="M276.003 208.606c-19.901-44.241-34.237-99.704-89.716-88.755-122.712 24.219-90.166 138.542-54.959 123.407 65.434-28.131 38.857.923 99.739 37.441 60.882 36.517 69.812-16.791 44.936-72.093Z" stroke="url(#u)"/><path d="M272.404 209.737c-18.449-42.803-31.381-96.302-84.846-86.623-118.256 21.409-88.721 131.731-54.668 117.723 63.288-26.034 37.316 1.475 95.252 37.479 57.936 36.003 67.323-15.075 44.262-68.579Z" stroke="url(#v)"/><path d="M268.932 210.783c-17.047-41.331-28.642-92.837-80.066-84.361-113.744 18.746-87.085 125.001-54.213 112.081 61.094-24.013 35.768 1.978 90.79 37.384 55.022 35.405 64.798-13.441 43.489-65.104Z" stroke="url(#w)"/><path d="M265.588 211.751c-15.697-39.825-26.02-89.309-75.38-81.97-109.177 16.231-85.259 118.356-53.593 106.483 58.852-22.068 34.213 2.434 86.355 37.159s62.238-11.891 42.618-61.672Z" stroke="url(#x)"/><path d="M262.375 212.64c-14.398-38.288-23.516-85.724-70.789-79.455-104.562 13.866-83.247 111.803-52.812 100.935 56.565-20.199 32.654 2.84 81.951 36.803 49.297 33.964 59.647-10.424 41.65-58.283Z" stroke="url(#y)"/><path d="M259.295 213.455c-13.151-36.72-21.131-82.081-66.297-76.815-99.9 11.65-81.05 105.343-51.869 95.438 54.233-18.408 31.09 3.198 77.58 36.319 46.491 33.121 57.025-9.042 40.586-54.942Z" stroke="url(#z)"/><path d="M256.347 214.201c-11.958-35.122-18.868-78.387-61.907-74.054-95.195 9.583-78.671 98.98-50.767 89.996 51.861-16.696 29.523 3.508 73.246 35.707s54.376-7.746 39.428-51.649Z" stroke="url(#A)"/><path d="M253.535 214.879c-10.819-33.497-16.727-74.642-57.621-71.175-90.451 7.669-76.113 92.72-49.507 84.615 49.448-15.063 27.955 3.769 68.951 34.967 40.997 31.198 51.7-6.536 38.177-48.407Z" stroke="url(#B)"/><path d="M250.859 215.492c-9.734-31.844-14.708-70.851-53.441-68.18-85.673 5.906-73.379 86.567-48.092 79.297 46.998-13.512 26.387 3.981 64.7 34.101 38.313 30.12 49-5.412 36.833-45.218Z" stroke="url(#C)"/><path d="M248.319 216.044c-8.704-30.167-12.814-67.015-49.372-65.072-80.861 4.296-70.469 80.524-46.52 74.046 44.511-12.041 24.818 4.145 60.493 33.11 35.674 28.966 46.279-4.375 35.399-42.084Z" stroke="url(#D)"/><path d="M245.92 216.54c-7.729-28.466-11.044-63.139-45.414-61.855-76.022 2.84-67.39 74.596-44.796 68.865 41.99-10.652 23.252 4.261 56.334 31.996 33.082 27.736 43.537-3.424 33.876-39.006Z" stroke="url(#E)"/><path d="M243.661 216.979c-6.81-26.741-9.399-59.224-41.57-58.529-71.158 1.536-64.142 68.786-42.922 63.758 39.438-9.345 21.689 4.328 52.227 30.76 30.538 26.432 40.778-2.563 32.265-35.989Z" stroke="url(#F)"/><path d="M241.545 217.369c-5.948-24.995-7.882-55.273-37.844-55.098-66.273.387-60.728 63.098-40.898 58.728 36.855-8.122 20.129 4.347 48.173 29.402s38.003-1.788 30.569-33.032Z" stroke="url(#G)"/><path d="M239.568 217.711c-5.142-23.229-6.49-51.291-34.236-51.566-61.371-.608-57.153 57.536-38.727 53.779 34.244-6.983 18.575 4.318 44.176 27.925 25.601 23.607 35.215-1.101 28.787-30.138Z" stroke="url(#H)"/><path d="M237.737 218.01c-4.394-21.445-5.227-47.281-30.75-47.935-56.454-1.448-53.418 52.103-36.411 48.913 31.607-5.928 17.027 4.242 40.238 26.33 23.212 22.089 32.416-.503 26.923-27.308Z" stroke="url(#I)"/><path d="M236.049 218.267c-3.704-19.643-4.092-43.243-27.388-44.208-51.529-2.133-49.527 46.804-33.952 44.136 28.946-4.958 15.486 4.117 36.362 24.618 20.877 20.501 29.607.007 24.978-24.546Z" stroke="url(#J)"/><path d="M234.505 218.486c-3.071-17.824-3.085-39.183-24.152-40.387-46.596-2.664-45.483 41.641-31.352 39.449 26.264-4.074 13.955 3.946 32.552 22.791 18.598 18.846 26.79.428 22.952-21.853Z" stroke="url(#K)"/><path d="M233.109 218.673c-2.496-15.991-2.208-35.102-21.043-36.477-41.661-3.04-41.291 36.618-28.614 34.856 23.561-3.275 12.432 3.727 28.809 20.851 16.377 17.124 23.968.76 20.848-19.23Z" stroke="url(#L)"/><path d="M231.858 218.83c-1.98-14.146-1.459-31.006-18.063-32.48-36.727-3.261-36.953 31.738-25.74 30.359 20.84-2.562 10.92 3.462 25.135 18.8 14.216 15.338 21.143 1.003 18.668-16.679Z" stroke="url(#M)"/><path d="M230.754 218.958c-1.524-12.288-.841-26.894-15.217-28.399-31.797-3.327-32.472 27.006-22.732 25.964 18.103-1.937 9.421 3.149 21.535 16.638 12.115 13.488 18.318 1.158 16.414-14.203Z" stroke="url(#N)"/><path d="M229.798 219.063c-1.126-10.42-.353-22.772-12.503-24.237-26.876-3.239-27.853 22.424-19.593 21.671 15.353-1.398 7.934 2.791 18.01 14.368s15.492 1.224 14.086-11.802Z" stroke="url(#O)"/><defs><radialGradient id="a" cx="0" cy="0" r="1" gradientUnits="userSpaceOnUse" gradientTransform="rotate(48.679 -137.976 373.86) scale(174.631 147.386)"><stop stop-color="#31C64F" stop-opacity=".4"/><stop offset="1" stop-color="#31C64F" stop-opacity=".41"/></radialGradient><radialGradient id="b" cx="0" cy="0" r="1" gradientUnits="userSpaceOnUse" gradientTransform="rotate(49.582 -134.334 364.454) scale(170.794 144.148)"><stop stop-color="#31C64F" stop-opacity=".4"/><stop offset="1" stop-color="#31C64F" stop-opacity=".41"/></radialGradient><radialGradient id="c" cx="0" cy="0" r="1" gradientUnits="userSpaceOnUse" gradientTransform="matrix(106.2321 128.79976 -108.70645 89.65945 226.721 230.169)"><stop stop-color="#31C64F" stop-opacity=".4"/><stop offset="1" stop-color="#31C64F" stop-opacity=".41"/></radialGradient><radialGradient id="d" cx="0" cy="0" r="1" gradientUnits="userSpaceOnUse" gradientTransform="rotate(51.388 -127.186 347.055) scale(163.12 137.673)"><stop stop-color="#31C64F" stop-opacity=".4"/><stop offset="1" stop-color="#31C64F" stop-opacity=".41"/></radialGradient><radialGradient id="e" cx="0" cy="0" r="1" gradientUnits="userSpaceOnUse" gradientTransform="matrix(97.42676 126.0123 -106.3553 82.22888 220.174 229.497)"><stop stop-color="#31C64F" stop-opacity=".4"/><stop offset="1" stop-color="#31C64F" stop-opacity=".41"/></radialGradient><radialGradient id="f" cx="0" cy="0" r="1" gradientUnits="userSpaceOnUse" gradientTransform="matrix(93.12994 124.45992 -105.04544 78.60262 217.142 229.092)"><stop stop-color="#31C64F" stop-opacity=".4"/><stop offset="1" stop-color="#31C64F" stop-opacity=".41"/></radialGradient><radialGradient id="g" cx="0" cy="0" r="1" gradientUnits="userSpaceOnUse" gradientTransform="matrix(88.90704 122.80402 -103.64902 75.0393 214.269 228.645)"><stop stop-color="#31C64F" stop-opacity=".4"/><stop offset="1" stop-color="#31C64F" stop-opacity=".41"/></radialGradient><radialGradient id="h" cx="0" cy="0" r="1" gradientUnits="userSpaceOnUse" gradientTransform="rotate(54.999 -113.369 317.285) scale(147.772 124.723)"><stop stop-color="#31C64F" stop-opacity=".4"/><stop offset="1" stop-color="#31C64F" stop-opacity=".41"/></radialGradient><radialGradient id="i" cx="0" cy="0" r="1" gradientUnits="userSpaceOnUse" gradientTransform="matrix(80.69044 119.18913 -100.60035 68.10593 209.01 227.642)"><stop stop-color="#31C64F" stop-opacity=".4"/><stop offset="1" stop-color="#31C64F" stop-opacity=".41"/></radialGradient><radialGradient id="j" cx="0" cy="0" r="1" gradientUnits="userSpaceOnUse" gradientTransform="matrix(76.70173 117.23486 -98.95136 64.73962 206.624 227.093)"><stop stop-color="#31C64F" stop-opacity=".4"/><stop offset="1" stop-color="#31C64F" stop-opacity=".41"/></radialGradient><radialGradient id="k" cx="0" cy="0" r="1" gradientUnits="userSpaceOnUse" gradientTransform="rotate(57.708 -103.36 298.747) scale(136.26 115.011)"><stop stop-color="#31C64F" stop-opacity=".4"/><stop offset="1" stop-color="#31C64F" stop-opacity=".41"/></radialGradient><radialGradient id="l" cx="0" cy="0" r="1" gradientUnits="userSpaceOnUse" gradientTransform="matrix(68.97215 113.04288 -95.41501 58.21666 202.339 225.925)"><stop stop-color="#31C64F" stop-opacity=".4"/><stop offset="1" stop-color="#31C64F" stop-opacity=".41"/></radialGradient><radialGradient id="m" cx="0" cy="0" r="1" gradientUnits="userSpaceOnUse" gradientTransform="matrix(65.23564 110.80916 -93.53105 55.06366 200.441 225.312)"><stop stop-color="#31C64F" stop-opacity=".4"/><stop offset="1" stop-color="#31C64F" stop-opacity=".41"/></radialGradient><radialGradient id="n" cx="0" cy="0" r="1" gradientUnits="userSpaceOnUse" gradientTransform="matrix(61.58714 108.48658 -91.57123 51.9844 198.706 224.682)"><stop stop-color="#31C64F" stop-opacity=".4"/><stop offset="1" stop-color="#31C64F" stop-opacity=".41"/></radialGradient><radialGradient id="o" cx="0" cy="0" r="1" gradientUnits="userSpaceOnUse" gradientTransform="matrix(58.02776 106.07776 -89.53952 48.98084 197.134 224.044)"><stop stop-color="#31C64F" stop-opacity=".4"/><stop offset="1" stop-color="#31C64F" stop-opacity=".41"/></radialGradient><radialGradient id="p" cx="0" cy="0" r="1" gradientUnits="userSpaceOnUse" gradientTransform="rotate(62.222 -87.22 273.852) scale(117.075 98.8234)"><stop stop-color="#31C64F" stop-opacity=".4"/><stop offset="1" stop-color="#31C64F" stop-opacity=".41"/></radialGradient><radialGradient id="q" cx="0" cy="0" r="1" gradientUnits="userSpaceOnUse" gradientTransform="matrix(51.18803 101.00807 -85.26243 43.20859 194.477 222.746)"><stop stop-color="#31C64F" stop-opacity=".4"/><stop offset="1" stop-color="#31C64F" stop-opacity=".41"/></radialGradient><radialGradient id="r" cx="0" cy="0" r="1" gradientUnits="userSpaceOnUse" gradientTransform="matrix(47.90967 98.35264 -83.02218 40.44187 193.393 222.095)"><stop stop-color="#31C64F" stop-opacity=".4"/><stop offset="1" stop-color="#31C64F" stop-opacity=".41"/></radialGradient><radialGradient id="s" cx="0" cy="0" r="1" gradientUnits="userSpaceOnUse" gradientTransform="matrix(44.72813 95.61984 -80.71662 37.75684 192.471 221.451)"><stop stop-color="#31C64F" stop-opacity=".4"/><stop offset="1" stop-color="#31C64F" stop-opacity=".41"/></radialGradient><radialGradient id="t" cx="0" cy="0" r="1" gradientUnits="userSpaceOnUse" gradientTransform="matrix(41.64501 92.81204 -78.3478 35.15486 191.711 220.814)"><stop stop-color="#31C64F" stop-opacity=".4"/><stop offset="1" stop-color="#31C64F" stop-opacity=".41"/></radialGradient><radialGradient id="u" cx="0" cy="0" r="1" gradientUnits="userSpaceOnUse" gradientTransform="matrix(38.66184 89.93161 -75.91774 32.63724 191.112 220.189)"><stop stop-color="#31C64F" stop-opacity=".4"/><stop offset="1" stop-color="#31C64F" stop-opacity=".41"/></radialGradient><radialGradient id="v" cx="0" cy="0" r="1" gradientUnits="userSpaceOnUse" gradientTransform="matrix(35.78017 86.98108 -73.42853 30.20525 190.673 219.58)"><stop stop-color="#31C64F" stop-opacity=".4"/><stop offset="1" stop-color="#31C64F" stop-opacity=".41"/></radialGradient><radialGradient id="w" cx="0" cy="0" r="1" gradientUnits="userSpaceOnUse" gradientTransform="rotate(68.543 -65.487 249.198) scale(90.2158 76.1609)"><stop stop-color="#31C64F" stop-opacity=".4"/><stop offset="1" stop-color="#31C64F" stop-opacity=".41"/></radialGradient><radialGradient id="x" cx="0" cy="0" r="1" gradientUnits="userSpaceOnUse" gradientTransform="rotate(69.446 -62.449 246.49) scale(86.3787 72.9234)"><stop stop-color="#31C64F" stop-opacity=".4"/><stop offset="1" stop-color="#31C64F" stop-opacity=".41"/></radialGradient><radialGradient id="y" cx="0" cy="0" r="1" gradientUnits="userSpaceOnUse" gradientTransform="matrix(27.75849 77.73415 -65.62712 23.43513 190.314 217.88)"><stop stop-color="#31C64F" stop-opacity=".4"/><stop offset="1" stop-color="#31C64F" stop-opacity=".41"/></radialGradient><radialGradient id="z" cx="0" cy="0" r="1" gradientUnits="userSpaceOnUse" gradientTransform="matrix(25.29616 74.52864 -62.92274 21.35694 190.512 217.371)"><stop stop-color="#31C64F" stop-opacity=".4"/><stop offset="1" stop-color="#31C64F" stop-opacity=".41"/></radialGradient><radialGradient id="A" cx="0" cy="0" r="1" gradientUnits="userSpaceOnUse" gradientTransform="matrix(22.9434 71.2654 -60.16956 19.37117 190.865 216.893)"><stop stop-color="#31C64F" stop-opacity=".4"/><stop offset="1" stop-color="#31C64F" stop-opacity=".41"/></radialGradient><radialGradient id="B" cx="0" cy="0" r="1" gradientUnits="userSpaceOnUse" gradientTransform="matrix(20.69937 67.94754 -57.37035 17.47716 191.374 216.455)"><stop stop-color="#31C64F" stop-opacity=".4"/><stop offset="1" stop-color="#31C64F" stop-opacity=".41"/></radialGradient><radialGradient id="C" cx="0" cy="0" r="1" gradientUnits="userSpaceOnUse" gradientTransform="matrix(18.56613 64.5776 -54.52721 15.67663 192.038 216.056)"><stop stop-color="#31C64F" stop-opacity=".4"/><stop offset="1" stop-color="#31C64F" stop-opacity=".41"/></radialGradient><radialGradient id="D" cx="0" cy="0" r="1" gradientUnits="userSpaceOnUse" gradientTransform="matrix(16.54391 61.15826 -51.64238 13.96977 192.853 215.703)"><stop stop-color="#31C64F" stop-opacity=".4"/><stop offset="1" stop-color="#31C64F" stop-opacity=".41"/></radialGradient><radialGradient id="E" cx="0" cy="0" r="1" gradientUnits="userSpaceOnUse" gradientTransform="matrix(14.63469 57.69216 -48.71799 12.35822 193.823 215.399)"><stop stop-color="#31C64F" stop-opacity=".4"/><stop offset="1" stop-color="#31C64F" stop-opacity=".41"/></radialGradient><radialGradient id="F" cx="0" cy="0" r="1" gradientUnits="userSpaceOnUse" gradientTransform="rotate(76.669 -38.57 230.84) scale(55.6823 47.0235)"><stop stop-color="#31C64F" stop-opacity=".4"/><stop offset="1" stop-color="#31C64F" stop-opacity=".41"/></radialGradient><radialGradient id="G" cx="0" cy="0" r="1" gradientUnits="userSpaceOnUse" gradientTransform="matrix(11.15785 50.6304 -42.75996 9.42337 196.213 214.947)"><stop stop-color="#31C64F" stop-opacity=".4"/><stop offset="1" stop-color="#31C64F" stop-opacity=".41"/></radialGradient><radialGradient id="H" cx="0" cy="0" r="1" gradientUnits="userSpaceOnUse" gradientTransform="matrix(9.59199 47.0402 -39.73092 8.10155 197.629 214.808)"><stop stop-color="#31C64F" stop-opacity=".4"/><stop offset="1" stop-color="#31C64F" stop-opacity=".41"/></radialGradient><radialGradient id="I" cx="0" cy="0" r="1" gradientUnits="userSpaceOnUse" gradientTransform="matrix(8.14202 43.41431 -36.67166 6.87749 199.194 214.732)"><stop stop-color="#31C64F" stop-opacity=".4"/><stop offset="1" stop-color="#31C64F" stop-opacity=".41"/></radialGradient><radialGradient id="J" cx="0" cy="0" r="1" gradientUnits="userSpaceOnUse" gradientTransform="matrix(6.80933 39.75516 -33.58442 5.7524 200.901 214.72)"><stop stop-color="#31C64F" stop-opacity=".4"/><stop offset="1" stop-color="#31C64F" stop-opacity=".41"/></radialGradient><radialGradient id="K" cx="0" cy="0" r="1" gradientUnits="userSpaceOnUse" gradientTransform="matrix(5.59393 36.06586 -30.47165 4.72625 202.752 214.776)"><stop stop-color="#31C64F" stop-opacity=".4"/><stop offset="1" stop-color="#31C64F" stop-opacity=".41"/></radialGradient><radialGradient id="L" cx="0" cy="0" r="1" gradientUnits="userSpaceOnUse" gradientTransform="matrix(4.49662 32.34897 -27.33567 3.79975 204.745 214.907)"><stop stop-color="#31C64F" stop-opacity=".4"/><stop offset="1" stop-color="#31C64F" stop-opacity=".41"/></radialGradient><radialGradient id="M" cx="0" cy="0" r="1" gradientUnits="userSpaceOnUse" gradientTransform="matrix(3.51798 28.6075 -24.17886 2.97337 206.878 215.112)"><stop stop-color="#31C64F" stop-opacity=".4"/><stop offset="1" stop-color="#31C64F" stop-opacity=".41"/></radialGradient><radialGradient id="N" cx="0" cy="0" r="1" gradientUnits="userSpaceOnUse" gradientTransform="matrix(2.65857 24.84406 -21.00358 2.2476 209.147 215.394)"><stop stop-color="#31C64F" stop-opacity=".4"/><stop offset="1" stop-color="#31C64F" stop-opacity=".41"/></radialGradient><radialGradient id="O" cx="0" cy="0" r="1" gradientUnits="userSpaceOnUse" gradientTransform="rotate(84.795 -12.378 223.73) scale(21.1489 17.886)"><stop stop-color="#31C64F" stop-opacity=".4"/><stop offset="1" stop-color="#31C64F" stop-opacity=".41"/></radialGradient></defs></svg>