<svg width="23" height="26" viewBox="0 0 23 26" fill="none" xmlns="http://www.w3.org/2000/svg">
<g clip-path="url(#clip0_1157_5097)">
<path d="M11.5 13C9.75715 13 8.08568 12.3152 6.8533 11.0962C5.62092 9.87721 4.92857 8.22391 4.92857 6.5C4.92857 4.77609 5.62092 3.12279 6.8533 1.90381C8.08568 0.68482 9.75715 0 11.5 0C13.2429 0 14.9143 0.68482 16.1467 1.90381C17.3791 3.12279 18.0714 4.77609 18.0714 6.5C18.0714 8.22391 17.3791 9.87721 16.1467 11.0962C14.9143 12.3152 13.2429 13 11.5 13ZM10.735 18.2406L9.78013 16.6664C9.45156 16.123 9.84688 15.4375 10.4835 15.4375H11.5H12.5114C13.148 15.4375 13.5433 16.1281 13.2147 16.6664L12.2598 18.2406L13.9746 24.5324L15.8228 17.0727C15.9254 16.6613 16.3259 16.3922 16.7417 16.4988C20.3406 17.3926 23 20.6121 23 24.441C23 25.3043 22.2915 26 21.4239 26H14.6574C14.5496 26 14.452 25.9797 14.3596 25.9441L14.375 26H8.625L8.6404 25.9441C8.54799 25.9797 8.44531 26 8.34263 26H1.57612C0.708482 26 0 25.2992 0 24.441C0 20.607 2.66451 17.3875 6.25826 16.4988C6.67411 16.3973 7.07455 16.6664 7.17723 17.0727L9.02545 24.5324L10.7402 18.2406H10.735Z" fill="#3F3F3F"/>
</g>
<defs>
<clipPath id="clip0_1157_5097">
<rect width="23" height="26" fill="white"/>
</clipPath>
</defs>
</svg>
