<svg width="16" height="16" viewBox="0 0 16 16" fill="none" xmlns="http://www.w3.org/2000/svg">
<path d="M9.10714 1.1875C9.10714 0.530664 8.56451 0 7.89286 0C7.22121 0 6.67857 0.530664 6.67857 1.1875V6.53125H1.21429C0.542634 6.53125 0 7.06191 0 7.71875C0 8.37559 0.542634 8.90625 1.21429 8.90625H6.67857V14.25C6.67857 14.9068 7.22121 15.4375 7.89286 15.4375C8.56451 15.4375 9.10714 14.9068 9.10714 14.25V8.90625H14.5714C15.2431 8.90625 15.7857 8.37559 15.7857 7.71875C15.7857 7.06191 15.2431 6.53125 14.5714 6.53125H9.10714V1.1875Z" fill="#3F3F3F"/>
</svg>
