<svg width="276" height="71" viewBox="0 0 276 71" fill="none" xmlns="http://www.w3.org/2000/svg">
<g clip-path="url(#clip0_3629_1757)">
<path d="M66.1989 8.94922V14.7292H64.1389L61.7889 10.9092V14.7292H60.1289V8.94922H62.4089L64.5289 12.3992V8.94922H66.1989Z" fill="white"/>
<path d="M66.8496 14.7292H68.5196H70.6896H71.1096V13.4492H69.9896H68.5596V10.8592V8.94922H66.8496V14.7292Z" fill="white"/>
<path d="M73.4397 8.94922H71.6797V14.7192H73.4397V8.94922Z" fill="white"/>
<path d="M82.3702 10.2292V11.2992H84.8202V12.4792H82.3702V13.4492H85.4002V14.7292H80.7402V8.94922H85.4002V10.2292H82.3702Z" fill="white"/>
<path d="M80.0993 8.94922V14.7292H78.0393L75.6993 10.9092V14.7292H74.0293V8.94922H76.3193L78.4393 12.3992V8.94922H80.0993Z" fill="white"/>
<path d="M56.2493 8.94922C54.3593 8.94922 53.0293 10.2592 53.0293 11.8592C53.0293 13.4492 54.3593 14.7292 56.2493 14.7292C58.1393 14.7292 59.4893 13.4592 59.4893 11.8592C59.4893 10.2692 58.1393 8.94922 56.2493 8.94922ZM56.2493 13.4492C55.3593 13.4492 54.6393 12.7292 54.6393 11.8392C54.6393 10.9492 55.3593 10.2292 56.2493 10.2292C57.1393 10.2292 57.8593 10.9492 57.8593 11.8392C57.8593 12.7292 57.1393 13.4492 56.2493 13.4492Z" fill="white"/>
<path d="M51.44 14.1406V15.1706C34.29 17.8406 17.15 20.5006 0 23.1606V22.1406C17.15 19.4806 34.29 16.8106 51.44 14.1406Z" fill="white"/>
<path d="M142.37 0V1.05C123.91 3.92 105.45 6.78 86.9902 9.65V8.61C105.46 5.74 123.92 2.87 142.37 0Z" fill="white"/>
<path d="M142.37 48.3996C94.92 55.7696 47.46 63.1396 0 70.5096V69.4896C47.47 62.1196 94.95 54.7096 142.37 47.3496V48.3996Z" fill="white"/>
<path d="M10.0904 40.4404C10.2104 38.7204 10.3204 37.8704 10.4404 36.1504C10.5304 34.4904 9.91042 34.0504 9.04042 34.0504C8.08042 34.0504 7.11042 34.9304 6.94042 37.7304C6.56042 43.8704 5.79042 49.5404 5.45042 55.6904C5.36042 57.2704 6.06042 57.6204 6.59042 57.7004C7.73042 57.7904 8.69042 56.9104 8.87042 55.0704C9.01042 53.5804 9.10042 52.0904 9.22042 50.6004C10.6504 50.4004 12.2204 50.2204 13.6504 50.0104C13.5604 51.5904 13.4204 52.7004 13.2504 54.2704C13.2204 54.6504 12.8104 59.0904 9.05042 61.3604C8.20042 61.8204 5.72042 62.7604 3.62042 62.0604C2.17042 61.5804 0.730416 59.6104 0.820416 57.0704C1.05042 50.3704 2.20042 39.3804 2.31042 37.8004C2.57042 34.0304 5.03042 30.0004 9.05042 29.5704C9.75042 29.4804 11.5904 29.3104 12.7304 30.1004C14.3104 31.2404 14.8304 33.0804 14.8304 34.6504C14.8304 36.3204 14.6504 37.4504 14.4804 39.9104C14.4704 39.9104 11.5504 40.2304 10.0904 40.4404Z" fill="white"/>
<path d="M16.1309 29.0809C15.2209 39.7409 14.3609 50.5109 13.4609 61.1709C14.9509 60.9709 16.3909 60.6509 17.8809 60.4409C17.8909 60.3009 17.9109 60.0709 17.9309 59.7909C18.5309 51.7409 18.8009 46.5209 19.2809 42.4809C19.4609 40.9909 20.7309 40.2109 21.2909 40.2909C21.4609 40.3109 21.9909 40.3809 21.9009 41.4309C21.4009 47.7109 20.7909 53.8109 20.3009 60.0909C21.7609 59.8909 23.2509 59.5909 24.7109 59.3909C25.2409 53.0809 25.7609 46.7809 26.2909 40.4709C26.3809 38.8109 26.3209 37.9609 25.8509 36.9709C25.0609 35.3109 23.3009 35.6809 23.1309 35.7409C21.7309 36.2709 20.9409 37.3209 19.7109 38.5409C19.9709 35.1809 20.2409 31.7409 20.5009 28.3809C19.0509 28.6109 17.5909 28.8509 16.1309 29.0809Z" fill="white"/>
<path d="M36.9593 34.5608C34.9393 32.9308 30.9193 33.4208 28.6393 36.7508C28.1493 37.4708 27.4093 38.9308 27.1493 40.6908C27.0893 41.1108 27.0693 41.4208 27.0593 41.5708C26.8093 45.8108 26.4293 48.9008 26.1793 52.5208C25.9193 56.3708 27.4093 58.4808 30.7293 58.3908C32.5693 58.3408 35.7093 57.1008 37.0393 53.1308C37.5693 51.5508 37.6493 48.5808 37.6493 48.5808C36.2793 48.7808 34.9093 48.9908 33.5293 49.1908C33.4693 50.2108 33.5193 50.9808 33.3493 51.9908C32.9993 54.0908 32.0393 54.5308 31.2493 54.4408C30.7093 54.3808 30.1093 53.8308 30.1993 52.3408C30.3193 50.5008 30.5193 48.9208 30.6393 47.0808C33.0593 46.7008 35.4893 46.3208 37.9093 45.9408C38.0893 43.6308 38.2593 41.3308 38.4393 39.0208C38.4793 38.6708 38.6893 35.9508 36.9593 34.5608ZM34.4193 39.4608C34.3293 40.6008 34.2393 41.9108 34.1593 43.1408C33.1093 43.2908 32.0593 43.4308 31.0093 43.5808C31.0093 43.5808 30.9793 40.7708 31.5393 39.1108C31.7193 38.5808 32.1493 37.8008 33.0293 37.6208C34.1693 37.3908 34.5093 38.4108 34.4193 39.4608Z" fill="white"/>
<path d="M43.6402 38.9392C43.1102 44.7192 43.0002 46.7292 42.6802 50.4992C42.5002 52.5092 43.1202 52.5992 43.5602 52.5992C44.3502 52.5992 45.0502 52.3392 45.2202 49.9692C45.3002 48.8292 45.3102 48.8292 45.4002 47.0792C46.8302 46.8992 48.3502 46.7292 49.7802 46.5492C49.7802 46.9892 49.7602 47.4892 49.7102 48.0492C49.7102 48.0492 49.6102 49.0592 49.5102 49.8792C49.0702 53.3792 47.3202 54.7792 47.3202 54.7892C45.3602 56.7492 41.1002 57.2492 39.5802 55.2892C38.9702 54.4992 38.4102 53.5292 38.6002 49.6092C38.7802 46.0692 39.0502 43.0692 39.3502 39.5392C39.4002 38.9292 39.7602 34.8792 42.6802 32.8792C43.2902 32.4592 45.6502 31.4592 48.0202 31.9192C50.7402 32.4492 50.5602 35.6892 50.5602 36.1192C50.5602 37.5192 50.3802 39.1792 50.3802 39.7992C50.3802 39.8892 47.4602 40.2092 46.0002 40.4092C46.0902 39.2092 46.1802 38.4492 46.2602 37.2592C46.3502 36.1192 46.0102 35.9292 45.5602 35.8592C44.9402 35.7692 43.9802 36.2092 43.8102 37.4392C43.7602 37.8392 43.7102 38.1292 43.6402 38.9392Z" fill="white"/>
<path d="M52.5904 23.2997C54.0604 23.0997 55.7804 22.9097 57.2404 22.6797C56.8004 27.7597 56.4504 32.8397 56.0104 37.9197C56.1004 37.9197 56.1004 37.9197 56.1904 37.9197C57.2104 35.4397 58.2304 32.9597 59.2604 30.4697C60.5204 30.2897 61.7704 30.1197 63.0304 29.9397C61.8004 32.6597 60.5804 35.3697 59.3504 38.0897C60.2004 43.2597 61.0404 48.4297 61.8904 53.5897C60.4904 53.7897 59.0904 53.9997 57.6904 54.1997C57.2504 51.0197 56.7304 47.8397 56.2904 44.6497C56.2004 44.6497 56.2004 44.6497 56.1104 44.6497C55.8204 45.2597 55.5304 45.8797 55.2304 46.4897C55.0004 49.2297 54.7604 51.9797 54.5304 54.7197C53.1004 54.9197 51.5804 55.1697 50.1504 55.3797C51.0204 44.7397 51.7204 33.9597 52.5904 23.2997Z" fill="white"/>
<path d="M63.2793 21.6991C64.7093 21.4691 66.1393 21.2291 67.5693 20.9991C67.7193 26.8091 67.8593 32.6191 68.0093 38.4291C68.0993 38.4291 68.1893 38.4291 68.2693 38.4291C69.4993 32.4191 70.7193 26.3991 71.9493 20.3891C73.0593 20.2091 74.1693 20.0391 75.2793 19.8591C75.4793 25.6391 75.6893 31.4191 75.8893 37.1991C76.0093 37.1991 76.1193 37.1991 76.2393 37.1991C77.4093 31.1891 78.5793 25.2491 79.7393 19.2291C81.1693 19.0291 82.5993 18.7491 84.0293 18.5391C81.6893 29.4291 79.3593 40.3191 77.0193 51.2091C75.7893 51.3891 74.2593 51.6791 73.0293 51.8591C72.7393 46.3091 72.7493 40.6391 72.4593 35.0891C72.3993 35.0891 72.3393 35.0891 72.2793 35.0891C70.9993 40.8991 69.7093 46.7091 68.4293 52.5191C67.1993 52.6991 65.9393 52.9491 64.7093 53.1291C64.2293 42.6891 63.7793 32.1591 63.2793 21.6991Z" fill="white"/>
<path d="M96.8102 21.8696C96.0202 16.1796 89.7302 17.6796 89.4502 17.6696C87.9902 17.8996 86.3402 18.1796 84.8802 18.4096C83.9802 29.0696 83.1402 39.7496 82.2402 50.4096C83.7902 50.2096 85.4502 49.9296 87.0002 49.7296C87.3802 45.1996 87.7602 40.6796 88.1402 36.1496C88.5802 36.1196 89.0202 36.0896 89.4502 36.0596C89.8902 40.4096 90.3302 44.7596 90.7602 49.1096C92.2802 48.8796 93.8002 48.6396 95.3102 48.4096C94.7802 43.3896 94.2602 38.3696 93.7302 33.3396C96.9902 30.7996 97.1902 24.5796 96.8102 21.8696ZM92.3402 27.2996C92.1302 29.4196 90.8502 31.6796 88.5702 31.7696C88.8302 28.5896 89.1002 25.3996 89.3602 22.2196C91.6402 22.0396 92.7802 22.9196 92.3402 27.2996Z" fill="white"/>
<path d="M98.8406 16.1609C97.9306 26.8509 97.0506 37.6609 96.1406 48.3409C97.6906 48.1109 99.2906 47.8909 100.841 47.6609C101.111 44.4109 101.851 34.6909 102.131 31.4509C102.401 28.2309 103.131 18.6809 103.401 15.4609C102.851 15.5309 102.381 15.6109 101.821 15.6909C100.801 15.8409 99.8106 16.0009 98.8406 16.1609Z" fill="white"/>
<path d="M104.209 15.4194C104.159 15.3694 104.009 18.6294 103.869 20.2594C105.299 20.0594 106.679 19.8694 108.109 19.6594C107.349 28.7094 106.589 37.7594 105.829 46.8094C107.379 46.5794 108.919 46.3394 110.469 46.1094C111.229 37.0294 111.989 27.9494 112.749 18.8694C114.179 18.6694 115.549 18.4994 116.979 18.2994C117.099 16.6594 117.299 14.9894 117.419 13.3594C113.039 14.0394 108.589 14.7494 104.209 15.4194Z" fill="white"/>
<path d="M118.2 13.2697C117.29 23.9297 116.41 34.6597 115.51 45.3197C119.04 44.7897 122.7 44.1897 126.23 43.6597C126.35 42.0797 126.46 40.5097 126.58 38.9297C124.59 39.2197 122.61 39.5097 120.62 39.8097C120.85 36.8597 121.09 33.9097 121.32 30.9597C122.78 30.7597 124.24 30.5497 125.7 30.3497C125.82 28.6597 125.93 26.9597 126.05 25.2697C124.62 25.4697 123.19 25.6797 121.76 25.8797C121.99 23.0497 122.23 20.2197 122.46 17.3797C124.47 17.0897 126.49 16.7997 128.5 16.4997C128.62 14.8897 128.82 13.2897 128.94 11.6797C125.44 12.2097 121.71 12.7397 118.2 13.2697Z" fill="white"/>
<path d="M141.419 14.981C140.629 9.29096 134.339 10.791 134.059 10.781C133.029 10.941 132.419 11.041 129.679 11.481C128.779 22.141 127.859 32.901 126.949 43.561C128.499 43.361 130.049 43.041 131.599 42.841C131.979 38.311 132.359 33.791 132.739 29.261C133.179 29.231 133.619 29.201 134.049 29.171C134.489 33.521 134.929 37.871 135.359 42.221C136.879 41.991 138.399 41.751 139.909 41.521C139.379 36.501 138.859 31.481 138.329 26.451C141.599 23.911 141.799 17.691 141.419 14.981ZM136.959 20.411C136.749 22.531 135.469 24.791 133.189 24.881C133.449 21.701 133.719 18.511 133.979 15.331C136.249 15.151 137.389 16.031 136.959 20.411Z" fill="white"/>
<path d="M159.211 0V70.51" stroke="white" stroke-miterlimit="10"/>
<path d="M194.7 25.7408C194.25 26.1708 193.57 26.3908 192.64 26.3908H191.12V29.6808H190.09V21.8008H192.64C193.53 21.8008 194.21 22.0208 194.67 22.4508C195.13 22.8808 195.37 23.4408 195.37 24.1108C195.37 24.7608 195.15 25.3108 194.7 25.7408ZM193.91 25.1708C194.18 24.9208 194.32 24.5708 194.32 24.1108C194.32 23.1408 193.76 22.6508 192.64 22.6508H191.12V25.5508H192.64C193.22 25.5508 193.64 25.4208 193.91 25.1708Z" fill="white"/>
<path d="M197.78 29.3909C197.31 29.1309 196.94 28.7509 196.67 28.2609C196.4 27.7709 196.27 27.2109 196.27 26.5709C196.27 25.9409 196.41 25.3809 196.68 24.8909C196.96 24.4009 197.33 24.0309 197.81 23.7709C198.29 23.5109 198.82 23.3809 199.41 23.3809C200 23.3809 200.53 23.5109 201.01 23.7709C201.49 24.0309 201.86 24.4009 202.14 24.8809C202.42 25.3609 202.55 25.9309 202.55 26.5709C202.55 27.2109 202.41 27.7809 202.13 28.2609C201.85 28.7509 201.46 29.1209 200.98 29.3909C200.5 29.6509 199.96 29.7909 199.37 29.7909C198.78 29.7909 198.25 29.6609 197.78 29.3909ZM200.4 28.6209C200.72 28.4509 200.99 28.1909 201.19 27.8409C201.39 27.4909 201.49 27.0709 201.49 26.5709C201.49 26.0709 201.39 25.6509 201.2 25.3009C201 24.9509 200.75 24.6909 200.43 24.5209C200.11 24.3509 199.77 24.2709 199.4 24.2709C199.02 24.2709 198.68 24.3509 198.36 24.5209C198.05 24.6909 197.8 24.9509 197.61 25.3009C197.42 25.6509 197.33 26.0709 197.33 26.5709C197.33 27.0809 197.42 27.5009 197.61 27.8509C197.79 28.2009 198.04 28.4609 198.35 28.6309C198.66 28.8009 199 28.8809 199.37 28.8809C199.73 28.8809 200.07 28.8009 200.4 28.6209Z" fill="white"/>
<path d="M212.16 23.4805L210.22 29.6805H209.16L207.67 24.7605L206.18 29.6805H205.12L203.17 23.4805H204.22L205.65 28.6905L207.19 23.4805H208.24L209.75 28.7005L211.15 23.4805H212.16Z" fill="white"/>
<path d="M218.811 26.9711H213.851C213.891 27.5811 214.101 28.0611 214.481 28.4011C214.861 28.7411 215.321 28.9111 215.871 28.9111C216.321 28.9111 216.691 28.8111 216.991 28.6011C217.291 28.3911 217.501 28.1211 217.621 27.7711H218.731C218.561 28.3711 218.231 28.8511 217.731 29.2211C217.231 29.5911 216.611 29.7811 215.871 29.7811C215.281 29.7811 214.761 29.6511 214.291 29.3811C213.821 29.1111 213.461 28.7411 213.201 28.2511C212.941 27.7611 212.801 27.2011 212.801 26.5611C212.801 25.9211 212.931 25.3611 213.181 24.8711C213.441 24.3911 213.801 24.0211 214.261 23.7611C214.721 23.5011 215.261 23.3711 215.861 23.3711C216.451 23.3711 216.971 23.5011 217.421 23.7511C217.871 24.0111 218.221 24.3611 218.471 24.8111C218.711 25.2611 218.841 25.7711 218.841 26.3311C218.841 26.5511 218.831 26.7511 218.811 26.9711ZM217.521 25.1211C217.351 24.8411 217.111 24.6211 216.811 24.4711C216.511 24.3211 216.181 24.2511 215.821 24.2511C215.301 24.2511 214.861 24.4211 214.491 24.7511C214.121 25.0811 213.921 25.5411 213.861 26.1311H217.781C217.781 25.7411 217.691 25.4011 217.521 25.1211Z" fill="white"/>
<path d="M221.999 23.6709C222.329 23.4709 222.749 23.3809 223.229 23.3809V24.4409H222.959C221.809 24.4409 221.229 25.0709 221.229 26.3209V29.6909H220.199V23.4909H221.229V24.5009C221.409 24.1409 221.669 23.8609 221.999 23.6709Z" fill="white"/>
<path d="M230.049 26.9711H225.089C225.129 27.5811 225.339 28.0611 225.719 28.4011C226.099 28.7411 226.559 28.9111 227.109 28.9111C227.559 28.9111 227.929 28.8111 228.229 28.6011C228.529 28.3911 228.739 28.1211 228.859 27.7711H229.969C229.799 28.3711 229.469 28.8511 228.969 29.2211C228.469 29.5911 227.849 29.7811 227.109 29.7811C226.519 29.7811 225.999 29.6511 225.529 29.3811C225.059 29.1111 224.699 28.7411 224.439 28.2511C224.179 27.7611 224.039 27.2011 224.039 26.5611C224.039 25.9211 224.169 25.3611 224.419 24.8711C224.679 24.3911 225.039 24.0211 225.499 23.7611C225.959 23.5011 226.499 23.3711 227.099 23.3711C227.689 23.3711 228.209 23.5011 228.659 23.7511C229.109 24.0111 229.459 24.3611 229.709 24.8111C229.949 25.2611 230.079 25.7711 230.079 26.3311C230.079 26.5511 230.069 26.7511 230.049 26.9711ZM228.759 25.1211C228.589 24.8411 228.349 24.6211 228.049 24.4711C227.749 24.3211 227.419 24.2511 227.059 24.2511C226.539 24.2511 226.099 24.4211 225.729 24.7511C225.359 25.0811 225.159 25.5411 225.099 26.1311H229.019C229.019 25.7411 228.929 25.4011 228.759 25.1211Z" fill="white"/>
<path d="M231.439 24.8908C231.699 24.4108 232.049 24.0408 232.499 23.7708C232.949 23.5108 233.449 23.3708 234.009 23.3708C234.489 23.3708 234.939 23.4808 235.359 23.7008C235.769 23.9208 236.089 24.2208 236.309 24.5808V21.3008H237.349V29.6808H236.309V28.5108C236.109 28.8808 235.799 29.1808 235.399 29.4208C234.999 29.6608 234.529 29.7808 233.999 29.7808C233.449 29.7808 232.949 29.6408 232.499 29.3708C232.049 29.1008 231.699 28.7208 231.439 28.2308C231.179 27.7408 231.059 27.1808 231.059 26.5508C231.049 25.9308 231.179 25.3708 231.439 24.8908ZM236.029 25.3508C235.839 25.0008 235.589 24.7408 235.259 24.5508C234.939 24.3708 234.589 24.2708 234.199 24.2708C233.819 24.2708 233.459 24.3608 233.149 24.5408C232.829 24.7208 232.579 24.9908 232.389 25.3308C232.199 25.6808 232.109 26.0808 232.109 26.5508C232.109 27.0308 232.199 27.4408 232.389 27.7908C232.579 28.1408 232.829 28.4108 233.149 28.5908C233.469 28.7808 233.819 28.8708 234.199 28.8708C234.579 28.8708 234.939 28.7808 235.259 28.5908C235.579 28.4108 235.839 28.1408 236.029 27.7908C236.219 27.4408 236.309 27.0308 236.309 26.5608C236.309 26.1108 236.209 25.7008 236.029 25.3508Z" fill="white"/>
<path d="M244.07 23.7303C244.48 23.5003 244.94 23.3803 245.46 23.3803C246.02 23.3803 246.52 23.5103 246.96 23.7803C247.41 24.0403 247.76 24.4203 248.01 24.9003C248.26 25.3803 248.39 25.9403 248.39 26.5703C248.39 27.2003 248.26 27.7503 248.01 28.2503C247.75 28.7403 247.4 29.1203 246.95 29.3903C246.5 29.6603 246 29.8003 245.45 29.8003C244.91 29.8003 244.44 29.6803 244.04 29.4503C243.64 29.2203 243.33 28.9203 243.13 28.5603V29.7003H242.1V21.3203H243.13V24.6503C243.36 24.2703 243.67 23.9703 244.07 23.7303ZM247.07 25.3403C246.88 24.9903 246.63 24.7303 246.3 24.5503C245.98 24.3703 245.63 24.2803 245.24 24.2803C244.86 24.2803 244.51 24.3703 244.19 24.5603C243.87 24.7503 243.61 25.0103 243.42 25.3603C243.23 25.7103 243.13 26.1203 243.13 26.5803C243.13 27.0503 243.23 27.4603 243.42 27.8103C243.61 28.1603 243.87 28.4303 244.19 28.6103C244.51 28.8003 244.86 28.8903 245.24 28.8903C245.62 28.8903 245.98 28.8003 246.3 28.6103C246.62 28.4303 246.88 28.1603 247.07 27.8103C247.26 27.4603 247.35 27.0503 247.35 26.5703C247.36 26.1003 247.26 25.6903 247.07 25.3403Z" fill="white"/>
<path d="M255.109 23.4807L251.369 32.6007H250.309L251.529 29.6107L249.029 23.4707H250.169L252.119 28.5007L254.039 23.4707H255.109V23.4807Z" fill="white"/>
<path d="M187.131 49.0207C186.891 48.8107 186.521 48.5207 186.051 48.2707C186.041 48.2707 186.041 48.2607 186.031 48.2607C185.981 48.2307 185.931 48.2107 185.871 48.1807C185.471 47.9907 184.971 47.8607 184.261 47.7207C183.831 47.6407 183.521 47.5507 182.291 47.3707C179.531 46.9707 178.991 46.9107 178.291 46.7607C177.041 46.4807 176.481 46.0907 176.171 45.5807C175.661 44.7307 175.791 43.9107 175.811 43.4707C176.271 43.8407 176.921 44.1707 177.751 44.3807C178.531 44.5807 178.681 44.6107 180.701 45.0307C181.571 45.2107 182.401 45.4107 183.361 45.6807C183.581 45.7407 183.771 45.8007 183.941 45.8507C184.681 46.0807 185.021 46.2507 185.361 46.4507C185.871 46.7607 186.341 47.0707 186.711 47.7007C186.721 47.7107 186.721 47.7207 186.731 47.7307C186.931 48.0807 187.031 48.4307 187.091 48.7307C187.111 48.8407 187.121 48.9307 187.131 49.0207Z" fill="white"/>
<path d="M186.74 46.7595C186.37 46.1095 185.96 45.8395 185.37 45.4695C184.96 45.2095 184.53 45.0295 183.37 44.6895C182.41 44.4195 181.58 44.2195 180.71 44.0395C178.69 43.6095 178.54 43.5895 177.76 43.3895C176.59 43.0895 175.79 42.5595 175.34 42.0095C174.56 41.0495 174.67 39.6795 174.59 38.9395C174.7 39.0395 174.82 39.1495 174.95 39.2395C175.31 39.5095 176.38 40.0795 177.52 40.5295C179.56 41.3295 180.35 41.4495 182.6 42.3095C183.14 42.5195 183.58 42.6995 183.97 42.8895C183.98 42.8895 183.98 42.8995 183.99 42.8995C184.33 43.0695 184.76 43.3295 185.19 43.7095C185.54 44.0195 186 44.4195 186.34 45.0895C186.65 45.7295 186.73 46.3295 186.74 46.7595Z" fill="white"/>
<path d="M186.329 44.1303C185.989 43.4503 185.529 43.0603 185.179 42.7503C184.749 42.3703 184.319 42.1103 183.979 41.9403C183.969 41.9403 183.969 41.9303 183.959 41.9303C183.579 41.7403 183.139 41.5603 182.589 41.3503C180.339 40.4903 179.549 40.3703 177.509 39.5703C176.369 39.1203 175.289 38.5503 174.939 38.2803C173.269 37.0203 173.429 35.1503 173.359 33.8203C173.999 34.3503 174.739 34.9703 176.079 35.7503C176.959 36.2603 178.579 36.9903 180.299 37.7903C183.769 39.4203 184.099 39.7303 184.419 39.9703C185.589 40.8403 185.999 41.8303 186.329 44.1303Z" fill="white"/>
<path d="M227.059 37.4785H229.909V49.0085H226.759V41.9285L223.719 45.5985L220.679 41.9985V49.0085H217.529V37.4785H220.379L223.719 41.2885L227.059 37.4785Z" fill="white"/>
<path d="M242.489 43.2391C242.489 47.8391 239.239 49.1891 236.899 49.1891C234.559 49.1891 231.279 47.8291 231.279 43.2391C231.279 38.6591 234.659 37.2891 236.899 37.2891C239.139 37.2891 242.489 38.6291 242.489 43.2391ZM234.729 43.2391C234.729 45.2191 235.429 46.4591 236.899 46.4591C238.429 46.4591 239.029 45.2191 239.029 43.2391C239.029 41.7491 238.579 40.0791 236.899 40.0791C235.219 40.0791 234.729 41.7491 234.729 43.2391Z" fill="white"/>
<path d="M250.509 43.3687V37.4688H253.659V48.9987H250.509L247.019 43.3088V48.9987H243.869V37.4787H247.019L250.509 43.3687Z" fill="white"/>
<path d="M262.599 41.8285V44.4885H258.259V45.9985H263.809V49.0085H255.109V37.4785H263.809V40.4885H258.259V41.8285H262.599Z" fill="white"/>
<path d="M275.36 37.4785L271.38 44.3185V49.0085H268.23V44.3185L264.27 37.4785H267.42L269.82 41.5485L272.22 37.4785H275.36Z" fill="white"/>
<path d="M199.58 49.02H190.1V47.3L196.07 39.68H190.63V37.5H199.42V39.25L193.62 46.83H199.59V49.02H199.58Z" fill="white"/>
<path d="M202.87 49.0202H200.35V37.4902H202.87V49.0202Z" fill="white"/>
<path d="M212.319 49.0202H204.439V37.4902H206.959V46.7502H212.309V49.0202H212.319Z" fill="white"/>
</g>
<defs>
<clipPath id="clip0_3629_1757">
<rect width="275.36" height="70.51" fill="white"/>
</clipPath>
</defs>
</svg>
