<svg width="65" height="52" viewBox="0 0 65 52" fill="none" xmlns="http://www.w3.org/2000/svg">
<g id="Group 1000001719">
<rect id="Rectangle 6750" width="64.6228" height="51.8683" rx="25" fill="#478DF7"/>
<path id="Vector" d="M36.3571 24.5C38.3683 24.5 40 22.8203 40 20.75C40 18.6797 38.3683 17 36.3571 17C34.346 17 32.7143 18.6797 32.7143 20.75C32.7143 20.9062 32.7219 21.0625 32.7408 21.2148L29.1701 23.0508C28.5174 22.3984 27.6257 22 26.6429 22C24.6317 22 23 23.6797 23 25.75C23 27.8203 24.6317 29.5 26.6429 29.5C27.6257 29.5 28.5174 29.1016 29.1701 28.4492L32.7408 30.2852C32.7219 30.4375 32.7143 30.5898 32.7143 30.75C32.7143 32.8203 34.346 34.5 36.3571 34.5C38.3683 34.5 40 32.8203 40 30.75C40 28.6797 38.3683 27 36.3571 27C35.3743 27 34.4826 27.3984 33.8299 28.0508L30.2592 26.2148C30.2781 26.0625 30.2857 25.9102 30.2857 25.75C30.2857 25.5898 30.2781 25.4375 30.2592 25.2852L33.8299 23.4492C34.4826 24.1016 35.3743 24.5 36.3571 24.5Z" fill="white"/>
</g>
</svg>
