<svg width="20" height="18" viewBox="0 0 20 18" fill="none" xmlns="http://www.w3.org/2000/svg">
<path d="M11.0881 0.632742C10.8873 0.246066 10.4631 0 9.99728 0C9.53142 0 9.11101 0.246066 8.90649 0.632742L6.47114 5.28339L1.03233 6.02862C0.577834 6.0919 0.199086 6.38718 0.05895 6.79143C-0.0811866 7.19568 0.0324375 7.64211 0.35816 7.94091L4.30471 11.5651L3.37299 16.6868C3.29724 17.1086 3.48661 17.5375 3.86157 17.7871C4.23653 18.0367 4.73269 18.0683 5.14174 17.8679L10.0011 15.46L14.8604 17.8679C15.2694 18.0683 15.7656 18.0402 16.1406 17.7871C16.5155 17.534 16.7049 17.1086 16.6291 16.6868L15.6936 11.5651L19.6402 7.94091C19.9659 7.64211 20.0833 7.19568 19.9394 6.79143C19.7955 6.38718 19.4205 6.0919 18.966 6.02862L13.5234 5.28339L11.0881 0.632742Z" fill="#FFB84E"/>
</svg>
