<svg width="20" height="20" viewBox="0 0 20 20" fill="none" xmlns="http://www.w3.org/2000/svg">
<mask id="mask0_44_973" style="mask-type:alpha" maskUnits="userSpaceOnUse" x="0" y="0" width="20" height="20">
<rect width="20" height="20" fill="#D9D9D9"/>
</mask>
<g mask="url(#mask0_44_973)">
<path d="M14.9998 17.4999H6.6665V6.66658L12.4998 0.833252L13.5415 1.87492C13.6387 1.97214 13.7186 2.10409 13.7811 2.27075C13.8436 2.43742 13.8748 2.59714 13.8748 2.74992V3.04159L12.9582 6.66658H17.4998C17.9443 6.66658 18.3332 6.83325 18.6665 7.16658C18.9998 7.49992 19.1665 7.88881 19.1665 8.33325V9.99992C19.1665 10.0971 19.1561 10.2013 19.1353 10.3124C19.1144 10.4235 19.0832 10.5277 19.0415 10.6249L16.5415 16.4999C16.4165 16.7777 16.2082 17.0138 15.9165 17.2083C15.6248 17.4027 15.3193 17.4999 14.9998 17.4999ZM4.99984 6.66658V17.4999H1.6665V6.66658H4.99984Z" fill="#478DF6"/>
</g>
</svg>
