<svg width="20" height="20" viewBox="0 0 20 20" fill="none" xmlns="http://www.w3.org/2000/svg">
<mask id="mask0_44_928" style="mask-type:alpha" maskUnits="userSpaceOnUse" x="0" y="0" width="20" height="20">
<rect width="20" height="20" fill="#D9D9D9"/>
</mask>
<g mask="url(#mask0_44_928)">
<path d="M9.99984 18.3334L7.7915 15.0001H3.33317C2.87484 15.0001 2.48248 14.8369 2.15609 14.5105C1.8297 14.1841 1.6665 13.7917 1.6665 13.3334V3.33341C1.6665 2.87508 1.8297 2.48272 2.15609 2.15633C2.48248 1.82994 2.87484 1.66675 3.33317 1.66675H16.6665C17.1248 1.66675 17.5172 1.82994 17.8436 2.15633C18.17 2.48272 18.3332 2.87508 18.3332 3.33341V13.3334C18.3332 13.7917 18.17 14.1841 17.8436 14.5105C17.5172 14.8369 17.1248 15.0001 16.6665 15.0001H12.2082L9.99984 18.3334Z" fill="#478DF6"/>
</g>
</svg>
