<svg width="22" height="23" viewBox="0 0 22 23" fill="none" xmlns="http://www.w3.org/2000/svg">
<path d="M11.0493 0.943299C5.00867 0.943298 0.111771 5.8402 0.11177 11.8808C0.111769 17.9215 5.00866 22.8184 11.0493 22.8184C17.0899 22.8184 21.9868 17.9215 21.9868 11.8808C21.9868 5.8402 17.0899 0.9433 11.0493 0.943299Z" fill="#E3FFEE"/>
<path d="M11.0492 4.44402C6.94196 4.44402 3.61237 7.77362 3.61237 11.8809C3.61237 15.9881 6.94196 19.3177 11.0492 19.3177C15.1565 19.3177 18.4861 15.9882 18.4861 11.8809C18.4861 7.77362 15.1565 4.44402 11.0492 4.44402Z" fill="#47C97B"/>
<path d="M14.3694 10.4794L10.8472 14.0014C10.7416 14.1071 10.6029 14.1603 10.4642 14.1603C10.3255 14.1603 10.1868 14.1071 10.0811 14.0014L8.32008 12.2404C8.10815 12.0286 8.10815 11.6861 8.32008 11.4743C8.53191 11.2623 8.87431 11.2623 9.08623 11.4743L10.4642 12.8522L13.6032 9.71327C13.815 9.50134 14.1574 9.50134 14.3694 9.71327C14.5812 9.9251 14.5812 10.2675 14.3694 10.4794Z" fill="#FAFAFA"/>
</svg>
