<svg width="291" height="174" viewBox="0 0 291 174" fill="none" xmlns="http://www.w3.org/2000/svg">
<g clip-path="url(#clip0_2664_1889)">
<rect y="0.523682" width="291" height="173" rx="10" fill="#FEFEFE"/>
<path d="M40.284 67.0619L48.7061 136.018C49.6926 144.115 57.4253 149.835 66.0065 148.784L227.746 129.025C236.295 127.985 242.426 120.567 241.439 112.47L233.017 43.514C232.031 35.4065 224.298 29.6973 215.749 30.7479L53.9991 50.5073C45.4179 51.5579 39.2869 58.965 40.284 67.0619ZM74.4817 140.889L64.1291 56.0998L207.242 38.6113L217.594 123.401L74.4817 140.889Z" fill="#9F9F9F"/>
<path d="M207.228 38.6183L64.1211 56.0999L74.4689 140.883L217.575 123.402L207.228 38.6183Z" fill="#D0F8FE"/>
<path opacity="0.42" d="M238.024 84.5821C235.924 80.2525 233.537 76.1032 231.405 71.6886C228.753 66.1174 226.632 60.5461 223.715 55.2401C221.583 50.9635 218.581 46.1669 217.086 41.4128C213.872 41.3809 210.689 41.296 207.539 41.0838C204.092 40.8397 200.676 40.4577 197.324 39.8316C197.314 39.8316 197.314 39.8316 197.303 39.8316C192.148 38.8553 187.131 37.306 182.283 34.8228L199.117 32.764H199.255C204.59 32.6791 209.947 32.0212 214.869 30.8539C214.9 30.8433 214.922 30.8433 214.953 30.8327L215.738 30.7372C220.098 30.2066 224.245 31.4269 227.385 33.8252C227.385 33.8358 227.396 33.8358 227.396 33.8465C229.316 38.4414 232.095 43.1531 233.537 47.8754V47.8861L238.024 84.5821Z" fill="#999999"/>
<path opacity="0.42" d="M82.7225 46.9946C81.8527 48.4909 80.9829 49.966 79.9858 51.2606C79.1372 52.3643 78.2674 53.4361 77.3658 54.4867C73.7276 58.742 69.6756 62.6048 65.3691 66.2871C64.075 67.4014 62.7597 68.4838 61.4232 69.5662C55.4195 74.331 48.9597 78.1619 41.9377 80.6451L40.283 67.0618C40.2193 66.563 40.1875 66.0855 40.1875 65.5974C51.2614 61.533 62.7703 55.4948 70.5348 48.4909L70.5454 48.4803H70.556L82.7225 46.9946Z" fill="#999999"/>
<g opacity="0.42">
<path d="M110.431 136.485L110.197 136.517C110.187 136.506 110.176 136.496 110.155 136.496C109.529 136.082 108.893 135.711 108.235 135.382C98.731 130.532 86.2675 132.994 73.9737 136.74C66.4001 139.053 58.8902 141.844 52.1864 143.712C51.6455 143.107 51.1576 142.449 50.7227 141.749C54.9868 141.048 59.0705 139.52 63.1437 138.013C66.7502 136.506 70.0702 134.522 73.4858 132.729C76.3603 131.211 79.2879 129.842 82.5125 128.993C88.739 127.401 96.0261 128.59 102.136 130.054C106.167 131.041 108.691 133.365 110.431 136.485Z" fill="#999999"/>
</g>
<g opacity="0.42">
<path d="M220.734 129.874L212.492 130.893H212.439C202.786 131.254 192.985 131.094 185.38 134.204H185.369L179.238 134.947C180.554 133.758 181.837 132.591 183.407 131.646C186.324 129.789 189.241 127.805 192.688 127.136C202.023 125.268 211.76 126.988 220.734 129.874Z" fill="#999999"/>
</g>
<path d="M56.5133 103.323C59.2432 103.323 61.4562 101.109 61.4562 98.3775C61.4562 95.6464 59.2432 93.4324 56.5133 93.4324C53.7833 93.4324 51.5703 95.6464 51.5703 98.3775C51.5703 101.109 53.7833 103.323 56.5133 103.323Z" fill="#CCCCCC"/>
<path d="M353.284 125.205C336.228 133.864 314.6 149.474 300.131 167.95C292.632 162.644 284.305 158.378 275.512 155.311C275.448 155.279 275.374 155.258 275.3 155.247C275.162 155.289 275.024 155.343 274.886 155.396C272.69 155.703 270.611 156.255 268.702 157.051C268.692 157.051 268.692 157.062 268.681 157.062C260.832 158.526 252.229 158.049 244.359 157.847C236.774 157.55 229.774 156.977 222.486 155.512C208.835 152.668 186.019 147.023 172.187 151.904C173.937 141.971 178.838 136.878 185.372 134.204C192.977 131.094 202.789 131.253 212.441 130.893C218.53 130.67 224.555 130.224 229.912 128.611C230.018 128.59 230.113 128.558 230.219 128.526C230.41 128.473 230.601 128.399 230.792 128.335C231.503 128.08 232.181 127.815 232.839 127.539C232.871 127.529 232.903 127.507 232.935 127.497C256.504 117.384 245.271 91.5966 239.681 71.0837C237.867 65.1729 235.311 56.0572 234.144 50.2313C233.985 49.446 233.783 48.6607 233.539 47.8754C232.097 43.1425 229.307 38.4308 227.387 33.8252C226.464 31.5967 225.743 29.3894 225.478 27.2246C222.338 28.7209 218.732 29.9413 214.87 30.8539C209.949 32.0212 204.592 32.6791 199.257 32.764C183.261 33.0081 167.339 28.0523 163.012 15.7849C184.619 15.4772 204.168 10.8928 223.696 1.49065C229.275 -0.674187 234.536 0.960046 239.469 4.75912C243.616 2.81713 249.068 1.90451 252.516 4.43015C253.863 5.55502 255.178 7.30599 256.419 9.25859C258.827 9.03574 260.672 8.70676 263.335 10.0439C265.085 11.0945 266.729 12.9303 268.246 15.0315C270.866 15.0845 273.444 14.9572 275.841 16.3898C279.044 18.7244 281.961 24.5504 284.581 27.7658C289.397 34.2815 292.791 40.2879 300.163 48.5652C300.163 48.5652 300.174 48.5652 300.174 48.5758C306.708 53.2239 308.331 58.5723 308.776 63.9525C314.366 75.0314 321.526 85.4629 327.445 96.3083C328.633 98.1866 329.768 100.182 330.892 102.24C335.719 111.059 339.548 114.243 347.121 120.461C347.09 120.164 347.068 119.994 347.068 119.909C347.09 120.015 347.121 120.249 347.153 120.493C349.073 122.191 351.12 123.761 353.284 125.205Z" fill="#E6E6E6"/>
<g opacity="0.26">
<path d="M335.856 127.868C334.615 120.27 331.889 113.457 327.318 106.888C321.653 98.0381 314.939 89.5486 309.285 80.7088C303.982 72.9303 301.15 64.0799 297.257 55.2402C293.374 47.1008 286.65 39.6724 280.646 32.9551C276.954 28.2752 273.422 20.6665 269.232 15.0527C271.502 15.074 273.741 15.1376 275.841 16.3898C279.044 18.7245 281.961 24.5504 284.581 27.7658C289.397 34.2816 292.791 40.2879 300.163 48.5652C300.163 48.5652 300.174 48.5652 300.174 48.5759C306.708 53.2239 308.331 58.5723 308.776 63.9525C314.366 75.0314 321.526 85.463 327.445 96.3084C328.633 98.1867 329.768 100.182 330.892 102.24C335.666 110.953 339.452 114.168 346.856 120.238C346.941 120.313 347.036 120.387 347.121 120.461C347.111 120.313 347.089 120.206 347.079 120.111C347.089 120.1 347.089 120.1 347.1 120.1C347.121 120.217 347.132 120.355 347.153 120.493C349.073 122.191 351.12 123.761 353.284 125.205C339.94 131.986 323.796 143.011 310.473 156.34C312.902 152.371 315.416 148.413 318.386 144.911C323.881 138.65 329.577 132.888 335.856 127.868Z" fill="#977E8B"/>
</g>
<path d="M383.886 134.649V382.067H322.587C335.157 345.731 340.237 307.539 332.972 268.519C329.036 244.929 313.285 197.663 290.744 182.392C293.29 177.437 296.483 172.598 300.132 167.95C314.6 149.474 336.228 133.864 353.284 125.205C355.841 123.899 358.291 122.764 360.593 121.788C368.347 125.417 376.069 130.564 383.536 134.458C383.653 134.522 383.77 134.586 383.886 134.649Z" fill="#D0D0D0"/>
<g clip-path="url(#clip1_2664_1889)">
<path d="M192.994 121.356L95.0648 134.85C91.043 135.404 87.3175 132.579 86.7606 128.533L78.2432 66.6626C77.6893 62.639 80.5128 58.9119 84.5346 58.3577L182.442 44.8674C186.486 44.3102 190.211 47.135 190.765 51.1586L199.283 113.029C199.84 117.075 197.016 120.802 192.994 121.356Z" fill="#505278"/>
<path d="M182.465 44.8649L133.5 51.6116L144.03 128.103L192.995 121.357C197.039 120.8 199.84 117.075 199.286 113.052L190.766 51.1591C190.212 47.1355 186.487 44.3107 182.465 44.8649Z" fill="#424566"/>
<path d="M135.938 51.2754C138.299 73.9587 122.201 94.6376 99.4546 97.7717C93.5647 98.5832 87.7722 98.1491 82.3678 96.6311L81.0148 86.803C86.3061 88.964 92.1972 89.7878 98.2408 88.9551C116.13 86.4902 128.815 70.2919 127.122 52.4677L135.935 51.2534L135.938 51.2754L135.938 51.2754Z" fill="#575982"/>
<path d="M133.498 51.6116L135.257 64.3859C136.131 60.1654 136.398 55.76 135.937 51.2755L133.498 51.6116Z" fill="#505278"/>
<path d="M195.917 88.5806L197.146 97.5072C191.732 97.2225 186.529 97.4914 181.5 98.6997C172.418 100.892 164.462 106.379 156.445 115.975C155.157 117.519 153.854 119.11 152.61 120.648C150.694 122.996 148.78 125.365 146.751 127.706L132.51 129.668C137.3 125.424 141.417 120.353 145.726 115.055C147.011 113.489 148.309 111.854 149.637 110.282C158.945 99.1638 168.406 92.7297 179.416 90.0702C184.856 88.7603 190.499 88.4309 195.917 88.5806Z" fill="#505278"/>
<path d="M132.513 129.69L144.029 128.103L142.737 118.715C139.454 122.685 136.185 126.429 132.513 129.69Z" fill="#575982"/>
<path d="M105.922 93.341L95.1309 94.8279C93.4826 95.055 91.9574 93.8985 91.7304 92.2495L90.7437 85.0817C90.5167 83.4327 91.6726 81.9068 93.3209 81.6797L104.112 80.1929C105.76 79.9658 107.285 81.1222 107.512 82.7713L108.499 89.939C108.707 91.6131 107.57 93.1139 105.922 93.341Z" fill="#424566"/>
<path d="M105.897 93.165L95.0848 94.6549C93.5464 94.8668 92.1212 93.7862 91.9093 92.2471L90.9196 85.0574C90.7077 83.5184 91.7879 82.0925 93.3262 81.8806L104.139 80.3907C105.677 80.1788 107.103 81.2594 107.314 82.7984L108.304 89.9882C108.516 91.5272 107.436 92.9531 105.897 93.165Z" fill="#FEBD55"/>
<path d="M107.842 86.6237L107.781 86.1839L102.067 86.9713L101.801 85.0364L103.071 83.3604L107.312 82.776C107.291 82.622 107.248 82.4713 107.208 82.3423L102.9 82.9358C102.834 82.9449 102.793 82.973 102.756 83.0229L101.429 84.7739L99.4949 85.0404L98.9561 81.1269L98.5166 81.1874L99.0554 85.101L97.1434 85.3644L95.3932 84.0374C95.3432 83.9995 95.2741 83.9866 95.2302 83.9927L90.9008 84.5892C90.897 84.7242 90.8962 84.881 90.9174 85.035L95.2029 84.4445L96.8532 85.6958L97.1226 87.6526L91.3866 88.4429L91.4471 88.8826L97.1831 88.0923L97.4525 90.0491L96.2017 91.7001L91.9163 92.2906C91.9374 92.4445 91.9806 92.5953 92.0207 92.7243L96.3501 92.1277C96.416 92.1187 96.4571 92.0906 96.4949 92.0406L97.8214 90.2896L99.7334 90.0262L100.272 93.9398L100.712 93.8792L100.173 89.9656L102.107 89.6992L103.857 91.0262C103.907 91.0641 103.954 91.08 104.02 91.0709L108.328 90.4774C108.331 90.3424 108.332 90.1856 108.311 90.0316L104.069 90.6161L102.394 89.3458L102.128 87.411L107.842 86.6237ZM101.937 89.2744L97.8708 89.8346L97.3109 85.767L101.377 85.2068L101.937 89.2744Z" fill="#B5613C"/>
<path d="M183.062 82.3984C182.952 82.4135 182.861 82.4036 182.767 82.3718C182.416 82.2633 182.23 81.8857 182.36 81.5317C183.59 77.9345 183.06 74.0869 180.905 70.956C180.705 70.6474 180.783 70.2336 181.069 70.0372C181.378 69.8378 181.791 69.9154 181.987 70.2019C184.392 73.6793 184.982 77.9667 183.607 81.9647C183.505 82.203 183.304 82.3651 183.062 82.3984ZM180.626 81.457C181.97 78.0456 181.467 74.3958 179.251 71.475C179.033 71.1915 178.619 71.114 178.317 71.3573C178.034 71.5756 177.956 71.9896 178.2 72.292C180.141 74.8474 180.577 78.0135 179.395 80.9768C179.262 81.3088 179.429 81.7114 179.761 81.8449C179.88 81.8957 179.993 81.9025 180.103 81.8874C180.319 81.8353 180.521 81.6731 180.626 81.457ZM177.689 80.9432C179.077 78.1755 178.644 75.0313 176.556 72.7201C176.316 72.4396 175.89 72.431 175.609 72.6713C175.329 72.9116 175.32 73.3384 175.561 73.6189C177.252 75.4919 177.609 78.0863 176.487 80.3469C176.331 80.6819 176.452 81.0686 176.79 81.2461C176.912 81.3188 177.047 81.3226 177.178 81.3045C177.401 81.2965 177.584 81.1593 177.689 80.9432ZM174.607 80.5165C175.453 79.5038 175.82 78.2657 175.653 77.0566C175.487 75.8474 174.799 74.7547 173.711 74.0085C173.414 73.803 172.996 73.8605 172.794 74.1796C172.588 74.4767 172.646 74.8945 172.965 75.0969C173.734 75.6407 174.219 76.4027 174.334 77.2383C174.449 78.0738 174.188 78.9388 173.594 79.6703C173.364 79.9484 173.4 80.3692 173.678 80.5997C173.828 80.7135 174.015 80.7772 174.191 80.753C174.345 80.7318 174.49 80.6447 174.607 80.5165Z" fill="#CAD4FF"/>
<path d="M141.602 117.146L96.8565 123.312C96.4829 123.363 96.1579 123.117 96.1064 122.743C96.055 122.369 96.3013 122.044 96.6749 121.992L141.42 115.827C141.794 115.776 142.119 116.022 142.17 116.396C142.222 116.77 141.953 117.098 141.602 117.146Z" fill="#E6EAFF"/>
<path d="M188.325 110.708L179.841 111.877C179.468 111.929 179.143 111.682 179.091 111.309C179.04 110.935 179.286 110.61 179.66 110.558L188.143 109.389C188.517 109.338 188.842 109.584 188.893 109.958C188.945 110.332 188.676 110.66 188.325 110.708ZM176.146 111.714C176.095 111.34 175.77 111.094 175.396 111.146L166.913 112.314C166.54 112.366 166.293 112.691 166.345 113.065C166.396 113.439 166.721 113.685 167.095 113.634L175.578 112.465C175.952 112.413 176.195 112.066 176.146 111.714Z" fill="#CAD4FF"/>
<path d="M89.9168 72.896C89.5431 72.9475 89.2182 72.701 89.1667 72.3272L88.8096 69.7328C88.7581 69.359 89.0044 69.0339 89.378 68.9824C89.7517 68.9309 90.0767 69.1773 90.1281 69.5511L90.4823 72.1236C90.5337 72.4974 90.2905 72.8445 89.9168 72.896ZM94.0676 71.652L93.7104 69.0576C93.659 68.6837 93.334 68.4373 92.9603 68.4888C92.5867 68.5403 92.3404 68.8654 92.3918 69.2392L92.746 71.8117C92.7974 72.1855 93.1224 72.4319 93.4961 72.3804C93.8726 72.3509 94.116 72.0038 94.0676 71.652ZM97.6718 71.1553L97.3147 68.5609C97.2632 68.1871 96.9382 67.9407 96.5646 67.9922C96.1909 68.0437 95.9446 68.3688 95.9961 68.7426L96.3502 71.3151C96.4017 71.6889 96.7266 71.9353 97.1003 71.8838C97.4548 71.8573 97.7202 71.5072 97.6718 71.1553ZM101.254 70.6618L100.897 68.0673C100.845 67.6935 100.52 67.4471 100.147 67.4986C99.7732 67.5501 99.5269 67.8752 99.5784 68.249L99.9325 70.8215C99.9839 71.1953 100.309 71.4417 100.683 71.3902C101.059 71.3607 101.303 71.0136 101.254 70.6618Z" fill="#E6EAFF"/>
<path d="M96.6784 111.933L96.5684 111.948C95.4696 112.099 94.4445 111.322 94.2931 110.223L93.8633 107.101C93.712 106.001 94.4889 104.976 95.5877 104.824L95.6977 104.809C96.7965 104.658 97.8216 105.435 97.973 106.534L98.4028 109.657C98.5543 110.756 97.7993 111.778 96.6784 111.933ZM95.7695 106.143C95.3958 106.195 95.1306 106.545 95.1821 106.919L95.6119 110.041C95.6633 110.415 96.0133 110.68 96.3869 110.629L96.4969 110.613C96.8706 110.562 97.1358 110.212 97.0843 109.838L96.6545 106.716C96.6031 106.342 96.2531 106.077 95.8795 106.128L95.7695 106.143Z" fill="#E6EAFF"/>
<path d="M102.018 111.197L101.908 111.212C100.809 111.363 99.7843 110.586 99.633 109.487L99.2032 106.365C99.0518 105.265 99.8287 104.24 100.928 104.088L101.038 104.073C102.136 103.922 103.161 104.699 103.313 105.798L103.743 108.921C103.894 110.02 103.139 111.042 102.018 111.197ZM101.109 105.407C100.736 105.459 100.47 105.809 100.522 106.183L100.952 109.305C101.003 109.679 101.353 109.944 101.727 109.893L101.837 109.878C102.21 109.826 102.476 109.476 102.424 109.102L101.994 105.98C101.943 105.606 101.593 105.341 101.219 105.392L101.109 105.407Z" fill="#E6EAFF"/>
<path d="M107.36 110.461L107.25 110.476C106.151 110.628 105.126 109.85 104.975 108.751L104.545 105.629C104.394 104.53 105.171 103.504 106.269 103.353L106.379 103.337C107.478 103.186 108.503 103.963 108.655 105.063L109.084 108.185C109.236 109.284 108.459 110.31 107.36 110.461ZM106.451 104.672C106.077 104.723 105.812 105.073 105.864 105.447L106.293 108.569C106.345 108.943 106.695 109.208 107.068 109.157L107.178 109.142C107.552 109.09 107.817 108.74 107.766 108.366L107.336 105.244C107.285 104.87 106.935 104.605 106.561 104.656L106.451 104.672Z" fill="#E6EAFF"/>
<path d="M112.7 109.725L112.59 109.74C111.491 109.892 110.466 109.115 110.315 108.015L109.885 104.893C109.733 103.794 110.51 102.768 111.609 102.617L111.719 102.602C112.818 102.45 113.843 103.227 113.994 104.327L114.424 107.449C114.576 108.548 113.799 109.574 112.7 109.725ZM111.791 103.936C111.417 103.987 111.152 104.337 111.203 104.711L111.633 107.833C111.685 108.207 112.035 108.473 112.408 108.421L112.518 108.406C112.892 108.354 113.157 108.004 113.106 107.63L112.676 104.508C112.624 104.134 112.274 103.869 111.901 103.921L111.791 103.936Z" fill="#E6EAFF"/>
<path d="M120.897 108.596L120.787 108.611C119.688 108.762 118.663 107.985 118.512 106.886L118.082 103.764C117.931 102.664 118.708 101.639 119.806 101.487L119.916 101.472C121.015 101.321 122.04 102.098 122.192 103.197L122.622 106.32C122.773 107.419 121.996 108.444 120.897 108.596ZM119.988 102.806C119.615 102.858 119.349 103.208 119.401 103.582L119.831 106.704C119.882 107.078 120.232 107.343 120.606 107.292L120.716 107.276C121.089 107.225 121.355 106.875 121.303 106.501L120.873 103.379C120.822 103.005 120.472 102.74 120.098 102.791L119.988 102.806Z" fill="#E6EAFF"/>
<path d="M126.237 107.86L126.127 107.875C125.028 108.027 124.003 107.249 123.852 106.15L123.422 103.028C123.271 101.929 124.047 100.903 125.146 100.752L125.256 100.736C126.355 100.585 127.38 101.362 127.532 102.462L127.961 105.584C128.113 106.683 127.336 107.709 126.237 107.86ZM125.328 102.071C124.954 102.122 124.689 102.472 124.741 102.846L125.17 105.968C125.222 106.342 125.572 106.607 125.946 106.556L126.056 106.541C126.429 106.489 126.694 106.139 126.643 105.765L126.213 102.643C126.162 102.269 125.812 102.004 125.438 102.055L125.328 102.071Z" fill="#E6EAFF"/>
<path d="M131.579 107.124L131.469 107.139C130.37 107.291 129.345 106.513 129.194 105.414L128.764 102.292C128.612 101.193 129.389 100.167 130.488 100.016L130.598 100.001C131.697 99.8492 132.722 100.626 132.873 101.726L133.303 104.848C133.455 105.947 132.678 106.973 131.579 107.124ZM130.67 101.335C130.296 101.386 130.031 101.736 130.082 102.11L130.512 105.232C130.564 105.606 130.914 105.871 131.287 105.82L131.397 105.805C131.771 105.753 132.036 105.403 131.985 105.029L131.555 101.907C131.503 101.533 131.154 101.268 130.78 101.32L130.67 101.335Z" fill="#E6EAFF"/>
<path d="M136.919 106.388L136.809 106.403C135.71 106.555 134.685 105.778 134.533 104.678L134.104 101.556C133.952 100.457 134.729 99.4313 135.828 99.2799L135.938 99.2647C137.037 99.1133 138.062 99.8906 138.213 100.99L138.643 104.112C138.795 105.211 138.018 106.237 136.919 106.388ZM136.01 100.599C135.636 100.65 135.371 101 135.422 101.374L135.852 104.496C135.904 104.87 136.254 105.136 136.627 105.084L136.737 105.069C137.111 105.017 137.376 104.667 137.325 104.294L136.895 101.171C136.843 100.798 136.493 100.532 136.12 100.584L136.01 100.599Z" fill="#E6EAFF"/>
<path d="M145.116 105.259L145.006 105.274C143.907 105.425 142.882 104.648 142.731 103.549L142.301 100.427C142.149 99.3272 142.926 98.3016 144.025 98.1502L144.135 98.1351C145.234 97.9837 146.259 98.7609 146.41 99.8603L146.84 102.982C146.992 104.082 146.215 105.107 145.116 105.259ZM144.207 99.4692C143.833 99.5207 143.568 99.8708 143.619 100.245L144.049 103.367C144.101 103.741 144.451 104.006 144.824 103.955L144.934 103.939C145.308 103.888 145.573 103.538 145.522 103.164L145.092 100.042C145.04 99.6679 144.69 99.4026 144.317 99.4541L144.207 99.4692Z" fill="#CAD4FF"/>
<path d="M150.456 104.523L150.346 104.538C149.247 104.689 148.222 103.912 148.07 102.813L147.641 99.6907C147.489 98.5914 148.266 97.5658 149.365 97.4144L149.475 97.3993C150.574 97.2479 151.599 98.0251 151.75 99.1244L152.18 102.247C152.331 103.346 151.554 104.371 150.456 104.523ZM149.547 98.7334C149.173 98.7849 148.908 99.135 148.959 99.5088L149.389 102.631C149.44 103.005 149.79 103.27 150.164 103.219L150.274 103.204C150.648 103.152 150.913 102.802 150.861 102.428L150.432 99.3059C150.38 98.9321 150.03 98.6668 149.656 98.7183L149.547 98.7334Z" fill="#CAD4FF"/>
<path d="M155.798 103.787L155.688 103.802C154.589 103.954 153.564 103.176 153.412 102.077L152.982 98.9548C152.831 97.8555 153.608 96.83 154.707 96.6786L154.817 96.6634C155.916 96.512 156.941 97.2893 157.092 98.3886L157.522 101.511C157.673 102.61 156.896 103.636 155.798 103.787ZM154.889 97.9975C154.515 98.049 154.25 98.3991 154.301 98.7729L154.731 101.895C154.782 102.269 155.132 102.534 155.506 102.483L155.616 102.468C155.99 102.416 156.255 102.066 156.203 101.692L155.774 98.57C155.722 98.1962 155.372 97.9309 154.999 97.9824L154.889 97.9975Z" fill="#CAD4FF"/>
<path d="M161.137 103.051L161.027 103.066C159.929 103.218 158.903 102.44 158.752 101.341L158.322 98.219C158.171 97.1197 158.948 96.0941 160.047 95.9427L160.157 95.9276C161.256 95.7762 162.281 96.5534 162.432 97.6527L162.862 100.775C163.013 101.874 162.236 102.9 161.137 103.051ZM160.228 97.2617C159.855 97.3132 159.59 97.6633 159.641 98.0371L160.071 101.159C160.122 101.533 160.472 101.798 160.846 101.747L160.956 101.732C161.33 101.68 161.595 101.33 161.543 100.956L161.114 97.8342C161.062 97.4604 160.712 97.195 160.338 97.2465L160.228 97.2617Z" fill="#CAD4FF"/>
<path d="M169.335 101.922L169.225 101.937C168.126 102.088 167.101 101.311 166.949 100.212L166.52 97.0896C166.368 95.9903 167.145 94.9647 168.244 94.8133L168.354 94.7982C169.453 94.6468 170.478 95.424 170.629 96.5233L171.059 99.6455C171.21 100.745 170.433 101.77 169.335 101.922ZM168.426 96.1323C168.052 96.1838 167.787 96.5339 167.838 96.9077L168.268 100.03C168.319 100.404 168.669 100.669 169.043 100.618L169.153 100.602C169.527 100.551 169.792 100.201 169.74 99.827L169.311 96.7048C169.259 96.331 168.909 96.0657 168.536 96.1172L168.426 96.1323Z" fill="#CAD4FF"/>
<path d="M174.674 101.186L174.564 101.201C173.466 101.353 172.441 100.575 172.289 99.4759L171.859 96.3538C171.708 95.2544 172.485 94.2289 173.584 94.0775L173.694 94.0623C174.792 93.9109 175.818 94.6882 175.969 95.7875L176.399 98.9097C176.55 100.009 175.773 101.035 174.674 101.186ZM173.765 95.3965C173.392 95.448 173.126 95.7981 173.178 96.1719L173.608 99.2941C173.659 99.6679 174.009 99.9333 174.383 99.8818L174.492 99.8666C174.866 99.8152 175.131 99.465 175.08 99.0912L174.65 95.969C174.599 95.5952 174.249 95.3299 173.875 95.3814L173.765 95.3965Z" fill="#CAD4FF"/>
<path d="M180.016 100.45L179.906 100.465C178.807 100.617 177.782 99.8394 177.631 98.7401L177.201 95.6179C177.05 94.5186 177.827 93.493 178.926 93.3416L179.036 93.3265C180.134 93.1751 181.16 93.9524 181.311 95.0517L181.741 98.1738C181.892 99.273 181.115 100.299 180.016 100.45ZM179.107 94.6606C178.734 94.7121 178.468 95.0622 178.52 95.436L178.95 98.5582C179.001 98.932 179.351 99.1974 179.725 99.1459L179.835 99.1307C180.208 99.0792 180.474 98.7291 180.422 98.3553L179.992 95.2331C179.941 94.8593 179.591 94.594 179.217 94.6454L179.107 94.6606Z" fill="#CAD4FF"/>
<path d="M185.356 99.7143L185.246 99.7294C184.147 99.8808 183.122 99.1036 182.971 98.0042L182.541 94.8821C182.39 93.7828 183.167 92.7572 184.265 92.6058L184.375 92.5906C185.474 92.4392 186.499 93.2165 186.651 94.3158L187.081 97.438C187.232 98.5371 186.455 99.5629 185.356 99.7143ZM184.447 93.9248C184.074 93.9762 183.808 94.3264 183.86 94.7002L184.29 97.8224C184.341 98.1962 184.691 98.4615 185.065 98.41L185.175 98.3949C185.548 98.3434 185.814 97.9933 185.762 97.6195L185.332 94.4973C185.281 94.1235 184.931 93.8581 184.557 93.9096L184.447 93.9248Z" fill="#CAD4FF"/>
<g filter="url(#filter0_b_2664_1889)">
<rect width="72.9104" height="15.9701" rx="5" transform="matrix(0.991364 -0.131172 0.131965 0.991251 90.7383 100.989)" fill="white" fill-opacity="0.4"/>
</g>
</g>
<path d="M118.577 146.099C97.6487 146.81 62.6555 179.856 40.8576 186.138C39.309 186.584 37.8134 186.977 36.392 187.306C36.3814 187.306 36.3814 187.306 36.3708 187.306C32.2764 187.306 27.9911 187.857 23.6315 188.855C8.61166 192.304 -7.26737 201.239 -19.2641 212.498C-23.8889 195.413 -30.8897 179.028 -48.1794 171.95C-48.678 171.695 -49.1765 171.451 -49.6857 171.207C-50.2691 170.921 -50.8631 170.634 -51.4465 170.358C-61.0991 165.668 -70.8683 161.72 -80.33 159.651C-80.3512 159.64 -80.3618 159.64 -80.383 159.64C-83.3106 158.993 -86.2064 158.526 -89.0703 158.282C-88.9642 158.133 -88.8688 157.974 -88.7627 157.826C-85.4745 152.976 -82.3878 148.148 -79.545 143.775C-72.5443 132.113 -63.2099 118.243 -59.7201 104.819C-55.2545 90.8643 -51.8602 67.5074 -35.7266 63.4749C-32.4489 59.5378 -30.7942 54.6351 -25.3209 53.1388C-21.7568 51.7168 -19.943 52.0246 -17.6094 52.6295C-13.0695 47.6737 -8.28566 45.8909 -0.0862732 47.6631C1.08052 45.8485 2.42764 44.2142 4.4218 43.2273C8.50558 40.309 14.9123 41.4763 20.1629 41.4763C36.8799 39.8527 61.6478 31.9256 78.6512 26.5984C82.0561 34.1116 78.0784 41.731 70.5579 48.4802H70.5473L70.5367 48.4908C62.7722 55.4947 51.2633 61.5329 40.1894 65.5973C37.2618 66.6691 34.366 67.6029 31.5763 68.3776C31.6718 80.1674 31.9475 92.4561 32.4037 103.885C32.9871 116.715 25.9969 122.849 27.7471 135.095C29.8367 147.458 39.606 147.224 52.1861 143.712C58.8899 141.844 66.3998 139.053 73.9734 136.74C86.2672 132.994 98.7307 130.532 108.235 135.381C108.892 135.71 109.529 136.082 110.155 136.496C110.176 136.496 110.197 136.517 110.208 136.527C112.509 138.024 114.61 140.019 116.455 142.619C117.208 143.68 117.919 144.837 118.577 146.099Z" fill="#E6E6E6"/>
</g>
<rect x="0.5" y="1.02368" width="290" height="172" rx="9.5" stroke="#DADADA"/>
<defs>
<filter id="filter0_b_2664_1889" x="88.3535" y="89.0374" width="79.1582" height="30.1699" filterUnits="userSpaceOnUse" color-interpolation-filters="sRGB">
<feFlood flood-opacity="0" result="BackgroundImageFix"/>
<feGaussianBlur in="BackgroundImageFix" stdDeviation="1.5"/>
<feComposite in2="SourceAlpha" operator="in" result="effect1_backgroundBlur_2664_1889"/>
<feBlend mode="normal" in="SourceGraphic" in2="effect1_backgroundBlur_2664_1889" result="shape"/>
</filter>
<clipPath id="clip0_2664_1889">
<rect y="0.523682" width="291" height="173" rx="10" fill="white"/>
</clipPath>
<clipPath id="clip1_2664_1889">
<rect width="113.585" height="113.634" fill="white" transform="matrix(0.990641 -0.136497 0.136378 0.990657 74.752 41.3123)"/>
</clipPath>
</defs>
</svg>
