<svg width="38" height="39" viewBox="0 0 38 39" fill="none" xmlns="http://www.w3.org/2000/svg">
<rect width="38" height="39" rx="19" fill="#F3F0FF"/>
<path d="M13 13C11.8969 13 11 13.8969 11 15V25C11 26.1031 11.8969 27 13 27H25C26.1031 27 27 26.1031 27 25V18C27 16.8969 26.1031 16 25 16H13.5C13.225 16 13 15.775 13 15.5C13 15.225 13.225 15 13.5 15H25C25.5531 15 26 14.5531 26 14C26 13.4469 25.5531 13 25 13H13ZM24 20.5C24.2652 20.5 24.5196 20.6054 24.7071 20.7929C24.8946 20.9804 25 21.2348 25 21.5C25 21.7652 24.8946 22.0196 24.7071 22.2071C24.5196 22.3946 24.2652 22.5 24 22.5C23.7348 22.5 23.4804 22.3946 23.2929 22.2071C23.1054 22.0196 23 21.7652 23 21.5C23 21.2348 23.1054 20.9804 23.2929 20.7929C23.4804 20.6054 23.7348 20.5 24 20.5Z" fill="#8D77E4"/>
</svg>
