<svg width="21" height="18" viewBox="0 0 21 18" fill="none" xmlns="http://www.w3.org/2000/svg">
<path d="M2.625 0C1.17715 0 0 1.15313 0 2.57143V15.4286C0 16.8469 1.17715 18 2.625 18H18.375C19.8229 18 21 16.8469 21 15.4286V6.42857C21 5.01027 19.8229 3.85714 18.375 3.85714H3.28125C2.92031 3.85714 2.625 3.56786 2.625 3.21429C2.625 2.86071 2.92031 2.57143 3.28125 2.57143H18.375C19.101 2.57143 19.6875 1.99688 19.6875 1.28571C19.6875 0.574554 19.101 0 18.375 0H2.625ZM17.0625 9.64286C17.4106 9.64286 17.7444 9.77832 17.9906 10.0194C18.2367 10.2606 18.375 10.5876 18.375 10.9286C18.375 11.2696 18.2367 11.5966 17.9906 11.8377C17.7444 12.0788 17.4106 12.2143 17.0625 12.2143C16.7144 12.2143 16.3806 12.0788 16.1344 11.8377C15.8883 11.5966 15.75 11.2696 15.75 10.9286C15.75 10.5876 15.8883 10.2606 16.1344 10.0194C16.3806 9.77832 16.7144 9.64286 17.0625 9.64286Z" fill="#8D77E4"/>
</svg>
