<svg  viewBox="0 0 52 16" fill="none" xmlns="http://www.w3.org/2000/svg">
<path
  d="M9.28098 7.67884L14.8513 2.08243C14.9893 1.94206 15.0828 1.76408 15.12 1.57081C15.1573 1.37753 15.1367 1.17756 15.0608 0.995953C14.9849 0.814346 14.8571 0.659182 14.6933 0.54991C14.5296 0.440637 14.3373 0.382119 14.1405 0.381686C13.8717 0.381686 13.6202 0.486448 13.4311 0.679621L7.86386 6.25099L2.27461 0.669147C2.08684 0.483738 1.83326 0.380281 1.56937 0.381429C1.37122 0.381608 1.1776 0.440739 1.01316 0.551292C0.848711 0.661845 0.720874 0.818821 0.645914 1.00225C0.570954 1.18568 0.552261 1.38726 0.592214 1.58134C0.632166 1.77542 0.728958 1.95323 0.870271 2.09214L6.44062 7.66989L0.873337 13.2517C0.678375 13.4464 0.570801 13.6994 0.570801 13.9685C0.570733 14.2335 0.675904 14.4877 0.863199 14.6753C1.05049 14.8628 1.30459 14.9683 1.56963 14.9686C1.83537 14.9686 2.08578 14.8666 2.27461 14.6778L7.85645 9.09289L13.4166 14.6558C13.6144 14.8595 13.8673 14.9686 14.1405 14.9686C14.4053 14.968 14.6591 14.8624 14.8461 14.6749C15.0331 14.4874 15.138 14.2333 15.1378 13.9685C15.1378 13.7025 15.0361 13.4523 14.847 13.2632L9.2797 7.67271L9.28098 7.67858V7.67884ZM42.3962 7.6773C42.3964 8.15914 42.5879 8.62119 42.9286 8.9619C43.2693 9.30261 43.7313 9.49411 44.2132 9.49431C45.2105 9.49431 46.0243 8.68022 46.0243 7.67756C46.0243 6.67439 45.2105 5.8603 44.2116 5.8603C43.2131 5.8603 42.4005 6.67439 42.4005 7.6773H42.3962ZM38.9584 7.6773C38.9584 4.77715 41.3133 2.41512 44.2119 2.41512C47.1044 2.41512 49.4636 4.7774 49.4636 7.6773C49.4636 10.5775 47.1059 12.9395 44.2116 12.9395C41.3146 12.9395 38.9581 10.5803 38.9581 7.6773H38.9584ZM36.8912 7.6773C36.8912 11.7184 40.1765 15.0095 44.2119 15.0095C48.2471 15.0095 51.5323 11.7214 51.5323 7.67858C51.5323 3.63778 48.2471 0.34668 44.2116 0.34668C40.1749 0.34668 36.8912 3.63625 36.8912 7.67884V7.6773ZM36.3725 0.471629H36.0669C35.144 0.471629 34.2543 0.762412 33.5117 1.33657C33.4098 0.89196 33.0086 0.551606 32.5318 0.551606C32.4015 0.551671 32.2726 0.577475 32.1523 0.627535C32.032 0.677596 31.9228 0.750927 31.831 0.843314C31.7392 0.935701 31.6665 1.04532 31.6171 1.16588C31.5678 1.28645 31.5427 1.41557 31.5434 1.54584L31.5463 13.8944C31.5463 14.4425 31.997 14.8889 32.542 14.8889C32.8065 14.8885 33.0601 14.7833 33.2472 14.5964C33.4344 14.4095 33.5399 14.1561 33.5406 13.8916V6.29775C33.5406 3.76861 33.7731 2.74525 35.9361 2.47491C36.1398 2.45012 36.3549 2.45447 36.3577 2.45447C36.948 2.43275 37.3696 2.02417 37.3696 1.47327C37.369 1.20768 37.263 0.953187 37.0749 0.765675C36.8868 0.578162 36.632 0.472957 36.3664 0.473161L36.3723 0.471629H36.3725ZM17.2047 6.47227C17.2047 6.44314 17.2077 6.41401 17.209 6.38795C17.7878 4.09133 19.8634 2.39493 22.3332 2.39493C24.8335 2.39493 26.9267 4.13042 27.4789 6.46793H17.2034L17.2047 6.47227ZM29.5213 6.28318C29.091 4.24388 27.9761 2.56792 26.2797 1.49218C23.7971 -0.0864289 20.5203 0.000704646 18.1248 1.71014C16.1683 3.10119 15.0389 5.38069 15.0389 7.72815C15.0389 8.31687 15.1114 8.91121 15.2568 9.49738C15.9953 12.4044 18.4927 14.6083 21.4698 14.9732C22.3534 15.0805 23.214 15.0312 24.1009 14.7987C24.8682 14.6096 25.6082 14.3014 26.29 13.8624C26.9977 13.4076 27.5895 12.8056 28.1652 12.0861C28.1739 12.0717 28.1857 12.0615 28.1972 12.047C28.5955 11.5528 28.5212 10.846 28.0852 10.5118C27.716 10.2284 27.0966 10.1137 26.6111 10.7387C26.5064 10.89 26.3888 11.044 26.2624 11.1966C25.8742 11.6254 25.3931 12.0398 24.8174 12.3623C24.0612 12.7659 23.218 12.979 22.3608 12.9832C19.4566 12.9497 17.904 10.9188 17.3501 9.47106C17.2534 9.19643 17.179 8.91445 17.1278 8.62784L17.1132 8.4753H27.5359C28.9632 8.44336 29.7308 7.43303 29.5184 6.28038L29.5213 6.28318Z"
  fill="#1FC0E7" />
</svg>
