<svg xmlns="http://www.w3.org/2000/svg" viewBox="81.77 722.34 5836.47 1121.01">
  <path d="M2022.3 722.68v-.01m0 .01v-.01l-.03-.33m55.53 194.18h-.01m.01 0v-.01" style="fill:#073577"/>
  <path d="M1003.27 1833.34c-15.9-14.07-41.03-33.61-72.05-49.98-.34-.19-.69-.38-1.03-.56-.02-.02-.06-.03-.08-.04-3.45-1.87-7-3.63-10.66-5.33h-.01c-27.05-12.57-60.37-21.29-107.99-30.64-28.46-5.57-49.35-11.23-131.95-23.15-185.11-26.7-221.1-30.79-267.83-41.1-83.56-18.43-121.29-44.78-141.78-79.32-33.93-57.19-25.49-112.04-24.32-141.62 31.06 24.75 74.35 46.83 130.04 61.14 52.53 13.49 62.35 15.1 197.52 43.66 58.57 12.36 114.06 25.15 178.25 43.52 14.61 4.18 27.46 8.01 38.92 11.59.06.02.1.03.17.06 49.48 15.47 72.14 26.76 94.77 40.35 34.31 20.61 65.39 41.33 90.45 84 .02.02.02.03.03.06.48.77.93 1.55 1.38 2.34 13.3 23.36 20.28 46.55 23.78 66.8 1.1 6.4 1.88 12.5 2.39 18.22z" style="fill:#00a5b2"/>
  <path d="M977.1 1682.54c-24.77-43.76-52.21-61.87-91.86-86.39-27.67-17.11-56-29.7-133.86-52-64.2-18.37-119.69-31.16-178.26-43.52-135.17-28.56-144.99-30.18-197.52-43.67-78.27-20.11-132.04-55.56-161.81-92.23-52.43-64.56-45.09-156.11-50.07-205.61 7.25 6.99 15.2 13.79 23.87 20.32 23.94 18.04 96.07 56.56 172.38 86.47 136.31 53.43 189.36 61.44 339.87 119.28 36.45 14 65.82 26.02 91.55 39.04.41.2.82.41 1.24.64a384.398 384.398 0 0 1 80.31 54.03c23.61 20.68 54.43 47.26 77.17 92.63 21 41.86 26.37 82.06 26.99 111.01z" style="fill:#007fa5"/>
  <path d="M950.13 1506.03c-22.74-45.37-53.56-71.95-77.17-92.63a384.398 384.398 0 0 0-80.31-54.03c-.43-.23-.84-.44-1.24-.64-25.72-13.02-55.1-25.04-91.55-39.04-150.51-57.85-203.56-65.86-339.87-119.28-76.32-29.92-148.45-68.43-172.38-86.47C75.86 1029.7 86.78 904.29 81.77 815.28c42.59 35.53 92.14 77.12 182.21 129.06 59.22 34.17 167.37 82.79 282.35 136.82 232.31 109.2 254.64 129.95 276.16 146.19 77.98 58.82 105.52 124.98 127.64 278.68zm2277.35-315.41h158.71v642.23h-175.53v-394.57l-169.22 204.63-169.23-200.43v390.37h-175.53v-642.23h158.71l186.04 211.98 186.05-211.98zm859.78 321.12c0 256.05-180.79 331.61-311.12 331.61s-313.22-75.56-313.22-331.61c0-255 188.14-331.61 313.22-331.61s311.12 74.5 311.12 331.61zm-432 0c0 110.19 38.89 179.45 120.88 179.45 85.14 0 118.77-69.26 118.77-179.45 0-82.9-25.23-176.3-118.77-176.3s-120.88 93.39-120.88 176.3zm878.7 7.34v-328.46h175.53v642.23h-175.53l-194.45-316.92v316.92h-175.53v-642.23h175.53l194.45 328.46zm673.74-86.05V1581h-241.75v83.95h309.02v167.9h-484.55v-642.23h484.55v167.9h-309.02v74.51h241.75zm710.54-242.41-221.78 380.93v261.3h-175.53v-261.3l-220.73-380.93h175.53l133.49 226.67 133.49-226.67h175.53zm-4221.35 642.72H1168.7v-95.94l332.46-424.6h-303.01v-121.58h489.65v97.38l-323.36 422.21h332.46v122.53zm183.26 0h-140.58v-642.12h140.58v642.12zm526.23 0h-438.85v-642.12h140.58v515.79h298.26v126.33z" style="fill:#415a80"/>
</svg>
