<svg width="351" height="157" viewBox="0 0 351 157" fill="none" xmlns="http://www.w3.org/2000/svg">
<path d="M268.5 53.3V70.3001L217.6 136.4H269.9V156.7H182.9V139.7L235.1 73.6H184.4V53.3H268.5Z" fill="#415A80"/>
<path d="M296.501 47.2C304.301 47.2 309.801 52.5999 309.801 60.0999C309.801 67.4999 304.301 72.9 296.501 72.9C288.801 72.9 283.301 67.4999 283.301 60.0999C283.301 52.5999 288.801 47.2 296.501 47.2ZM285.001 82.3H308.001V156.7H285.001V82.3Z" fill="#415A80"/>
<path d="M327.801 49H350.801V156.7H327.801V49Z" fill="#415A80"/>
<path d="M1.1 3.3999C9.70001 9.4999 18.4 16.9999 40.3 26.9999C104.3 55.9999 89.1 48.9999 112.7 59.5999C138.9 71.3999 147.3 96.3999 151.5 113C154.9 127.5 156.8 141.8 159.4 156.7C146 147.4 137 144.6 119.7 141.7C102.8 138.9 95.2 138.3 72.9 136.3C57.5 134.9 49.6 132.3 43.4 125.7C36.5 118.3 36 109.9 35.3 102.8C32.2 100.8 23.7 94.8999 18.5 82.5999C14.2 72.2999 14.4 62.7999 14.8 58.5999C11.4 54.1999 6.1 45.9999 2.9 34.0999C-0.599995 20.6999 0.300005 9.2999 1.1 3.3999Z" fill="#A5D4DC"/>
<path d="M28.6 89.9999C26.4 87.0999 24.6 83.9999 23 80.8999L28.6 89.9999Z" fill="#34AA00"/>
<path d="M163.1 153.3C149.7 144 140.7 141.2 123.4 138.3C106.5 135.5 98.9004 134.9 76.6004 132.9C61.2004 131.5 53.3004 128.9 47.1004 122.3C40.2004 114.9 40.6004 102.2 39.9004 95.1001C59.0004 106 87.6004 109.3 107.7 114.8C131.3 121.1 141.9 127.5 163.1 153.3Z" fill="#00A5B2"/>
<path d="M163.1 153.3C141.9 127.5 131.3 121.1 107.7 114.7C87.5002 109.3 58.1002 110.2 39.0002 99.4C37.0002 98.2 33.0002 95.4 29.0002 90.5C28.9002 90.4 28.8002 90.2 28.7002 90.1C26.5002 87.2 24.7002 84.1 23.1002 81C22.8002 80.4 22.6002 79.9 22.3002 79.3C18.4002 69.9 18.2002 61.2 18.5002 56.6C18.5002 56.2 19.0002 51.8 19.0002 51.5C31.9002 69.8 80.5002 73.7 116.9 95.7C130.1 103.5 147.9 119.3 163.1 153.3Z" fill="#007FA5"/>
<path d="M163.1 153.3C148 119.3 130.2 103.5 116.8 95.5C80.5001 73.5 31.4001 73.6 18.5001 55.3C17.6001 54.1 16.8001 52.9 16.1001 51.7C11.6001 44.7 8.90009 38.1 7.50009 33.7C7.20009 32.8 6.90009 31.8 6.70009 30.8C3.00009 17.4 3.90009 6 4.80009 0C13.4001 6.1 22.1001 13.6 44.0001 23.6C108 52.6 92.8001 45.6 116.4 56.2C142.6 68 151 93 155.2 109.6C158.5 124.1 160.5 138.4 163.1 153.3Z" fill="#415A80"/>
</svg>
