<svg xmlns="http://www.w3.org/2000/svg" width="21.495" height="20.66" viewBox="0 0 21.495 20.66">
  <g id="Group_22" data-name="Group 22" transform="translate(-408.825 1367.47)">
    <path id="Path_9" data-name="Path 9" d="M205.15,52.07a24.22,24.22,0,0,0,5.17,3.11c8.44,3.83,6.45,2.9,9.56,4.3,3.45,1.56,4.56,4.85,5.11,7.05.44,1.91.7,3.8,1,5.76a11.17,11.17,0,0,0-5.24-2c-2.24-.37-3.24-.44-6.19-.72-2-.18-3.07-.52-3.89-1.4a4.48,4.48,0,0,1-1.06-3,5.81,5.81,0,0,1-2.21-2.66,6.79,6.79,0,0,1-.49-3.17,9.28,9.28,0,0,1-1.58-3.23,10.06,10.06,0,0,1-.18-4.04Z" transform="translate(203.8 -1419.1)" fill="#a4d3dc"/>
    <path id="Path_10" data-name="Path 10" d="M208.77,63.51A6.75,6.75,0,0,1,208,62.3" transform="translate(203.8 -1419.1)" fill="#37aa49"/>
    <path id="Path_11" data-name="Path 11" d="M226.52,71.86a11.11,11.11,0,0,0-5.24-2c-2.24-.38-3.24-.45-6.19-.72-2-.18-3.07-.52-3.89-1.39s-.86-2.64-.95-3.59c2.52,1.44,6.29,1.88,8.95,2.6C222.32,67.61,223.71,68.46,226.52,71.86Z" transform="translate(203.8 -1419.1)" fill="#00a6b3"/>
    <path id="Path_12" data-name="Path 12" d="M226.52,71.86c-2.81-3.4-4.2-4.25-7.32-5.09-2.66-.72-6.55-.59-9.06-2a5.39,5.39,0,0,1-1.33-1.18h0v-.05A8.141,8.141,0,0,1,208,62.3c0-.08-.07-.14-.1-.22a6.64,6.64,0,0,1-.5-3c0-.06.06-.63.06-.68,1.71,2.42,8.13,2.92,12.92,5.83C222.17,65.29,224.52,67.37,226.52,71.86Z" transform="translate(203.8 -1419.1)" fill="#0a80a6"/>
    <path id="Path_13" data-name="Path 13" d="M226.52,71.86c-2-4.49-4.35-6.57-6.11-7.63-4.79-2.91-11.27-2.89-13-5.31-.12-.16-.22-.32-.32-.48A10.07,10.07,0,0,1,206,56.06l-.12-.37a10.51,10.51,0,0,1-.24-4.06,24.37,24.37,0,0,0,5.18,3.11c8.44,3.83,6.44,2.89,9.55,4.29,3.46,1.56,4.57,4.86,5.12,7.06C225.91,68,226.18,69.9,226.52,71.86Z" transform="translate(203.8 -1419.1)" fill="#425b81"/>
    <path id="Path_14" data-name="Path 14" d="M208.81,63.57h0" transform="translate(203.8 -1419.1)" fill="none"/>
  </g>
</svg>
